<?xml version="1.0" encoding="UTF-8" standalone="no"?>
<!DOCTYPE svg PUBLIC "-//W3C//DTD SVG 1.1//EN"
 "http://www.w3.org/Graphics/SVG/1.1/DTD/svg11.dtd">
<!-- Generated by graphviz version 2.38.0 (20140413.2041)
 -->
<!-- Title: ClassDefault Pages: 1 -->
<svg width="1404pt" height="497pt"
 viewBox="0.00 0.00 1403.65 497.00" xmlns="http://www.w3.org/2000/svg" xmlns:xlink="http://www.w3.org/1999/xlink">
<g id="graph0" class="graph" transform="scale(1 1) rotate(0) translate(4 493)">
<title>ClassDefault</title>
<polygon fill="white" stroke="none" points="-4,4 -4,-493 1399.65,-493 1399.65,4 -4,4"/>
<text text-anchor="middle" x="697.825" y="-22.8" font-family="Times New Roman,serif" font-size="14.00">_____________________________</text>
<text text-anchor="middle" x="697.825" y="-7.8" font-family="Times New Roman,serif" font-size="14.00"> eq(jClass.name,tClass.tName)</text>
<!-- typeGraphToJContainer : ExtendedJamoppJavaContainerToTypeGraph -->
<g id="node1" class="node"><title>typeGraphToJContainer : ExtendedJamoppJavaContainerToTypeGraph</title>
<polygon fill="none" stroke="black" points="1214.06,-471 1057.1,-489 743.196,-489 586.241,-471 743.196,-453 1057.1,-453 1214.06,-471"/>
<text text-anchor="middle" x="900.15" y="-467.3" font-family="Times New Roman,serif" font-size="14.00">typeGraphToJContainer : ExtendedJamoppJavaContainerToTypeGraph</text>
</g>
<!-- jContainer : ExtendedJamoppJavaContainer -->
<g id="node5" class="node"><title>jContainer : ExtendedJamoppJavaContainer</title>
<polygon fill="none" stroke="black" points="93.6501,-358.5 93.6501,-404.5 352.65,-404.5 352.65,-358.5 93.6501,-358.5"/>
<text text-anchor="middle" x="223.15" y="-389.3" font-family="Times New Roman,serif" font-size="14.00">jContainer : ExtendedJamoppJavaContainer</text>
<polyline fill="none" stroke="black" points="93.6501,-381.5 352.65,-381.5 "/>
<text text-anchor="middle" x="223.15" y="-366.3" font-family="Times New Roman,serif" font-size="14.00"> </text>
</g>
<!-- typeGraphToJContainer : ExtendedJamoppJavaContainerToTypeGraph&#45;&gt;jContainer : ExtendedJamoppJavaContainer -->
<g id="edge1" class="edge"><title>typeGraphToJContainer : ExtendedJamoppJavaContainerToTypeGraph&#45;&gt;jContainer : ExtendedJamoppJavaContainer</title>
<path fill="none" stroke="black" d="M768.413,-452.973C651.797,-437.901 482.111,-415.97 363.088,-400.587"/>
<polygon fill="black" stroke="black" points="363.179,-397.069 352.813,-399.258 362.282,-404.011 363.179,-397.069"/>
<text text-anchor="middle" x="637.15" y="-426.2" font-family="Times New Roman,serif" font-size="11.00">source</text>
</g>
<!-- typeGraph : TypeGraph -->
<g id="node6" class="node"><title>typeGraph : TypeGraph</title>
<polygon fill="none" stroke="black" points="1244.65,-293.5 1244.65,-339.5 1395.65,-339.5 1395.65,-293.5 1244.65,-293.5"/>
<text text-anchor="middle" x="1320.15" y="-324.3" font-family="Times New Roman,serif" font-size="14.00">typeGraph : TypeGraph</text>
<polyline fill="none" stroke="black" points="1244.65,-316.5 1395.65,-316.5 "/>
<text text-anchor="middle" x="1320.15" y="-301.3" font-family="Times New Roman,serif" font-size="14.00"> </text>
</g>
<!-- typeGraphToJContainer : ExtendedJamoppJavaContainerToTypeGraph&#45;&gt;typeGraph : TypeGraph -->
<g id="edge2" class="edge"><title>typeGraphToJContainer : ExtendedJamoppJavaContainerToTypeGraph&#45;&gt;typeGraph : TypeGraph</title>
<path fill="none" stroke="black" d="M947.538,-452.933C983.844,-439.846 1035.18,-421.319 1080.15,-405 1137.29,-384.267 1202.04,-360.654 1249.87,-343.187"/>
<polygon fill="black" stroke="black" points="1251.31,-346.386 1259.51,-339.668 1248.91,-339.811 1251.31,-346.386"/>
<text text-anchor="middle" x="1040.15" y="-426.2" font-family="Times New Roman,serif" font-size="11.00">target</text>
</g>
<!-- jPackageToTPackage : ExtendedJamoppPackageElementToTPackage -->
<g id="node2" class="node"><title>jPackageToTPackage : ExtendedJamoppPackageElementToTPackage</title>
<polygon fill="none" stroke="black" points="1071.55,-381.5 918.35,-399.5 611.951,-399.5 458.751,-381.5 611.951,-363.5 918.35,-363.5 1071.55,-381.5"/>
<text text-anchor="middle" x="765.15" y="-377.8" font-family="Times New Roman,serif" font-size="14.00">jPackageToTPackage : ExtendedJamoppPackageElementToTPackage</text>
</g>
<!-- tPackage : TPackage -->
<g id="node7" class="node"><title>tPackage : TPackage</title>
<polygon fill="none" stroke="black" points="1195.65,-228.5 1195.65,-274.5 1328.65,-274.5 1328.65,-228.5 1195.65,-228.5"/>
<text text-anchor="middle" x="1262.15" y="-259.3" font-family="Times New Roman,serif" font-size="14.00">tPackage : TPackage</text>
<polyline fill="none" stroke="black" points="1195.65,-251.5 1328.65,-251.5 "/>
<text text-anchor="middle" x="1262.15" y="-236.3" font-family="Times New Roman,serif" font-size="14.00"> </text>
</g>
<!-- jPackageToTPackage : ExtendedJamoppPackageElementToTPackage&#45;&gt;tPackage : TPackage -->
<g id="edge3" class="edge"><title>jPackageToTPackage : ExtendedJamoppPackageElementToTPackage&#45;&gt;tPackage : TPackage</title>
<path fill="none" stroke="black" d="M836.902,-363.498C918.755,-343.881 1056.81,-310.129 1185.43,-275.151"/>
<polygon fill="black" stroke="black" points="1186.74,-278.423 1195.47,-272.415 1184.9,-271.669 1186.74,-278.423"/>
<text text-anchor="middle" x="1130.15" y="-313.7" font-family="Times New Roman,serif" font-size="11.00">target</text>
</g>
<!-- jPackage : ExtendedJamoppPackageElement -->
<g id="node8" class="node"><title>jPackage : ExtendedJamoppPackageElement</title>
<polygon fill="none" stroke="black" points="91.1501,-228.5 91.1501,-274.5 355.15,-274.5 355.15,-228.5 91.1501,-228.5"/>
<text text-anchor="middle" x="223.15" y="-259.3" font-family="Times New Roman,serif" font-size="14.00">jPackage : ExtendedJamoppPackageElement</text>
<polyline fill="none" stroke="black" points="91.1501,-251.5 355.15,-251.5 "/>
<text text-anchor="middle" x="223.15" y="-236.3" font-family="Times New Roman,serif" font-size="14.00"> </text>
</g>
<!-- jPackageToTPackage : ExtendedJamoppPackageElementToTPackage&#45;&gt;jPackage : ExtendedJamoppPackageElement -->
<g id="edge4" class="edge"><title>jPackageToTPackage : ExtendedJamoppPackageElementToTPackage&#45;&gt;jPackage : ExtendedJamoppPackageElement</title>
<path fill="none" stroke="black" d="M692.897,-363.436C598.85,-341.226 433.875,-302.265 326.582,-276.927"/>
<polygon fill="black" stroke="black" points="327.242,-273.486 316.706,-274.594 325.633,-280.299 327.242,-273.486"/>
<text text-anchor="middle" x="604.15" y="-313.7" font-family="Times New Roman,serif" font-size="11.00">source</text>
</g>
<!-- jClassToTClass : ClassToTClass -->
<g id="node3" class="node"><title>jClassToTClass : ClassToTClass</title>
<polygon fill="none" stroke="green" points="1177.35,-251.5 1100.75,-269.5 947.55,-269.5 870.951,-251.5 947.55,-233.5 1100.75,-233.5 1177.35,-251.5"/>
<text text-anchor="middle" x="1024.15" y="-247.8" font-family="Times New Roman,serif" font-size="14.00">jClassToTClass : ClassToTClass</text>
</g>
<!-- tClass : TClass -->
<g id="node9" class="node"><title>tClass : TClass</title>
<polygon fill="none" stroke="green" points="1068.65,-133.5 1068.65,-179.5 1169.65,-179.5 1169.65,-133.5 1068.65,-133.5"/>
<text text-anchor="middle" x="1119.15" y="-164.3" font-family="Times New Roman,serif" font-size="14.00">tClass : TClass</text>
<polyline fill="none" stroke="green" points="1068.65,-156.5 1169.65,-156.5 "/>
<text text-anchor="middle" x="1119.15" y="-141.3" font-family="Times New Roman,serif" font-size="14.00"> </text>
</g>
<!-- jClassToTClass : ClassToTClass&#45;&gt;tClass : TClass -->
<g id="edge5" class="edge"><title>jClassToTClass : ClassToTClass&#45;&gt;tClass : TClass</title>
<path fill="none" stroke="green" d="M1041.57,-233.442C1054.83,-220.464 1073.4,-202.287 1089.05,-186.971"/>
<polygon fill="green" stroke="green" points="1091.76,-189.213 1096.46,-179.717 1086.86,-184.211 1091.76,-189.213"/>
<text text-anchor="middle" x="1090.15" y="-201.2" font-family="Times New Roman,serif" font-size="11.00">target</text>
</g>
<!-- jClass : Class -->
<g id="node10" class="node"><title>jClass : Class</title>
<polygon fill="none" stroke="green" points="612.15,-38.5 612.15,-84.5 704.15,-84.5 704.15,-38.5 612.15,-38.5"/>
<text text-anchor="middle" x="658.15" y="-69.3" font-family="Times New Roman,serif" font-size="14.00">jClass : Class</text>
<polyline fill="none" stroke="green" points="612.15,-61.5 704.15,-61.5 "/>
<text text-anchor="middle" x="658.15" y="-46.3" font-family="Times New Roman,serif" font-size="14.00"> </text>
</g>
<!-- jClassToTClass : ClassToTClass&#45;&gt;jClass : Class -->
<g id="edge6" class="edge"><title>jClassToTClass : ClassToTClass&#45;&gt;jClass : Class</title>
<path fill="none" stroke="green" d="M923.32,-239.122C892.659,-233.116 859.577,-223.958 831.15,-210 771.619,-180.77 715.705,-126.366 684.307,-92.4273"/>
<polygon fill="green" stroke="green" points="686.565,-89.7098 677.239,-84.6829 681.395,-94.4286 686.565,-89.7098"/>
<text text-anchor="middle" x="796.15" y="-153.7" font-family="Times New Roman,serif" font-size="11.00">source</text>
</g>
<!-- compilationUnitToTClass : CompilationUnitToTClass -->
<g id="node4" class="node"><title>compilationUnitToTClass : CompilationUnitToTClass</title>
<polygon fill="none" stroke="green" points="853.463,-251.5 733.307,-269.5 492.994,-269.5 372.837,-251.5 492.994,-233.5 733.307,-233.5 853.463,-251.5"/>
<text text-anchor="middle" x="613.15" y="-247.8" font-family="Times New Roman,serif" font-size="14.00">compilationUnitToTClass : CompilationUnitToTClass</text>
</g>
<!-- compilationUnitToTClass : CompilationUnitToTClass&#45;&gt;tClass : TClass -->
<g id="edge8" class="edge"><title>compilationUnitToTClass : CompilationUnitToTClass&#45;&gt;tClass : TClass</title>
<path fill="none" stroke="green" d="M705.664,-233.496C808.26,-214.64 970.822,-184.762 1058.43,-168.661"/>
<polygon fill="green" stroke="green" points="1059.27,-172.064 1068.47,-166.814 1058,-165.18 1059.27,-172.064"/>
<text text-anchor="middle" x="909.15" y="-201.2" font-family="Times New Roman,serif" font-size="11.00">target</text>
</g>
<!-- compilationUnit : CompilationUnit -->
<g id="node11" class="node"><title>compilationUnit : CompilationUnit</title>
<polygon fill="none" stroke="green" points="352.65,-133.5 352.65,-179.5 559.65,-179.5 559.65,-133.5 352.65,-133.5"/>
<text text-anchor="middle" x="456.15" y="-164.3" font-family="Times New Roman,serif" font-size="14.00">compilationUnit : CompilationUnit</text>
<polyline fill="none" stroke="green" points="352.65,-156.5 559.65,-156.5 "/>
<text text-anchor="middle" x="456.15" y="-141.3" font-family="Times New Roman,serif" font-size="14.00"> </text>
</g>
<!-- compilationUnitToTClass : CompilationUnitToTClass&#45;&gt;compilationUnit : CompilationUnit -->
<g id="edge7" class="edge"><title>compilationUnitToTClass : CompilationUnitToTClass&#45;&gt;compilationUnit : CompilationUnit</title>
<path fill="none" stroke="green" d="M584.354,-233.442C561.369,-219.827 528.725,-200.49 502.131,-184.737"/>
<polygon fill="green" stroke="green" points="503.754,-181.63 493.366,-179.545 500.186,-187.653 503.754,-181.63"/>
<text text-anchor="middle" x="558.15" y="-201.2" font-family="Times New Roman,serif" font-size="11.00">source</text>
</g>
<!-- jContainer : ExtendedJamoppJavaContainer&#45;&gt;jPackage : ExtendedJamoppPackageElement -->
<g id="edge11" class="edge"><title>jContainer : ExtendedJamoppJavaContainer&#45;&gt;jPackage : ExtendedJamoppPackageElement</title>
<path fill="none" stroke="black" d="M223.15,-358.496C223.15,-338.165 223.15,-307.71 223.15,-284.655"/>
<polygon fill="black" stroke="black" points="226.65,-284.645 223.15,-274.645 219.65,-284.645 226.65,-284.645"/>
<text text-anchor="middle" x="297.15" y="-313.7" font-family="Times New Roman,serif" font-size="11.00">extendedJamoppPackageElement</text>
</g>
<!-- jContainer : ExtendedJamoppJavaContainer&#45;&gt;compilationUnit : CompilationUnit -->
<g id="edge12" class="edge"><title>jContainer : ExtendedJamoppJavaContainer&#45;&gt;compilationUnit : CompilationUnit</title>
<path fill="none" stroke="green" d="M145.884,-358.421C67.6188,-332.267 -35.4777,-284.978 13.1501,-228 54.6904,-179.326 225.45,-164.092 342.41,-159.422"/>
<polygon fill="green" stroke="green" points="342.635,-162.916 352.495,-159.04 342.37,-155.921 342.635,-162.916"/>
<text text-anchor="middle" x="47.6501" y="-248.7" font-family="Times New Roman,serif" font-size="11.00">compilationUnit</text>
</g>
<!-- typeGraph : TypeGraph&#45;&gt;tClass : TClass -->
<g id="edge14" class="edge"><title>typeGraph : TypeGraph&#45;&gt;tClass : TClass</title>
<path fill="none" stroke="green" d="M1332.93,-293.49C1341.93,-274.818 1350.39,-247.963 1338.15,-228 1321.3,-200.521 1238.63,-179.667 1179.85,-168.007"/>
<polygon fill="green" stroke="green" points="1180.38,-164.547 1169.9,-166.077 1179.05,-171.418 1180.38,-164.547"/>
<text text-anchor="middle" x="1360.15" y="-248.7" font-family="Times New Roman,serif" font-size="11.00">classes</text>
</g>
<!-- tPackage : TPackage&#45;&gt;tClass : TClass -->
<g id="edge13" class="edge"><title>tPackage : TPackage&#45;&gt;tClass : TClass</title>
<path fill="none" stroke="green" d="M1228.26,-228.46C1208.37,-215.525 1183.05,-199.059 1161.81,-185.246"/>
<polygon fill="green" stroke="green" points="1163.58,-182.222 1153.29,-179.704 1159.77,-188.09 1163.58,-182.222"/>
<text text-anchor="middle" x="1237.15" y="-201.2" font-family="Times New Roman,serif" font-size="11.00">containedClasses</text>
</g>
<!-- jPackage : ExtendedJamoppPackageElement&#45;&gt;compilationUnit : CompilationUnit -->
<g id="edge10" class="edge"><title>jPackage : ExtendedJamoppPackageElement&#45;&gt;compilationUnit : CompilationUnit</title>
<path fill="none" stroke="green" d="M278.368,-228.46C312.34,-214.901 356.03,-197.462 391.598,-183.266"/>
<polygon fill="green" stroke="green" points="392.935,-186.5 400.925,-179.542 390.34,-179.999 392.935,-186.5"/>
<text text-anchor="middle" x="388.65" y="-201.2" font-family="Times New Roman,serif" font-size="11.00">compilationUnit</text>
</g>
<!-- compilationUnit : CompilationUnit&#45;&gt;jClass : Class -->
<g id="edge9" class="edge"><title>compilationUnit : CompilationUnit&#45;&gt;jClass : Class</title>
<path fill="none" stroke="green" d="M504.021,-133.46C533.626,-119.83 571.744,-102.281 602.665,-88.045"/>
<polygon fill="green" stroke="green" points="604.393,-91.1027 612.013,-83.7413 601.466,-84.7442 604.393,-91.1027"/>
<text text-anchor="middle" x="591.15" y="-106.2" font-family="Times New Roman,serif" font-size="11.00">classifiers</text>
</g>
</g>
</svg>
