<?xml version="1.0" encoding="UTF-8" standalone="no"?>
<!DOCTYPE svg PUBLIC "-//W3C//DTD SVG 1.1//EN"
 "http://www.w3.org/Graphics/SVG/1.1/DTD/svg11.dtd">
<!-- Generated by graphviz version 2.38.0 (20140413.2041)
 -->
<!-- Title: FieldTypePrimitiveDouble Pages: 1 -->
<svg width="916pt" height="234pt"
 viewBox="0.00 0.00 916.00 234.00" xmlns="http://www.w3.org/2000/svg" xmlns:xlink="http://www.w3.org/1999/xlink">
<g id="graph0" class="graph" transform="scale(1 1) rotate(0) translate(4 230)">
<title>FieldTypePrimitiveDouble</title>
<polygon fill="white" stroke="none" points="-4,4 -4,-230 912,-230 912,4 -4,4"/>
<!-- tFieldSignatureToJField : FieldToTFieldSignature -->
<g id="node1" class="node"><title>tFieldSignatureToJField : FieldToTFieldSignature</title>
<polygon fill="none" stroke="black" points="656.786,-208 546.893,-226 327.107,-226 217.214,-208 327.107,-190 546.893,-190 656.786,-208"/>
<text text-anchor="middle" x="437" y="-204.3" font-family="Times New Roman,serif" font-size="14.00">tFieldSignatureToJField : FieldToTFieldSignature</text>
</g>
<!-- tFieldSignature : TFieldSignature -->
<g id="node3" class="node"><title>tFieldSignature : TFieldSignature</title>
<polygon fill="none" stroke="black" points="584.5,-95.5 584.5,-141.5 783.5,-141.5 783.5,-95.5 584.5,-95.5"/>
<text text-anchor="middle" x="684" y="-126.3" font-family="Times New Roman,serif" font-size="14.00">tFieldSignature : TFieldSignature</text>
<polyline fill="none" stroke="black" points="584.5,-118.5 783.5,-118.5 "/>
<text text-anchor="middle" x="684" y="-103.3" font-family="Times New Roman,serif" font-size="14.00"> </text>
</g>
<!-- tFieldSignatureToJField : FieldToTFieldSignature&#45;&gt;tFieldSignature : TFieldSignature -->
<g id="edge1" class="edge"><title>tFieldSignatureToJField : FieldToTFieldSignature&#45;&gt;tFieldSignature : TFieldSignature</title>
<path fill="none" stroke="black" d="M485.21,-189.921C521.343,-177.121 571.38,-159.396 612.212,-144.931"/>
<polygon fill="black" stroke="black" points="613.586,-148.157 621.843,-141.519 611.249,-141.559 613.586,-148.157"/>
<text text-anchor="middle" x="581" y="-163.2" font-family="Times New Roman,serif" font-size="11.00">target</text>
</g>
<!-- jField : Field -->
<g id="node4" class="node"><title>jField : Field</title>
<polygon fill="none" stroke="black" points="0,-95.5 0,-141.5 86,-141.5 86,-95.5 0,-95.5"/>
<text text-anchor="middle" x="43" y="-126.3" font-family="Times New Roman,serif" font-size="14.00">jField : Field</text>
<polyline fill="none" stroke="black" points="0,-118.5 86,-118.5 "/>
<text text-anchor="middle" x="43" y="-103.3" font-family="Times New Roman,serif" font-size="14.00"> </text>
</g>
<!-- tFieldSignatureToJField : FieldToTFieldSignature&#45;&gt;jField : Field -->
<g id="edge2" class="edge"><title>tFieldSignatureToJField : FieldToTFieldSignature&#45;&gt;jField : Field</title>
<path fill="none" stroke="black" d="M319.493,-191.229C255.386,-181.066 174.805,-165.752 95.7715,-141.959"/>
<polygon fill="black" stroke="black" points="96.7285,-138.591 86.1421,-139.015 94.6819,-145.285 96.7285,-138.591"/>
<text text-anchor="middle" x="222" y="-163.2" font-family="Times New Roman,serif" font-size="11.00">source</text>
</g>
<!-- jPrimitiveTypeToTPrimitiveType : DoubleToTClass -->
<g id="node2" class="node"><title>jPrimitiveTypeToTPrimitiveType : DoubleToTClass</title>
<polygon fill="none" stroke="green" points="566.301,-118.5 450.651,-136.5 219.349,-136.5 103.699,-118.5 219.349,-100.5 450.651,-100.5 566.301,-118.5"/>
<text text-anchor="middle" x="335" y="-114.8" font-family="Times New Roman,serif" font-size="14.00">jPrimitiveTypeToTPrimitiveType : DoubleToTClass</text>
</g>
<!-- jPrimitiveType : Double -->
<g id="node5" class="node"><title>jPrimitiveType : Double</title>
<polygon fill="none" stroke="green" points="165.5,-0.5 165.5,-46.5 314.5,-46.5 314.5,-0.5 165.5,-0.5"/>
<text text-anchor="middle" x="240" y="-31.3" font-family="Times New Roman,serif" font-size="14.00">jPrimitiveType : Double</text>
<polyline fill="none" stroke="green" points="165.5,-23.5 314.5,-23.5 "/>
<text text-anchor="middle" x="240" y="-8.3" font-family="Times New Roman,serif" font-size="14.00"> </text>
</g>
<!-- jPrimitiveTypeToTPrimitiveType : DoubleToTClass&#45;&gt;jPrimitiveType : Double -->
<g id="edge3" class="edge"><title>jPrimitiveTypeToTPrimitiveType : DoubleToTClass&#45;&gt;jPrimitiveType : Double</title>
<path fill="none" stroke="green" d="M317.576,-100.442C304.318,-87.4639 285.75,-69.2872 270.104,-53.9707"/>
<polygon fill="green" stroke="green" points="272.289,-51.2111 262.694,-46.7167 267.392,-56.2133 272.289,-51.2111"/>
<text text-anchor="middle" x="309" y="-68.2" font-family="Times New Roman,serif" font-size="11.00">source</text>
</g>
<!-- tPrimitiveType : TClass -->
<g id="node6" class="node"><title>tPrimitiveType : TClass</title>
<polygon fill="none" stroke="black" points="609.5,-0.5 609.5,-46.5 758.5,-46.5 758.5,-0.5 609.5,-0.5"/>
<text text-anchor="middle" x="684" y="-31.3" font-family="Times New Roman,serif" font-size="14.00">tPrimitiveType : TClass</text>
<polyline fill="none" stroke="black" points="609.5,-23.5 758.5,-23.5 "/>
<text text-anchor="middle" x="684" y="-8.3" font-family="Times New Roman,serif" font-size="14.00">tName == &quot;double&quot;</text>
</g>
<!-- jPrimitiveTypeToTPrimitiveType : DoubleToTClass&#45;&gt;tPrimitiveType : TClass -->
<g id="edge4" class="edge"><title>jPrimitiveTypeToTPrimitiveType : DoubleToTClass&#45;&gt;tPrimitiveType : TClass</title>
<path fill="none" stroke="green" d="M399.012,-100.442C455.423,-85.4102 538.003,-63.4046 599.765,-46.9465"/>
<polygon fill="green" stroke="green" points="600.73,-50.3115 609.492,-44.3546 598.928,-43.5476 600.73,-50.3115"/>
<text text-anchor="middle" x="544" y="-68.2" font-family="Times New Roman,serif" font-size="11.00">target</text>
</g>
<!-- tFieldSignature : TFieldSignature&#45;&gt;tPrimitiveType : TClass -->
<g id="edge9" class="edge"><title>tFieldSignature : TFieldSignature&#45;&gt;tPrimitiveType : TClass</title>
<path fill="none" stroke="green" d="M684,-95.4603C684,-83.9622 684,-69.6748 684,-56.9402"/>
<polygon fill="green" stroke="green" points="687.5,-56.7038 684,-46.7038 680.5,-56.7038 687.5,-56.7038"/>
<text text-anchor="middle" x="693.5" y="-68.2" font-family="Times New Roman,serif" font-size="11.00">type</text>
</g>
<!-- tField : TField -->
<g id="node7" class="node"><title>tField : TField</title>
<polygon fill="none" stroke="black" points="784.5,-0.5 784.5,-46.5 879.5,-46.5 879.5,-0.5 784.5,-0.5"/>
<text text-anchor="middle" x="832" y="-31.3" font-family="Times New Roman,serif" font-size="14.00">tField : TField</text>
<polyline fill="none" stroke="black" points="784.5,-23.5 879.5,-23.5 "/>
<text text-anchor="middle" x="832" y="-8.3" font-family="Times New Roman,serif" font-size="14.00"> </text>
</g>
<!-- tFieldSignature : TFieldSignature&#45;&gt;tField : TField -->
<g id="edge8" class="edge"><title>tFieldSignature : TFieldSignature&#45;&gt;tField : TField</title>
<path fill="none" stroke="black" d="M709.834,-95.275C721.921,-85.4039 736.764,-74.0078 751,-65 758.708,-60.1228 767.082,-55.3762 775.425,-50.9514"/>
<polygon fill="black" stroke="black" points="777.163,-53.9929 784.433,-46.2855 773.943,-47.7773 777.163,-53.9929"/>
<text text-anchor="middle" x="760.5" y="-68.2" font-family="Times New Roman,serif" font-size="11.00">field</text>
</g>
<!-- jField : Field&#45;&gt;jPrimitiveType : Double -->
<g id="edge5" class="edge"><title>jField : Field&#45;&gt;jPrimitiveType : Double</title>
<path fill="none" stroke="green" d="M86.2325,-97.0908C114.87,-83.5715 152.723,-65.7018 183.706,-51.0756"/>
<polygon fill="green" stroke="green" points="185.534,-54.083 193.082,-46.6489 182.545,-47.7529 185.534,-54.083"/>
<text text-anchor="middle" x="187" y="-68.2" font-family="Times New Roman,serif" font-size="11.00">typeReference</text>
</g>
<!-- pg : TypeGraph -->
<g id="node8" class="node"><title>pg : TypeGraph</title>
<polygon fill="none" stroke="black" points="802,-95.5 802,-141.5 908,-141.5 908,-95.5 802,-95.5"/>
<text text-anchor="middle" x="855" y="-126.3" font-family="Times New Roman,serif" font-size="14.00">pg : TypeGraph</text>
<polyline fill="none" stroke="black" points="802,-118.5 908,-118.5 "/>
<text text-anchor="middle" x="855" y="-103.3" font-family="Times New Roman,serif" font-size="14.00"> </text>
</g>
<!-- pg : TypeGraph&#45;&gt;tPrimitiveType : TClass -->
<g id="edge7" class="edge"><title>pg : TypeGraph&#45;&gt;tPrimitiveType : TClass</title>
<path fill="none" stroke="black" d="M821.193,-95.3998C805.812,-85.6635 787.231,-74.3399 770,-65 761.295,-60.2814 751.946,-55.5498 742.733,-51.0707"/>
<polygon fill="black" stroke="black" points="744.125,-47.8565 733.595,-46.6855 741.096,-54.1675 744.125,-47.8565"/>
<text text-anchor="middle" x="806" y="-68.2" font-family="Times New Roman,serif" font-size="11.00">classes</text>
</g>
<!-- pg : TypeGraph&#45;&gt;tField : TField -->
<g id="edge6" class="edge"><title>pg : TypeGraph&#45;&gt;tField : TField</title>
<path fill="none" stroke="black" d="M849.549,-95.4603C846.677,-83.8473 843.102,-69.3888 839.928,-56.5587"/>
<polygon fill="black" stroke="black" points="843.29,-55.571 837.491,-46.7038 836.494,-57.2516 843.29,-55.571"/>
<text text-anchor="middle" x="856" y="-68.2" font-family="Times New Roman,serif" font-size="11.00">fields</text>
</g>
</g>
</svg>
