<?xml version="1.0" encoding="UTF-8" standalone="no"?>
<!DOCTYPE svg PUBLIC "-//W3C//DTD SVG 1.1//EN"
 "http://www.w3.org/Graphics/SVG/1.1/DTD/svg11.dtd">
<!-- Generated by graphviz version 2.38.0 (20140413.2041)
 -->
<!-- Title: FieldTypePrimitiveByte Pages: 1 -->
<svg width="973pt" height="234pt"
 viewBox="0.00 0.00 973.00 234.00" xmlns="http://www.w3.org/2000/svg" xmlns:xlink="http://www.w3.org/1999/xlink">
<g id="graph0" class="graph" transform="scale(1 1) rotate(0) translate(4 230)">
<title>FieldTypePrimitiveByte</title>
<polygon fill="white" stroke="none" points="-4,4 -4,-230 969,-230 969,4 -4,4"/>
<!-- tFieldSignatureToJField : FieldToTFieldSignature -->
<g id="node1" class="node"><title>tFieldSignatureToJField : FieldToTFieldSignature</title>
<polygon fill="none" stroke="black" points="691.786,-208 581.893,-226 362.107,-226 252.214,-208 362.107,-190 581.893,-190 691.786,-208"/>
<text text-anchor="middle" x="472" y="-204.3" font-family="Times New Roman,serif" font-size="14.00">tFieldSignatureToJField : FieldToTFieldSignature</text>
</g>
<!-- tFieldSignature : TFieldSignature -->
<g id="node3" class="node"><title>tFieldSignature : TFieldSignature</title>
<polygon fill="none" stroke="black" points="641.5,-95.5 641.5,-141.5 840.5,-141.5 840.5,-95.5 641.5,-95.5"/>
<text text-anchor="middle" x="741" y="-126.3" font-family="Times New Roman,serif" font-size="14.00">tFieldSignature : TFieldSignature</text>
<polyline fill="none" stroke="black" points="641.5,-118.5 840.5,-118.5 "/>
<text text-anchor="middle" x="741" y="-103.3" font-family="Times New Roman,serif" font-size="14.00"> </text>
</g>
<!-- tFieldSignatureToJField : FieldToTFieldSignature&#45;&gt;tFieldSignature : TFieldSignature -->
<g id="edge1" class="edge"><title>tFieldSignatureToJField : FieldToTFieldSignature&#45;&gt;tFieldSignature : TFieldSignature</title>
<path fill="none" stroke="black" d="M524.504,-189.921C564.105,-177.04 619.039,-159.171 663.661,-144.657"/>
<polygon fill="black" stroke="black" points="664.88,-147.941 673.307,-141.519 662.715,-141.284 664.88,-147.941"/>
<text text-anchor="middle" x="628" y="-163.2" font-family="Times New Roman,serif" font-size="11.00">target</text>
</g>
<!-- jField : Field -->
<g id="node4" class="node"><title>jField : Field</title>
<polygon fill="none" stroke="black" points="0,-95.5 0,-141.5 86,-141.5 86,-95.5 0,-95.5"/>
<text text-anchor="middle" x="43" y="-126.3" font-family="Times New Roman,serif" font-size="14.00">jField : Field</text>
<polyline fill="none" stroke="black" points="0,-118.5 86,-118.5 "/>
<text text-anchor="middle" x="43" y="-103.3" font-family="Times New Roman,serif" font-size="14.00"> </text>
</g>
<!-- tFieldSignatureToJField : FieldToTFieldSignature&#45;&gt;jField : Field -->
<g id="edge2" class="edge"><title>tFieldSignatureToJField : FieldToTFieldSignature&#45;&gt;jField : Field</title>
<path fill="none" stroke="black" d="M345.039,-192.765C273.765,-182.955 183.433,-167.488 95.95,-141.983"/>
<polygon fill="black" stroke="black" points="96.7069,-138.557 86.1246,-139.072 94.7185,-145.269 96.7069,-138.557"/>
<text text-anchor="middle" x="233" y="-163.2" font-family="Times New Roman,serif" font-size="11.00">source</text>
</g>
<!-- jPrimitiveTypeToTPrimitiveType : PrimitiveTypeToTClass -->
<g id="node2" class="node"><title>jPrimitiveTypeToTPrimitiveType : PrimitiveTypeToTClass</title>
<polygon fill="none" stroke="green" points="623.838,-118.5 493.919,-136.5 234.081,-136.5 104.162,-118.5 234.081,-100.5 493.919,-100.5 623.838,-118.5"/>
<text text-anchor="middle" x="364" y="-114.8" font-family="Times New Roman,serif" font-size="14.00">jPrimitiveTypeToTPrimitiveType : PrimitiveTypeToTClass</text>
</g>
<!-- tPrimitiveType : TClass -->
<g id="node5" class="node"><title>tPrimitiveType : TClass</title>
<polygon fill="none" stroke="black" points="666.5,-0.5 666.5,-46.5 815.5,-46.5 815.5,-0.5 666.5,-0.5"/>
<text text-anchor="middle" x="741" y="-31.3" font-family="Times New Roman,serif" font-size="14.00">tPrimitiveType : TClass</text>
<polyline fill="none" stroke="black" points="666.5,-23.5 815.5,-23.5 "/>
<text text-anchor="middle" x="741" y="-8.3" font-family="Times New Roman,serif" font-size="14.00">tName == &quot;byte&quot;</text>
</g>
<!-- jPrimitiveTypeToTPrimitiveType : PrimitiveTypeToTClass&#45;&gt;tPrimitiveType : TClass -->
<g id="edge3" class="edge"><title>jPrimitiveTypeToTPrimitiveType : PrimitiveTypeToTClass&#45;&gt;tPrimitiveType : TClass</title>
<path fill="none" stroke="green" d="M433.148,-100.442C496.159,-84.8986 589.396,-61.8984 656.74,-45.2856"/>
<polygon fill="green" stroke="green" points="657.611,-48.6757 666.482,-42.8825 655.935,-41.8795 657.611,-48.6757"/>
<text text-anchor="middle" x="589" y="-68.2" font-family="Times New Roman,serif" font-size="11.00">target</text>
</g>
<!-- jPrimitiveType : Byte -->
<g id="node6" class="node"><title>jPrimitiveType : Byte</title>
<polygon fill="none" stroke="green" points="195,-0.5 195,-46.5 329,-46.5 329,-0.5 195,-0.5"/>
<text text-anchor="middle" x="262" y="-31.3" font-family="Times New Roman,serif" font-size="14.00">jPrimitiveType : Byte</text>
<polyline fill="none" stroke="green" points="195,-23.5 329,-23.5 "/>
<text text-anchor="middle" x="262" y="-8.3" font-family="Times New Roman,serif" font-size="14.00"> </text>
</g>
<!-- jPrimitiveTypeToTPrimitiveType : PrimitiveTypeToTClass&#45;&gt;jPrimitiveType : Byte -->
<g id="edge4" class="edge"><title>jPrimitiveTypeToTPrimitiveType : PrimitiveTypeToTClass&#45;&gt;jPrimitiveType : Byte</title>
<path fill="none" stroke="green" d="M345.292,-100.442C330.928,-87.3459 310.759,-68.9563 293.865,-53.5537"/>
<polygon fill="green" stroke="green" points="296.114,-50.8679 286.367,-46.7167 291.398,-56.0406 296.114,-50.8679"/>
<text text-anchor="middle" x="335" y="-68.2" font-family="Times New Roman,serif" font-size="11.00">source</text>
</g>
<!-- tFieldSignature : TFieldSignature&#45;&gt;tPrimitiveType : TClass -->
<g id="edge6" class="edge"><title>tFieldSignature : TFieldSignature&#45;&gt;tPrimitiveType : TClass</title>
<path fill="none" stroke="green" d="M741,-95.4603C741,-83.9622 741,-69.6748 741,-56.9402"/>
<polygon fill="green" stroke="green" points="744.5,-56.7038 741,-46.7038 737.5,-56.7038 744.5,-56.7038"/>
<text text-anchor="middle" x="750.5" y="-68.2" font-family="Times New Roman,serif" font-size="11.00">type</text>
</g>
<!-- tField : TField -->
<g id="node8" class="node"><title>tField : TField</title>
<polygon fill="none" stroke="black" points="841.5,-0.5 841.5,-46.5 936.5,-46.5 936.5,-0.5 841.5,-0.5"/>
<text text-anchor="middle" x="889" y="-31.3" font-family="Times New Roman,serif" font-size="14.00">tField : TField</text>
<polyline fill="none" stroke="black" points="841.5,-23.5 936.5,-23.5 "/>
<text text-anchor="middle" x="889" y="-8.3" font-family="Times New Roman,serif" font-size="14.00"> </text>
</g>
<!-- tFieldSignature : TFieldSignature&#45;&gt;tField : TField -->
<g id="edge9" class="edge"><title>tFieldSignature : TFieldSignature&#45;&gt;tField : TField</title>
<path fill="none" stroke="black" d="M766.834,-95.275C778.921,-85.4039 793.764,-74.0078 808,-65 815.708,-60.1228 824.082,-55.3762 832.425,-50.9514"/>
<polygon fill="black" stroke="black" points="834.163,-53.9929 841.433,-46.2855 830.943,-47.7773 834.163,-53.9929"/>
<text text-anchor="middle" x="817.5" y="-68.2" font-family="Times New Roman,serif" font-size="11.00">field</text>
</g>
<!-- jField : Field&#45;&gt;jPrimitiveType : Byte -->
<g id="edge5" class="edge"><title>jField : Field&#45;&gt;jPrimitiveType : Byte</title>
<path fill="none" stroke="green" d="M86.1175,-98.8083C89.1223,-97.5165 92.1056,-96.2371 95,-95 129.617,-80.204 168.348,-63.8419 199.788,-50.608"/>
<polygon fill="green" stroke="green" points="201.439,-53.7108 209.299,-46.6066 198.724,-47.2586 201.439,-53.7108"/>
<text text-anchor="middle" x="197" y="-68.2" font-family="Times New Roman,serif" font-size="11.00">typeReference</text>
</g>
<!-- pg : TypeGraph -->
<g id="node7" class="node"><title>pg : TypeGraph</title>
<polygon fill="none" stroke="black" points="859,-95.5 859,-141.5 965,-141.5 965,-95.5 859,-95.5"/>
<text text-anchor="middle" x="912" y="-126.3" font-family="Times New Roman,serif" font-size="14.00">pg : TypeGraph</text>
<polyline fill="none" stroke="black" points="859,-118.5 965,-118.5 "/>
<text text-anchor="middle" x="912" y="-103.3" font-family="Times New Roman,serif" font-size="14.00"> </text>
</g>
<!-- pg : TypeGraph&#45;&gt;tPrimitiveType : TClass -->
<g id="edge7" class="edge"><title>pg : TypeGraph&#45;&gt;tPrimitiveType : TClass</title>
<path fill="none" stroke="black" d="M878.193,-95.3998C862.812,-85.6635 844.231,-74.3399 827,-65 818.295,-60.2814 808.946,-55.5498 799.733,-51.0707"/>
<polygon fill="black" stroke="black" points="801.125,-47.8565 790.595,-46.6855 798.096,-54.1675 801.125,-47.8565"/>
<text text-anchor="middle" x="863" y="-68.2" font-family="Times New Roman,serif" font-size="11.00">classes</text>
</g>
<!-- pg : TypeGraph&#45;&gt;tField : TField -->
<g id="edge8" class="edge"><title>pg : TypeGraph&#45;&gt;tField : TField</title>
<path fill="none" stroke="black" d="M906.549,-95.4603C903.677,-83.8473 900.102,-69.3888 896.928,-56.5587"/>
<polygon fill="black" stroke="black" points="900.29,-55.571 894.491,-46.7038 893.494,-57.2516 900.29,-55.571"/>
<text text-anchor="middle" x="913" y="-68.2" font-family="Times New Roman,serif" font-size="11.00">fields</text>
</g>
</g>
</svg>
