<?xml version="1.0" encoding="UTF-8" standalone="no"?>
<!DOCTYPE svg PUBLIC "-//W3C//DTD SVG 1.1//EN"
 "http://www.w3.org/Graphics/SVG/1.1/DTD/svg11.dtd">
<!-- Generated by graphviz version 2.38.0 (20140413.2041)
 -->
<!-- Title: FieldTypePrimitiveInt Pages: 1 -->
<svg width="878pt" height="234pt"
 viewBox="0.00 0.00 878.00 234.00" xmlns="http://www.w3.org/2000/svg" xmlns:xlink="http://www.w3.org/1999/xlink">
<g id="graph0" class="graph" transform="scale(1 1) rotate(0) translate(4 230)">
<title>FieldTypePrimitiveInt</title>
<polygon fill="white" stroke="none" points="-4,4 -4,-230 874,-230 874,4 -4,4"/>
<!-- tFieldSignatureToJField : FieldToTFieldSignature -->
<g id="node1" class="node"><title>tFieldSignatureToJField : FieldToTFieldSignature</title>
<polygon fill="none" stroke="black" points="563.786,-208 453.893,-226 234.107,-226 124.214,-208 234.107,-190 453.893,-190 563.786,-208"/>
<text text-anchor="middle" x="344" y="-204.3" font-family="Times New Roman,serif" font-size="14.00">tFieldSignatureToJField : FieldToTFieldSignature</text>
</g>
<!-- jField : Field -->
<g id="node4" class="node"><title>jField : Field</title>
<polygon fill="none" stroke="black" points="0,-95.5 0,-141.5 86,-141.5 86,-95.5 0,-95.5"/>
<text text-anchor="middle" x="43" y="-126.3" font-family="Times New Roman,serif" font-size="14.00">jField : Field</text>
<polyline fill="none" stroke="black" points="0,-118.5 86,-118.5 "/>
<text text-anchor="middle" x="43" y="-103.3" font-family="Times New Roman,serif" font-size="14.00"> </text>
</g>
<!-- tFieldSignatureToJField : FieldToTFieldSignature&#45;&gt;jField : Field -->
<g id="edge2" class="edge"><title>tFieldSignatureToJField : FieldToTFieldSignature&#45;&gt;jField : Field</title>
<path fill="none" stroke="black" d="M266.256,-189.942C219.103,-178.843 157.729,-163.065 95.7621,-142.063"/>
<polygon fill="black" stroke="black" points="96.8107,-138.723 86.216,-138.788 94.5387,-145.344 96.8107,-138.723"/>
<text text-anchor="middle" x="205" y="-163.2" font-family="Times New Roman,serif" font-size="11.00">source</text>
</g>
<!-- tFieldSignature : TFieldSignature -->
<g id="node5" class="node"><title>tFieldSignature : TFieldSignature</title>
<polygon fill="none" stroke="black" points="546.5,-95.5 546.5,-141.5 745.5,-141.5 745.5,-95.5 546.5,-95.5"/>
<text text-anchor="middle" x="646" y="-126.3" font-family="Times New Roman,serif" font-size="14.00">tFieldSignature : TFieldSignature</text>
<polyline fill="none" stroke="black" points="546.5,-118.5 745.5,-118.5 "/>
<text text-anchor="middle" x="646" y="-103.3" font-family="Times New Roman,serif" font-size="14.00"> </text>
</g>
<!-- tFieldSignatureToJField : FieldToTFieldSignature&#45;&gt;tFieldSignature : TFieldSignature -->
<g id="edge3" class="edge"><title>tFieldSignatureToJField : FieldToTFieldSignature&#45;&gt;tFieldSignature : TFieldSignature</title>
<path fill="none" stroke="black" d="M402.946,-189.921C447.683,-176.959 509.854,-158.946 560.118,-144.383"/>
<polygon fill="black" stroke="black" points="561.372,-147.664 570.003,-141.519 559.424,-140.94 561.372,-147.664"/>
<text text-anchor="middle" x="518" y="-163.2" font-family="Times New Roman,serif" font-size="11.00">target</text>
</g>
<!-- jPrimitiveTypeToTPrimitiveType : IntToTClass -->
<g id="node2" class="node"><title>jPrimitiveTypeToTPrimitiveType : IntToTClass</title>
<polygon fill="none" stroke="green" points="528.277,-118.5 422.138,-136.5 209.862,-136.5 103.723,-118.5 209.862,-100.5 422.138,-100.5 528.277,-118.5"/>
<text text-anchor="middle" x="316" y="-114.8" font-family="Times New Roman,serif" font-size="14.00">jPrimitiveTypeToTPrimitiveType : IntToTClass</text>
</g>
<!-- jPrimitiveType : Int -->
<g id="node3" class="node"><title>jPrimitiveType : Int</title>
<polygon fill="none" stroke="green" points="118.5,-0.5 118.5,-46.5 241.5,-46.5 241.5,-0.5 118.5,-0.5"/>
<text text-anchor="middle" x="180" y="-31.3" font-family="Times New Roman,serif" font-size="14.00">jPrimitiveType : Int</text>
<polyline fill="none" stroke="green" points="118.5,-23.5 241.5,-23.5 "/>
<text text-anchor="middle" x="180" y="-8.3" font-family="Times New Roman,serif" font-size="14.00"> </text>
</g>
<!-- jPrimitiveTypeToTPrimitiveType : IntToTClass&#45;&gt;jPrimitiveType : Int -->
<g id="edge1" class="edge"><title>jPrimitiveTypeToTPrimitiveType : IntToTClass&#45;&gt;jPrimitiveType : Int</title>
<path fill="none" stroke="green" d="M291.056,-100.442C271.472,-87.051 243.796,-68.1253 220.972,-52.5176"/>
<polygon fill="green" stroke="green" points="222.719,-49.4723 212.489,-46.7167 218.768,-55.2505 222.719,-49.4723"/>
<text text-anchor="middle" x="272" y="-68.2" font-family="Times New Roman,serif" font-size="11.00">source</text>
</g>
<!-- tPrimitiveType : TClass -->
<g id="node6" class="node"><title>tPrimitiveType : TClass</title>
<polygon fill="none" stroke="black" points="571.5,-0.5 571.5,-46.5 720.5,-46.5 720.5,-0.5 571.5,-0.5"/>
<text text-anchor="middle" x="646" y="-31.3" font-family="Times New Roman,serif" font-size="14.00">tPrimitiveType : TClass</text>
<polyline fill="none" stroke="black" points="571.5,-23.5 720.5,-23.5 "/>
<text text-anchor="middle" x="646" y="-8.3" font-family="Times New Roman,serif" font-size="14.00">tName == &quot;int&quot;</text>
</g>
<!-- jPrimitiveTypeToTPrimitiveType : IntToTClass&#45;&gt;tPrimitiveType : TClass -->
<g id="edge4" class="edge"><title>jPrimitiveTypeToTPrimitiveType : IntToTClass&#45;&gt;tPrimitiveType : TClass</title>
<path fill="none" stroke="green" d="M376.527,-100.442C428.416,-85.8191 503.722,-64.5965 561.543,-48.3014"/>
<polygon fill="green" stroke="green" points="562.719,-51.6064 571.395,-45.5251 560.82,-44.8689 562.719,-51.6064"/>
<text text-anchor="middle" x="514" y="-68.2" font-family="Times New Roman,serif" font-size="11.00">target</text>
</g>
<!-- jField : Field&#45;&gt;jPrimitiveType : Int -->
<g id="edge5" class="edge"><title>jField : Field&#45;&gt;jPrimitiveType : Int</title>
<path fill="none" stroke="green" d="M75.4671,-95.4603C94.4377,-82.5825 118.563,-66.2056 138.855,-52.4304"/>
<polygon fill="green" stroke="green" points="140.983,-55.2161 147.291,-46.7038 137.052,-49.4245 140.983,-55.2161"/>
<text text-anchor="middle" x="153" y="-68.2" font-family="Times New Roman,serif" font-size="11.00">typeReference</text>
</g>
<!-- tFieldSignature : TFieldSignature&#45;&gt;tPrimitiveType : TClass -->
<g id="edge8" class="edge"><title>tFieldSignature : TFieldSignature&#45;&gt;tPrimitiveType : TClass</title>
<path fill="none" stroke="green" d="M646,-95.4603C646,-83.9622 646,-69.6748 646,-56.9402"/>
<polygon fill="green" stroke="green" points="649.5,-56.7038 646,-46.7038 642.5,-56.7038 649.5,-56.7038"/>
<text text-anchor="middle" x="655.5" y="-68.2" font-family="Times New Roman,serif" font-size="11.00">type</text>
</g>
<!-- tField : TField -->
<g id="node8" class="node"><title>tField : TField</title>
<polygon fill="none" stroke="black" points="746.5,-0.5 746.5,-46.5 841.5,-46.5 841.5,-0.5 746.5,-0.5"/>
<text text-anchor="middle" x="794" y="-31.3" font-family="Times New Roman,serif" font-size="14.00">tField : TField</text>
<polyline fill="none" stroke="black" points="746.5,-23.5 841.5,-23.5 "/>
<text text-anchor="middle" x="794" y="-8.3" font-family="Times New Roman,serif" font-size="14.00"> </text>
</g>
<!-- tFieldSignature : TFieldSignature&#45;&gt;tField : TField -->
<g id="edge7" class="edge"><title>tFieldSignature : TFieldSignature&#45;&gt;tField : TField</title>
<path fill="none" stroke="black" d="M669.735,-95.3018C681.099,-85.3225 695.213,-73.8312 709,-65 717.762,-59.3875 727.422,-54.0621 736.992,-49.228"/>
<polygon fill="black" stroke="black" points="738.675,-52.3009 746.107,-44.7504 735.589,-46.0179 738.675,-52.3009"/>
<text text-anchor="middle" x="718.5" y="-68.2" font-family="Times New Roman,serif" font-size="11.00">field</text>
</g>
<!-- pg : TypeGraph -->
<g id="node7" class="node"><title>pg : TypeGraph</title>
<polygon fill="none" stroke="black" points="764,-95.5 764,-141.5 870,-141.5 870,-95.5 764,-95.5"/>
<text text-anchor="middle" x="817" y="-126.3" font-family="Times New Roman,serif" font-size="14.00">pg : TypeGraph</text>
<polyline fill="none" stroke="black" points="764,-118.5 870,-118.5 "/>
<text text-anchor="middle" x="817" y="-103.3" font-family="Times New Roman,serif" font-size="14.00"> </text>
</g>
<!-- pg : TypeGraph&#45;&gt;tPrimitiveType : TClass -->
<g id="edge6" class="edge"><title>pg : TypeGraph&#45;&gt;tPrimitiveType : TClass</title>
<path fill="none" stroke="black" d="M780.975,-95.4278C764.916,-85.8032 745.672,-74.5595 728,-65 719.501,-60.4024 710.408,-55.7019 701.485,-51.2073"/>
<polygon fill="black" stroke="black" points="702.789,-47.9466 692.279,-46.6108 699.662,-54.2093 702.789,-47.9466"/>
<text text-anchor="middle" x="764" y="-68.2" font-family="Times New Roman,serif" font-size="11.00">classes</text>
</g>
<!-- pg : TypeGraph&#45;&gt;tField : TField -->
<g id="edge9" class="edge"><title>pg : TypeGraph&#45;&gt;tField : TField</title>
<path fill="none" stroke="black" d="M811.549,-95.4603C808.677,-83.8473 805.102,-69.3888 801.928,-56.5587"/>
<polygon fill="black" stroke="black" points="805.29,-55.571 799.491,-46.7038 798.494,-57.2516 805.29,-55.571"/>
<text text-anchor="middle" x="818" y="-68.2" font-family="Times New Roman,serif" font-size="11.00">fields</text>
</g>
</g>
</svg>
