<?xml version="1.0" encoding="UTF-8" standalone="no"?>
<!DOCTYPE svg PUBLIC "-//W3C//DTD SVG 1.1//EN"
 "http://www.w3.org/Graphics/SVG/1.1/DTD/svg11.dtd">
<!-- Generated by graphviz version 2.38.0 (20140413.2041)
 -->
<!-- Title: FieldNameExisting Pages: 1 -->
<svg width="1613pt" height="378pt"
 viewBox="0.00 0.00 1612.50 378.00" xmlns="http://www.w3.org/2000/svg" xmlns:xlink="http://www.w3.org/1999/xlink">
<g id="graph0" class="graph" transform="scale(1 1) rotate(0) translate(4 374)">
<title>FieldNameExisting</title>
<polygon fill="white" stroke="none" points="-4,4 -4,-374 1608.5,-374 1608.5,4 -4,4"/>
<text text-anchor="middle" x="802.25" y="-22.8" font-family="Times New Roman,serif" font-size="14.00">_____________________________</text>
<text text-anchor="middle" x="802.25" y="-7.8" font-family="Times New Roman,serif" font-size="14.00"> eq(jField.name,tField.tName)</text>
<!-- jFieldToTFieldDefinition : FieldToTFieldDefinition -->
<g id="node1" class="node"><title>jFieldToTFieldDefinition : FieldToTFieldDefinition</title>
<polygon fill="none" stroke="green" points="1256.79,-251.5 1144.15,-269.5 918.853,-269.5 806.207,-251.5 918.853,-233.5 1144.15,-233.5 1256.79,-251.5"/>
<text text-anchor="middle" x="1031.5" y="-247.8" font-family="Times New Roman,serif" font-size="14.00">jFieldToTFieldDefinition : FieldToTFieldDefinition</text>
</g>
<!-- jField : Field -->
<g id="node5" class="node"><title>jField : Field</title>
<polygon fill="none" stroke="green" points="759.5,-133.5 759.5,-179.5 845.5,-179.5 845.5,-133.5 759.5,-133.5"/>
<text text-anchor="middle" x="802.5" y="-164.3" font-family="Times New Roman,serif" font-size="14.00">jField : Field</text>
<polyline fill="none" stroke="green" points="759.5,-156.5 845.5,-156.5 "/>
<text text-anchor="middle" x="802.5" y="-141.3" font-family="Times New Roman,serif" font-size="14.00"> </text>
</g>
<!-- jFieldToTFieldDefinition : FieldToTFieldDefinition&#45;&gt;jField : Field -->
<g id="edge2" class="edge"><title>jFieldToTFieldDefinition : FieldToTFieldDefinition&#45;&gt;jField : Field</title>
<path fill="none" stroke="green" d="M950.619,-233.476C928.062,-227.409 903.888,-219.63 882.5,-210 867.713,-203.342 852.571,-194.128 839.495,-185.275"/>
<polygon fill="green" stroke="green" points="841.436,-182.363 831.224,-179.54 837.448,-188.115 841.436,-182.363"/>
<text text-anchor="middle" x="897.5" y="-201.2" font-family="Times New Roman,serif" font-size="11.00">source</text>
</g>
<!-- tFieldDefinition : TFieldDefinition -->
<g id="node6" class="node"><title>tFieldDefinition : TFieldDefinition</title>
<polygon fill="none" stroke="green" points="297,-38.5 297,-84.5 500,-84.5 500,-38.5 297,-38.5"/>
<text text-anchor="middle" x="398.5" y="-69.3" font-family="Times New Roman,serif" font-size="14.00">tFieldDefinition : TFieldDefinition</text>
<polyline fill="none" stroke="green" points="297,-61.5 500,-61.5 "/>
<text text-anchor="middle" x="398.5" y="-46.3" font-family="Times New Roman,serif" font-size="14.00"> </text>
</g>
<!-- jFieldToTFieldDefinition : FieldToTFieldDefinition&#45;&gt;tFieldDefinition : TFieldDefinition -->
<g id="edge4" class="edge"><title>jFieldToTFieldDefinition : FieldToTFieldDefinition&#45;&gt;tFieldDefinition : TFieldDefinition</title>
<path fill="none" stroke="green" d="M1023.63,-233.48C1007.78,-201.414 968.67,-132.621 912.5,-103 877.909,-84.7585 651.032,-72.5492 510.505,-66.6367"/>
<polygon fill="green" stroke="green" points="510.259,-63.1235 500.122,-66.2046 509.968,-70.1174 510.259,-63.1235"/>
<text text-anchor="middle" x="1003.5" y="-153.7" font-family="Times New Roman,serif" font-size="11.00">target</text>
</g>
<!-- jFieldToTField : FieldToTField -->
<g id="node2" class="node"><title>jFieldToTField : FieldToTField</title>
<polygon fill="none" stroke="green" points="1562.69,-251.5 1490.59,-269.5 1346.41,-269.5 1274.31,-251.5 1346.41,-233.5 1490.59,-233.5 1562.69,-251.5"/>
<text text-anchor="middle" x="1418.5" y="-247.8" font-family="Times New Roman,serif" font-size="14.00">jFieldToTField : FieldToTField</text>
</g>
<!-- jFieldToTField : FieldToTField&#45;&gt;jField : Field -->
<g id="edge1" class="edge"><title>jFieldToTField : FieldToTField&#45;&gt;jField : Field</title>
<path fill="none" stroke="green" d="M1330.75,-237.382C1309.4,-234.251 1286.64,-230.959 1265.5,-228 1105.21,-205.558 1063.89,-208.125 904.5,-180 888.532,-177.183 871.276,-173.588 855.578,-170.104"/>
<polygon fill="green" stroke="green" points="856.042,-166.621 845.517,-167.839 854.504,-173.45 856.042,-166.621"/>
<text text-anchor="middle" x="1129.5" y="-201.2" font-family="Times New Roman,serif" font-size="11.00">source</text>
</g>
<!-- tField : TField -->
<g id="node8" class="node"><title>tField : TField</title>
<polygon fill="none" stroke="black" points="1371,-38.5 1371,-84.5 1466,-84.5 1466,-38.5 1371,-38.5"/>
<text text-anchor="middle" x="1418.5" y="-69.3" font-family="Times New Roman,serif" font-size="14.00">tField : TField</text>
<polyline fill="none" stroke="black" points="1371,-61.5 1466,-61.5 "/>
<text text-anchor="middle" x="1418.5" y="-46.3" font-family="Times New Roman,serif" font-size="14.00"> </text>
</g>
<!-- jFieldToTField : FieldToTField&#45;&gt;tField : TField -->
<g id="edge6" class="edge"><title>jFieldToTField : FieldToTField&#45;&gt;tField : TField</title>
<path fill="none" stroke="green" d="M1418.5,-233.485C1418.5,-202.204 1418.5,-135.091 1418.5,-94.8777"/>
<polygon fill="green" stroke="green" points="1422,-94.7862 1418.5,-84.7862 1415,-94.7862 1422,-94.7862"/>
<text text-anchor="middle" x="1431.5" y="-153.7" font-family="Times New Roman,serif" font-size="11.00">target</text>
</g>
<!-- tFieldSignatureToJField : FieldToTFieldSignature -->
<g id="node3" class="node"><title>tFieldSignatureToJField : FieldToTFieldSignature</title>
<polygon fill="none" stroke="green" points="618.286,-251.5 508.393,-269.5 288.607,-269.5 178.714,-251.5 288.607,-233.5 508.393,-233.5 618.286,-251.5"/>
<text text-anchor="middle" x="398.5" y="-247.8" font-family="Times New Roman,serif" font-size="14.00">tFieldSignatureToJField : FieldToTFieldSignature</text>
</g>
<!-- tFieldSignatureToJField : FieldToTFieldSignature&#45;&gt;jField : Field -->
<g id="edge3" class="edge"><title>tFieldSignatureToJField : FieldToTFieldSignature&#45;&gt;jField : Field</title>
<path fill="none" stroke="green" d="M472.6,-233.442C552.716,-215 678.432,-186.06 749.297,-169.747"/>
<polygon fill="green" stroke="green" points="750.383,-173.089 759.343,-167.435 748.812,-166.267 750.383,-173.089"/>
<text text-anchor="middle" x="640.5" y="-201.2" font-family="Times New Roman,serif" font-size="11.00">source</text>
</g>
<!-- tFieldSignature : TFieldSignature -->
<g id="node7" class="node"><title>tFieldSignature : TFieldSignature</title>
<polygon fill="none" stroke="green" points="299,-133.5 299,-179.5 498,-179.5 498,-133.5 299,-133.5"/>
<text text-anchor="middle" x="398.5" y="-164.3" font-family="Times New Roman,serif" font-size="14.00">tFieldSignature : TFieldSignature</text>
<polyline fill="none" stroke="green" points="299,-156.5 498,-156.5 "/>
<text text-anchor="middle" x="398.5" y="-141.3" font-family="Times New Roman,serif" font-size="14.00"> </text>
</g>
<!-- tFieldSignatureToJField : FieldToTFieldSignature&#45;&gt;tFieldSignature : TFieldSignature -->
<g id="edge5" class="edge"><title>tFieldSignatureToJField : FieldToTFieldSignature&#45;&gt;tFieldSignature : TFieldSignature</title>
<path fill="none" stroke="green" d="M398.5,-233.442C398.5,-221.29 398.5,-204.58 398.5,-189.927"/>
<polygon fill="green" stroke="green" points="402,-189.717 398.5,-179.717 395,-189.717 402,-189.717"/>
<text text-anchor="middle" x="411.5" y="-201.2" font-family="Times New Roman,serif" font-size="11.00">target</text>
</g>
<!-- tContainingClassToJContainingClass : ClassToTClass -->
<g id="node4" class="node"><title>tContainingClassToJContainingClass : ClassToTClass</title>
<polygon fill="none" stroke="black" points="585.314,-346.5 464.907,-364.5 224.093,-364.5 103.686,-346.5 224.093,-328.5 464.907,-328.5 585.314,-346.5"/>
<text text-anchor="middle" x="344.5" y="-342.8" font-family="Times New Roman,serif" font-size="14.00">tContainingClassToJContainingClass : ClassToTClass</text>
</g>
<!-- tContainingClass : TClass -->
<g id="node9" class="node"><title>tContainingClass : TClass</title>
<polygon fill="none" stroke="black" points="0,-228.5 0,-274.5 161,-274.5 161,-228.5 0,-228.5"/>
<text text-anchor="middle" x="80.5" y="-259.3" font-family="Times New Roman,serif" font-size="14.00">tContainingClass : TClass</text>
<polyline fill="none" stroke="black" points="0,-251.5 161,-251.5 "/>
<text text-anchor="middle" x="80.5" y="-236.3" font-family="Times New Roman,serif" font-size="14.00"> </text>
</g>
<!-- tContainingClassToJContainingClass : ClassToTClass&#45;&gt;tContainingClass : TClass -->
<g id="edge7" class="edge"><title>tContainingClassToJContainingClass : ClassToTClass&#45;&gt;tContainingClass : TClass</title>
<path fill="none" stroke="black" d="M296.078,-328.442C255.916,-314.294 198.216,-293.968 152.616,-277.905"/>
<polygon fill="black" stroke="black" points="153.675,-274.567 143.08,-274.545 151.349,-281.169 153.675,-274.567"/>
<text text-anchor="middle" x="241.5" y="-296.2" font-family="Times New Roman,serif" font-size="11.00">target</text>
</g>
<!-- jContainingClass : Class -->
<g id="node10" class="node"><title>jContainingClass : Class</title>
<polygon fill="none" stroke="black" points="636.5,-228.5 636.5,-274.5 788.5,-274.5 788.5,-228.5 636.5,-228.5"/>
<text text-anchor="middle" x="712.5" y="-259.3" font-family="Times New Roman,serif" font-size="14.00">jContainingClass : Class</text>
<polyline fill="none" stroke="black" points="636.5,-251.5 788.5,-251.5 "/>
<text text-anchor="middle" x="712.5" y="-236.3" font-family="Times New Roman,serif" font-size="14.00"> </text>
</g>
<!-- tContainingClassToJContainingClass : ClassToTClass&#45;&gt;jContainingClass : Class -->
<g id="edge8" class="edge"><title>tContainingClassToJContainingClass : ClassToTClass&#45;&gt;jContainingClass : Class</title>
<path fill="none" stroke="black" d="M414.062,-328.472C469.041,-314.944 547.999,-295.363 626.05,-275.36"/>
<polygon fill="black" stroke="black" points="627.242,-278.667 636.058,-272.791 625.502,-271.887 627.242,-278.667"/>
<text text-anchor="middle" x="565.5" y="-296.2" font-family="Times New Roman,serif" font-size="11.00">source</text>
</g>
<!-- tFieldSignature : TFieldSignature&#45;&gt;tFieldDefinition : TFieldDefinition -->
<g id="edge12" class="edge"><title>tFieldSignature : TFieldSignature&#45;&gt;tFieldDefinition : TFieldDefinition</title>
<path fill="none" stroke="green" d="M398.5,-133.46C398.5,-121.962 398.5,-107.675 398.5,-94.9402"/>
<polygon fill="green" stroke="green" points="402,-94.7038 398.5,-84.7038 395,-94.7038 402,-94.7038"/>
<text text-anchor="middle" x="421" y="-106.2" font-family="Times New Roman,serif" font-size="11.00">definitions</text>
</g>
<!-- tFieldSignature : TFieldSignature&#45;&gt;tField : TField -->
<g id="edge15" class="edge"><title>tFieldSignature : TFieldSignature&#45;&gt;tField : TField</title>
<path fill="none" stroke="green" d="M498.159,-146.413C708.801,-127.208 1193.6,-83.0058 1360.67,-67.773"/>
<polygon fill="green" stroke="green" points="1361.1,-71.2484 1370.74,-66.8548 1360.46,-64.2773 1361.1,-71.2484"/>
<text text-anchor="middle" x="979" y="-106.2" font-family="Times New Roman,serif" font-size="11.00">field</text>
</g>
<!-- tContainingClass : TClass&#45;&gt;tFieldDefinition : TFieldDefinition -->
<g id="edge10" class="edge"><title>tContainingClass : TClass&#45;&gt;tFieldDefinition : TFieldDefinition</title>
<path fill="none" stroke="green" d="M111.415,-228.297C146.174,-203.734 204.674,-163.587 257.5,-133 284.501,-117.366 315.415,-101.676 341.402,-89.0796"/>
<polygon fill="green" stroke="green" points="343.246,-92.0766 350.737,-84.5847 340.209,-85.7696 343.246,-92.0766"/>
<text text-anchor="middle" x="273.5" y="-153.7" font-family="Times New Roman,serif" font-size="11.00">defines</text>
</g>
<!-- tContainingClass : TClass&#45;&gt;tFieldSignature : TFieldSignature -->
<g id="edge11" class="edge"><title>tContainingClass : TClass&#45;&gt;tFieldSignature : TFieldSignature</title>
<path fill="none" stroke="green" d="M155.862,-228.46C203.213,-214.612 264.399,-196.718 313.482,-182.364"/>
<polygon fill="green" stroke="green" points="314.513,-185.709 323.129,-179.542 312.549,-178.99 314.513,-185.709"/>
<text text-anchor="middle" x="279.5" y="-201.2" font-family="Times New Roman,serif" font-size="11.00">signature</text>
</g>
<!-- jContainingClass : Class&#45;&gt;jField : Field -->
<g id="edge9" class="edge"><title>jContainingClass : Class&#45;&gt;jField : Field</title>
<path fill="none" stroke="green" d="M733.829,-228.46C745.846,-216.042 761.012,-200.371 774.033,-186.916"/>
<polygon fill="green" stroke="green" points="776.573,-189.324 781.012,-179.704 771.543,-184.456 776.573,-189.324"/>
<text text-anchor="middle" x="784" y="-201.2" font-family="Times New Roman,serif" font-size="11.00">members</text>
</g>
<!-- pg : TypeGraph -->
<g id="node11" class="node"><title>pg : TypeGraph</title>
<polygon fill="none" stroke="black" points="1070.5,-323.5 1070.5,-369.5 1176.5,-369.5 1176.5,-323.5 1070.5,-323.5"/>
<text text-anchor="middle" x="1123.5" y="-354.3" font-family="Times New Roman,serif" font-size="14.00">pg : TypeGraph</text>
<polyline fill="none" stroke="black" points="1070.5,-346.5 1176.5,-346.5 "/>
<text text-anchor="middle" x="1123.5" y="-331.3" font-family="Times New Roman,serif" font-size="14.00"> </text>
</g>
<!-- pg : TypeGraph&#45;&gt;tField : TField -->
<g id="edge14" class="edge"><title>pg : TypeGraph&#45;&gt;tField : TField</title>
<path fill="none" stroke="black" d="M1176.71,-345.374C1284.18,-343.869 1521.23,-333.798 1571.5,-275 1624.97,-212.463 1526.36,-132.138 1463.98,-90.4349"/>
<polygon fill="black" stroke="black" points="1465.72,-87.3872 1455.44,-84.8126 1461.87,-93.2343 1465.72,-87.3872"/>
<text text-anchor="middle" x="1592.5" y="-201.2" font-family="Times New Roman,serif" font-size="11.00">fields</text>
</g>
<!-- pg : TypeGraph&#45;&gt;tContainingClass : TClass -->
<g id="edge13" class="edge"><title>pg : TypeGraph&#45;&gt;tContainingClass : TClass</title>
<path fill="none" stroke="black" d="M1070.41,-339.373C973.841,-328.442 762.931,-305.55 584.5,-293 403.574,-280.274 353.903,-301.011 171.296,-275.123"/>
<polygon fill="black" stroke="black" points="171.763,-271.654 161.365,-273.688 170.762,-278.583 171.763,-271.654"/>
<text text-anchor="middle" x="749.5" y="-296.2" font-family="Times New Roman,serif" font-size="11.00">classes</text>
</g>
</g>
</svg>
