<?xml version="1.0" encoding="UTF-8" standalone="no"?>
<!DOCTYPE svg PUBLIC "-//W3C//DTD SVG 1.1//EN"
 "http://www.w3.org/Graphics/SVG/1.1/DTD/svg11.dtd">
<!-- Generated by graphviz version 2.38.0 (20140413.2041)
 -->
<!-- Title: FieldTypeIgnoreVoid Pages: 1 -->
<svg width="452pt" height="234pt"
 viewBox="0.00 0.00 452.29 234.00" xmlns="http://www.w3.org/2000/svg" xmlns:xlink="http://www.w3.org/1999/xlink">
<g id="graph0" class="graph" transform="scale(1 1) rotate(0) translate(4 230)">
<title>FieldTypeIgnoreVoid</title>
<polygon fill="white" stroke="none" points="-4,4 -4,-230 448.289,-230 448.289,4 -4,4"/>
<!-- jFieldToTFieldSignature : FieldToTFieldSignature -->
<g id="node1" class="node"><title>jFieldToTFieldSignature : FieldToTFieldSignature</title>
<polygon fill="none" stroke="black" points="444.434,-208 333.289,-226 111,-226 -0.144767,-208 111,-190 333.289,-190 444.434,-208"/>
<text text-anchor="middle" x="222.145" y="-204.3" font-family="Times New Roman,serif" font-size="14.00">jFieldToTFieldSignature : FieldToTFieldSignature</text>
</g>
<!-- jField : Field -->
<g id="node2" class="node"><title>jField : Field</title>
<polygon fill="none" stroke="black" points="59.1447,-95.5 59.1447,-141.5 145.145,-141.5 145.145,-95.5 59.1447,-95.5"/>
<text text-anchor="middle" x="102.145" y="-126.3" font-family="Times New Roman,serif" font-size="14.00">jField : Field</text>
<polyline fill="none" stroke="black" points="59.1447,-118.5 145.145,-118.5 "/>
<text text-anchor="middle" x="102.145" y="-103.3" font-family="Times New Roman,serif" font-size="14.00"> </text>
</g>
<!-- jFieldToTFieldSignature : FieldToTFieldSignature&#45;&gt;jField : Field -->
<g id="edge1" class="edge"><title>jFieldToTFieldSignature : FieldToTFieldSignature&#45;&gt;jField : Field</title>
<path fill="none" stroke="black" d="M198.723,-189.921C182.205,-177.877 159.707,-161.473 140.581,-147.527"/>
<polygon fill="black" stroke="black" points="142.484,-144.583 132.342,-141.519 138.36,-150.239 142.484,-144.583"/>
<text text-anchor="middle" x="188.145" y="-163.2" font-family="Times New Roman,serif" font-size="11.00">source</text>
</g>
<!-- tFieldSignature : TFieldSignature -->
<g id="node3" class="node"><title>tFieldSignature : TFieldSignature</title>
<polygon fill="none" stroke="black" points="163.645,-95.5 163.645,-141.5 362.645,-141.5 362.645,-95.5 163.645,-95.5"/>
<text text-anchor="middle" x="263.145" y="-126.3" font-family="Times New Roman,serif" font-size="14.00">tFieldSignature : TFieldSignature</text>
<polyline fill="none" stroke="black" points="163.645,-118.5 362.645,-118.5 "/>
<text text-anchor="middle" x="263.145" y="-103.3" font-family="Times New Roman,serif" font-size="14.00"> </text>
</g>
<!-- jFieldToTFieldSignature : FieldToTFieldSignature&#45;&gt;tFieldSignature : TFieldSignature -->
<g id="edge2" class="edge"><title>jFieldToTFieldSignature : FieldToTFieldSignature&#45;&gt;tFieldSignature : TFieldSignature</title>
<path fill="none" stroke="black" d="M230.245,-189.713C235.428,-178.651 242.305,-163.975 248.431,-150.901"/>
<polygon fill="black" stroke="black" points="251.65,-152.279 252.724,-141.739 245.312,-149.309 251.65,-152.279"/>
<text text-anchor="middle" x="257.145" y="-163.2" font-family="Times New Roman,serif" font-size="11.00">target</text>
</g>
<!-- type : Void -->
<g id="node4" class="node"><title>type : Void</title>
<polygon fill="none" stroke="green" points="62.6447,-0.5 62.6447,-46.5 141.645,-46.5 141.645,-0.5 62.6447,-0.5"/>
<text text-anchor="middle" x="102.145" y="-31.3" font-family="Times New Roman,serif" font-size="14.00">type : Void</text>
<polyline fill="none" stroke="green" points="62.6447,-23.5 141.645,-23.5 "/>
<text text-anchor="middle" x="102.145" y="-8.3" font-family="Times New Roman,serif" font-size="14.00"> </text>
</g>
<!-- jField : Field&#45;&gt;type : Void -->
<g id="edge3" class="edge"><title>jField : Field&#45;&gt;type : Void</title>
<path fill="none" stroke="green" d="M102.145,-95.4603C102.145,-83.9622 102.145,-69.6748 102.145,-56.9402"/>
<polygon fill="green" stroke="green" points="105.645,-56.7038 102.145,-46.7038 98.6448,-56.7038 105.645,-56.7038"/>
<text text-anchor="middle" x="135.145" y="-68.2" font-family="Times New Roman,serif" font-size="11.00">typeReference</text>
</g>
</g>
</svg>
