<?xml version="1.0" encoding="UTF-8" standalone="no"?>
<!DOCTYPE svg PUBLIC "-//W3C//DTD SVG 1.1//EN"
 "http://www.w3.org/Graphics/SVG/1.1/DTD/svg11.dtd">
<!-- Generated by graphviz version 2.38.0 (20140413.2041)
 -->
<!-- Title: FieldTypePrimitiveLong Pages: 1 -->
<svg width="899pt" height="234pt"
 viewBox="0.00 0.00 899.00 234.00" xmlns="http://www.w3.org/2000/svg" xmlns:xlink="http://www.w3.org/1999/xlink">
<g id="graph0" class="graph" transform="scale(1 1) rotate(0) translate(4 230)">
<title>FieldTypePrimitiveLong</title>
<polygon fill="white" stroke="none" points="-4,4 -4,-230 895,-230 895,4 -4,4"/>
<!-- tFieldSignatureToJField : FieldToTFieldSignature -->
<g id="node1" class="node"><title>tFieldSignatureToJField : FieldToTFieldSignature</title>
<polygon fill="none" stroke="black" points="574.786,-208 464.893,-226 245.107,-226 135.214,-208 245.107,-190 464.893,-190 574.786,-208"/>
<text text-anchor="middle" x="355" y="-204.3" font-family="Times New Roman,serif" font-size="14.00">tFieldSignatureToJField : FieldToTFieldSignature</text>
</g>
<!-- jField : Field -->
<g id="node3" class="node"><title>jField : Field</title>
<polygon fill="none" stroke="black" points="0,-95.5 0,-141.5 86,-141.5 86,-95.5 0,-95.5"/>
<text text-anchor="middle" x="43" y="-126.3" font-family="Times New Roman,serif" font-size="14.00">jField : Field</text>
<polyline fill="none" stroke="black" points="0,-118.5 86,-118.5 "/>
<text text-anchor="middle" x="43" y="-103.3" font-family="Times New Roman,serif" font-size="14.00"> </text>
</g>
<!-- tFieldSignatureToJField : FieldToTFieldSignature&#45;&gt;jField : Field -->
<g id="edge1" class="edge"><title>tFieldSignatureToJField : FieldToTFieldSignature&#45;&gt;jField : Field</title>
<path fill="none" stroke="black" d="M272.327,-189.96C223.252,-179 159.829,-163.363 96.0304,-142.136"/>
<polygon fill="black" stroke="black" points="96.7983,-138.701 86.2042,-138.822 94.5616,-145.334 96.7983,-138.701"/>
<text text-anchor="middle" x="209" y="-163.2" font-family="Times New Roman,serif" font-size="11.00">source</text>
</g>
<!-- tFieldSignature : TFieldSignature -->
<g id="node6" class="node"><title>tFieldSignature : TFieldSignature</title>
<polygon fill="none" stroke="black" points="567.5,-95.5 567.5,-141.5 766.5,-141.5 766.5,-95.5 567.5,-95.5"/>
<text text-anchor="middle" x="667" y="-126.3" font-family="Times New Roman,serif" font-size="14.00">tFieldSignature : TFieldSignature</text>
<polyline fill="none" stroke="black" points="567.5,-118.5 766.5,-118.5 "/>
<text text-anchor="middle" x="667" y="-103.3" font-family="Times New Roman,serif" font-size="14.00"> </text>
</g>
<!-- tFieldSignatureToJField : FieldToTFieldSignature&#45;&gt;tFieldSignature : TFieldSignature -->
<g id="edge4" class="edge"><title>tFieldSignatureToJField : FieldToTFieldSignature&#45;&gt;tFieldSignature : TFieldSignature</title>
<path fill="none" stroke="black" d="M415.897,-189.921C462.213,-176.932 526.614,-158.871 578.598,-144.292"/>
<polygon fill="black" stroke="black" points="579.803,-147.589 588.486,-141.519 577.913,-140.849 579.803,-147.589"/>
<text text-anchor="middle" x="534" y="-163.2" font-family="Times New Roman,serif" font-size="11.00">target</text>
</g>
<!-- jPrimitiveTypeToTPrimitiveType : LongToTClass -->
<g id="node2" class="node"><title>jPrimitiveTypeToTPrimitiveType : LongToTClass</title>
<polygon fill="none" stroke="green" points="549.79,-118.5 438.395,-136.5 215.605,-136.5 104.21,-118.5 215.605,-100.5 438.395,-100.5 549.79,-118.5"/>
<text text-anchor="middle" x="327" y="-114.8" font-family="Times New Roman,serif" font-size="14.00">jPrimitiveTypeToTPrimitiveType : LongToTClass</text>
</g>
<!-- tPrimitiveType : TClass -->
<g id="node4" class="node"><title>tPrimitiveType : TClass</title>
<polygon fill="none" stroke="black" points="592.5,-0.5 592.5,-46.5 741.5,-46.5 741.5,-0.5 592.5,-0.5"/>
<text text-anchor="middle" x="667" y="-31.3" font-family="Times New Roman,serif" font-size="14.00">tPrimitiveType : TClass</text>
<polyline fill="none" stroke="black" points="592.5,-23.5 741.5,-23.5 "/>
<text text-anchor="middle" x="667" y="-8.3" font-family="Times New Roman,serif" font-size="14.00">tName == &quot;long&quot;</text>
</g>
<!-- jPrimitiveTypeToTPrimitiveType : LongToTClass&#45;&gt;tPrimitiveType : TClass -->
<g id="edge2" class="edge"><title>jPrimitiveTypeToTPrimitiveType : LongToTClass&#45;&gt;tPrimitiveType : TClass</title>
<path fill="none" stroke="green" d="M389.361,-100.442C443.569,-85.615 522.581,-64.0029 582.467,-47.6221"/>
<polygon fill="green" stroke="green" points="583.561,-50.9515 592.284,-44.9371 581.715,-44.1996 583.561,-50.9515"/>
<text text-anchor="middle" x="531" y="-68.2" font-family="Times New Roman,serif" font-size="11.00">target</text>
</g>
<!-- jPrimitiveType : Long -->
<g id="node5" class="node"><title>jPrimitiveType : Long</title>
<polygon fill="none" stroke="green" points="116.5,-0.5 116.5,-46.5 253.5,-46.5 253.5,-0.5 116.5,-0.5"/>
<text text-anchor="middle" x="185" y="-31.3" font-family="Times New Roman,serif" font-size="14.00">jPrimitiveType : Long</text>
<polyline fill="none" stroke="green" points="116.5,-23.5 253.5,-23.5 "/>
<text text-anchor="middle" x="185" y="-8.3" font-family="Times New Roman,serif" font-size="14.00"> </text>
</g>
<!-- jPrimitiveTypeToTPrimitiveType : LongToTClass&#45;&gt;jPrimitiveType : Long -->
<g id="edge3" class="edge"><title>jPrimitiveTypeToTPrimitiveType : LongToTClass&#45;&gt;jPrimitiveType : Long</title>
<path fill="none" stroke="green" d="M300.955,-100.442C280.347,-86.9453 251.154,-67.8262 227.216,-52.1487"/>
<polygon fill="green" stroke="green" points="228.944,-49.0962 218.66,-46.5452 225.108,-54.9521 228.944,-49.0962"/>
<text text-anchor="middle" x="280" y="-68.2" font-family="Times New Roman,serif" font-size="11.00">source</text>
</g>
<!-- jField : Field&#45;&gt;jPrimitiveType : Long -->
<g id="edge5" class="edge"><title>jField : Field&#45;&gt;jPrimitiveType : Long</title>
<path fill="none" stroke="green" d="M76.652,-95.4603C96.4027,-82.525 121.544,-66.0593 142.635,-52.2461"/>
<polygon fill="green" stroke="green" points="144.649,-55.1106 151.097,-46.7038 140.814,-49.2547 144.649,-55.1106"/>
<text text-anchor="middle" x="156" y="-68.2" font-family="Times New Roman,serif" font-size="11.00">typeReference</text>
</g>
<!-- tFieldSignature : TFieldSignature&#45;&gt;tPrimitiveType : TClass -->
<g id="edge7" class="edge"><title>tFieldSignature : TFieldSignature&#45;&gt;tPrimitiveType : TClass</title>
<path fill="none" stroke="green" d="M667,-95.4603C667,-83.9622 667,-69.6748 667,-56.9402"/>
<polygon fill="green" stroke="green" points="670.5,-56.7038 667,-46.7038 663.5,-56.7038 670.5,-56.7038"/>
<text text-anchor="middle" x="676.5" y="-68.2" font-family="Times New Roman,serif" font-size="11.00">type</text>
</g>
<!-- tField : TField -->
<g id="node8" class="node"><title>tField : TField</title>
<polygon fill="none" stroke="black" points="767.5,-0.5 767.5,-46.5 862.5,-46.5 862.5,-0.5 767.5,-0.5"/>
<text text-anchor="middle" x="815" y="-31.3" font-family="Times New Roman,serif" font-size="14.00">tField : TField</text>
<polyline fill="none" stroke="black" points="767.5,-23.5 862.5,-23.5 "/>
<text text-anchor="middle" x="815" y="-8.3" font-family="Times New Roman,serif" font-size="14.00"> </text>
</g>
<!-- tFieldSignature : TFieldSignature&#45;&gt;tField : TField -->
<g id="edge8" class="edge"><title>tFieldSignature : TFieldSignature&#45;&gt;tField : TField</title>
<path fill="none" stroke="black" d="M690.735,-95.3018C702.099,-85.3225 716.213,-73.8312 730,-65 738.762,-59.3875 748.422,-54.0621 757.992,-49.228"/>
<polygon fill="black" stroke="black" points="759.675,-52.3009 767.107,-44.7504 756.589,-46.0179 759.675,-52.3009"/>
<text text-anchor="middle" x="739.5" y="-68.2" font-family="Times New Roman,serif" font-size="11.00">field</text>
</g>
<!-- pg : TypeGraph -->
<g id="node7" class="node"><title>pg : TypeGraph</title>
<polygon fill="none" stroke="black" points="785,-95.5 785,-141.5 891,-141.5 891,-95.5 785,-95.5"/>
<text text-anchor="middle" x="838" y="-126.3" font-family="Times New Roman,serif" font-size="14.00">pg : TypeGraph</text>
<polyline fill="none" stroke="black" points="785,-118.5 891,-118.5 "/>
<text text-anchor="middle" x="838" y="-103.3" font-family="Times New Roman,serif" font-size="14.00"> </text>
</g>
<!-- pg : TypeGraph&#45;&gt;tPrimitiveType : TClass -->
<g id="edge6" class="edge"><title>pg : TypeGraph&#45;&gt;tPrimitiveType : TClass</title>
<path fill="none" stroke="black" d="M801.975,-95.4278C785.916,-85.8032 766.672,-74.5595 749,-65 740.501,-60.4024 731.408,-55.7019 722.485,-51.2073"/>
<polygon fill="black" stroke="black" points="723.789,-47.9466 713.279,-46.6108 720.662,-54.2093 723.789,-47.9466"/>
<text text-anchor="middle" x="785" y="-68.2" font-family="Times New Roman,serif" font-size="11.00">classes</text>
</g>
<!-- pg : TypeGraph&#45;&gt;tField : TField -->
<g id="edge9" class="edge"><title>pg : TypeGraph&#45;&gt;tField : TField</title>
<path fill="none" stroke="black" d="M832.549,-95.4603C829.677,-83.8473 826.102,-69.3888 822.928,-56.5587"/>
<polygon fill="black" stroke="black" points="826.29,-55.571 820.491,-46.7038 819.494,-57.2516 826.29,-55.571"/>
<text text-anchor="middle" x="839" y="-68.2" font-family="Times New Roman,serif" font-size="11.00">fields</text>
</g>
</g>
</svg>
