<?xml version="1.0" encoding="UTF-8" standalone="no"?>
<!DOCTYPE svg PUBLIC "-//W3C//DTD SVG 1.1//EN"
 "http://www.w3.org/Graphics/SVG/1.1/DTD/svg11.dtd">
<!-- Generated by graphviz version 2.38.0 (20140413.2041)
 -->
<!-- Title: FieldTypePrimitiveFloat Pages: 1 -->
<svg width="898pt" height="234pt"
 viewBox="0.00 0.00 898.00 234.00" xmlns="http://www.w3.org/2000/svg" xmlns:xlink="http://www.w3.org/1999/xlink">
<g id="graph0" class="graph" transform="scale(1 1) rotate(0) translate(4 230)">
<title>FieldTypePrimitiveFloat</title>
<polygon fill="white" stroke="none" points="-4,4 -4,-230 894,-230 894,4 -4,4"/>
<!-- jPrimitiveTypeToTPrimitiveType : FloatToTClass -->
<g id="node1" class="node"><title>jPrimitiveTypeToTPrimitiveType : FloatToTClass</title>
<polygon fill="none" stroke="green" points="548.289,-118.5 437.145,-136.5 214.855,-136.5 103.711,-118.5 214.855,-100.5 437.145,-100.5 548.289,-118.5"/>
<text text-anchor="middle" x="326" y="-114.8" font-family="Times New Roman,serif" font-size="14.00">jPrimitiveTypeToTPrimitiveType : FloatToTClass</text>
</g>
<!-- jPrimitiveType : Float -->
<g id="node3" class="node"><title>jPrimitiveType : Float</title>
<polygon fill="none" stroke="green" points="165.5,-0.5 165.5,-46.5 302.5,-46.5 302.5,-0.5 165.5,-0.5"/>
<text text-anchor="middle" x="234" y="-31.3" font-family="Times New Roman,serif" font-size="14.00">jPrimitiveType : Float</text>
<polyline fill="none" stroke="green" points="165.5,-23.5 302.5,-23.5 "/>
<text text-anchor="middle" x="234" y="-8.3" font-family="Times New Roman,serif" font-size="14.00"> </text>
</g>
<!-- jPrimitiveTypeToTPrimitiveType : FloatToTClass&#45;&gt;jPrimitiveType : Float -->
<g id="edge1" class="edge"><title>jPrimitiveTypeToTPrimitiveType : FloatToTClass&#45;&gt;jPrimitiveType : Float</title>
<path fill="none" stroke="green" d="M309.126,-100.442C296.287,-87.4639 278.306,-69.2872 263.154,-53.9707"/>
<polygon fill="green" stroke="green" points="265.499,-51.3645 255.978,-46.7167 260.522,-56.2874 265.499,-51.3645"/>
<text text-anchor="middle" x="301" y="-68.2" font-family="Times New Roman,serif" font-size="11.00">source</text>
</g>
<!-- tPrimitiveType : TClass -->
<g id="node6" class="node"><title>tPrimitiveType : TClass</title>
<polygon fill="none" stroke="black" points="591.5,-0.5 591.5,-46.5 740.5,-46.5 740.5,-0.5 591.5,-0.5"/>
<text text-anchor="middle" x="666" y="-31.3" font-family="Times New Roman,serif" font-size="14.00">tPrimitiveType : TClass</text>
<polyline fill="none" stroke="black" points="591.5,-23.5 740.5,-23.5 "/>
<text text-anchor="middle" x="666" y="-8.3" font-family="Times New Roman,serif" font-size="14.00">tName == &quot;float&quot;</text>
</g>
<!-- jPrimitiveTypeToTPrimitiveType : FloatToTClass&#45;&gt;tPrimitiveType : TClass -->
<g id="edge4" class="edge"><title>jPrimitiveTypeToTPrimitiveType : FloatToTClass&#45;&gt;tPrimitiveType : TClass</title>
<path fill="none" stroke="green" d="M388.361,-100.442C442.569,-85.615 521.581,-64.0029 581.467,-47.6221"/>
<polygon fill="green" stroke="green" points="582.561,-50.9515 591.284,-44.9371 580.715,-44.1996 582.561,-50.9515"/>
<text text-anchor="middle" x="530" y="-68.2" font-family="Times New Roman,serif" font-size="11.00">target</text>
</g>
<!-- tFieldSignatureToJField : FieldToTFieldSignature -->
<g id="node2" class="node"><title>tFieldSignatureToJField : FieldToTFieldSignature</title>
<polygon fill="none" stroke="black" points="644.786,-208 534.893,-226 315.107,-226 205.214,-208 315.107,-190 534.893,-190 644.786,-208"/>
<text text-anchor="middle" x="425" y="-204.3" font-family="Times New Roman,serif" font-size="14.00">tFieldSignatureToJField : FieldToTFieldSignature</text>
</g>
<!-- tFieldSignature : TFieldSignature -->
<g id="node4" class="node"><title>tFieldSignature : TFieldSignature</title>
<polygon fill="none" stroke="black" points="566.5,-95.5 566.5,-141.5 765.5,-141.5 765.5,-95.5 566.5,-95.5"/>
<text text-anchor="middle" x="666" y="-126.3" font-family="Times New Roman,serif" font-size="14.00">tFieldSignature : TFieldSignature</text>
<polyline fill="none" stroke="black" points="566.5,-118.5 765.5,-118.5 "/>
<text text-anchor="middle" x="666" y="-103.3" font-family="Times New Roman,serif" font-size="14.00"> </text>
</g>
<!-- tFieldSignatureToJField : FieldToTFieldSignature&#45;&gt;tFieldSignature : TFieldSignature -->
<g id="edge2" class="edge"><title>tFieldSignatureToJField : FieldToTFieldSignature&#45;&gt;tFieldSignature : TFieldSignature</title>
<path fill="none" stroke="black" d="M472.039,-189.921C507.22,-177.148 555.91,-159.471 595.704,-145.022"/>
<polygon fill="black" stroke="black" points="597.148,-148.222 605.353,-141.519 594.759,-141.642 597.148,-148.222"/>
<text text-anchor="middle" x="566" y="-163.2" font-family="Times New Roman,serif" font-size="11.00">target</text>
</g>
<!-- jField : Field -->
<g id="node5" class="node"><title>jField : Field</title>
<polygon fill="none" stroke="black" points="0,-95.5 0,-141.5 86,-141.5 86,-95.5 0,-95.5"/>
<text text-anchor="middle" x="43" y="-126.3" font-family="Times New Roman,serif" font-size="14.00">jField : Field</text>
<polyline fill="none" stroke="black" points="0,-118.5 86,-118.5 "/>
<text text-anchor="middle" x="43" y="-103.3" font-family="Times New Roman,serif" font-size="14.00"> </text>
</g>
<!-- tFieldSignatureToJField : FieldToTFieldSignature&#45;&gt;jField : Field -->
<g id="edge3" class="edge"><title>tFieldSignatureToJField : FieldToTFieldSignature&#45;&gt;jField : Field</title>
<path fill="none" stroke="black" d="M310.486,-190.636C248.93,-180.369 171.877,-165.153 95.8915,-142.006"/>
<polygon fill="black" stroke="black" points="96.7368,-138.604 86.1491,-138.992 94.668,-145.291 96.7368,-138.604"/>
<text text-anchor="middle" x="227" y="-163.2" font-family="Times New Roman,serif" font-size="11.00">source</text>
</g>
<!-- tFieldSignature : TFieldSignature&#45;&gt;tPrimitiveType : TClass -->
<g id="edge7" class="edge"><title>tFieldSignature : TFieldSignature&#45;&gt;tPrimitiveType : TClass</title>
<path fill="none" stroke="green" d="M666,-95.4603C666,-83.9622 666,-69.6748 666,-56.9402"/>
<polygon fill="green" stroke="green" points="669.5,-56.7038 666,-46.7038 662.5,-56.7038 669.5,-56.7038"/>
<text text-anchor="middle" x="675.5" y="-68.2" font-family="Times New Roman,serif" font-size="11.00">type</text>
</g>
<!-- tField : TField -->
<g id="node7" class="node"><title>tField : TField</title>
<polygon fill="none" stroke="black" points="766.5,-0.5 766.5,-46.5 861.5,-46.5 861.5,-0.5 766.5,-0.5"/>
<text text-anchor="middle" x="814" y="-31.3" font-family="Times New Roman,serif" font-size="14.00">tField : TField</text>
<polyline fill="none" stroke="black" points="766.5,-23.5 861.5,-23.5 "/>
<text text-anchor="middle" x="814" y="-8.3" font-family="Times New Roman,serif" font-size="14.00"> </text>
</g>
<!-- tFieldSignature : TFieldSignature&#45;&gt;tField : TField -->
<g id="edge6" class="edge"><title>tFieldSignature : TFieldSignature&#45;&gt;tField : TField</title>
<path fill="none" stroke="black" d="M691.834,-95.275C703.921,-85.4039 718.764,-74.0078 733,-65 740.708,-60.1228 749.082,-55.3762 757.425,-50.9514"/>
<polygon fill="black" stroke="black" points="759.163,-53.9929 766.433,-46.2855 755.943,-47.7773 759.163,-53.9929"/>
<text text-anchor="middle" x="742.5" y="-68.2" font-family="Times New Roman,serif" font-size="11.00">field</text>
</g>
<!-- jField : Field&#45;&gt;jPrimitiveType : Float -->
<g id="edge5" class="edge"><title>jField : Field&#45;&gt;jPrimitiveType : Float</title>
<path fill="none" stroke="green" d="M86.3409,-96.3969C113.851,-83.0017 149.692,-65.5505 179.173,-51.1958"/>
<polygon fill="green" stroke="green" points="181.044,-54.1776 188.503,-46.6531 177.98,-47.884 181.044,-54.1776"/>
<text text-anchor="middle" x="183" y="-68.2" font-family="Times New Roman,serif" font-size="11.00">typeReference</text>
</g>
<!-- pg : TypeGraph -->
<g id="node8" class="node"><title>pg : TypeGraph</title>
<polygon fill="none" stroke="black" points="784,-95.5 784,-141.5 890,-141.5 890,-95.5 784,-95.5"/>
<text text-anchor="middle" x="837" y="-126.3" font-family="Times New Roman,serif" font-size="14.00">pg : TypeGraph</text>
<polyline fill="none" stroke="black" points="784,-118.5 890,-118.5 "/>
<text text-anchor="middle" x="837" y="-103.3" font-family="Times New Roman,serif" font-size="14.00"> </text>
</g>
<!-- pg : TypeGraph&#45;&gt;tPrimitiveType : TClass -->
<g id="edge8" class="edge"><title>pg : TypeGraph&#45;&gt;tPrimitiveType : TClass</title>
<path fill="none" stroke="black" d="M803.193,-95.3998C787.812,-85.6635 769.231,-74.3399 752,-65 743.295,-60.2814 733.946,-55.5498 724.733,-51.0707"/>
<polygon fill="black" stroke="black" points="726.125,-47.8565 715.595,-46.6855 723.096,-54.1675 726.125,-47.8565"/>
<text text-anchor="middle" x="788" y="-68.2" font-family="Times New Roman,serif" font-size="11.00">classes</text>
</g>
<!-- pg : TypeGraph&#45;&gt;tField : TField -->
<g id="edge9" class="edge"><title>pg : TypeGraph&#45;&gt;tField : TField</title>
<path fill="none" stroke="black" d="M831.549,-95.4603C828.677,-83.8473 825.102,-69.3888 821.928,-56.5587"/>
<polygon fill="black" stroke="black" points="825.29,-55.571 819.491,-46.7038 818.494,-57.2516 825.29,-55.571"/>
<text text-anchor="middle" x="838" y="-68.2" font-family="Times New Roman,serif" font-size="11.00">fields</text>
</g>
</g>
</svg>
