<?xml version="1.0" encoding="UTF-8" standalone="no"?>
<!DOCTYPE svg PUBLIC "-//W3C//DTD SVG 1.1//EN"
 "http://www.w3.org/Graphics/SVG/1.1/DTD/svg11.dtd">
<!-- Generated by graphviz version 2.38.0 (20140413.2041)
 -->
<!-- Title: FieldTypeCreateRule Pages: 1 -->
<svg width="929pt" height="462pt"
 viewBox="0.00 0.00 929.00 462.00" xmlns="http://www.w3.org/2000/svg" xmlns:xlink="http://www.w3.org/1999/xlink">
<g id="graph0" class="graph" transform="scale(1 1) rotate(0) translate(4 458)">
<title>FieldTypeCreateRule</title>
<polygon fill="white" stroke="none" points="-4,4 -4,-458 925,-458 925,4 -4,4"/>
<text text-anchor="middle" x="460.5" y="-22.8" font-family="Times New Roman,serif" font-size="14.00">_____________________________</text>
<text text-anchor="middle" x="460.5" y="-7.8" font-family="Times New Roman,serif" font-size="14.00"> eq(jType.name,tType.tName)</text>
<!-- jFieldToTFieldSignature : FieldToTFieldSignature -->
<g id="node1" class="node"><title>jFieldToTFieldSignature : FieldToTFieldSignature</title>
<polygon fill="none" stroke="black" points="646.789,-436 535.645,-454 313.355,-454 202.211,-436 313.355,-418 535.645,-418 646.789,-436"/>
<text text-anchor="middle" x="424.5" y="-432.3" font-family="Times New Roman,serif" font-size="14.00">jFieldToTFieldSignature : FieldToTFieldSignature</text>
</g>
<!-- jField : Field -->
<g id="node4" class="node"><title>jField : Field</title>
<polygon fill="none" stroke="black" points="141.5,-323.5 141.5,-369.5 227.5,-369.5 227.5,-323.5 141.5,-323.5"/>
<text text-anchor="middle" x="184.5" y="-354.3" font-family="Times New Roman,serif" font-size="14.00">jField : Field</text>
<polyline fill="none" stroke="black" points="141.5,-346.5 227.5,-346.5 "/>
<text text-anchor="middle" x="184.5" y="-331.3" font-family="Times New Roman,serif" font-size="14.00"> </text>
</g>
<!-- jFieldToTFieldSignature : FieldToTFieldSignature&#45;&gt;jField : Field -->
<g id="edge2" class="edge"><title>jFieldToTFieldSignature : FieldToTFieldSignature&#45;&gt;jField : Field</title>
<path fill="none" stroke="black" d="M371.844,-417.978C336.159,-406.172 287.796,-389.649 237.031,-370.1"/>
<polygon fill="black" stroke="black" points="238.116,-366.766 227.527,-366.415 235.585,-373.293 238.116,-366.766"/>
<text text-anchor="middle" x="334.5" y="-391.2" font-family="Times New Roman,serif" font-size="11.00">source</text>
</g>
<!-- tFieldSignature : TFieldSignature -->
<g id="node5" class="node"><title>tFieldSignature : TFieldSignature</title>
<polygon fill="none" stroke="black" points="565,-323.5 565,-369.5 764,-369.5 764,-323.5 565,-323.5"/>
<text text-anchor="middle" x="664.5" y="-354.3" font-family="Times New Roman,serif" font-size="14.00">tFieldSignature : TFieldSignature</text>
<polyline fill="none" stroke="black" points="565,-346.5 764,-346.5 "/>
<text text-anchor="middle" x="664.5" y="-331.3" font-family="Times New Roman,serif" font-size="14.00"> </text>
</g>
<!-- jFieldToTFieldSignature : FieldToTFieldSignature&#45;&gt;tFieldSignature : TFieldSignature -->
<g id="edge3" class="edge"><title>jFieldToTFieldSignature : FieldToTFieldSignature&#45;&gt;tFieldSignature : TFieldSignature</title>
<path fill="none" stroke="black" d="M471.344,-417.921C506.379,-405.148 554.866,-387.471 594.496,-373.022"/>
<polygon fill="black" stroke="black" points="595.909,-376.233 604.105,-369.519 593.511,-369.656 595.909,-376.233"/>
<text text-anchor="middle" x="565.5" y="-391.2" font-family="Times New Roman,serif" font-size="11.00">target</text>
</g>
<!-- jTypeToTType : ClassToTClass -->
<g id="node2" class="node"><title>jTypeToTType : ClassToTClass</title>
<polygon fill="none" stroke="green" points="547.197,-346.5 471.848,-364.5 321.152,-364.5 245.803,-346.5 321.152,-328.5 471.848,-328.5 547.197,-346.5"/>
<text text-anchor="middle" x="396.5" y="-342.8" font-family="Times New Roman,serif" font-size="14.00">jTypeToTType : ClassToTClass</text>
</g>
<!-- jType : Class -->
<g id="node3" class="node"><title>jType : Class</title>
<polygon fill="none" stroke="black" points="301.5,-38.5 301.5,-84.5 391.5,-84.5 391.5,-38.5 301.5,-38.5"/>
<text text-anchor="middle" x="346.5" y="-69.3" font-family="Times New Roman,serif" font-size="14.00">jType : Class</text>
<polyline fill="none" stroke="black" points="301.5,-61.5 391.5,-61.5 "/>
<text text-anchor="middle" x="346.5" y="-46.3" font-family="Times New Roman,serif" font-size="14.00"> </text>
</g>
<!-- jTypeToTType : ClassToTClass&#45;&gt;jType : Class -->
<g id="edge1" class="edge"><title>jTypeToTType : ClassToTClass&#45;&gt;jType : Class</title>
<path fill="none" stroke="green" d="M394.14,-328.357C389.072,-292.148 376.466,-205.265 362.5,-133 360.069,-120.419 357.032,-106.66 354.259,-94.6639"/>
<polygon fill="green" stroke="green" points="357.602,-93.5869 351.912,-84.6492 350.786,-95.184 357.602,-93.5869"/>
<text text-anchor="middle" x="391.5" y="-201.2" font-family="Times New Roman,serif" font-size="11.00">source</text>
</g>
<!-- tType : TClass -->
<g id="node6" class="node"><title>tType : TClass</title>
<polygon fill="none" stroke="green" points="540.5,-228.5 540.5,-274.5 640.5,-274.5 640.5,-228.5 540.5,-228.5"/>
<text text-anchor="middle" x="590.5" y="-259.3" font-family="Times New Roman,serif" font-size="14.00">tType : TClass</text>
<polyline fill="none" stroke="green" points="540.5,-251.5 640.5,-251.5 "/>
<text text-anchor="middle" x="590.5" y="-236.3" font-family="Times New Roman,serif" font-size="14.00"> </text>
</g>
<!-- jTypeToTType : ClassToTClass&#45;&gt;tType : TClass -->
<g id="edge4" class="edge"><title>jTypeToTType : ClassToTClass&#45;&gt;tType : TClass</title>
<path fill="none" stroke="green" d="M432.083,-328.442C460.979,-314.59 502.228,-294.816 535.391,-278.918"/>
<polygon fill="green" stroke="green" points="537.009,-282.024 544.513,-274.545 533.983,-275.712 537.009,-282.024"/>
<text text-anchor="middle" x="518.5" y="-296.2" font-family="Times New Roman,serif" font-size="11.00">target</text>
</g>
<!-- namespaceClassifierReference : NamespaceClassifierReference -->
<g id="node7" class="node"><title>namespaceClassifierReference : NamespaceClassifierReference</title>
<polygon fill="none" stroke="green" points="0,-228.5 0,-274.5 369,-274.5 369,-228.5 0,-228.5"/>
<text text-anchor="middle" x="184.5" y="-259.3" font-family="Times New Roman,serif" font-size="14.00">namespaceClassifierReference : NamespaceClassifierReference</text>
<polyline fill="none" stroke="green" points="0,-251.5 369,-251.5 "/>
<text text-anchor="middle" x="184.5" y="-236.3" font-family="Times New Roman,serif" font-size="14.00"> </text>
</g>
<!-- jField : Field&#45;&gt;namespaceClassifierReference : NamespaceClassifierReference -->
<g id="edge7" class="edge"><title>jField : Field&#45;&gt;namespaceClassifierReference : NamespaceClassifierReference</title>
<path fill="none" stroke="green" d="M184.5,-323.46C184.5,-311.962 184.5,-297.675 184.5,-284.94"/>
<polygon fill="green" stroke="green" points="188,-284.704 184.5,-274.704 181,-284.704 188,-284.704"/>
<text text-anchor="middle" x="217.5" y="-296.2" font-family="Times New Roman,serif" font-size="11.00">typeReference</text>
</g>
<!-- tFieldSignature : TFieldSignature&#45;&gt;tType : TClass -->
<g id="edge10" class="edge"><title>tFieldSignature : TFieldSignature&#45;&gt;tType : TClass</title>
<path fill="none" stroke="green" d="M646.963,-323.46C637.265,-311.272 625.073,-295.95 614.503,-282.666"/>
<polygon fill="green" stroke="green" points="617.133,-280.35 608.168,-274.704 611.655,-284.708 617.133,-280.35"/>
<text text-anchor="middle" x="642" y="-296.2" font-family="Times New Roman,serif" font-size="11.00">type</text>
</g>
<!-- tField : TField -->
<g id="node11" class="node"><title>tField : TField</title>
<polygon fill="none" stroke="black" points="659,-228.5 659,-274.5 754,-274.5 754,-228.5 659,-228.5"/>
<text text-anchor="middle" x="706.5" y="-259.3" font-family="Times New Roman,serif" font-size="14.00">tField : TField</text>
<polyline fill="none" stroke="black" points="659,-251.5 754,-251.5 "/>
<text text-anchor="middle" x="706.5" y="-236.3" font-family="Times New Roman,serif" font-size="14.00"> </text>
</g>
<!-- tFieldSignature : TFieldSignature&#45;&gt;tField : TField -->
<g id="edge11" class="edge"><title>tFieldSignature : TFieldSignature&#45;&gt;tField : TField</title>
<path fill="none" stroke="black" d="M671.547,-323.456C674.826,-313.939 678.997,-302.772 683.5,-293 684.888,-289.989 686.421,-286.904 688.017,-283.845"/>
<polygon fill="black" stroke="black" points="691.207,-285.307 692.914,-274.85 685.059,-281.96 691.207,-285.307"/>
<text text-anchor="middle" x="693" y="-296.2" font-family="Times New Roman,serif" font-size="11.00">field</text>
</g>
<!-- classifierReference : ClassifierReference -->
<g id="node8" class="node"><title>classifierReference : ClassifierReference</title>
<polygon fill="none" stroke="green" points="113.5,-133.5 113.5,-179.5 353.5,-179.5 353.5,-133.5 113.5,-133.5"/>
<text text-anchor="middle" x="233.5" y="-164.3" font-family="Times New Roman,serif" font-size="14.00">classifierReference : ClassifierReference</text>
<polyline fill="none" stroke="green" points="113.5,-156.5 353.5,-156.5 "/>
<text text-anchor="middle" x="233.5" y="-141.3" font-family="Times New Roman,serif" font-size="14.00"> </text>
</g>
<!-- namespaceClassifierReference : NamespaceClassifierReference&#45;&gt;classifierReference : ClassifierReference -->
<g id="edge5" class="edge"><title>namespaceClassifierReference : NamespaceClassifierReference&#45;&gt;classifierReference : ClassifierReference</title>
<path fill="none" stroke="green" d="M196.112,-228.46C202.352,-216.617 210.151,-201.815 217.009,-188.798"/>
<polygon fill="green" stroke="green" points="220.236,-190.182 221.801,-179.704 214.043,-186.919 220.236,-190.182"/>
<text text-anchor="middle" x="258" y="-201.2" font-family="Times New Roman,serif" font-size="11.00">classifierReferences</text>
</g>
<!-- classifierReference : ClassifierReference&#45;&gt;jType : Class -->
<g id="edge6" class="edge"><title>classifierReference : ClassifierReference&#45;&gt;jType : Class</title>
<path fill="none" stroke="green" d="M260.279,-133.46C275.647,-120.812 295.116,-104.789 311.663,-91.1708"/>
<polygon fill="green" stroke="green" points="314.024,-93.761 319.521,-84.7038 309.576,-88.3561 314.024,-93.761"/>
<text text-anchor="middle" x="310.5" y="-106.2" font-family="Times New Roman,serif" font-size="11.00">target</text>
</g>
<!-- pg : TypeGraph -->
<g id="node9" class="node"><title>pg : TypeGraph</title>
<polygon fill="none" stroke="black" points="782.5,-323.5 782.5,-369.5 888.5,-369.5 888.5,-323.5 782.5,-323.5"/>
<text text-anchor="middle" x="835.5" y="-354.3" font-family="Times New Roman,serif" font-size="14.00">pg : TypeGraph</text>
<polyline fill="none" stroke="black" points="782.5,-346.5 888.5,-346.5 "/>
<text text-anchor="middle" x="835.5" y="-331.3" font-family="Times New Roman,serif" font-size="14.00"> </text>
</g>
<!-- pg : TypeGraph&#45;&gt;tType : TClass -->
<g id="edge8" class="edge"><title>pg : TypeGraph&#45;&gt;tType : TClass</title>
<path fill="none" stroke="green" d="M782.394,-326.653C764.791,-320.123 745.183,-312.542 727.5,-305 716.163,-300.165 713.911,-297.657 702.5,-293 681.986,-284.629 674.537,-283.581 650.377,-275.215"/>
<polygon fill="green" stroke="green" points="651.26,-271.815 640.665,-271.775 648.923,-278.413 651.26,-271.815"/>
<text text-anchor="middle" x="743.5" y="-296.2" font-family="Times New Roman,serif" font-size="11.00">classes</text>
</g>
<!-- existingTClass : TClass -->
<g id="node10" class="node"><title>existingTClass : TClass</title>
<polygon fill="none" stroke="blue" points="772,-228.5 772,-274.5 921,-274.5 921,-228.5 772,-228.5"/>
<text text-anchor="middle" x="846.5" y="-259.3" font-family="Times New Roman,serif" font-size="14.00">existingTClass : TClass</text>
<polyline fill="none" stroke="blue" points="772,-251.5 921,-251.5 "/>
<text text-anchor="middle" x="846.5" y="-236.3" font-family="Times New Roman,serif" font-size="14.00"> </text>
</g>
<!-- pg : TypeGraph&#45;&gt;existingTClass : TClass -->
<g id="edge9" class="edge"><title>pg : TypeGraph&#45;&gt;existingTClass : TClass</title>
<path fill="none" stroke="black" d="M838.107,-323.46C839.467,-311.962 841.157,-297.675 842.663,-284.94"/>
<polygon fill="black" stroke="black" points="846.175,-285.046 843.874,-274.704 839.223,-284.223 846.175,-285.046"/>
<text text-anchor="middle" x="858.5" y="-296.2" font-family="Times New Roman,serif" font-size="11.00">classes</text>
</g>
<!-- pg : TypeGraph&#45;&gt;tField : TField -->
<g id="edge12" class="edge"><title>pg : TypeGraph&#45;&gt;tField : TField</title>
<path fill="none" stroke="black" d="M804.929,-323.46C787.146,-310.64 764.552,-294.352 745.498,-280.615"/>
<polygon fill="black" stroke="black" points="747.457,-277.713 737.299,-274.704 743.364,-283.391 747.457,-277.713"/>
<text text-anchor="middle" x="791.5" y="-296.2" font-family="Times New Roman,serif" font-size="11.00">fields</text>
</g>
</g>
</svg>
