<?xml version="1.0" encoding="UTF-8" standalone="no"?>
<!DOCTYPE svg PUBLIC "-//W3C//DTD SVG 1.1//EN"
 "http://www.w3.org/Graphics/SVG/1.1/DTD/svg11.dtd">
<!-- Generated by graphviz version 2.38.0 (20140413.2041)
 -->
<!-- Title: FieldTypePrimitiveBoolean Pages: 1 -->
<svg width="925pt" height="234pt"
 viewBox="0.00 0.00 925.00 234.00" xmlns="http://www.w3.org/2000/svg" xmlns:xlink="http://www.w3.org/1999/xlink">
<g id="graph0" class="graph" transform="scale(1 1) rotate(0) translate(4 230)">
<title>FieldTypePrimitiveBoolean</title>
<polygon fill="white" stroke="none" points="-4,4 -4,-230 921,-230 921,4 -4,4"/>
<!-- jPrimitiveTypeToTPrimitiveType : BooleanToTClass -->
<g id="node1" class="node"><title>jPrimitiveTypeToTPrimitiveType : BooleanToTClass</title>
<polygon fill="none" stroke="green" points="575.807,-118.5 457.904,-136.5 222.096,-136.5 104.193,-118.5 222.096,-100.5 457.904,-100.5 575.807,-118.5"/>
<text text-anchor="middle" x="340" y="-114.8" font-family="Times New Roman,serif" font-size="14.00">jPrimitiveTypeToTPrimitiveType : BooleanToTClass</text>
</g>
<!-- jPrimitiveType : Boolean -->
<g id="node3" class="node"><title>jPrimitiveType : Boolean</title>
<polygon fill="none" stroke="green" points="167,-0.5 167,-46.5 321,-46.5 321,-0.5 167,-0.5"/>
<text text-anchor="middle" x="244" y="-31.3" font-family="Times New Roman,serif" font-size="14.00">jPrimitiveType : Boolean</text>
<polyline fill="none" stroke="green" points="167,-23.5 321,-23.5 "/>
<text text-anchor="middle" x="244" y="-8.3" font-family="Times New Roman,serif" font-size="14.00"> </text>
</g>
<!-- jPrimitiveTypeToTPrimitiveType : BooleanToTClass&#45;&gt;jPrimitiveType : Boolean -->
<g id="edge1" class="edge"><title>jPrimitiveTypeToTPrimitiveType : BooleanToTClass&#45;&gt;jPrimitiveType : Boolean</title>
<path fill="none" stroke="green" d="M322.392,-100.442C308.995,-87.4639 290.232,-69.2872 274.421,-53.9707"/>
<polygon fill="green" stroke="green" points="276.551,-51.1608 266.933,-46.7167 271.681,-56.1885 276.551,-51.1608"/>
<text text-anchor="middle" x="313" y="-68.2" font-family="Times New Roman,serif" font-size="11.00">source</text>
</g>
<!-- tPrimitiveType : TClass -->
<g id="node6" class="node"><title>tPrimitiveType : TClass</title>
<polygon fill="none" stroke="black" points="618.5,-0.5 618.5,-46.5 767.5,-46.5 767.5,-0.5 618.5,-0.5"/>
<text text-anchor="middle" x="693" y="-31.3" font-family="Times New Roman,serif" font-size="14.00">tPrimitiveType : TClass</text>
<polyline fill="none" stroke="black" points="618.5,-23.5 767.5,-23.5 "/>
<text text-anchor="middle" x="693" y="-8.3" font-family="Times New Roman,serif" font-size="14.00">tName == &quot;boolean&quot;</text>
</g>
<!-- jPrimitiveTypeToTPrimitiveType : BooleanToTClass&#45;&gt;tPrimitiveType : TClass -->
<g id="edge4" class="edge"><title>jPrimitiveTypeToTPrimitiveType : BooleanToTClass&#45;&gt;tPrimitiveType : TClass</title>
<path fill="none" stroke="green" d="M404.746,-100.442C461.992,-85.3605 545.883,-63.2588 608.42,-46.7831"/>
<polygon fill="green" stroke="green" points="609.488,-50.1214 618.266,-44.1891 607.704,-43.3523 609.488,-50.1214"/>
<text text-anchor="middle" x="551" y="-68.2" font-family="Times New Roman,serif" font-size="11.00">target</text>
</g>
<!-- tFieldSignatureToJField : FieldToTFieldSignature -->
<g id="node2" class="node"><title>tFieldSignatureToJField : FieldToTFieldSignature</title>
<polygon fill="none" stroke="black" points="661.786,-208 551.893,-226 332.107,-226 222.214,-208 332.107,-190 551.893,-190 661.786,-208"/>
<text text-anchor="middle" x="442" y="-204.3" font-family="Times New Roman,serif" font-size="14.00">tFieldSignatureToJField : FieldToTFieldSignature</text>
</g>
<!-- jField : Field -->
<g id="node4" class="node"><title>jField : Field</title>
<polygon fill="none" stroke="black" points="0,-95.5 0,-141.5 86,-141.5 86,-95.5 0,-95.5"/>
<text text-anchor="middle" x="43" y="-126.3" font-family="Times New Roman,serif" font-size="14.00">jField : Field</text>
<polyline fill="none" stroke="black" points="0,-118.5 86,-118.5 "/>
<text text-anchor="middle" x="43" y="-103.3" font-family="Times New Roman,serif" font-size="14.00"> </text>
</g>
<!-- tFieldSignatureToJField : FieldToTFieldSignature&#45;&gt;jField : Field -->
<g id="edge2" class="edge"><title>tFieldSignatureToJField : FieldToTFieldSignature&#45;&gt;jField : Field</title>
<path fill="none" stroke="black" d="M323.17,-191.459C258.065,-181.349 176.126,-166.018 95.9118,-141.996"/>
<polygon fill="black" stroke="black" points="96.7251,-138.585 86.1394,-139.024 94.6879,-145.282 96.7251,-138.585"/>
<text text-anchor="middle" x="223" y="-163.2" font-family="Times New Roman,serif" font-size="11.00">source</text>
</g>
<!-- tFieldSignature : TFieldSignature -->
<g id="node5" class="node"><title>tFieldSignature : TFieldSignature</title>
<polygon fill="none" stroke="black" points="593.5,-95.5 593.5,-141.5 792.5,-141.5 792.5,-95.5 593.5,-95.5"/>
<text text-anchor="middle" x="693" y="-126.3" font-family="Times New Roman,serif" font-size="14.00">tFieldSignature : TFieldSignature</text>
<polyline fill="none" stroke="black" points="593.5,-118.5 792.5,-118.5 "/>
<text text-anchor="middle" x="693" y="-103.3" font-family="Times New Roman,serif" font-size="14.00"> </text>
</g>
<!-- tFieldSignatureToJField : FieldToTFieldSignature&#45;&gt;tFieldSignature : TFieldSignature -->
<g id="edge3" class="edge"><title>tFieldSignatureToJField : FieldToTFieldSignature&#45;&gt;tFieldSignature : TFieldSignature</title>
<path fill="none" stroke="black" d="M490.991,-189.921C527.786,-177.094 578.771,-159.321 620.312,-144.839"/>
<polygon fill="black" stroke="black" points="621.546,-148.116 629.837,-141.519 619.242,-141.506 621.546,-148.116"/>
<text text-anchor="middle" x="589" y="-163.2" font-family="Times New Roman,serif" font-size="11.00">target</text>
</g>
<!-- jField : Field&#45;&gt;jPrimitiveType : Boolean -->
<g id="edge5" class="edge"><title>jField : Field&#45;&gt;jPrimitiveType : Boolean</title>
<path fill="none" stroke="green" d="M86.1195,-97.5492C115.621,-83.8991 155.044,-65.6588 187.115,-50.82"/>
<polygon fill="green" stroke="green" points="188.775,-53.9085 196.381,-46.5328 185.835,-47.5556 188.775,-53.9085"/>
<text text-anchor="middle" x="189" y="-68.2" font-family="Times New Roman,serif" font-size="11.00">typeReference</text>
</g>
<!-- tFieldSignature : TFieldSignature&#45;&gt;tPrimitiveType : TClass -->
<g id="edge9" class="edge"><title>tFieldSignature : TFieldSignature&#45;&gt;tPrimitiveType : TClass</title>
<path fill="none" stroke="green" d="M693,-95.4603C693,-83.9622 693,-69.6748 693,-56.9402"/>
<polygon fill="green" stroke="green" points="696.5,-56.7038 693,-46.7038 689.5,-56.7038 696.5,-56.7038"/>
<text text-anchor="middle" x="702.5" y="-68.2" font-family="Times New Roman,serif" font-size="11.00">type</text>
</g>
<!-- tField : TField -->
<g id="node7" class="node"><title>tField : TField</title>
<polygon fill="none" stroke="black" points="793.5,-0.5 793.5,-46.5 888.5,-46.5 888.5,-0.5 793.5,-0.5"/>
<text text-anchor="middle" x="841" y="-31.3" font-family="Times New Roman,serif" font-size="14.00">tField : TField</text>
<polyline fill="none" stroke="black" points="793.5,-23.5 888.5,-23.5 "/>
<text text-anchor="middle" x="841" y="-8.3" font-family="Times New Roman,serif" font-size="14.00"> </text>
</g>
<!-- tFieldSignature : TFieldSignature&#45;&gt;tField : TField -->
<g id="edge7" class="edge"><title>tFieldSignature : TFieldSignature&#45;&gt;tField : TField</title>
<path fill="none" stroke="black" d="M718.834,-95.275C730.921,-85.4039 745.764,-74.0078 760,-65 767.708,-60.1228 776.082,-55.3762 784.425,-50.9514"/>
<polygon fill="black" stroke="black" points="786.163,-53.9929 793.433,-46.2855 782.943,-47.7773 786.163,-53.9929"/>
<text text-anchor="middle" x="769.5" y="-68.2" font-family="Times New Roman,serif" font-size="11.00">field</text>
</g>
<!-- pg : TypeGraph -->
<g id="node8" class="node"><title>pg : TypeGraph</title>
<polygon fill="none" stroke="black" points="811,-95.5 811,-141.5 917,-141.5 917,-95.5 811,-95.5"/>
<text text-anchor="middle" x="864" y="-126.3" font-family="Times New Roman,serif" font-size="14.00">pg : TypeGraph</text>
<polyline fill="none" stroke="black" points="811,-118.5 917,-118.5 "/>
<text text-anchor="middle" x="864" y="-103.3" font-family="Times New Roman,serif" font-size="14.00"> </text>
</g>
<!-- pg : TypeGraph&#45;&gt;tPrimitiveType : TClass -->
<g id="edge8" class="edge"><title>pg : TypeGraph&#45;&gt;tPrimitiveType : TClass</title>
<path fill="none" stroke="black" d="M830.193,-95.3998C814.812,-85.6635 796.231,-74.3399 779,-65 770.295,-60.2814 760.946,-55.5498 751.733,-51.0707"/>
<polygon fill="black" stroke="black" points="753.125,-47.8565 742.595,-46.6855 750.096,-54.1675 753.125,-47.8565"/>
<text text-anchor="middle" x="815" y="-68.2" font-family="Times New Roman,serif" font-size="11.00">classes</text>
</g>
<!-- pg : TypeGraph&#45;&gt;tField : TField -->
<g id="edge6" class="edge"><title>pg : TypeGraph&#45;&gt;tField : TField</title>
<path fill="none" stroke="black" d="M858.549,-95.4603C855.677,-83.8473 852.102,-69.3888 848.928,-56.5587"/>
<polygon fill="black" stroke="black" points="852.29,-55.571 846.491,-46.7038 845.494,-57.2516 852.29,-55.571"/>
<text text-anchor="middle" x="865" y="-68.2" font-family="Times New Roman,serif" font-size="11.00">fields</text>
</g>
</g>
</svg>
