<?xml version="1.0" encoding="UTF-8" standalone="no"?>
<!DOCTYPE svg PUBLIC "-//W3C//DTD SVG 1.1//EN"
 "http://www.w3.org/Graphics/SVG/1.1/DTD/svg11.dtd">
<!-- Generated by graphviz version 2.38.0 (20140413.2041)
 -->
<!-- Title: FieldTypePrimitiveShort Pages: 1 -->
<svg width="902pt" height="234pt"
 viewBox="0.00 0.00 901.50 234.00" xmlns="http://www.w3.org/2000/svg" xmlns:xlink="http://www.w3.org/1999/xlink">
<g id="graph0" class="graph" transform="scale(1 1) rotate(0) translate(4 230)">
<title>FieldTypePrimitiveShort</title>
<polygon fill="white" stroke="none" points="-4,4 -4,-230 897.5,-230 897.5,4 -4,4"/>
<!-- jPrimitiveTypeToTPrimitiveType : ShortToTClass -->
<g id="node1" class="node"><title>jPrimitiveTypeToTPrimitiveType : ShortToTClass</title>
<polygon fill="none" stroke="green" points="552.292,-118.5 440.146,-136.5 215.854,-136.5 103.708,-118.5 215.854,-100.5 440.146,-100.5 552.292,-118.5"/>
<text text-anchor="middle" x="328" y="-114.8" font-family="Times New Roman,serif" font-size="14.00">jPrimitiveTypeToTPrimitiveType : ShortToTClass</text>
</g>
<!-- tPrimitiveType : TClass -->
<g id="node3" class="node"><title>tPrimitiveType : TClass</title>
<polygon fill="none" stroke="black" points="548.5,-0.5 548.5,-46.5 697.5,-46.5 697.5,-0.5 548.5,-0.5"/>
<text text-anchor="middle" x="623" y="-31.3" font-family="Times New Roman,serif" font-size="14.00">tPrimitiveType : TClass</text>
<polyline fill="none" stroke="black" points="548.5,-23.5 697.5,-23.5 "/>
<text text-anchor="middle" x="623" y="-8.3" font-family="Times New Roman,serif" font-size="14.00">tName == &quot;short&quot;</text>
</g>
<!-- jPrimitiveTypeToTPrimitiveType : ShortToTClass&#45;&gt;tPrimitiveType : TClass -->
<g id="edge1" class="edge"><title>jPrimitiveTypeToTPrimitiveType : ShortToTClass&#45;&gt;tPrimitiveType : TClass</title>
<path fill="none" stroke="green" d="M382.108,-100.442C427.268,-86.2053 492.271,-65.7129 543.373,-49.6026"/>
<polygon fill="green" stroke="green" points="544.587,-52.89 553.072,-46.5452 542.482,-46.2139 544.587,-52.89"/>
<text text-anchor="middle" x="506" y="-68.2" font-family="Times New Roman,serif" font-size="11.00">target</text>
</g>
<!-- jPrimitiveType : Short -->
<g id="node4" class="node"><title>jPrimitiveType : Short</title>
<polygon fill="none" stroke="green" points="66.5,-0.5 66.5,-46.5 205.5,-46.5 205.5,-0.5 66.5,-0.5"/>
<text text-anchor="middle" x="136" y="-31.3" font-family="Times New Roman,serif" font-size="14.00">jPrimitiveType : Short</text>
<polyline fill="none" stroke="green" points="66.5,-23.5 205.5,-23.5 "/>
<text text-anchor="middle" x="136" y="-8.3" font-family="Times New Roman,serif" font-size="14.00"> </text>
</g>
<!-- jPrimitiveTypeToTPrimitiveType : ShortToTClass&#45;&gt;jPrimitiveType : Short -->
<g id="edge2" class="edge"><title>jPrimitiveTypeToTPrimitiveType : ShortToTClass&#45;&gt;jPrimitiveType : Short</title>
<path fill="none" stroke="green" d="M292.784,-100.442C264.186,-86.5901 223.362,-66.816 190.541,-50.9183"/>
<polygon fill="green" stroke="green" points="192.038,-47.7546 181.513,-46.5452 188.987,-54.0545 192.038,-47.7546"/>
<text text-anchor="middle" x="259" y="-68.2" font-family="Times New Roman,serif" font-size="11.00">source</text>
</g>
<!-- tFieldSignatureToJField : FieldToTFieldSignature -->
<g id="node2" class="node"><title>tFieldSignatureToJField : FieldToTFieldSignature</title>
<polygon fill="none" stroke="black" points="724.786,-208 614.893,-226 395.107,-226 285.214,-208 395.107,-190 614.893,-190 724.786,-208"/>
<text text-anchor="middle" x="505" y="-204.3" font-family="Times New Roman,serif" font-size="14.00">tFieldSignatureToJField : FieldToTFieldSignature</text>
</g>
<!-- tFieldSignature : TFieldSignature -->
<g id="node5" class="node"><title>tFieldSignature : TFieldSignature</title>
<polygon fill="none" stroke="black" points="694.5,-95.5 694.5,-141.5 893.5,-141.5 893.5,-95.5 694.5,-95.5"/>
<text text-anchor="middle" x="794" y="-126.3" font-family="Times New Roman,serif" font-size="14.00">tFieldSignature : TFieldSignature</text>
<polyline fill="none" stroke="black" points="694.5,-118.5 893.5,-118.5 "/>
<text text-anchor="middle" x="794" y="-103.3" font-family="Times New Roman,serif" font-size="14.00"> </text>
</g>
<!-- tFieldSignatureToJField : FieldToTFieldSignature&#45;&gt;tFieldSignature : TFieldSignature -->
<g id="edge3" class="edge"><title>tFieldSignatureToJField : FieldToTFieldSignature&#45;&gt;tFieldSignature : TFieldSignature</title>
<path fill="none" stroke="black" d="M561.408,-189.921C604.131,-176.986 663.467,-159.021 711.514,-144.474"/>
<polygon fill="black" stroke="black" points="712.718,-147.767 721.274,-141.519 710.689,-141.067 712.718,-147.767"/>
<text text-anchor="middle" x="671" y="-163.2" font-family="Times New Roman,serif" font-size="11.00">target</text>
</g>
<!-- jField : Field -->
<g id="node6" class="node"><title>jField : Field</title>
<polygon fill="none" stroke="black" points="0,-95.5 0,-141.5 86,-141.5 86,-95.5 0,-95.5"/>
<text text-anchor="middle" x="43" y="-126.3" font-family="Times New Roman,serif" font-size="14.00">jField : Field</text>
<polyline fill="none" stroke="black" points="0,-118.5 86,-118.5 "/>
<text text-anchor="middle" x="43" y="-103.3" font-family="Times New Roman,serif" font-size="14.00"> </text>
</g>
<!-- tFieldSignatureToJField : FieldToTFieldSignature&#45;&gt;jField : Field -->
<g id="edge4" class="edge"><title>tFieldSignatureToJField : FieldToTFieldSignature&#45;&gt;jField : Field</title>
<path fill="none" stroke="black" d="M369.254,-194.149C291.171,-184.696 191.495,-169.12 95.9405,-141.958"/>
<polygon fill="black" stroke="black" points="96.6897,-138.531 86.1112,-139.118 94.7468,-145.256 96.6897,-138.531"/>
<text text-anchor="middle" x="232" y="-163.2" font-family="Times New Roman,serif" font-size="11.00">source</text>
</g>
<!-- tFieldSignature : TFieldSignature&#45;&gt;tPrimitiveType : TClass -->
<g id="edge8" class="edge"><title>tFieldSignature : TFieldSignature&#45;&gt;tPrimitiveType : TClass</title>
<path fill="none" stroke="green" d="M767.441,-95.3689C754.546,-85.2874 738.513,-73.693 723,-65 713.742,-59.8123 703.684,-54.9372 693.634,-50.4903"/>
<polygon fill="green" stroke="green" points="694.998,-47.2672 684.429,-46.5302 692.231,-53.6973 694.998,-47.2672"/>
<text text-anchor="middle" x="750.5" y="-68.2" font-family="Times New Roman,serif" font-size="11.00">type</text>
</g>
<!-- tField : TField -->
<g id="node8" class="node"><title>tField : TField</title>
<polygon fill="none" stroke="black" points="717.5,-0.5 717.5,-46.5 812.5,-46.5 812.5,-0.5 717.5,-0.5"/>
<text text-anchor="middle" x="765" y="-31.3" font-family="Times New Roman,serif" font-size="14.00">tField : TField</text>
<polyline fill="none" stroke="black" points="717.5,-23.5 812.5,-23.5 "/>
<text text-anchor="middle" x="765" y="-8.3" font-family="Times New Roman,serif" font-size="14.00"> </text>
</g>
<!-- tFieldSignature : TFieldSignature&#45;&gt;tField : TField -->
<g id="edge9" class="edge"><title>tFieldSignature : TFieldSignature&#45;&gt;tField : TField</title>
<path fill="none" stroke="black" d="M787.127,-95.4603C783.506,-83.8473 778.998,-69.3888 774.997,-56.5587"/>
<polygon fill="black" stroke="black" points="778.242,-55.2085 771.924,-46.7038 771.559,-57.2924 778.242,-55.2085"/>
<text text-anchor="middle" x="790.5" y="-68.2" font-family="Times New Roman,serif" font-size="11.00">field</text>
</g>
<!-- jField : Field&#45;&gt;jPrimitiveType : Short -->
<g id="edge5" class="edge"><title>jField : Field&#45;&gt;jPrimitiveType : Short</title>
<path fill="none" stroke="green" d="M65.0397,-95.4603C77.4576,-83.0424 93.1291,-67.3709 106.584,-53.916"/>
<polygon fill="green" stroke="green" points="109.2,-56.2498 113.796,-46.7038 104.25,-51.3 109.2,-56.2498"/>
<text text-anchor="middle" x="129" y="-68.2" font-family="Times New Roman,serif" font-size="11.00">typeReference</text>
</g>
<!-- pg : TypeGraph -->
<g id="node7" class="node"><title>pg : TypeGraph</title>
<polygon fill="none" stroke="black" points="570,-95.5 570,-141.5 676,-141.5 676,-95.5 570,-95.5"/>
<text text-anchor="middle" x="623" y="-126.3" font-family="Times New Roman,serif" font-size="14.00">pg : TypeGraph</text>
<polyline fill="none" stroke="black" points="570,-118.5 676,-118.5 "/>
<text text-anchor="middle" x="623" y="-103.3" font-family="Times New Roman,serif" font-size="14.00"> </text>
</g>
<!-- pg : TypeGraph&#45;&gt;tPrimitiveType : TClass -->
<g id="edge6" class="edge"><title>pg : TypeGraph&#45;&gt;tPrimitiveType : TClass</title>
<path fill="none" stroke="black" d="M623,-95.4603C623,-83.9622 623,-69.6748 623,-56.9402"/>
<polygon fill="black" stroke="black" points="626.5,-56.7038 623,-46.7038 619.5,-56.7038 626.5,-56.7038"/>
<text text-anchor="middle" x="639" y="-68.2" font-family="Times New Roman,serif" font-size="11.00">classes</text>
</g>
<!-- pg : TypeGraph&#45;&gt;tField : TField -->
<g id="edge7" class="edge"><title>pg : TypeGraph&#45;&gt;tField : TField</title>
<path fill="none" stroke="black" d="M654.172,-95.4035C667.817,-85.8779 684.086,-74.7171 699,-65 705.574,-60.7171 712.58,-56.2822 719.48,-51.9872"/>
<polygon fill="black" stroke="black" points="721.458,-54.8793 728.123,-46.6436 717.777,-48.9254 721.458,-54.8793"/>
<text text-anchor="middle" x="711" y="-68.2" font-family="Times New Roman,serif" font-size="11.00">fields</text>
</g>
</g>
</svg>
