<?xml version="1.0" encoding="UTF-8" standalone="no"?>
<!DOCTYPE svg PUBLIC "-//W3C//DTD SVG 1.1//EN"
 "http://www.w3.org/Graphics/SVG/1.1/DTD/svg11.dtd">
<!-- Generated by graphviz version 2.38.0 (20140413.2041)
 -->
<!-- Title: FieldTypeExistingRule Pages: 1 -->
<svg width="714pt" height="424pt"
 viewBox="0.00 0.00 713.74 424.00" xmlns="http://www.w3.org/2000/svg" xmlns:xlink="http://www.w3.org/1999/xlink">
<g id="graph0" class="graph" transform="scale(1 1) rotate(0) translate(4 420)">
<title>FieldTypeExistingRule</title>
<polygon fill="white" stroke="none" points="-4,4 -4,-420 709.741,-420 709.741,4 -4,4"/>
<!-- tFieldSignatureToJField : FieldToTFieldSignature -->
<g id="node1" class="node"><title>tFieldSignatureToJField : FieldToTFieldSignature</title>
<polygon fill="none" stroke="black" points="439.68,-398 329.786,-416 110,-416 0.106742,-398 110,-380 329.786,-380 439.68,-398"/>
<text text-anchor="middle" x="219.893" y="-394.3" font-family="Times New Roman,serif" font-size="14.00">tFieldSignatureToJField : FieldToTFieldSignature</text>
</g>
<!-- tFieldSignature : TFieldSignature -->
<g id="node3" class="node"><title>tFieldSignature : TFieldSignature</title>
<polygon fill="none" stroke="black" points="187.393,-285.5 187.393,-331.5 386.393,-331.5 386.393,-285.5 187.393,-285.5"/>
<text text-anchor="middle" x="286.893" y="-316.3" font-family="Times New Roman,serif" font-size="14.00">tFieldSignature : TFieldSignature</text>
<polyline fill="none" stroke="black" points="187.393,-308.5 386.393,-308.5 "/>
<text text-anchor="middle" x="286.893" y="-293.3" font-family="Times New Roman,serif" font-size="14.00"> </text>
</g>
<!-- tFieldSignatureToJField : FieldToTFieldSignature&#45;&gt;tFieldSignature : TFieldSignature -->
<g id="edge1" class="edge"><title>tFieldSignatureToJField : FieldToTFieldSignature&#45;&gt;tFieldSignature : TFieldSignature</title>
<path fill="none" stroke="black" d="M233.13,-379.713C241.847,-368.329 253.495,-353.117 263.72,-339.763"/>
<polygon fill="black" stroke="black" points="266.564,-341.807 269.864,-331.739 261.006,-337.551 266.564,-341.807"/>
<text text-anchor="middle" x="268.893" y="-353.2" font-family="Times New Roman,serif" font-size="11.00">target</text>
</g>
<!-- jField : Field -->
<g id="node4" class="node"><title>jField : Field</title>
<polygon fill="none" stroke="black" points="82.8932,-285.5 82.8932,-331.5 168.893,-331.5 168.893,-285.5 82.8932,-285.5"/>
<text text-anchor="middle" x="125.893" y="-316.3" font-family="Times New Roman,serif" font-size="14.00">jField : Field</text>
<polyline fill="none" stroke="black" points="82.8932,-308.5 168.893,-308.5 "/>
<text text-anchor="middle" x="125.893" y="-293.3" font-family="Times New Roman,serif" font-size="14.00"> </text>
</g>
<!-- tFieldSignatureToJField : FieldToTFieldSignature&#45;&gt;jField : Field -->
<g id="edge2" class="edge"><title>tFieldSignatureToJField : FieldToTFieldSignature&#45;&gt;jField : Field</title>
<path fill="none" stroke="black" d="M201.322,-379.713C188.747,-368.007 171.822,-352.253 157.191,-338.634"/>
<polygon fill="black" stroke="black" points="159.489,-335.991 149.784,-331.739 154.719,-341.114 159.489,-335.991"/>
<text text-anchor="middle" x="196.893" y="-353.2" font-family="Times New Roman,serif" font-size="11.00">source</text>
</g>
<!-- jTypeToTType : ClassToTClass -->
<g id="node2" class="node"><title>jTypeToTType : ClassToTClass</title>
<polygon fill="none" stroke="black" points="705.59,-308.5 630.242,-326.5 479.545,-326.5 404.197,-308.5 479.545,-290.5 630.242,-290.5 705.59,-308.5"/>
<text text-anchor="middle" x="554.893" y="-304.8" font-family="Times New Roman,serif" font-size="14.00">jTypeToTType : ClassToTClass</text>
</g>
<!-- tType : TClass -->
<g id="node5" class="node"><title>tType : TClass</title>
<polygon fill="none" stroke="black" points="410.893,-190.5 410.893,-236.5 510.893,-236.5 510.893,-190.5 410.893,-190.5"/>
<text text-anchor="middle" x="460.893" y="-221.3" font-family="Times New Roman,serif" font-size="14.00">tType : TClass</text>
<polyline fill="none" stroke="black" points="410.893,-213.5 510.893,-213.5 "/>
<text text-anchor="middle" x="460.893" y="-198.3" font-family="Times New Roman,serif" font-size="14.00"> </text>
</g>
<!-- jTypeToTType : ClassToTClass&#45;&gt;tType : TClass -->
<g id="edge3" class="edge"><title>jTypeToTType : ClassToTClass&#45;&gt;tType : TClass</title>
<path fill="none" stroke="black" d="M533.262,-290.419C524.789,-283.431 515.141,-275.096 506.893,-267 499.78,-260.018 492.489,-252.103 485.869,-244.576"/>
<polygon fill="black" stroke="black" points="488.178,-241.895 478.989,-236.622 482.884,-246.475 488.178,-241.895"/>
<text text-anchor="middle" x="519.893" y="-258.2" font-family="Times New Roman,serif" font-size="11.00">target</text>
</g>
<!-- jType : Class -->
<g id="node6" class="node"><title>jType : Class</title>
<polygon fill="none" stroke="black" points="441.893,-0.5 441.893,-46.5 531.893,-46.5 531.893,-0.5 441.893,-0.5"/>
<text text-anchor="middle" x="486.893" y="-31.3" font-family="Times New Roman,serif" font-size="14.00">jType : Class</text>
<polyline fill="none" stroke="black" points="441.893,-23.5 531.893,-23.5 "/>
<text text-anchor="middle" x="486.893" y="-8.3" font-family="Times New Roman,serif" font-size="14.00"> </text>
</g>
<!-- jTypeToTType : ClassToTClass&#45;&gt;jType : Class -->
<g id="edge4" class="edge"><title>jTypeToTType : ClassToTClass&#45;&gt;jType : Class</title>
<path fill="none" stroke="black" d="M550.742,-290.223C539.643,-244.034 509.15,-117.126 494.693,-56.96"/>
<polygon fill="black" stroke="black" points="498.009,-55.782 492.27,-46.8764 491.203,-57.4174 498.009,-55.782"/>
<text text-anchor="middle" x="535.893" y="-163.2" font-family="Times New Roman,serif" font-size="11.00">source</text>
</g>
<!-- tFieldSignature : TFieldSignature&#45;&gt;tType : TClass -->
<g id="edge8" class="edge"><title>tFieldSignature : TFieldSignature&#45;&gt;tType : TClass</title>
<path fill="none" stroke="green" d="M328.129,-285.46C352.85,-272.247 384.464,-255.35 410.641,-241.359"/>
<polygon fill="green" stroke="green" points="412.483,-244.343 419.652,-236.542 409.183,-238.17 412.483,-244.343"/>
<text text-anchor="middle" x="393.393" y="-258.2" font-family="Times New Roman,serif" font-size="11.00">type</text>
</g>
<!-- namespaceClassifierReference : NamespaceClassifierReference -->
<g id="node8" class="node"><title>namespaceClassifierReference : NamespaceClassifierReference</title>
<polygon fill="none" stroke="green" points="8.39321,-190.5 8.39321,-236.5 377.393,-236.5 377.393,-190.5 8.39321,-190.5"/>
<text text-anchor="middle" x="192.893" y="-221.3" font-family="Times New Roman,serif" font-size="14.00">namespaceClassifierReference : NamespaceClassifierReference</text>
<polyline fill="none" stroke="green" points="8.39321,-213.5 377.393,-213.5 "/>
<text text-anchor="middle" x="192.893" y="-198.3" font-family="Times New Roman,serif" font-size="14.00"> </text>
</g>
<!-- jField : Field&#45;&gt;namespaceClassifierReference : NamespaceClassifierReference -->
<g id="edge7" class="edge"><title>jField : Field&#45;&gt;namespaceClassifierReference : NamespaceClassifierReference</title>
<path fill="none" stroke="green" d="M141.771,-285.46C150.469,-273.387 161.382,-258.239 170.89,-245.042"/>
<polygon fill="green" stroke="green" points="173.891,-246.863 176.897,-236.704 168.212,-242.772 173.891,-246.863"/>
<text text-anchor="middle" x="196.893" y="-258.2" font-family="Times New Roman,serif" font-size="11.00">typeReference</text>
</g>
<!-- classifierReference : ClassifierReference -->
<g id="node7" class="node"><title>classifierReference : ClassifierReference</title>
<polygon fill="none" stroke="green" points="227.893,-95.5 227.893,-141.5 467.893,-141.5 467.893,-95.5 227.893,-95.5"/>
<text text-anchor="middle" x="347.893" y="-126.3" font-family="Times New Roman,serif" font-size="14.00">classifierReference : ClassifierReference</text>
<polyline fill="none" stroke="green" points="227.893,-118.5 467.893,-118.5 "/>
<text text-anchor="middle" x="347.893" y="-103.3" font-family="Times New Roman,serif" font-size="14.00"> </text>
</g>
<!-- classifierReference : ClassifierReference&#45;&gt;jType : Class -->
<g id="edge6" class="edge"><title>classifierReference : ClassifierReference&#45;&gt;jType : Class</title>
<path fill="none" stroke="green" d="M380.834,-95.4603C400.082,-82.5825 424.559,-66.2056 445.148,-52.4304"/>
<polygon fill="green" stroke="green" points="447.342,-55.1736 453.707,-46.7038 443.449,-49.3557 447.342,-55.1736"/>
<text text-anchor="middle" x="437.893" y="-68.2" font-family="Times New Roman,serif" font-size="11.00">target</text>
</g>
<!-- namespaceClassifierReference : NamespaceClassifierReference&#45;&gt;classifierReference : ClassifierReference -->
<g id="edge5" class="edge"><title>namespaceClassifierReference : NamespaceClassifierReference&#45;&gt;classifierReference : ClassifierReference</title>
<path fill="none" stroke="green" d="M229.626,-190.46C251.456,-177.362 279.319,-160.645 302.516,-146.726"/>
<polygon fill="green" stroke="green" points="304.382,-149.689 311.156,-141.542 300.78,-143.686 304.382,-149.689"/>
<text text-anchor="middle" x="325.393" y="-163.2" font-family="Times New Roman,serif" font-size="11.00">classifierReferences</text>
</g>
</g>
</svg>
