<?xml version="1.0" encoding="UTF-8" standalone="no"?>
<!DOCTYPE svg PUBLIC "-//W3C//DTD SVG 1.1//EN"
 "http://www.w3.org/Graphics/SVG/1.1/DTD/svg11.dtd">
<!-- Generated by graphviz version 2.38.0 (20140413.2041)
 -->
<!-- Title: FieldTypePrimitiveChar Pages: 1 -->
<svg width="974pt" height="234pt"
 viewBox="0.00 0.00 973.50 234.00" xmlns="http://www.w3.org/2000/svg" xmlns:xlink="http://www.w3.org/1999/xlink">
<g id="graph0" class="graph" transform="scale(1 1) rotate(0) translate(4 230)">
<title>FieldTypePrimitiveChar</title>
<polygon fill="white" stroke="none" points="-4,4 -4,-230 969.5,-230 969.5,4 -4,4"/>
<!-- jPrimitiveTypeToTPrimitiveType : PrimitiveTypeToTClass -->
<g id="node1" class="node"><title>jPrimitiveTypeToTPrimitiveType : PrimitiveTypeToTClass</title>
<polygon fill="none" stroke="green" points="623.838,-118.5 493.919,-136.5 234.081,-136.5 104.162,-118.5 234.081,-100.5 493.919,-100.5 623.838,-118.5"/>
<text text-anchor="middle" x="364" y="-114.8" font-family="Times New Roman,serif" font-size="14.00">jPrimitiveTypeToTPrimitiveType : PrimitiveTypeToTClass</text>
</g>
<!-- tPrimitiveType : TClass -->
<g id="node3" class="node"><title>tPrimitiveType : TClass</title>
<polygon fill="none" stroke="black" points="620.5,-0.5 620.5,-46.5 769.5,-46.5 769.5,-0.5 620.5,-0.5"/>
<text text-anchor="middle" x="695" y="-31.3" font-family="Times New Roman,serif" font-size="14.00">tPrimitiveType : TClass</text>
<polyline fill="none" stroke="black" points="620.5,-23.5 769.5,-23.5 "/>
<text text-anchor="middle" x="695" y="-8.3" font-family="Times New Roman,serif" font-size="14.00">tName == &quot;char&quot;</text>
</g>
<!-- jPrimitiveTypeToTPrimitiveType : PrimitiveTypeToTClass&#45;&gt;tPrimitiveType : TClass -->
<g id="edge1" class="edge"><title>jPrimitiveTypeToTPrimitiveType : PrimitiveTypeToTClass&#45;&gt;tPrimitiveType : TClass</title>
<path fill="none" stroke="green" d="M424.711,-100.442C476.845,-85.7943 552.547,-64.5245 610.582,-48.2186"/>
<polygon fill="green" stroke="green" points="611.788,-51.5153 620.469,-45.4407 609.895,-44.7762 611.788,-51.5153"/>
<text text-anchor="middle" x="562" y="-68.2" font-family="Times New Roman,serif" font-size="11.00">target</text>
</g>
<!-- jPrimitiveType : Char -->
<g id="node4" class="node"><title>jPrimitiveType : Char</title>
<polygon fill="none" stroke="green" points="77.5,-0.5 77.5,-46.5 212.5,-46.5 212.5,-0.5 77.5,-0.5"/>
<text text-anchor="middle" x="145" y="-31.3" font-family="Times New Roman,serif" font-size="14.00">jPrimitiveType : Char</text>
<polyline fill="none" stroke="green" points="77.5,-23.5 212.5,-23.5 "/>
<text text-anchor="middle" x="145" y="-8.3" font-family="Times New Roman,serif" font-size="14.00"> </text>
</g>
<!-- jPrimitiveTypeToTPrimitiveType : PrimitiveTypeToTClass&#45;&gt;jPrimitiveType : Char -->
<g id="edge2" class="edge"><title>jPrimitiveTypeToTPrimitiveType : PrimitiveTypeToTClass&#45;&gt;jPrimitiveType : Char</title>
<path fill="none" stroke="green" d="M323.832,-100.442C290.933,-86.4717 243.85,-66.4776 206.253,-50.5115"/>
<polygon fill="green" stroke="green" points="207.485,-47.2325 196.913,-46.5452 204.749,-53.6756 207.485,-47.2325"/>
<text text-anchor="middle" x="283" y="-68.2" font-family="Times New Roman,serif" font-size="11.00">source</text>
</g>
<!-- tFieldSignatureToJField : FieldToTFieldSignature -->
<g id="node2" class="node"><title>tFieldSignatureToJField : FieldToTFieldSignature</title>
<polygon fill="none" stroke="black" points="769.786,-208 659.893,-226 440.107,-226 330.214,-208 440.107,-190 659.893,-190 769.786,-208"/>
<text text-anchor="middle" x="550" y="-204.3" font-family="Times New Roman,serif" font-size="14.00">tFieldSignatureToJField : FieldToTFieldSignature</text>
</g>
<!-- jField : Field -->
<g id="node5" class="node"><title>jField : Field</title>
<polygon fill="none" stroke="black" points="0,-95.5 0,-141.5 86,-141.5 86,-95.5 0,-95.5"/>
<text text-anchor="middle" x="43" y="-126.3" font-family="Times New Roman,serif" font-size="14.00">jField : Field</text>
<polyline fill="none" stroke="black" points="0,-118.5 86,-118.5 "/>
<text text-anchor="middle" x="43" y="-103.3" font-family="Times New Roman,serif" font-size="14.00"> </text>
</g>
<!-- tFieldSignatureToJField : FieldToTFieldSignature&#45;&gt;jField : Field -->
<g id="edge3" class="edge"><title>tFieldSignatureToJField : FieldToTFieldSignature&#45;&gt;jField : Field</title>
<path fill="none" stroke="black" d="M403.224,-196.033C315.697,-187.116 202.73,-171.433 95.764,-141.884"/>
<polygon fill="black" stroke="black" points="96.67,-138.503 86.0962,-139.17 94.7783,-145.242 96.67,-138.503"/>
<text text-anchor="middle" x="233" y="-163.2" font-family="Times New Roman,serif" font-size="11.00">source</text>
</g>
<!-- tFieldSignature : TFieldSignature -->
<g id="node6" class="node"><title>tFieldSignature : TFieldSignature</title>
<polygon fill="none" stroke="black" points="766.5,-95.5 766.5,-141.5 965.5,-141.5 965.5,-95.5 766.5,-95.5"/>
<text text-anchor="middle" x="866" y="-126.3" font-family="Times New Roman,serif" font-size="14.00">tFieldSignature : TFieldSignature</text>
<polyline fill="none" stroke="black" points="766.5,-118.5 965.5,-118.5 "/>
<text text-anchor="middle" x="866" y="-103.3" font-family="Times New Roman,serif" font-size="14.00"> </text>
</g>
<!-- tFieldSignatureToJField : FieldToTFieldSignature&#45;&gt;tFieldSignature : TFieldSignature -->
<g id="edge4" class="edge"><title>tFieldSignatureToJField : FieldToTFieldSignature&#45;&gt;tFieldSignature : TFieldSignature</title>
<path fill="none" stroke="black" d="M611.678,-189.921C658.685,-176.905 724.085,-158.796 776.793,-144.201"/>
<polygon fill="black" stroke="black" points="777.776,-147.561 786.48,-141.519 775.908,-140.815 777.776,-147.561"/>
<text text-anchor="middle" x="730" y="-163.2" font-family="Times New Roman,serif" font-size="11.00">target</text>
</g>
<!-- jField : Field&#45;&gt;jPrimitiveType : Char -->
<g id="edge5" class="edge"><title>jField : Field&#45;&gt;jPrimitiveType : Char</title>
<path fill="none" stroke="green" d="M67.1726,-95.4603C80.9183,-82.9274 98.2989,-67.0804 113.147,-53.5428"/>
<polygon fill="green" stroke="green" points="115.616,-56.0277 120.647,-46.7038 110.9,-50.855 115.616,-56.0277"/>
<text text-anchor="middle" x="134" y="-68.2" font-family="Times New Roman,serif" font-size="11.00">typeReference</text>
</g>
<!-- tFieldSignature : TFieldSignature&#45;&gt;tPrimitiveType : TClass -->
<g id="edge8" class="edge"><title>tFieldSignature : TFieldSignature&#45;&gt;tPrimitiveType : TClass</title>
<path fill="none" stroke="green" d="M839.441,-95.3689C826.546,-85.2874 810.513,-73.693 795,-65 785.742,-59.8123 775.684,-54.9372 765.634,-50.4903"/>
<polygon fill="green" stroke="green" points="766.998,-47.2672 756.429,-46.5302 764.231,-53.6973 766.998,-47.2672"/>
<text text-anchor="middle" x="822.5" y="-68.2" font-family="Times New Roman,serif" font-size="11.00">type</text>
</g>
<!-- tField : TField -->
<g id="node7" class="node"><title>tField : TField</title>
<polygon fill="none" stroke="black" points="789.5,-0.5 789.5,-46.5 884.5,-46.5 884.5,-0.5 789.5,-0.5"/>
<text text-anchor="middle" x="837" y="-31.3" font-family="Times New Roman,serif" font-size="14.00">tField : TField</text>
<polyline fill="none" stroke="black" points="789.5,-23.5 884.5,-23.5 "/>
<text text-anchor="middle" x="837" y="-8.3" font-family="Times New Roman,serif" font-size="14.00"> </text>
</g>
<!-- tFieldSignature : TFieldSignature&#45;&gt;tField : TField -->
<g id="edge9" class="edge"><title>tFieldSignature : TFieldSignature&#45;&gt;tField : TField</title>
<path fill="none" stroke="black" d="M859.127,-95.4603C855.506,-83.8473 850.998,-69.3888 846.997,-56.5587"/>
<polygon fill="black" stroke="black" points="850.242,-55.2085 843.924,-46.7038 843.559,-57.2924 850.242,-55.2085"/>
<text text-anchor="middle" x="862.5" y="-68.2" font-family="Times New Roman,serif" font-size="11.00">field</text>
</g>
<!-- pg : TypeGraph -->
<g id="node8" class="node"><title>pg : TypeGraph</title>
<polygon fill="none" stroke="black" points="642,-95.5 642,-141.5 748,-141.5 748,-95.5 642,-95.5"/>
<text text-anchor="middle" x="695" y="-126.3" font-family="Times New Roman,serif" font-size="14.00">pg : TypeGraph</text>
<polyline fill="none" stroke="black" points="642,-118.5 748,-118.5 "/>
<text text-anchor="middle" x="695" y="-103.3" font-family="Times New Roman,serif" font-size="14.00"> </text>
</g>
<!-- pg : TypeGraph&#45;&gt;tPrimitiveType : TClass -->
<g id="edge7" class="edge"><title>pg : TypeGraph&#45;&gt;tPrimitiveType : TClass</title>
<path fill="none" stroke="black" d="M695,-95.4603C695,-83.9622 695,-69.6748 695,-56.9402"/>
<polygon fill="black" stroke="black" points="698.5,-56.7038 695,-46.7038 691.5,-56.7038 698.5,-56.7038"/>
<text text-anchor="middle" x="711" y="-68.2" font-family="Times New Roman,serif" font-size="11.00">classes</text>
</g>
<!-- pg : TypeGraph&#45;&gt;tField : TField -->
<g id="edge6" class="edge"><title>pg : TypeGraph&#45;&gt;tField : TField</title>
<path fill="none" stroke="black" d="M726.172,-95.4035C739.817,-85.8779 756.086,-74.7171 771,-65 777.574,-60.7171 784.58,-56.2822 791.48,-51.9872"/>
<polygon fill="black" stroke="black" points="793.458,-54.8793 800.123,-46.6436 789.777,-48.9254 793.458,-54.8793"/>
<text text-anchor="middle" x="783" y="-68.2" font-family="Times New Roman,serif" font-size="11.00">fields</text>
</g>
</g>
</svg>
