<?xml version="1.0" encoding="UTF-8" standalone="no"?>
<!DOCTYPE svg PUBLIC "-//W3C//DTD SVG 1.1//EN"
 "http://www.w3.org/Graphics/SVG/1.1/DTD/svg11.dtd">
<!-- Generated by graphviz version 2.38.0 (20140413.2041)
 -->
<!-- Title: FieldNameCreate Pages: 1 -->
<svg width="1596pt" height="378pt"
 viewBox="0.00 0.00 1596.15 378.00" xmlns="http://www.w3.org/2000/svg" xmlns:xlink="http://www.w3.org/1999/xlink">
<g id="graph0" class="graph" transform="scale(1 1) rotate(0) translate(4 374)">
<title>FieldNameCreate</title>
<polygon fill="white" stroke="none" points="-4,4 -4,-374 1592.15,-374 1592.15,4 -4,4"/>
<text text-anchor="middle" x="794.073" y="-22.8" font-family="Times New Roman,serif" font-size="14.00">_____________________________</text>
<text text-anchor="middle" x="794.073" y="-7.8" font-family="Times New Roman,serif" font-size="14.00"> eq(jField.name,tField.tName)</text>
<!-- jFieldToTField : FieldToTField -->
<g id="node1" class="node"><title>jFieldToTField : FieldToTField</title>
<polygon fill="none" stroke="green" points="1563.33,-251.5 1491.24,-269.5 1347.05,-269.5 1274.96,-251.5 1347.05,-233.5 1491.24,-233.5 1563.33,-251.5"/>
<text text-anchor="middle" x="1419.15" y="-247.8" font-family="Times New Roman,serif" font-size="14.00">jFieldToTField : FieldToTField</text>
</g>
<!-- tField : TField -->
<g id="node5" class="node"><title>tField : TField</title>
<polygon fill="none" stroke="green" points="1371.65,-38.5 1371.65,-84.5 1466.65,-84.5 1466.65,-38.5 1371.65,-38.5"/>
<text text-anchor="middle" x="1419.15" y="-69.3" font-family="Times New Roman,serif" font-size="14.00">tField : TField</text>
<polyline fill="none" stroke="green" points="1371.65,-61.5 1466.65,-61.5 "/>
<text text-anchor="middle" x="1419.15" y="-46.3" font-family="Times New Roman,serif" font-size="14.00"> </text>
</g>
<!-- jFieldToTField : FieldToTField&#45;&gt;tField : TField -->
<g id="edge1" class="edge"><title>jFieldToTField : FieldToTField&#45;&gt;tField : TField</title>
<path fill="none" stroke="green" d="M1419.15,-233.485C1419.15,-202.204 1419.15,-135.091 1419.15,-94.8777"/>
<polygon fill="green" stroke="green" points="1422.65,-94.7862 1419.15,-84.7862 1415.65,-94.7862 1422.65,-94.7862"/>
<text text-anchor="middle" x="1432.15" y="-153.7" font-family="Times New Roman,serif" font-size="11.00">target</text>
</g>
<!-- jField : Field -->
<g id="node7" class="node"><title>jField : Field</title>
<polygon fill="none" stroke="green" points="693.147,-133.5 693.147,-179.5 779.147,-179.5 779.147,-133.5 693.147,-133.5"/>
<text text-anchor="middle" x="736.147" y="-164.3" font-family="Times New Roman,serif" font-size="14.00">jField : Field</text>
<polyline fill="none" stroke="green" points="693.147,-156.5 779.147,-156.5 "/>
<text text-anchor="middle" x="736.147" y="-141.3" font-family="Times New Roman,serif" font-size="14.00"> </text>
</g>
<!-- jFieldToTField : FieldToTField&#45;&gt;jField : Field -->
<g id="edge5" class="edge"><title>jFieldToTField : FieldToTField&#45;&gt;jField : Field</title>
<path fill="none" stroke="green" d="M1347.55,-233.471C1295.99,-221.814 1224.63,-206.909 1161.15,-198 1059.61,-183.75 1033.2,-189.878 931.147,-180 883.195,-175.359 828.738,-168.982 789.584,-164.202"/>
<polygon fill="green" stroke="green" points="789.822,-160.705 779.47,-162.961 788.969,-167.653 789.822,-160.705"/>
<text text-anchor="middle" x="1248.15" y="-201.2" font-family="Times New Roman,serif" font-size="11.00">source</text>
</g>
<!-- tContainingClassToJContainingClass : ClassToTClass -->
<g id="node2" class="node"><title>tContainingClassToJContainingClass : ClassToTClass</title>
<polygon fill="none" stroke="black" points="1286.96,-346.5 1166.55,-364.5 925.74,-364.5 805.333,-346.5 925.74,-328.5 1166.55,-328.5 1286.96,-346.5"/>
<text text-anchor="middle" x="1046.15" y="-342.8" font-family="Times New Roman,serif" font-size="14.00">tContainingClassToJContainingClass : ClassToTClass</text>
</g>
<!-- jContainingClass : Class -->
<g id="node6" class="node"><title>jContainingClass : Class</title>
<polygon fill="none" stroke="black" points="468.147,-228.5 468.147,-274.5 620.147,-274.5 620.147,-228.5 468.147,-228.5"/>
<text text-anchor="middle" x="544.147" y="-259.3" font-family="Times New Roman,serif" font-size="14.00">jContainingClass : Class</text>
<polyline fill="none" stroke="black" points="468.147,-251.5 620.147,-251.5 "/>
<text text-anchor="middle" x="544.147" y="-236.3" font-family="Times New Roman,serif" font-size="14.00"> </text>
</g>
<!-- tContainingClassToJContainingClass : ClassToTClass&#45;&gt;jContainingClass : Class -->
<g id="edge2" class="edge"><title>tContainingClassToJContainingClass : ClassToTClass&#45;&gt;jContainingClass : Class</title>
<path fill="none" stroke="black" d="M927.866,-328.448C846.621,-316.04 736.179,-297.809 630.413,-275.199"/>
<polygon fill="black" stroke="black" points="631.035,-271.753 620.523,-273.069 629.562,-278.596 631.035,-271.753"/>
<text text-anchor="middle" x="793.147" y="-296.2" font-family="Times New Roman,serif" font-size="11.00">source</text>
</g>
<!-- tContainingClass : TClass -->
<g id="node9" class="node"><title>tContainingClass : TClass</title>
<polygon fill="none" stroke="black" points="1095.65,-228.5 1095.65,-274.5 1256.65,-274.5 1256.65,-228.5 1095.65,-228.5"/>
<text text-anchor="middle" x="1176.15" y="-259.3" font-family="Times New Roman,serif" font-size="14.00">tContainingClass : TClass</text>
<polyline fill="none" stroke="black" points="1095.65,-251.5 1256.65,-251.5 "/>
<text text-anchor="middle" x="1176.15" y="-236.3" font-family="Times New Roman,serif" font-size="14.00"> </text>
</g>
<!-- tContainingClassToJContainingClass : ClassToTClass&#45;&gt;tContainingClass : TClass -->
<g id="edge7" class="edge"><title>tContainingClassToJContainingClass : ClassToTClass&#45;&gt;tContainingClass : TClass</title>
<path fill="none" stroke="black" d="M1069.99,-328.442C1088.63,-315.11 1114.93,-296.292 1136.69,-280.724"/>
<polygon fill="black" stroke="black" points="1138.99,-283.382 1145.09,-274.717 1134.92,-277.688 1138.99,-283.382"/>
<text text-anchor="middle" x="1132.15" y="-296.2" font-family="Times New Roman,serif" font-size="11.00">target</text>
</g>
<!-- jFieldToTFieldDefinition : FieldToTFieldDefinition -->
<g id="node3" class="node"><title>jFieldToTFieldDefinition : FieldToTFieldDefinition</title>
<polygon fill="none" stroke="green" points="450.44,-251.5 337.793,-269.5 112.5,-269.5 -0.146723,-251.5 112.5,-233.5 337.793,-233.5 450.44,-251.5"/>
<text text-anchor="middle" x="225.147" y="-247.8" font-family="Times New Roman,serif" font-size="14.00">jFieldToTFieldDefinition : FieldToTFieldDefinition</text>
</g>
<!-- jFieldToTFieldDefinition : FieldToTFieldDefinition&#45;&gt;jField : Field -->
<g id="edge3" class="edge"><title>jFieldToTFieldDefinition : FieldToTFieldDefinition&#45;&gt;jField : Field</title>
<path fill="none" stroke="green" d="M318.575,-233.496C425.4,-214.055 596.602,-182.897 682.839,-167.202"/>
<polygon fill="green" stroke="green" points="683.712,-170.6 692.924,-165.366 682.459,-163.714 683.712,-170.6"/>
<text text-anchor="middle" x="527.147" y="-201.2" font-family="Times New Roman,serif" font-size="11.00">source</text>
</g>
<!-- tFieldDefinition : TFieldDefinition -->
<g id="node10" class="node"><title>tFieldDefinition : TFieldDefinition</title>
<polygon fill="none" stroke="green" points="938.647,-38.5 938.647,-84.5 1141.65,-84.5 1141.65,-38.5 938.647,-38.5"/>
<text text-anchor="middle" x="1040.15" y="-69.3" font-family="Times New Roman,serif" font-size="14.00">tFieldDefinition : TFieldDefinition</text>
<polyline fill="none" stroke="green" points="938.647,-61.5 1141.65,-61.5 "/>
<text text-anchor="middle" x="1040.15" y="-46.3" font-family="Times New Roman,serif" font-size="14.00"> </text>
</g>
<!-- jFieldToTFieldDefinition : FieldToTFieldDefinition&#45;&gt;tFieldDefinition : TFieldDefinition -->
<g id="edge8" class="edge"><title>jFieldToTFieldDefinition : FieldToTFieldDefinition&#45;&gt;tFieldDefinition : TFieldDefinition</title>
<path fill="none" stroke="green" d="M282.203,-233.401C364.666,-209.056 522.195,-163.936 658.147,-133 748.455,-112.45 851.806,-93.6595 928.215,-80.6545"/>
<polygon fill="green" stroke="green" points="929.066,-84.0603 938.34,-78.9382 927.896,-77.1588 929.066,-84.0603"/>
<text text-anchor="middle" x="671.147" y="-153.7" font-family="Times New Roman,serif" font-size="11.00">target</text>
</g>
<!-- tFieldSignatureToJField : FieldToTFieldSignature -->
<g id="node4" class="node"><title>tFieldSignatureToJField : FieldToTFieldSignature</title>
<polygon fill="none" stroke="green" points="1077.93,-251.5 968.04,-269.5 748.253,-269.5 638.36,-251.5 748.253,-233.5 968.04,-233.5 1077.93,-251.5"/>
<text text-anchor="middle" x="858.147" y="-247.8" font-family="Times New Roman,serif" font-size="14.00">tFieldSignatureToJField : FieldToTFieldSignature</text>
</g>
<!-- tFieldSignatureToJField : FieldToTFieldSignature&#45;&gt;jField : Field -->
<g id="edge4" class="edge"><title>tFieldSignatureToJField : FieldToTFieldSignature&#45;&gt;jField : Field</title>
<path fill="none" stroke="green" d="M835.77,-233.442C818.358,-220.169 793.812,-201.458 773.443,-185.931"/>
<polygon fill="green" stroke="green" points="775.366,-182.996 765.291,-179.717 771.122,-188.563 775.366,-182.996"/>
<text text-anchor="middle" x="820.147" y="-201.2" font-family="Times New Roman,serif" font-size="11.00">source</text>
</g>
<!-- tFieldSignature : TFieldSignature -->
<g id="node8" class="node"><title>tFieldSignature : TFieldSignature</title>
<polygon fill="none" stroke="green" points="940.647,-133.5 940.647,-179.5 1139.65,-179.5 1139.65,-133.5 940.647,-133.5"/>
<text text-anchor="middle" x="1040.15" y="-164.3" font-family="Times New Roman,serif" font-size="14.00">tFieldSignature : TFieldSignature</text>
<polyline fill="none" stroke="green" points="940.647,-156.5 1139.65,-156.5 "/>
<text text-anchor="middle" x="1040.15" y="-141.3" font-family="Times New Roman,serif" font-size="14.00"> </text>
</g>
<!-- tFieldSignatureToJField : FieldToTFieldSignature&#45;&gt;tFieldSignature : TFieldSignature -->
<g id="edge6" class="edge"><title>tFieldSignatureToJField : FieldToTFieldSignature&#45;&gt;tFieldSignature : TFieldSignature</title>
<path fill="none" stroke="green" d="M891.528,-233.442C918.521,-219.649 957.004,-199.985 988.047,-184.122"/>
<polygon fill="green" stroke="green" points="989.692,-187.212 997.004,-179.545 986.507,-180.979 989.692,-187.212"/>
<text text-anchor="middle" x="973.147" y="-201.2" font-family="Times New Roman,serif" font-size="11.00">target</text>
</g>
<!-- jContainingClass : Class&#45;&gt;jField : Field -->
<g id="edge9" class="edge"><title>jContainingClass : Class&#45;&gt;jField : Field</title>
<path fill="none" stroke="green" d="M589.648,-228.46C617.866,-214.792 654.221,-197.183 683.655,-182.925"/>
<polygon fill="green" stroke="green" points="685.476,-185.933 692.95,-178.424 682.424,-179.633 685.476,-185.933"/>
<text text-anchor="middle" x="672.647" y="-201.2" font-family="Times New Roman,serif" font-size="11.00">members</text>
</g>
<!-- tFieldSignature : TFieldSignature&#45;&gt;tField : TField -->
<g id="edge12" class="edge"><title>tFieldSignature : TFieldSignature&#45;&gt;tField : TField</title>
<path fill="none" stroke="green" d="M1129.96,-133.46C1201.71,-115.855 1300.1,-91.7114 1361.63,-76.6145"/>
<polygon fill="green" stroke="green" points="1362.67,-79.9623 1371.55,-74.1799 1361,-73.164 1362.67,-79.9623"/>
<text text-anchor="middle" x="1262.65" y="-106.2" font-family="Times New Roman,serif" font-size="11.00">field</text>
</g>
<!-- tFieldSignature : TFieldSignature&#45;&gt;tFieldDefinition : TFieldDefinition -->
<g id="edge14" class="edge"><title>tFieldSignature : TFieldSignature&#45;&gt;tFieldDefinition : TFieldDefinition</title>
<path fill="none" stroke="green" d="M1040.15,-133.46C1040.15,-121.962 1040.15,-107.675 1040.15,-94.9402"/>
<polygon fill="green" stroke="green" points="1043.65,-94.7038 1040.15,-84.7038 1036.65,-94.7038 1043.65,-94.7038"/>
<text text-anchor="middle" x="1062.65" y="-106.2" font-family="Times New Roman,serif" font-size="11.00">definitions</text>
</g>
<!-- tContainingClass : TClass&#45;&gt;tFieldSignature : TFieldSignature -->
<g id="edge10" class="edge"><title>tContainingClass : TClass&#45;&gt;tFieldSignature : TFieldSignature</title>
<path fill="none" stroke="green" d="M1143.92,-228.46C1125.08,-215.582 1101.14,-199.206 1080.99,-185.43"/>
<polygon fill="green" stroke="green" points="1082.85,-182.459 1072.62,-179.704 1078.9,-188.238 1082.85,-182.459"/>
<text text-anchor="middle" x="1137.15" y="-201.2" font-family="Times New Roman,serif" font-size="11.00">signature</text>
</g>
<!-- tContainingClass : TClass&#45;&gt;tFieldDefinition : TFieldDefinition -->
<g id="edge15" class="edge"><title>tContainingClass : TClass&#45;&gt;tFieldDefinition : TFieldDefinition</title>
<path fill="none" stroke="green" d="M1180.89,-228.271C1186.24,-196.782 1190.83,-139.02 1162.15,-103 1158.36,-98.2466 1154,-94.0462 1149.23,-90.335"/>
<polygon fill="green" stroke="green" points="1151.06,-87.3464 1140.85,-84.5396 1147.08,-93.1047 1151.06,-87.3464"/>
<text text-anchor="middle" x="1201.15" y="-153.7" font-family="Times New Roman,serif" font-size="11.00">defines</text>
</g>
<!-- pg : TypeGraph -->
<g id="node11" class="node"><title>pg : TypeGraph</title>
<polygon fill="none" stroke="black" points="1421.15,-323.5 1421.15,-369.5 1527.15,-369.5 1527.15,-323.5 1421.15,-323.5"/>
<text text-anchor="middle" x="1474.15" y="-354.3" font-family="Times New Roman,serif" font-size="14.00">pg : TypeGraph</text>
<polyline fill="none" stroke="black" points="1421.15,-346.5 1527.15,-346.5 "/>
<text text-anchor="middle" x="1474.15" y="-331.3" font-family="Times New Roman,serif" font-size="14.00"> </text>
</g>
<!-- pg : TypeGraph&#45;&gt;tField : TField -->
<g id="edge11" class="edge"><title>pg : TypeGraph&#45;&gt;tField : TField</title>
<path fill="none" stroke="green" d="M1522.38,-323.35C1541.52,-311.852 1561.49,-295.797 1572.15,-275 1581.67,-256.41 1579.76,-247.452 1572.15,-228 1549.47,-170.072 1495.96,-120.267 1458.65,-90.8356"/>
<polygon fill="green" stroke="green" points="1460.53,-87.8673 1450.48,-84.5127 1456.25,-93.4023 1460.53,-87.8673"/>
<text text-anchor="middle" x="1576.15" y="-201.2" font-family="Times New Roman,serif" font-size="11.00">fields</text>
</g>
<!-- pg : TypeGraph&#45;&gt;tContainingClass : TClass -->
<g id="edge13" class="edge"><title>pg : TypeGraph&#45;&gt;tContainingClass : TClass</title>
<path fill="none" stroke="black" d="M1420.87,-328.873C1375.17,-314.61 1308.62,-293.843 1256.46,-277.563"/>
<polygon fill="black" stroke="black" points="1257.48,-274.216 1246.89,-274.578 1255.4,-280.899 1257.48,-274.216"/>
<text text-anchor="middle" x="1359.15" y="-296.2" font-family="Times New Roman,serif" font-size="11.00">classes</text>
</g>
</g>
</svg>
