<?xml version="1.0" encoding="UTF-8" standalone="no"?>
<!DOCTYPE svg PUBLIC "-//W3C//DTD SVG 1.1//EN"
 "http://www.w3.org/Graphics/SVG/1.1/DTD/svg11.dtd">
<!-- Generated by graphviz version 2.38.0 (20140413.2041)
 -->
<!-- Title: Inheritance Pages: 1 -->
<svg width="655pt" height="530pt"
 viewBox="0.00 0.00 655.38 530.00" xmlns="http://www.w3.org/2000/svg" xmlns:xlink="http://www.w3.org/1999/xlink">
<g id="graph0" class="graph" transform="scale(1 1) rotate(0) translate(4 526)">
<title>Inheritance</title>
<polygon fill="white" stroke="none" points="-4,4 -4,-526 651.384,-526 651.384,4 -4,4"/>
<!-- jParentClassToTParentClass : ClassToTClass -->
<g id="node1" class="node"><title>jParentClassToTParentClass : ClassToTClass</title>
<polygon fill="none" stroke="black" points="412.653,-498.5 309.519,-516.5 103.25,-516.5 0.115527,-498.5 103.25,-480.5 309.519,-480.5 412.653,-498.5"/>
<text text-anchor="middle" x="206.384" y="-494.8" font-family="Times New Roman,serif" font-size="14.00">jParentClassToTParentClass : ClassToTClass</text>
</g>
<!-- jParentClass : Class -->
<g id="node3" class="node"><title>jParentClass : Class</title>
<polygon fill="none" stroke="black" points="77.8844,-0.5 77.8844,-46.5 204.884,-46.5 204.884,-0.5 77.8844,-0.5"/>
<text text-anchor="middle" x="141.384" y="-31.3" font-family="Times New Roman,serif" font-size="14.00">jParentClass : Class</text>
<polyline fill="none" stroke="black" points="77.8844,-23.5 204.884,-23.5 "/>
<text text-anchor="middle" x="141.384" y="-8.3" font-family="Times New Roman,serif" font-size="14.00"> </text>
</g>
<!-- jParentClassToTParentClass : ClassToTClass&#45;&gt;jParentClass : Class -->
<g id="edge1" class="edge"><title>jParentClassToTParentClass : ClassToTClass&#45;&gt;jParentClass : Class</title>
<path fill="none" stroke="black" d="M161.236,-480.462C130.506,-465.603 95.3844,-440.703 95.3844,-404.5 95.3844,-404.5 95.3844,-404.5 95.3844,-117.5 95.3844,-95.1049 106.234,-72.5272 117.395,-55.2265"/>
<polygon fill="black" stroke="black" points="120.472,-56.9258 123.204,-46.6893 114.685,-52.9879 120.472,-56.9258"/>
<text text-anchor="middle" x="110.384" y="-258.2" font-family="Times New Roman,serif" font-size="11.00">source</text>
</g>
<!-- tParentClass : TClass -->
<g id="node4" class="node"><title>tParentClass : TClass</title>
<polygon fill="none" stroke="black" points="447.884,-380.5 447.884,-426.5 584.884,-426.5 584.884,-380.5 447.884,-380.5"/>
<text text-anchor="middle" x="516.384" y="-411.3" font-family="Times New Roman,serif" font-size="14.00">tParentClass : TClass</text>
<polyline fill="none" stroke="black" points="447.884,-403.5 584.884,-403.5 "/>
<text text-anchor="middle" x="516.384" y="-388.3" font-family="Times New Roman,serif" font-size="14.00"> </text>
</g>
<!-- jParentClassToTParentClass : ClassToTClass&#45;&gt;tParentClass : TClass -->
<g id="edge2" class="edge"><title>jParentClassToTParentClass : ClassToTClass&#45;&gt;tParentClass : TClass</title>
<path fill="none" stroke="black" d="M263.243,-480.442C312.299,-465.726 383.635,-444.325 438.086,-427.99"/>
<polygon fill="black" stroke="black" points="439.13,-431.33 447.703,-425.105 437.119,-424.626 439.13,-431.33"/>
<text text-anchor="middle" x="393.384" y="-448.2" font-family="Times New Roman,serif" font-size="11.00">target</text>
</g>
<!-- jClassToTClass : ClassToTClass -->
<g id="node2" class="node"><title>jClassToTClass : ClassToTClass</title>
<polygon fill="none" stroke="black" points="429.584,-403.5 352.984,-421.5 199.785,-421.5 123.185,-403.5 199.785,-385.5 352.984,-385.5 429.584,-403.5"/>
<text text-anchor="middle" x="276.384" y="-399.8" font-family="Times New Roman,serif" font-size="14.00">jClassToTClass : ClassToTClass</text>
</g>
<!-- jClass : Class -->
<g id="node5" class="node"><title>jClass : Class</title>
<polygon fill="none" stroke="black" points="218.384,-285.5 218.384,-331.5 310.384,-331.5 310.384,-285.5 218.384,-285.5"/>
<text text-anchor="middle" x="264.384" y="-316.3" font-family="Times New Roman,serif" font-size="14.00">jClass : Class</text>
<polyline fill="none" stroke="black" points="218.384,-308.5 310.384,-308.5 "/>
<text text-anchor="middle" x="264.384" y="-293.3" font-family="Times New Roman,serif" font-size="14.00"> </text>
</g>
<!-- jClassToTClass : ClassToTClass&#45;&gt;jClass : Class -->
<g id="edge3" class="edge"><title>jClassToTClass : ClassToTClass&#45;&gt;jClass : Class</title>
<path fill="none" stroke="black" d="M274.183,-385.442C272.615,-373.29 270.459,-356.58 268.569,-341.927"/>
<polygon fill="black" stroke="black" points="272.002,-341.187 267.251,-331.717 265.06,-342.082 272.002,-341.187"/>
<text text-anchor="middle" x="286.384" y="-353.2" font-family="Times New Roman,serif" font-size="11.00">source</text>
</g>
<!-- tClass : TClass -->
<g id="node6" class="node"><title>tClass : TClass</title>
<polygon fill="none" stroke="black" points="465.884,-285.5 465.884,-331.5 566.884,-331.5 566.884,-285.5 465.884,-285.5"/>
<text text-anchor="middle" x="516.384" y="-316.3" font-family="Times New Roman,serif" font-size="14.00">tClass : TClass</text>
<polyline fill="none" stroke="black" points="465.884,-308.5 566.884,-308.5 "/>
<text text-anchor="middle" x="516.384" y="-293.3" font-family="Times New Roman,serif" font-size="14.00"> </text>
</g>
<!-- jClassToTClass : ClassToTClass&#45;&gt;tClass : TClass -->
<g id="edge4" class="edge"><title>jClassToTClass : ClassToTClass&#45;&gt;tClass : TClass</title>
<path fill="none" stroke="black" d="M320.404,-385.442C358.524,-370.671 414.022,-349.165 456.237,-332.807"/>
<polygon fill="black" stroke="black" points="457.514,-336.066 465.574,-329.189 454.985,-329.539 457.514,-336.066"/>
<text text-anchor="middle" x="424.384" y="-353.2" font-family="Times New Roman,serif" font-size="11.00">target</text>
</g>
<!-- tParentClass : TClass&#45;&gt;tClass : TClass -->
<g id="edge9" class="edge"><title>tParentClass : TClass&#45;&gt;tClass : TClass</title>
<path fill="none" stroke="green" d="M516.384,-380.46C516.384,-368.962 516.384,-354.675 516.384,-341.94"/>
<polygon fill="green" stroke="green" points="519.885,-341.704 516.384,-331.704 512.885,-341.704 519.885,-341.704"/>
<text text-anchor="middle" x="543.884" y="-353.2" font-family="Times New Roman,serif" font-size="11.00">childClasses</text>
</g>
<!-- nameSpace : NamespaceClassifierReference -->
<g id="node8" class="node"><title>nameSpace : NamespaceClassifierReference</title>
<polygon fill="none" stroke="green" points="124.884,-190.5 124.884,-236.5 387.884,-236.5 387.884,-190.5 124.884,-190.5"/>
<text text-anchor="middle" x="256.384" y="-221.3" font-family="Times New Roman,serif" font-size="14.00">nameSpace : NamespaceClassifierReference</text>
<polyline fill="none" stroke="green" points="124.884,-213.5 387.884,-213.5 "/>
<text text-anchor="middle" x="256.384" y="-198.3" font-family="Times New Roman,serif" font-size="14.00"> </text>
</g>
<!-- jClass : Class&#45;&gt;nameSpace : NamespaceClassifierReference -->
<g id="edge5" class="edge"><title>jClass : Class&#45;&gt;nameSpace : NamespaceClassifierReference</title>
<path fill="none" stroke="green" d="M262.489,-285.46C261.499,-273.962 260.27,-259.675 259.175,-246.94"/>
<polygon fill="green" stroke="green" points="262.639,-246.367 258.294,-236.704 255.664,-246.967 262.639,-246.367"/>
<text text-anchor="middle" x="278.384" y="-258.2" font-family="Times New Roman,serif" font-size="11.00">extends</text>
</g>
<!-- classifierReference : ClassifierReference -->
<g id="node7" class="node"><title>classifierReference : ClassifierReference</title>
<polygon fill="none" stroke="green" points="126.384,-95.5 126.384,-141.5 366.384,-141.5 366.384,-95.5 126.384,-95.5"/>
<text text-anchor="middle" x="246.384" y="-126.3" font-family="Times New Roman,serif" font-size="14.00">classifierReference : ClassifierReference</text>
<polyline fill="none" stroke="green" points="126.384,-118.5 366.384,-118.5 "/>
<text text-anchor="middle" x="246.384" y="-103.3" font-family="Times New Roman,serif" font-size="14.00"> </text>
</g>
<!-- classifierReference : ClassifierReference&#45;&gt;jParentClass : Class -->
<g id="edge7" class="edge"><title>classifierReference : ClassifierReference&#45;&gt;jParentClass : Class</title>
<path fill="none" stroke="green" d="M221.501,-95.4603C207.351,-82.9274 189.459,-67.0804 174.175,-53.5428"/>
<polygon fill="green" stroke="green" points="176.26,-50.7141 166.453,-46.7038 171.618,-55.9542 176.26,-50.7141"/>
<text text-anchor="middle" x="213.384" y="-68.2" font-family="Times New Roman,serif" font-size="11.00">target</text>
</g>
<!-- nameSpace : NamespaceClassifierReference&#45;&gt;classifierReference : ClassifierReference -->
<g id="edge6" class="edge"><title>nameSpace : NamespaceClassifierReference&#45;&gt;classifierReference : ClassifierReference</title>
<path fill="none" stroke="green" d="M254.015,-190.46C252.778,-178.962 251.242,-164.675 249.873,-151.94"/>
<polygon fill="green" stroke="green" points="253.321,-151.272 248.772,-141.704 246.361,-152.021 253.321,-151.272"/>
<text text-anchor="middle" x="297.884" y="-163.2" font-family="Times New Roman,serif" font-size="11.00">classifierReferences</text>
</g>
<!-- pg : TypeGraph -->
<g id="node9" class="node"><title>pg : TypeGraph</title>
<polygon fill="none" stroke="black" points="541.384,-475.5 541.384,-521.5 647.384,-521.5 647.384,-475.5 541.384,-475.5"/>
<text text-anchor="middle" x="594.384" y="-506.3" font-family="Times New Roman,serif" font-size="14.00">pg : TypeGraph</text>
<polyline fill="none" stroke="black" points="541.384,-498.5 647.384,-498.5 "/>
<text text-anchor="middle" x="594.384" y="-483.3" font-family="Times New Roman,serif" font-size="14.00"> </text>
</g>
<!-- pg : TypeGraph&#45;&gt;tParentClass : TClass -->
<g id="edge10" class="edge"><title>pg : TypeGraph&#45;&gt;tParentClass : TClass</title>
<path fill="none" stroke="black" d="M575.899,-475.46C565.677,-463.272 552.827,-447.95 541.685,-434.666"/>
<polygon fill="black" stroke="black" points="544.115,-432.117 535.007,-426.704 538.751,-436.615 544.115,-432.117"/>
<text text-anchor="middle" x="575.384" y="-448.2" font-family="Times New Roman,serif" font-size="11.00">classes</text>
</g>
<!-- pg : TypeGraph&#45;&gt;tClass : TClass -->
<g id="edge8" class="edge"><title>pg : TypeGraph&#45;&gt;tClass : TClass</title>
<path fill="none" stroke="black" d="M598.091,-475.303C601.26,-451.264 603.95,-412.058 594.384,-380 589.367,-363.185 577.119,-349.057 563.778,-337.97"/>
<polygon fill="black" stroke="black" points="565.885,-335.174 555.843,-331.795 561.586,-340.699 565.885,-335.174"/>
<text text-anchor="middle" x="616.384" y="-400.7" font-family="Times New Roman,serif" font-size="11.00">classes</text>
</g>
</g>
</svg>
