<?xml version="1.0" encoding="UTF-8" standalone="no"?>
<!DOCTYPE svg PUBLIC "-//W3C//DTD SVG 1.1//EN"
 "http://www.w3.org/Graphics/SVG/1.1/DTD/svg11.dtd">
<!-- Generated by graphviz version 2.38.0 (20140413.2041)
 -->
<!-- Title: LinkClassAndPackage Pages: 1 -->
<svg width="1505pt" height="497pt"
 viewBox="0.00 0.00 1504.80 497.00" xmlns="http://www.w3.org/2000/svg" xmlns:xlink="http://www.w3.org/1999/xlink">
<g id="graph0" class="graph" transform="scale(1 1) rotate(0) translate(4 493)">
<title>LinkClassAndPackage</title>
<polygon fill="white" stroke="none" points="-4,4 -4,-493 1500.8,-493 1500.8,4 -4,4"/>
<text text-anchor="middle" x="748.402" y="-22.8" font-family="Times New Roman,serif" font-size="14.00">_____________________________</text>
<text text-anchor="middle" x="748.402" y="-7.8" font-family="Times New Roman,serif" font-size="14.00"> eq(jClass.name,tClass.tName)</text>
<!-- jClassToTClass : ClassToTClass -->
<g id="node1" class="node"><title>jClassToTClass : ClassToTClass</title>
<polygon fill="none" stroke="green" points="306.299,-251.5 229.699,-269.5 76.5,-269.5 -0.0997717,-251.5 76.5,-233.5 229.699,-233.5 306.299,-251.5"/>
<text text-anchor="middle" x="153.1" y="-247.8" font-family="Times New Roman,serif" font-size="14.00">jClassToTClass : ClassToTClass</text>
</g>
<!-- jClass : Class -->
<g id="node5" class="node"><title>jClass : Class</title>
<polygon fill="none" stroke="green" points="253.1,-38.5 253.1,-84.5 345.1,-84.5 345.1,-38.5 253.1,-38.5"/>
<text text-anchor="middle" x="299.1" y="-69.3" font-family="Times New Roman,serif" font-size="14.00">jClass : Class</text>
<polyline fill="none" stroke="green" points="253.1,-61.5 345.1,-61.5 "/>
<text text-anchor="middle" x="299.1" y="-46.3" font-family="Times New Roman,serif" font-size="14.00"> </text>
</g>
<!-- jClassToTClass : ClassToTClass&#45;&gt;jClass : Class -->
<g id="edge1" class="edge"><title>jClassToTClass : ClassToTClass&#45;&gt;jClass : Class</title>
<path fill="none" stroke="green" d="M166.314,-233.485C191.019,-201.672 244.508,-132.796 275.532,-92.8479"/>
<polygon fill="green" stroke="green" points="278.423,-94.831 281.792,-84.7862 272.894,-90.5375 278.423,-94.831"/>
<text text-anchor="middle" x="258.1" y="-153.7" font-family="Times New Roman,serif" font-size="11.00">source</text>
</g>
<!-- tClass : TClass -->
<g id="node6" class="node"><title>tClass : TClass</title>
<polygon fill="none" stroke="green" points="711.6,-133.5 711.6,-179.5 812.6,-179.5 812.6,-133.5 711.6,-133.5"/>
<text text-anchor="middle" x="762.1" y="-164.3" font-family="Times New Roman,serif" font-size="14.00">tClass : TClass</text>
<polyline fill="none" stroke="green" points="711.6,-156.5 812.6,-156.5 "/>
<text text-anchor="middle" x="762.1" y="-141.3" font-family="Times New Roman,serif" font-size="14.00"> </text>
</g>
<!-- jClassToTClass : ClassToTClass&#45;&gt;tClass : TClass -->
<g id="edge2" class="edge"><title>jClassToTClass : ClassToTClass&#45;&gt;tClass : TClass</title>
<path fill="none" stroke="green" d="M244.838,-236.929C269.256,-233.649 295.643,-230.401 320.1,-228 449.06,-215.341 484.056,-235.514 611.1,-210 641.77,-203.841 674.704,-192.928 701.963,-182.642"/>
<polygon fill="green" stroke="green" points="703.272,-185.888 711.355,-179.038 700.765,-179.353 703.272,-185.888"/>
<text text-anchor="middle" x="667.1" y="-201.2" font-family="Times New Roman,serif" font-size="11.00">target</text>
</g>
<!-- jPackageToTPackage : ExtendedJamoppPackageElementToTPackage -->
<g id="node2" class="node"><title>jPackageToTPackage : ExtendedJamoppPackageElementToTPackage</title>
<polygon fill="none" stroke="black" points="1365.5,-381.5 1212.3,-399.5 905.9,-399.5 752.701,-381.5 905.9,-363.5 1212.3,-363.5 1365.5,-381.5"/>
<text text-anchor="middle" x="1059.1" y="-377.8" font-family="Times New Roman,serif" font-size="14.00">jPackageToTPackage : ExtendedJamoppPackageElementToTPackage</text>
</g>
<!-- jPackage : ExtendedJamoppPackageElement -->
<g id="node10" class="node"><title>jPackage : ExtendedJamoppPackageElement</title>
<polygon fill="none" stroke="black" points="927.1,-228.5 927.1,-274.5 1191.1,-274.5 1191.1,-228.5 927.1,-228.5"/>
<text text-anchor="middle" x="1059.1" y="-259.3" font-family="Times New Roman,serif" font-size="14.00">jPackage : ExtendedJamoppPackageElement</text>
<polyline fill="none" stroke="black" points="927.1,-251.5 1191.1,-251.5 "/>
<text text-anchor="middle" x="1059.1" y="-236.3" font-family="Times New Roman,serif" font-size="14.00"> </text>
</g>
<!-- jPackageToTPackage : ExtendedJamoppPackageElementToTPackage&#45;&gt;jPackage : ExtendedJamoppPackageElement -->
<g id="edge7" class="edge"><title>jPackageToTPackage : ExtendedJamoppPackageElementToTPackage&#45;&gt;jPackage : ExtendedJamoppPackageElement</title>
<path fill="none" stroke="black" d="M1059.1,-363.237C1059.1,-343.175 1059.1,-309.64 1059.1,-284.72"/>
<polygon fill="black" stroke="black" points="1062.6,-284.631 1059.1,-274.632 1055.6,-284.632 1062.6,-284.631"/>
<text text-anchor="middle" x="1074.1" y="-313.7" font-family="Times New Roman,serif" font-size="11.00">source</text>
</g>
<!-- tPackage : TPackage -->
<g id="node11" class="node"><title>tPackage : TPackage</title>
<polygon fill="none" stroke="black" points="1209.6,-228.5 1209.6,-274.5 1342.6,-274.5 1342.6,-228.5 1209.6,-228.5"/>
<text text-anchor="middle" x="1276.1" y="-259.3" font-family="Times New Roman,serif" font-size="14.00">tPackage : TPackage</text>
<polyline fill="none" stroke="black" points="1209.6,-251.5 1342.6,-251.5 "/>
<text text-anchor="middle" x="1276.1" y="-236.3" font-family="Times New Roman,serif" font-size="14.00"> </text>
</g>
<!-- jPackageToTPackage : ExtendedJamoppPackageElementToTPackage&#45;&gt;tPackage : TPackage -->
<g id="edge8" class="edge"><title>jPackageToTPackage : ExtendedJamoppPackageElementToTPackage&#45;&gt;tPackage : TPackage</title>
<path fill="none" stroke="black" d="M1088.37,-363.237C1124.65,-341.832 1186.95,-305.088 1229.76,-279.836"/>
<polygon fill="black" stroke="black" points="1231.74,-282.727 1238.58,-274.632 1228.19,-276.698 1231.74,-282.727"/>
<text text-anchor="middle" x="1218.1" y="-313.7" font-family="Times New Roman,serif" font-size="11.00">target</text>
</g>
<!-- compilationUnitToTClass : CompilationUnitToTClass -->
<g id="node3" class="node"><title>compilationUnitToTClass : CompilationUnitToTClass</title>
<polygon fill="none" stroke="green" points="909.413,-251.5 789.256,-269.5 548.943,-269.5 428.787,-251.5 548.943,-233.5 789.256,-233.5 909.413,-251.5"/>
<text text-anchor="middle" x="669.1" y="-247.8" font-family="Times New Roman,serif" font-size="14.00">compilationUnitToTClass : CompilationUnitToTClass</text>
</g>
<!-- compilationUnitToTClass : CompilationUnitToTClass&#45;&gt;tClass : TClass -->
<g id="edge4" class="edge"><title>compilationUnitToTClass : CompilationUnitToTClass&#45;&gt;tClass : TClass</title>
<path fill="none" stroke="green" d="M686.157,-233.442C699.136,-220.464 717.312,-202.287 732.629,-186.971"/>
<polygon fill="green" stroke="green" points="735.287,-189.263 739.883,-179.717 730.337,-184.313 735.287,-189.263"/>
<text text-anchor="middle" x="735.1" y="-201.2" font-family="Times New Roman,serif" font-size="11.00">target</text>
</g>
<!-- compilationUnit : CompilationUnit -->
<g id="node7" class="node"><title>compilationUnit : CompilationUnit</title>
<polygon fill="none" stroke="green" points="414.6,-133.5 414.6,-179.5 621.6,-179.5 621.6,-133.5 414.6,-133.5"/>
<text text-anchor="middle" x="518.1" y="-164.3" font-family="Times New Roman,serif" font-size="14.00">compilationUnit : CompilationUnit</text>
<polyline fill="none" stroke="green" points="414.6,-156.5 621.6,-156.5 "/>
<text text-anchor="middle" x="518.1" y="-141.3" font-family="Times New Roman,serif" font-size="14.00"> </text>
</g>
<!-- compilationUnitToTClass : CompilationUnitToTClass&#45;&gt;compilationUnit : CompilationUnit -->
<g id="edge3" class="edge"><title>compilationUnitToTClass : CompilationUnitToTClass&#45;&gt;compilationUnit : CompilationUnit</title>
<path fill="none" stroke="green" d="M625.842,-233.314C611.2,-226.794 595.037,-218.797 581.1,-210 570.189,-203.113 559.108,-194.523 549.344,-186.299"/>
<polygon fill="green" stroke="green" points="551.345,-183.402 541.486,-179.521 546.773,-188.703 551.345,-183.402"/>
<text text-anchor="middle" x="596.1" y="-201.2" font-family="Times New Roman,serif" font-size="11.00">source</text>
</g>
<!-- typeGraphToJContainer : ExtendedJamoppJavaContainerToTypeGraph -->
<g id="node4" class="node"><title>typeGraphToJContainer : ExtendedJamoppJavaContainerToTypeGraph</title>
<polygon fill="none" stroke="black" points="1497.01,-471 1340.05,-489 1026.15,-489 869.191,-471 1026.15,-453 1340.05,-453 1497.01,-471"/>
<text text-anchor="middle" x="1183.1" y="-467.3" font-family="Times New Roman,serif" font-size="14.00">typeGraphToJContainer : ExtendedJamoppJavaContainerToTypeGraph</text>
</g>
<!-- jContainer : ExtendedJamoppJavaContainer -->
<g id="node8" class="node"><title>jContainer : ExtendedJamoppJavaContainer</title>
<polygon fill="none" stroke="black" points="475.6,-358.5 475.6,-404.5 734.6,-404.5 734.6,-358.5 475.6,-358.5"/>
<text text-anchor="middle" x="605.1" y="-389.3" font-family="Times New Roman,serif" font-size="14.00">jContainer : ExtendedJamoppJavaContainer</text>
<polyline fill="none" stroke="black" points="475.6,-381.5 734.6,-381.5 "/>
<text text-anchor="middle" x="605.1" y="-366.3" font-family="Times New Roman,serif" font-size="14.00"> </text>
</g>
<!-- typeGraphToJContainer : ExtendedJamoppJavaContainerToTypeGraph&#45;&gt;jContainer : ExtendedJamoppJavaContainer -->
<g id="edge5" class="edge"><title>typeGraphToJContainer : ExtendedJamoppJavaContainerToTypeGraph&#45;&gt;jContainer : ExtendedJamoppJavaContainer</title>
<path fill="none" stroke="black" d="M1065.18,-452.981C979.267,-440.477 859.78,-422.873 744.968,-405.126"/>
<polygon fill="black" stroke="black" points="745.36,-401.645 734.942,-403.574 744.289,-408.563 745.36,-401.645"/>
<text text-anchor="middle" x="951.1" y="-426.2" font-family="Times New Roman,serif" font-size="11.00">source</text>
</g>
<!-- typeGraph : TypeGraph -->
<g id="node9" class="node"><title>typeGraph : TypeGraph</title>
<polygon fill="none" stroke="black" points="1311.6,-293.5 1311.6,-339.5 1462.6,-339.5 1462.6,-293.5 1311.6,-293.5"/>
<text text-anchor="middle" x="1387.1" y="-324.3" font-family="Times New Roman,serif" font-size="14.00">typeGraph : TypeGraph</text>
<polyline fill="none" stroke="black" points="1311.6,-316.5 1462.6,-316.5 "/>
<text text-anchor="middle" x="1387.1" y="-301.3" font-family="Times New Roman,serif" font-size="14.00"> </text>
</g>
<!-- typeGraphToJContainer : ExtendedJamoppJavaContainerToTypeGraph&#45;&gt;typeGraph : TypeGraph -->
<g id="edge6" class="edge"><title>typeGraphToJContainer : ExtendedJamoppJavaContainerToTypeGraph&#45;&gt;typeGraph : TypeGraph</title>
<path fill="none" stroke="black" d="M1297.89,-452.85C1326.6,-443.233 1354.69,-428.268 1374.1,-405 1386.68,-389.915 1389.94,-368.063 1390.04,-349.971"/>
<polygon fill="black" stroke="black" points="1393.54,-349.741 1389.79,-339.832 1386.54,-349.917 1393.54,-349.741"/>
<text text-anchor="middle" x="1367.1" y="-426.2" font-family="Times New Roman,serif" font-size="11.00">target</text>
</g>
<!-- compilationUnit : CompilationUnit&#45;&gt;jClass : Class -->
<g id="edge10" class="edge"><title>compilationUnit : CompilationUnit&#45;&gt;jClass : Class</title>
<path fill="none" stroke="green" d="M466.2,-133.46C432.671,-119.222 389.069,-100.706 354.813,-86.1589"/>
<polygon fill="green" stroke="green" points="355.987,-82.8551 345.414,-82.1678 353.251,-89.2982 355.987,-82.8551"/>
<text text-anchor="middle" x="444.1" y="-106.2" font-family="Times New Roman,serif" font-size="11.00">classifiers</text>
</g>
<!-- jContainer : ExtendedJamoppJavaContainer&#45;&gt;compilationUnit : CompilationUnit -->
<g id="edge11" class="edge"><title>jContainer : ExtendedJamoppJavaContainer&#45;&gt;compilationUnit : CompilationUnit</title>
<path fill="none" stroke="green" d="M477.283,-358.495C429.409,-343.371 379.729,-317.893 351.1,-275 339.503,-257.626 339.553,-245.408 351.1,-228 364.19,-208.265 384.014,-194.041 405.482,-183.792"/>
<polygon fill="green" stroke="green" points="407.069,-186.917 414.768,-179.639 404.211,-180.527 407.069,-186.917"/>
<text text-anchor="middle" x="385.6" y="-248.7" font-family="Times New Roman,serif" font-size="11.00">compilationUnit</text>
</g>
<!-- jContainer : ExtendedJamoppJavaContainer&#45;&gt;jPackage : ExtendedJamoppPackageElement -->
<g id="edge12" class="edge"><title>jContainer : ExtendedJamoppJavaContainer&#45;&gt;jPackage : ExtendedJamoppPackageElement</title>
<path fill="none" stroke="green" d="M679.438,-358.476C740.489,-340.506 829.264,-314.643 907.1,-293 925.894,-287.774 946.035,-282.311 965.307,-277.151"/>
<polygon fill="green" stroke="green" points="966.232,-280.526 974.99,-274.563 964.425,-273.764 966.232,-280.526"/>
<text text-anchor="middle" x="981.1" y="-313.7" font-family="Times New Roman,serif" font-size="11.00">extendedJamoppPackageElement</text>
</g>
<!-- typeGraph : TypeGraph&#45;&gt;tClass : TClass -->
<g id="edge13" class="edge"><title>typeGraph : TypeGraph&#45;&gt;tClass : TClass</title>
<path fill="none" stroke="green" d="M1384.31,-293.255C1380.56,-273.084 1371.89,-244.118 1352.1,-228 1272.1,-162.841 956.877,-156.466 822.885,-156.793"/>
<polygon fill="green" stroke="green" points="822.776,-153.293 812.789,-156.831 822.803,-160.293 822.776,-153.293"/>
<text text-anchor="middle" x="1395.1" y="-248.7" font-family="Times New Roman,serif" font-size="11.00">classes</text>
</g>
<!-- jPackage : ExtendedJamoppPackageElement&#45;&gt;compilationUnit : CompilationUnit -->
<g id="edge9" class="edge"><title>jPackage : ExtendedJamoppPackageElement&#45;&gt;compilationUnit : CompilationUnit</title>
<path fill="none" stroke="green" d="M930.89,-228.46C840.028,-212.841 719.222,-192.074 631.796,-177.045"/>
<polygon fill="green" stroke="green" points="632.288,-173.578 621.84,-175.333 631.102,-180.477 632.288,-173.578"/>
<text text-anchor="middle" x="855.6" y="-201.2" font-family="Times New Roman,serif" font-size="11.00">compilationUnit</text>
</g>
<!-- tPackage : TPackage&#45;&gt;tClass : TClass -->
<g id="edge14" class="edge"><title>tPackage : TPackage&#45;&gt;tClass : TClass</title>
<path fill="none" stroke="green" d="M1209.5,-230.257C1206.33,-229.46 1203.19,-228.702 1200.1,-228 1066.77,-197.665 907.72,-175.499 822.745,-164.76"/>
<polygon fill="green" stroke="green" points="823.113,-161.279 812.756,-163.507 822.242,-168.225 823.113,-161.279"/>
<text text-anchor="middle" x="1142.1" y="-201.2" font-family="Times New Roman,serif" font-size="11.00">containedClasses</text>
</g>
</g>
</svg>
