<?xml version="1.0" encoding="UTF-8" standalone="no"?>
<!DOCTYPE svg PUBLIC "-//W3C//DTD SVG 1.1//EN"
 "http://www.w3.org/Graphics/SVG/1.1/DTD/svg11.dtd">
<!-- Generated by graphviz version 2.38.0 (20140413.2041)
 -->
<!-- Title: MethodNameExisting Pages: 1 -->
<svg width="1139pt" height="283pt"
 viewBox="0.00 0.00 1139.14 283.00" xmlns="http://www.w3.org/2000/svg" xmlns:xlink="http://www.w3.org/1999/xlink">
<g id="graph0" class="graph" transform="scale(1 1) rotate(0) translate(4 279)">
<title>MethodNameExisting</title>
<polygon fill="white" stroke="none" points="-4,4 -4,-279 1135.14,-279 1135.14,4 -4,4"/>
<text text-anchor="middle" x="565.57" y="-22.8" font-family="Times New Roman,serif" font-size="14.00">_____________________________</text>
<text text-anchor="middle" x="565.57" y="-7.8" font-family="Times New Roman,serif" font-size="14.00"> eq(jMethod.name,tMethod.tName)</text>
<!-- tClassToJClass : ClassToTClass -->
<g id="node1" class="node"><title>tClassToJClass : ClassToTClass</title>
<polygon fill="none" stroke="black" points="624.197,-251.5 548.848,-269.5 398.152,-269.5 322.803,-251.5 398.152,-233.5 548.848,-233.5 624.197,-251.5"/>
<text text-anchor="middle" x="473.5" y="-247.8" font-family="Times New Roman,serif" font-size="14.00">tClassToJClass : ClassToTClass</text>
</g>
<!-- tClass : TClass -->
<g id="node4" class="node"><title>tClass : TClass</title>
<polygon fill="none" stroke="black" points="0,-133.5 0,-179.5 101,-179.5 101,-133.5 0,-133.5"/>
<text text-anchor="middle" x="50.5" y="-164.3" font-family="Times New Roman,serif" font-size="14.00">tClass : TClass</text>
<polyline fill="none" stroke="black" points="0,-156.5 101,-156.5 "/>
<text text-anchor="middle" x="50.5" y="-141.3" font-family="Times New Roman,serif" font-size="14.00"> </text>
</g>
<!-- tClassToJClass : ClassToTClass&#45;&gt;tClass : TClass -->
<g id="edge1" class="edge"><title>tClassToJClass : ClassToTClass&#45;&gt;tClass : TClass</title>
<path fill="none" stroke="black" d="M381.971,-237.275C310.125,-225.857 207.661,-207.284 110.815,-180.193"/>
<polygon fill="black" stroke="black" points="111.736,-176.816 101.16,-177.458 109.828,-183.551 111.736,-176.816"/>
<text text-anchor="middle" x="241.5" y="-201.2" font-family="Times New Roman,serif" font-size="11.00">target</text>
</g>
<!-- jClass : Class -->
<g id="node7" class="node"><title>jClass : Class</title>
<polygon fill="none" stroke="black" points="873.5,-133.5 873.5,-179.5 965.5,-179.5 965.5,-133.5 873.5,-133.5"/>
<text text-anchor="middle" x="919.5" y="-164.3" font-family="Times New Roman,serif" font-size="14.00">jClass : Class</text>
<polyline fill="none" stroke="black" points="873.5,-156.5 965.5,-156.5 "/>
<text text-anchor="middle" x="919.5" y="-141.3" font-family="Times New Roman,serif" font-size="14.00"> </text>
</g>
<!-- tClassToJClass : ClassToTClass&#45;&gt;jClass : Class -->
<g id="edge4" class="edge"><title>tClassToJClass : ClassToTClass&#45;&gt;jClass : Class</title>
<path fill="none" stroke="black" d="M575.714,-239.883C612.524,-236.09 654.374,-231.813 692.5,-228 733.6,-223.889 841.183,-229.677 877.5,-210 886.967,-204.871 895.066,-196.621 901.552,-188.165"/>
<polygon fill="black" stroke="black" points="904.585,-189.938 907.492,-179.749 898.866,-185.901 904.585,-189.938"/>
<text text-anchor="middle" x="907.5" y="-201.2" font-family="Times New Roman,serif" font-size="11.00">source</text>
</g>
<!-- jMethodToTMethodDefinition : ClassMethodToTMethodDefinition -->
<g id="node2" class="node"><title>jMethodToTMethodDefinition : ClassMethodToTMethodDefinition</title>
<polygon fill="none" stroke="green" points="710.385,-156.5 562.443,-174.5 266.557,-174.5 118.615,-156.5 266.557,-138.5 562.443,-138.5 710.385,-156.5"/>
<text text-anchor="middle" x="414.5" y="-152.8" font-family="Times New Roman,serif" font-size="14.00">jMethodToTMethodDefinition : ClassMethodToTMethodDefinition</text>
</g>
<!-- jMethod : ExtendedClassMethod -->
<g id="node5" class="node"><title>jMethod : ExtendedClassMethod</title>
<polygon fill="none" stroke="green" points="819.5,-38.5 819.5,-84.5 1019.5,-84.5 1019.5,-38.5 819.5,-38.5"/>
<text text-anchor="middle" x="919.5" y="-69.3" font-family="Times New Roman,serif" font-size="14.00">jMethod : ExtendedClassMethod</text>
<polyline fill="none" stroke="green" points="819.5,-61.5 1019.5,-61.5 "/>
<text text-anchor="middle" x="919.5" y="-46.3" font-family="Times New Roman,serif" font-size="14.00"> </text>
</g>
<!-- jMethodToTMethodDefinition : ClassMethodToTMethodDefinition&#45;&gt;jMethod : ExtendedClassMethod -->
<g id="edge2" class="edge"><title>jMethodToTMethodDefinition : ClassMethodToTMethodDefinition&#45;&gt;jMethod : ExtendedClassMethod</title>
<path fill="none" stroke="green" d="M506.831,-138.496C592.012,-122.81 718.611,-99.4954 809.103,-82.8305"/>
<polygon fill="green" stroke="green" points="809.923,-86.2385 819.124,-80.9852 808.655,-79.3543 809.923,-86.2385"/>
<text text-anchor="middle" x="712.5" y="-106.2" font-family="Times New Roman,serif" font-size="11.00">source</text>
</g>
<!-- tMethodDefinition : TMethodDefinition -->
<g id="node6" class="node"><title>tMethodDefinition : TMethodDefinition</title>
<polygon fill="none" stroke="green" points="116,-38.5 116,-84.5 351,-84.5 351,-38.5 116,-38.5"/>
<text text-anchor="middle" x="233.5" y="-69.3" font-family="Times New Roman,serif" font-size="14.00">tMethodDefinition : TMethodDefinition</text>
<polyline fill="none" stroke="green" points="116,-61.5 351,-61.5 "/>
<text text-anchor="middle" x="233.5" y="-46.3" font-family="Times New Roman,serif" font-size="14.00"> </text>
</g>
<!-- jMethodToTMethodDefinition : ClassMethodToTMethodDefinition&#45;&gt;tMethodDefinition : TMethodDefinition -->
<g id="edge3" class="edge"><title>jMethodToTMethodDefinition : ClassMethodToTMethodDefinition&#45;&gt;tMethodDefinition : TMethodDefinition</title>
<path fill="none" stroke="green" d="M381.302,-138.442C354.457,-124.649 316.186,-104.985 285.313,-89.1223"/>
<polygon fill="green" stroke="green" points="286.899,-86.0023 276.405,-84.5452 283.7,-92.2285 286.899,-86.0023"/>
<text text-anchor="middle" x="348.5" y="-106.2" font-family="Times New Roman,serif" font-size="11.00">target</text>
</g>
<!-- jMethodToTMethod : ClassMethodToTMethod -->
<g id="node3" class="node"><title>jMethodToTMethod : ClassMethodToTMethod</title>
<polygon fill="none" stroke="green" points="1131.28,-251.5 1023.89,-269.5 809.11,-269.5 701.72,-251.5 809.11,-233.5 1023.89,-233.5 1131.28,-251.5"/>
<text text-anchor="middle" x="916.5" y="-247.8" font-family="Times New Roman,serif" font-size="14.00">jMethodToTMethod : ClassMethodToTMethod</text>
</g>
<!-- jMethodToTMethod : ClassMethodToTMethod&#45;&gt;jMethod : ExtendedClassMethod -->
<g id="edge6" class="edge"><title>jMethodToTMethod : ClassMethodToTMethod&#45;&gt;jMethod : ExtendedClassMethod</title>
<path fill="none" stroke="green" d="M936.532,-233.337C950.13,-220.287 966.959,-201.037 974.5,-180 986.145,-147.515 983.408,-131.869 964.5,-103 961.97,-99.1368 958.982,-95.4066 955.769,-91.8777"/>
<polygon fill="green" stroke="green" points="957.988,-89.144 948.465,-84.5001 953.014,-94.0689 957.988,-89.144"/>
<text text-anchor="middle" x="995.5" y="-153.7" font-family="Times New Roman,serif" font-size="11.00">source</text>
</g>
<!-- tMethod : TMethod -->
<g id="node8" class="node"><title>tMethod : TMethod</title>
<polygon fill="none" stroke="black" points="728,-133.5 728,-179.5 855,-179.5 855,-133.5 728,-133.5"/>
<text text-anchor="middle" x="791.5" y="-164.3" font-family="Times New Roman,serif" font-size="14.00">tMethod : TMethod</text>
<polyline fill="none" stroke="black" points="728,-156.5 855,-156.5 "/>
<text text-anchor="middle" x="791.5" y="-141.3" font-family="Times New Roman,serif" font-size="14.00"> </text>
</g>
<!-- jMethodToTMethod : ClassMethodToTMethod&#45;&gt;tMethod : TMethod -->
<g id="edge5" class="edge"><title>jMethodToTMethod : ClassMethodToTMethod&#45;&gt;tMethod : TMethod</title>
<path fill="none" stroke="green" d="M886.714,-233.332C875.418,-226.464 862.608,-218.236 851.5,-210 841.783,-202.795 831.707,-194.39 822.651,-186.445"/>
<polygon fill="green" stroke="green" points="824.785,-183.659 814.989,-179.623 820.13,-188.887 824.785,-183.659"/>
<text text-anchor="middle" x="864.5" y="-201.2" font-family="Times New Roman,serif" font-size="11.00">target</text>
</g>
<!-- tClass : TClass&#45;&gt;tMethodDefinition : TMethodDefinition -->
<g id="edge8" class="edge"><title>tClass : TClass&#45;&gt;tMethodDefinition : TMethodDefinition</title>
<path fill="none" stroke="green" d="M93.8684,-133.46C119.982,-120.189 153.408,-103.202 181.008,-89.176"/>
<polygon fill="green" stroke="green" points="182.797,-92.1932 190.126,-84.5425 179.626,-85.9528 182.797,-92.1932"/>
<text text-anchor="middle" x="169.5" y="-106.2" font-family="Times New Roman,serif" font-size="11.00">defines</text>
</g>
<!-- jClass : Class&#45;&gt;jMethod : ExtendedClassMethod -->
<g id="edge7" class="edge"><title>jClass : Class&#45;&gt;jMethod : ExtendedClassMethod</title>
<path fill="none" stroke="green" d="M919.5,-133.46C919.5,-121.962 919.5,-107.675 919.5,-94.9402"/>
<polygon fill="green" stroke="green" points="923,-94.7038 919.5,-84.7038 916,-94.7038 923,-94.7038"/>
<text text-anchor="middle" x="940" y="-106.2" font-family="Times New Roman,serif" font-size="11.00">members</text>
</g>
<!-- pg : TypeGraph -->
<g id="node9" class="node"><title>pg : TypeGraph</title>
<polygon fill="none" stroke="black" points="78.5,-228.5 78.5,-274.5 184.5,-274.5 184.5,-228.5 78.5,-228.5"/>
<text text-anchor="middle" x="131.5" y="-259.3" font-family="Times New Roman,serif" font-size="14.00">pg : TypeGraph</text>
<polyline fill="none" stroke="black" points="78.5,-251.5 184.5,-251.5 "/>
<text text-anchor="middle" x="131.5" y="-236.3" font-family="Times New Roman,serif" font-size="14.00"> </text>
</g>
<!-- pg : TypeGraph&#45;&gt;tClass : TClass -->
<g id="edge9" class="edge"><title>pg : TypeGraph&#45;&gt;tClass : TClass</title>
<path fill="none" stroke="black" d="M112.304,-228.46C101.589,-216.157 88.0917,-200.661 76.4464,-187.29"/>
<polygon fill="black" stroke="black" points="79.0459,-184.946 69.8388,-179.704 73.7673,-189.543 79.0459,-184.946"/>
<text text-anchor="middle" x="112.5" y="-201.2" font-family="Times New Roman,serif" font-size="11.00">classes</text>
</g>
<!-- pg : TypeGraph&#45;&gt;tMethod : TMethod -->
<g id="edge10" class="edge"><title>pg : TypeGraph&#45;&gt;tMethod : TMethod</title>
<path fill="none" stroke="black" d="M184.848,-243.829C221.119,-239.312 270.198,-233.236 313.5,-228 490.628,-206.581 540.027,-217.514 717.733,-180.227"/>
<polygon fill="black" stroke="black" points="718.617,-183.617 727.673,-178.119 717.165,-176.77 718.617,-183.617"/>
<text text-anchor="middle" x="637" y="-201.2" font-family="Times New Roman,serif" font-size="11.00">methods</text>
</g>
</g>
</svg>
