<?xml version="1.0" encoding="UTF-8" standalone="no"?>
<!DOCTYPE svg PUBLIC "-//W3C//DTD SVG 1.1//EN"
 "http://www.w3.org/Graphics/SVG/1.1/DTD/svg11.dtd">
<!-- Generated by graphviz version 2.38.0 (20140413.2041)
 -->
<!-- Title: MethodNameCreate Pages: 1 -->
<svg width="1397pt" height="283pt"
 viewBox="0.00 0.00 1397.14 283.00" xmlns="http://www.w3.org/2000/svg" xmlns:xlink="http://www.w3.org/1999/xlink">
<g id="graph0" class="graph" transform="scale(1 1) rotate(0) translate(4 279)">
<title>MethodNameCreate</title>
<polygon fill="white" stroke="none" points="-4,4 -4,-279 1393.14,-279 1393.14,4 -4,4"/>
<text text-anchor="middle" x="694.57" y="-22.8" font-family="Times New Roman,serif" font-size="14.00">_____________________________</text>
<text text-anchor="middle" x="694.57" y="-7.8" font-family="Times New Roman,serif" font-size="14.00"> eq(jMethod.name,tMethod.tName)</text>
<!-- tClassToJClass : ClassToTClass -->
<g id="node1" class="node"><title>tClassToJClass : ClassToTClass</title>
<polygon fill="none" stroke="black" points="1131.34,-251.5 1055.99,-269.5 905.291,-269.5 829.943,-251.5 905.291,-233.5 1055.99,-233.5 1131.34,-251.5"/>
<text text-anchor="middle" x="980.64" y="-247.8" font-family="Times New Roman,serif" font-size="14.00">tClassToJClass : ClassToTClass</text>
</g>
<!-- jClass : Class -->
<g id="node4" class="node"><title>jClass : Class</title>
<polygon fill="none" stroke="black" points="568.64,-133.5 568.64,-179.5 660.64,-179.5 660.64,-133.5 568.64,-133.5"/>
<text text-anchor="middle" x="614.64" y="-164.3" font-family="Times New Roman,serif" font-size="14.00">jClass : Class</text>
<polyline fill="none" stroke="black" points="568.64,-156.5 660.64,-156.5 "/>
<text text-anchor="middle" x="614.64" y="-141.3" font-family="Times New Roman,serif" font-size="14.00"> </text>
</g>
<!-- tClassToJClass : ClassToTClass&#45;&gt;jClass : Class -->
<g id="edge1" class="edge"><title>tClassToJClass : ClassToTClass&#45;&gt;jClass : Class</title>
<path fill="none" stroke="black" d="M896.811,-235.406C836.109,-223.575 752.138,-205.354 670.582,-180.085"/>
<polygon fill="black" stroke="black" points="671.239,-176.623 660.65,-176.968 669.143,-183.302 671.239,-176.623"/>
<text text-anchor="middle" x="785.64" y="-201.2" font-family="Times New Roman,serif" font-size="11.00">source</text>
</g>
<!-- tClass : TClass -->
<g id="node8" class="node"><title>tClass : TClass</title>
<polygon fill="none" stroke="black" points="1288.14,-133.5 1288.14,-179.5 1389.14,-179.5 1389.14,-133.5 1288.14,-133.5"/>
<text text-anchor="middle" x="1338.64" y="-164.3" font-family="Times New Roman,serif" font-size="14.00">tClass : TClass</text>
<polyline fill="none" stroke="black" points="1288.14,-156.5 1389.14,-156.5 "/>
<text text-anchor="middle" x="1338.64" y="-141.3" font-family="Times New Roman,serif" font-size="14.00"> </text>
</g>
<!-- tClassToJClass : ClassToTClass&#45;&gt;tClass : TClass -->
<g id="edge6" class="edge"><title>tClassToJClass : ClassToTClass&#45;&gt;tClass : TClass</title>
<path fill="none" stroke="black" d="M1061.05,-234.571C1119.2,-222.353 1199.68,-204.008 1277.92,-180.385"/>
<polygon fill="black" stroke="black" points="1279.4,-183.592 1287.94,-177.325 1277.35,-176.897 1279.4,-183.592"/>
<text text-anchor="middle" x="1227.64" y="-201.2" font-family="Times New Roman,serif" font-size="11.00">target</text>
</g>
<!-- jMethodToTMethodDefinition : ClassMethodToTMethodDefinition -->
<g id="node2" class="node"><title>jMethodToTMethodDefinition : ClassMethodToTMethodDefinition</title>
<polygon fill="none" stroke="green" points="1270.53,-156.5 1122.58,-174.5 826.697,-174.5 678.755,-156.5 826.697,-138.5 1122.58,-138.5 1270.53,-156.5"/>
<text text-anchor="middle" x="974.64" y="-152.8" font-family="Times New Roman,serif" font-size="14.00">jMethodToTMethodDefinition : ClassMethodToTMethodDefinition</text>
</g>
<!-- tMethodDefinition : TMethodDefinition -->
<g id="node5" class="node"><title>tMethodDefinition : TMethodDefinition</title>
<polygon fill="none" stroke="green" points="1039.14,-38.5 1039.14,-84.5 1274.14,-84.5 1274.14,-38.5 1039.14,-38.5"/>
<text text-anchor="middle" x="1156.64" y="-69.3" font-family="Times New Roman,serif" font-size="14.00">tMethodDefinition : TMethodDefinition</text>
<polyline fill="none" stroke="green" points="1039.14,-61.5 1274.14,-61.5 "/>
<text text-anchor="middle" x="1156.64" y="-46.3" font-family="Times New Roman,serif" font-size="14.00"> </text>
</g>
<!-- jMethodToTMethodDefinition : ClassMethodToTMethodDefinition&#45;&gt;tMethodDefinition : TMethodDefinition -->
<g id="edge2" class="edge"><title>jMethodToTMethodDefinition : ClassMethodToTMethodDefinition&#45;&gt;tMethodDefinition : TMethodDefinition</title>
<path fill="none" stroke="green" d="M1008.02,-138.442C1035.01,-124.649 1073.5,-104.985 1104.54,-89.1223"/>
<polygon fill="green" stroke="green" points="1106.19,-92.2122 1113.5,-84.5452 1103,-85.9789 1106.19,-92.2122"/>
<text text-anchor="middle" x="1088.64" y="-106.2" font-family="Times New Roman,serif" font-size="11.00">target</text>
</g>
<!-- jMethod : ExtendedClassMethod -->
<g id="node6" class="node"><title>jMethod : ExtendedClassMethod</title>
<polygon fill="none" stroke="green" points="514.64,-38.5 514.64,-84.5 714.64,-84.5 714.64,-38.5 514.64,-38.5"/>
<text text-anchor="middle" x="614.64" y="-69.3" font-family="Times New Roman,serif" font-size="14.00">jMethod : ExtendedClassMethod</text>
<polyline fill="none" stroke="green" points="514.64,-61.5 714.64,-61.5 "/>
<text text-anchor="middle" x="614.64" y="-46.3" font-family="Times New Roman,serif" font-size="14.00"> </text>
</g>
<!-- jMethodToTMethodDefinition : ClassMethodToTMethodDefinition&#45;&gt;jMethod : ExtendedClassMethod -->
<g id="edge3" class="edge"><title>jMethodToTMethodDefinition : ClassMethodToTMethodDefinition&#45;&gt;jMethod : ExtendedClassMethod</title>
<path fill="none" stroke="green" d="M908.61,-138.442C852.926,-124.057 772.522,-103.286 709.872,-87.1017"/>
<polygon fill="green" stroke="green" points="710.534,-83.6578 699.976,-84.5452 708.783,-90.4353 710.534,-83.6578"/>
<text text-anchor="middle" x="830.64" y="-106.2" font-family="Times New Roman,serif" font-size="11.00">source</text>
</g>
<!-- jMethodToTMethod : ClassMethodToTMethod -->
<g id="node3" class="node"><title>jMethodToTMethod : ClassMethodToTMethod</title>
<polygon fill="none" stroke="green" points="429.419,-251.5 322.03,-269.5 107.25,-269.5 -0.139876,-251.5 107.25,-233.5 322.03,-233.5 429.419,-251.5"/>
<text text-anchor="middle" x="214.64" y="-247.8" font-family="Times New Roman,serif" font-size="14.00">jMethodToTMethod : ClassMethodToTMethod</text>
</g>
<!-- jMethodToTMethod : ClassMethodToTMethod&#45;&gt;jMethod : ExtendedClassMethod -->
<g id="edge5" class="edge"><title>jMethodToTMethod : ClassMethodToTMethod&#45;&gt;jMethod : ExtendedClassMethod</title>
<path fill="none" stroke="green" d="M210.114,-233.231C204.6,-207.842 198.823,-160.485 223.64,-133 260.379,-92.3107 402.243,-74.9703 504.518,-67.6706"/>
<polygon fill="green" stroke="green" points="504.863,-71.1552 514.598,-66.9743 504.38,-64.1718 504.863,-71.1552"/>
<text text-anchor="middle" x="238.64" y="-153.7" font-family="Times New Roman,serif" font-size="11.00">source</text>
</g>
<!-- tMethod : TMethod -->
<g id="node7" class="node"><title>tMethod : TMethod</title>
<polygon fill="none" stroke="green" points="263.14,-133.5 263.14,-179.5 390.14,-179.5 390.14,-133.5 263.14,-133.5"/>
<text text-anchor="middle" x="326.64" y="-164.3" font-family="Times New Roman,serif" font-size="14.00">tMethod : TMethod</text>
<polyline fill="none" stroke="green" points="263.14,-156.5 390.14,-156.5 "/>
<text text-anchor="middle" x="326.64" y="-141.3" font-family="Times New Roman,serif" font-size="14.00"> </text>
</g>
<!-- jMethodToTMethod : ClassMethodToTMethod&#45;&gt;tMethod : TMethod -->
<g id="edge4" class="edge"><title>jMethodToTMethod : ClassMethodToTMethod&#45;&gt;tMethod : TMethod</title>
<path fill="none" stroke="green" d="M235.182,-233.442C251.096,-220.228 273.501,-201.625 292.151,-186.138"/>
<polygon fill="green" stroke="green" points="294.427,-188.798 299.884,-179.717 289.955,-183.412 294.427,-188.798"/>
<text text-anchor="middle" x="290.64" y="-201.2" font-family="Times New Roman,serif" font-size="11.00">target</text>
</g>
<!-- jClass : Class&#45;&gt;jMethod : ExtendedClassMethod -->
<g id="edge7" class="edge"><title>jClass : Class&#45;&gt;jMethod : ExtendedClassMethod</title>
<path fill="none" stroke="green" d="M614.64,-133.46C614.64,-121.962 614.64,-107.675 614.64,-94.9402"/>
<polygon fill="green" stroke="green" points="618.14,-94.7038 614.64,-84.7038 611.14,-94.7038 618.14,-94.7038"/>
<text text-anchor="middle" x="635.14" y="-106.2" font-family="Times New Roman,serif" font-size="11.00">members</text>
</g>
<!-- tClass : TClass&#45;&gt;tMethodDefinition : TMethodDefinition -->
<g id="edge10" class="edge"><title>tClass : TClass&#45;&gt;tMethodDefinition : TMethodDefinition</title>
<path fill="none" stroke="green" d="M1295.51,-133.46C1269.54,-120.189 1236.29,-103.202 1208.84,-89.176"/>
<polygon fill="green" stroke="green" points="1210.27,-85.9761 1199.78,-84.5425 1207.09,-92.2094 1210.27,-85.9761"/>
<text text-anchor="middle" x="1273.64" y="-106.2" font-family="Times New Roman,serif" font-size="11.00">defines</text>
</g>
<!-- tExMethod : TMethod -->
<g id="node9" class="node"><title>tExMethod : TMethod</title>
<polygon fill="none" stroke="blue" points="408.64,-133.5 408.64,-179.5 550.64,-179.5 550.64,-133.5 408.64,-133.5"/>
<text text-anchor="middle" x="479.64" y="-164.3" font-family="Times New Roman,serif" font-size="14.00">tExMethod : TMethod</text>
<polyline fill="none" stroke="blue" points="408.64,-156.5 550.64,-156.5 "/>
<text text-anchor="middle" x="479.64" y="-141.3" font-family="Times New Roman,serif" font-size="14.00"> </text>
</g>
<!-- pg : TypeGraph -->
<g id="node10" class="node"><title>pg : TypeGraph</title>
<polygon fill="none" stroke="black" points="447.64,-228.5 447.64,-274.5 553.64,-274.5 553.64,-228.5 447.64,-228.5"/>
<text text-anchor="middle" x="500.64" y="-259.3" font-family="Times New Roman,serif" font-size="14.00">pg : TypeGraph</text>
<polyline fill="none" stroke="black" points="447.64,-251.5 553.64,-251.5 "/>
<text text-anchor="middle" x="500.64" y="-236.3" font-family="Times New Roman,serif" font-size="14.00"> </text>
</g>
<!-- pg : TypeGraph&#45;&gt;tMethod : TMethod -->
<g id="edge8" class="edge"><title>pg : TypeGraph&#45;&gt;tMethod : TMethod</title>
<path fill="none" stroke="green" d="M459.404,-228.46C434.682,-215.247 403.069,-198.35 376.892,-184.359"/>
<polygon fill="green" stroke="green" points="378.35,-181.17 367.881,-179.542 375.05,-187.343 378.35,-181.17"/>
<text text-anchor="middle" x="443.14" y="-201.2" font-family="Times New Roman,serif" font-size="11.00">methods</text>
</g>
<!-- pg : TypeGraph&#45;&gt;tClass : TClass -->
<g id="edge9" class="edge"><title>pg : TypeGraph&#45;&gt;tClass : TClass</title>
<path fill="none" stroke="black" d="M553.805,-246.537C712.078,-234.624 1175.12,-198.91 1278.26,-179.815"/>
<polygon fill="black" stroke="black" points="1278.98,-183.24 1288.07,-177.796 1277.57,-176.384 1278.98,-183.24"/>
<text text-anchor="middle" x="1146.64" y="-201.2" font-family="Times New Roman,serif" font-size="11.00">classes</text>
</g>
<!-- pg : TypeGraph&#45;&gt;tExMethod : TMethod -->
<g id="edge11" class="edge"><title>pg : TypeGraph&#45;&gt;tExMethod : TMethod</title>
<path fill="none" stroke="black" d="M495.663,-228.46C493.041,-216.847 489.776,-202.389 486.879,-189.559"/>
<polygon fill="black" stroke="black" points="490.27,-188.687 484.654,-179.704 483.442,-190.229 490.27,-188.687"/>
<text text-anchor="middle" x="510.14" y="-201.2" font-family="Times New Roman,serif" font-size="11.00">methods</text>
</g>
</g>
</svg>
