<?xml version="1.0" encoding="UTF-8" standalone="no"?>
<!DOCTYPE svg PUBLIC "-//W3C//DTD SVG 1.1//EN"
 "http://www.w3.org/Graphics/SVG/1.1/DTD/svg11.dtd">
<!-- Generated by graphviz version 2.38.0 (20140413.2041)
 -->
<!-- Title: MethodSignatureCreate Pages: 1 -->
<svg width="2214pt" height="424pt"
 viewBox="0.00 0.00 2213.57 424.00" xmlns="http://www.w3.org/2000/svg" xmlns:xlink="http://www.w3.org/1999/xlink">
<g id="graph0" class="graph" transform="scale(1 1) rotate(0) translate(4 420)">
<title>MethodSignatureCreate</title>
<polygon fill="white" stroke="none" points="-4,4 -4,-420 2209.57,-420 2209.57,4 -4,4"/>
<!-- jParameterListToTParameterList : ExtendedParameterListToTParameterList -->
<g id="node1" class="node"><title>jParameterListToTParameterList : ExtendedParameterListToTParameterList</title>
<polygon fill="none" stroke="green" points="1823,-308.5 1657.79,-326.5 1327.35,-326.5 1162.14,-308.5 1327.35,-290.5 1657.79,-290.5 1823,-308.5"/>
<text text-anchor="middle" x="1492.57" y="-304.8" font-family="Times New Roman,serif" font-size="14.00">jParameterListToTParameterList : ExtendedParameterListToTParameterList</text>
</g>
<!-- tParameterList : TParameterList -->
<g id="node7" class="node"><title>tParameterList : TParameterList</title>
<polygon fill="none" stroke="green" points="1428.07,-0.5 1428.07,-46.5 1621.07,-46.5 1621.07,-0.5 1428.07,-0.5"/>
<text text-anchor="middle" x="1524.57" y="-31.3" font-family="Times New Roman,serif" font-size="14.00">tParameterList : TParameterList</text>
<polyline fill="none" stroke="green" points="1428.07,-23.5 1621.07,-23.5 "/>
<text text-anchor="middle" x="1524.57" y="-8.3" font-family="Times New Roman,serif" font-size="14.00"> </text>
</g>
<!-- jParameterListToTParameterList : ExtendedParameterListToTParameterList&#45;&gt;tParameterList : TParameterList -->
<g id="edge1" class="edge"><title>jParameterListToTParameterList : ExtendedParameterListToTParameterList&#45;&gt;tParameterList : TParameterList</title>
<path fill="none" stroke="green" d="M1723.76,-297.633C1901.3,-287.611 2120.89,-268.921 2149.57,-237 2300.84,-68.6333 1846.76,-33.5734 1631.3,-26.3421"/>
<polygon fill="green" stroke="green" points="1631.33,-22.8414 1621.22,-26.0184 1631.1,-29.8378 1631.33,-22.8414"/>
<text text-anchor="middle" x="2192.57" y="-163.2" font-family="Times New Roman,serif" font-size="11.00">target</text>
</g>
<!-- jParameterList : ExtendedParameterList -->
<g id="node8" class="node"><title>jParameterList : ExtendedParameterList</title>
<polygon fill="none" stroke="green" points="1294.57,-190.5 1294.57,-236.5 1530.57,-236.5 1530.57,-190.5 1294.57,-190.5"/>
<text text-anchor="middle" x="1412.57" y="-221.3" font-family="Times New Roman,serif" font-size="14.00">jParameterList : ExtendedParameterList</text>
<polyline fill="none" stroke="green" points="1294.57,-213.5 1530.57,-213.5 "/>
<text text-anchor="middle" x="1412.57" y="-198.3" font-family="Times New Roman,serif" font-size="14.00"> </text>
</g>
<!-- jParameterListToTParameterList : ExtendedParameterListToTParameterList&#45;&gt;jParameterList : ExtendedParameterList -->
<g id="edge2" class="edge"><title>jParameterListToTParameterList : ExtendedParameterListToTParameterList&#45;&gt;jParameterList : ExtendedParameterList</title>
<path fill="none" stroke="green" d="M1477.9,-290.442C1466.83,-277.582 1451.38,-259.617 1438.28,-244.389"/>
<polygon fill="green" stroke="green" points="1440.86,-242.015 1431.68,-236.717 1435.55,-246.58 1440.86,-242.015"/>
<text text-anchor="middle" x="1471.57" y="-258.2" font-family="Times New Roman,serif" font-size="11.00">source</text>
</g>
<!-- extendedJamoppJavaContainerToPg : ExtendedJamoppJavaContainerToTypeGraph -->
<g id="node2" class="node"><title>extendedJamoppJavaContainerToPg : ExtendedJamoppJavaContainerToTypeGraph</title>
<polygon fill="none" stroke="black" points="940.046,-398 757.308,-416 391.832,-416 209.094,-398 391.832,-380 757.308,-380 940.046,-398"/>
<text text-anchor="middle" x="574.57" y="-394.3" font-family="Times New Roman,serif" font-size="14.00">extendedJamoppJavaContainerToPg : ExtendedJamoppJavaContainerToTypeGraph</text>
</g>
<!-- extendedJamoppJavaContainer : ExtendedJamoppJavaContainer -->
<g id="node10" class="node"><title>extendedJamoppJavaContainer : ExtendedJamoppJavaContainer</title>
<polygon fill="none" stroke="black" points="703.57,-285.5 703.57,-331.5 1077.57,-331.5 1077.57,-285.5 703.57,-285.5"/>
<text text-anchor="middle" x="890.57" y="-316.3" font-family="Times New Roman,serif" font-size="14.00">extendedJamoppJavaContainer : ExtendedJamoppJavaContainer</text>
<polyline fill="none" stroke="black" points="703.57,-308.5 1077.57,-308.5 "/>
<text text-anchor="middle" x="890.57" y="-293.3" font-family="Times New Roman,serif" font-size="14.00"> </text>
</g>
<!-- extendedJamoppJavaContainerToPg : ExtendedJamoppJavaContainerToTypeGraph&#45;&gt;extendedJamoppJavaContainer : ExtendedJamoppJavaContainer -->
<g id="edge4" class="edge"><title>extendedJamoppJavaContainerToPg : ExtendedJamoppJavaContainerToTypeGraph&#45;&gt;extendedJamoppJavaContainer : ExtendedJamoppJavaContainer</title>
<path fill="none" stroke="black" d="M636.248,-379.921C683.255,-366.905 748.655,-348.796 801.363,-334.201"/>
<polygon fill="black" stroke="black" points="802.347,-337.561 811.05,-331.519 800.479,-330.815 802.347,-337.561"/>
<text text-anchor="middle" x="757.57" y="-353.2" font-family="Times New Roman,serif" font-size="11.00">source</text>
</g>
<!-- pg : TypeGraph -->
<g id="node16" class="node"><title>pg : TypeGraph</title>
<polygon fill="none" stroke="black" points="13.5701,-285.5 13.5701,-331.5 119.57,-331.5 119.57,-285.5 13.5701,-285.5"/>
<text text-anchor="middle" x="66.5701" y="-316.3" font-family="Times New Roman,serif" font-size="14.00">pg : TypeGraph</text>
<polyline fill="none" stroke="black" points="13.5701,-308.5 119.57,-308.5 "/>
<text text-anchor="middle" x="66.5701" y="-293.3" font-family="Times New Roman,serif" font-size="14.00"> </text>
</g>
<!-- extendedJamoppJavaContainerToPg : ExtendedJamoppJavaContainerToTypeGraph&#45;&gt;pg : TypeGraph -->
<g id="edge11" class="edge"><title>extendedJamoppJavaContainerToPg : ExtendedJamoppJavaContainerToTypeGraph&#45;&gt;pg : TypeGraph</title>
<path fill="none" stroke="black" d="M475.719,-379.973C373.406,-362.351 216.653,-335.351 129.879,-320.405"/>
<polygon fill="black" stroke="black" points="130.357,-316.936 119.908,-318.687 129.169,-323.834 130.357,-316.936"/>
<text text-anchor="middle" x="379.57" y="-353.2" font-family="Times New Roman,serif" font-size="11.00">target</text>
</g>
<!-- jMethodToTMethodSignature : ClassMethodToTMethodSignature -->
<g id="node3" class="node"><title>jMethodToTMethodSignature : ClassMethodToTMethodSignature</title>
<polygon fill="none" stroke="green" points="1276.45,-213.5 1130.51,-231.5 838.63,-231.5 692.69,-213.5 838.63,-195.5 1130.51,-195.5 1276.45,-213.5"/>
<text text-anchor="middle" x="984.57" y="-209.8" font-family="Times New Roman,serif" font-size="14.00">jMethodToTMethodSignature : ClassMethodToTMethodSignature</text>
</g>
<!-- jMethod : ExtendedClassMethod -->
<g id="node9" class="node"><title>jMethod : ExtendedClassMethod</title>
<polygon fill="none" stroke="black" points="884.57,-95.5 884.57,-141.5 1084.57,-141.5 1084.57,-95.5 884.57,-95.5"/>
<text text-anchor="middle" x="984.57" y="-126.3" font-family="Times New Roman,serif" font-size="14.00">jMethod : ExtendedClassMethod</text>
<polyline fill="none" stroke="black" points="884.57,-118.5 1084.57,-118.5 "/>
<text text-anchor="middle" x="984.57" y="-103.3" font-family="Times New Roman,serif" font-size="14.00"> </text>
</g>
<!-- jMethodToTMethodSignature : ClassMethodToTMethodSignature&#45;&gt;jMethod : ExtendedClassMethod -->
<g id="edge12" class="edge"><title>jMethodToTMethodSignature : ClassMethodToTMethodSignature&#45;&gt;jMethod : ExtendedClassMethod</title>
<path fill="none" stroke="green" d="M984.57,-195.442C984.57,-183.29 984.57,-166.58 984.57,-151.927"/>
<polygon fill="green" stroke="green" points="988.07,-151.717 984.57,-141.717 981.07,-151.717 988.07,-151.717"/>
<text text-anchor="middle" x="999.57" y="-163.2" font-family="Times New Roman,serif" font-size="11.00">source</text>
</g>
<!-- tMethodSignature : TMethodSignature -->
<g id="node13" class="node"><title>tMethodSignature : TMethodSignature</title>
<polygon fill="none" stroke="green" points="534.57,-95.5 534.57,-141.5 764.57,-141.5 764.57,-95.5 534.57,-95.5"/>
<text text-anchor="middle" x="649.57" y="-126.3" font-family="Times New Roman,serif" font-size="14.00">tMethodSignature : TMethodSignature</text>
<polyline fill="none" stroke="green" points="534.57,-118.5 764.57,-118.5 "/>
<text text-anchor="middle" x="649.57" y="-103.3" font-family="Times New Roman,serif" font-size="14.00"> </text>
</g>
<!-- jMethodToTMethodSignature : ClassMethodToTMethodSignature&#45;&gt;tMethodSignature : TMethodSignature -->
<g id="edge7" class="edge"><title>jMethodToTMethodSignature : ClassMethodToTMethodSignature&#45;&gt;tMethodSignature : TMethodSignature</title>
<path fill="none" stroke="green" d="M923.126,-195.442C871.522,-181.117 797.104,-160.457 738.91,-144.302"/>
<polygon fill="green" stroke="green" points="739.552,-140.848 728.98,-141.545 737.68,-147.593 739.552,-140.848"/>
<text text-anchor="middle" x="850.57" y="-163.2" font-family="Times New Roman,serif" font-size="11.00">target</text>
</g>
<!-- jMethodToTMethodDefinition : ClassMethodToTMethodDefinition -->
<g id="node4" class="node"><title>jMethodToTMethodDefinition : ClassMethodToTMethodDefinition</title>
<polygon fill="none" stroke="black" points="2140.46,-213.5 1992.51,-231.5 1696.63,-231.5 1548.68,-213.5 1696.63,-195.5 1992.51,-195.5 2140.46,-213.5"/>
<text text-anchor="middle" x="1844.57" y="-209.8" font-family="Times New Roman,serif" font-size="14.00">jMethodToTMethodDefinition : ClassMethodToTMethodDefinition</text>
</g>
<!-- jMethodToTMethodDefinition : ClassMethodToTMethodDefinition&#45;&gt;jMethod : ExtendedClassMethod -->
<g id="edge3" class="edge"><title>jMethodToTMethodDefinition : ClassMethodToTMethodDefinition&#45;&gt;jMethod : ExtendedClassMethod</title>
<path fill="none" stroke="black" d="M1691.81,-195.981C1520.42,-177.446 1246.58,-147.834 1094.84,-131.424"/>
<polygon fill="black" stroke="black" points="1094.89,-127.91 1084.57,-130.314 1094.14,-134.869 1094.89,-127.91"/>
<text text-anchor="middle" x="1480.57" y="-163.2" font-family="Times New Roman,serif" font-size="11.00">source</text>
</g>
<!-- tMethodDefinition : TMethodDefinition -->
<g id="node15" class="node"><title>tMethodDefinition : TMethodDefinition</title>
<polygon fill="none" stroke="black" points="532.07,-0.5 532.07,-46.5 767.07,-46.5 767.07,-0.5 532.07,-0.5"/>
<text text-anchor="middle" x="649.57" y="-31.3" font-family="Times New Roman,serif" font-size="14.00">tMethodDefinition : TMethodDefinition</text>
<polyline fill="none" stroke="black" points="532.07,-23.5 767.07,-23.5 "/>
<text text-anchor="middle" x="649.57" y="-8.3" font-family="Times New Roman,serif" font-size="14.00"> </text>
</g>
<!-- jMethodToTMethodDefinition : ClassMethodToTMethodDefinition&#45;&gt;tMethodDefinition : TMethodDefinition -->
<g id="edge10" class="edge"><title>jMethodToTMethodDefinition : ClassMethodToTMethodDefinition&#45;&gt;tMethodDefinition : TMethodDefinition</title>
<path fill="none" stroke="black" d="M1782.63,-195.415C1666.79,-164.171 1408.99,-98.0093 1187.57,-65 1048.1,-44.2071 886.602,-33.8635 777.225,-28.8702"/>
<polygon fill="black" stroke="black" points="777.282,-25.3693 767.136,-28.418 776.969,-32.3623 777.282,-25.3693"/>
<text text-anchor="middle" x="1577.57" y="-115.7" font-family="Times New Roman,serif" font-size="11.00">target</text>
</g>
<!-- tClassToJClass : ClassToTClass -->
<g id="node5" class="node"><title>tClassToJClass : ClassToTClass</title>
<polygon fill="none" stroke="black" points="551.267,-308.5 475.918,-326.5 325.222,-326.5 249.873,-308.5 325.222,-290.5 475.918,-290.5 551.267,-308.5"/>
<text text-anchor="middle" x="400.57" y="-304.8" font-family="Times New Roman,serif" font-size="14.00">tClassToJClass : ClassToTClass</text>
</g>
<!-- jClass : Class -->
<g id="node11" class="node"><title>jClass : Class</title>
<polygon fill="none" stroke="black" points="582.57,-190.5 582.57,-236.5 674.57,-236.5 674.57,-190.5 582.57,-190.5"/>
<text text-anchor="middle" x="628.57" y="-221.3" font-family="Times New Roman,serif" font-size="14.00">jClass : Class</text>
<polyline fill="none" stroke="black" points="582.57,-213.5 674.57,-213.5 "/>
<text text-anchor="middle" x="628.57" y="-198.3" font-family="Times New Roman,serif" font-size="14.00"> </text>
</g>
<!-- tClassToJClass : ClassToTClass&#45;&gt;jClass : Class -->
<g id="edge5" class="edge"><title>tClassToJClass : ClassToTClass&#45;&gt;jClass : Class</title>
<path fill="none" stroke="black" d="M442.526,-290.421C475.512,-276.989 522.879,-257.692 572.975,-237.241"/>
<polygon fill="black" stroke="black" points="574.423,-240.43 582.358,-233.41 571.777,-233.95 574.423,-240.43"/>
<text text-anchor="middle" x="541.57" y="-258.2" font-family="Times New Roman,serif" font-size="11.00">source</text>
</g>
<!-- tClass : TClass -->
<g id="node12" class="node"><title>tClass : TClass</title>
<polygon fill="none" stroke="black" points="16.0701,-190.5 16.0701,-236.5 117.07,-236.5 117.07,-190.5 16.0701,-190.5"/>
<text text-anchor="middle" x="66.5701" y="-221.3" font-family="Times New Roman,serif" font-size="14.00">tClass : TClass</text>
<polyline fill="none" stroke="black" points="16.0701,-213.5 117.07,-213.5 "/>
<text text-anchor="middle" x="66.5701" y="-198.3" font-family="Times New Roman,serif" font-size="14.00"> </text>
</g>
<!-- tClassToJClass : ClassToTClass&#45;&gt;tClass : TClass -->
<g id="edge6" class="edge"><title>tClassToJClass : ClassToTClass&#45;&gt;tClass : TClass</title>
<path fill="none" stroke="black" d="M324.926,-290.549C271.705,-278.059 198.745,-259.807 126.951,-237.316"/>
<polygon fill="black" stroke="black" points="127.88,-233.939 117.29,-234.261 125.769,-240.613 127.88,-233.939"/>
<text text-anchor="middle" x="236.57" y="-258.2" font-family="Times New Roman,serif" font-size="11.00">target</text>
</g>
<!-- jMethodToTMethod : ClassMethodToTMethod -->
<g id="node6" class="node"><title>jMethodToTMethod : ClassMethodToTMethod</title>
<polygon fill="none" stroke="black" points="564.35,-213.5 456.96,-231.5 242.18,-231.5 134.79,-213.5 242.18,-195.5 456.96,-195.5 564.35,-213.5"/>
<text text-anchor="middle" x="349.57" y="-209.8" font-family="Times New Roman,serif" font-size="14.00">jMethodToTMethod : ClassMethodToTMethod</text>
</g>
<!-- jMethodToTMethod : ClassMethodToTMethod&#45;&gt;jMethod : ExtendedClassMethod -->
<g id="edge8" class="edge"><title>jMethodToTMethod : ClassMethodToTMethod&#45;&gt;jMethod : ExtendedClassMethod</title>
<path fill="none" stroke="black" d="M454.35,-195.493C520.356,-184.925 607.384,-171.257 684.57,-160 747.367,-150.842 817.668,-141.312 874.424,-133.8"/>
<polygon fill="black" stroke="black" points="875.04,-137.249 884.496,-132.469 874.123,-130.309 875.04,-137.249"/>
<text text-anchor="middle" x="699.57" y="-163.2" font-family="Times New Roman,serif" font-size="11.00">source</text>
</g>
<!-- tMethod : TMethod -->
<g id="node14" class="node"><title>tMethod : TMethod</title>
<polygon fill="none" stroke="black" points="286.07,-0.5 286.07,-46.5 413.07,-46.5 413.07,-0.5 286.07,-0.5"/>
<text text-anchor="middle" x="349.57" y="-31.3" font-family="Times New Roman,serif" font-size="14.00">tMethod : TMethod</text>
<polyline fill="none" stroke="black" points="286.07,-23.5 413.07,-23.5 "/>
<text text-anchor="middle" x="349.57" y="-8.3" font-family="Times New Roman,serif" font-size="14.00"> </text>
</g>
<!-- jMethodToTMethod : ClassMethodToTMethod&#45;&gt;tMethod : TMethod -->
<g id="edge9" class="edge"><title>jMethodToTMethod : ClassMethodToTMethod&#45;&gt;tMethod : TMethod</title>
<path fill="none" stroke="black" d="M349.57,-195.485C349.57,-164.204 349.57,-97.0915 349.57,-56.8777"/>
<polygon fill="black" stroke="black" points="353.07,-56.7862 349.57,-46.7862 346.07,-56.7862 353.07,-56.7862"/>
<text text-anchor="middle" x="362.57" y="-115.7" font-family="Times New Roman,serif" font-size="11.00">target</text>
</g>
<!-- jParameterList : ExtendedParameterList&#45;&gt;jMethod : ExtendedClassMethod -->
<g id="edge13" class="edge"><title>jParameterList : ExtendedParameterList&#45;&gt;jMethod : ExtendedClassMethod</title>
<path fill="none" stroke="green" d="M1311.14,-190.46C1246.13,-176.334 1161.74,-157.997 1095.03,-143.502"/>
<polygon fill="green" stroke="green" points="1095.42,-140.004 1084.9,-141.301 1093.93,-146.845 1095.42,-140.004"/>
<text text-anchor="middle" x="1242.07" y="-163.2" font-family="Times New Roman,serif" font-size="11.00">methods</text>
</g>
<!-- extendedJamoppJavaContainer : ExtendedJamoppJavaContainer&#45;&gt;jParameterList : ExtendedParameterList -->
<g id="edge15" class="edge"><title>extendedJamoppJavaContainer : ExtendedJamoppJavaContainer&#45;&gt;jParameterList : ExtendedParameterList</title>
<path fill="none" stroke="green" d="M1014.28,-285.46C1095.69,-270.956 1202.01,-252.014 1284.32,-237.349"/>
<polygon fill="green" stroke="green" points="1285.01,-240.782 1294.24,-235.582 1283.78,-233.891 1285.01,-240.782"/>
<text text-anchor="middle" x="1234.07" y="-258.2" font-family="Times New Roman,serif" font-size="11.00">extendedParameterList</text>
</g>
<!-- jClass : Class&#45;&gt;jMethod : ExtendedClassMethod -->
<g id="edge14" class="edge"><title>jClass : Class&#45;&gt;jMethod : ExtendedClassMethod</title>
<path fill="none" stroke="black" d="M673.882,-190.376C696.975,-179.863 725.774,-167.899 752.57,-160 791.541,-148.512 835.214,-139.84 874.066,-133.529"/>
<polygon fill="black" stroke="black" points="875.033,-136.92 884.36,-131.894 873.934,-130.006 875.033,-136.92"/>
<text text-anchor="middle" x="773.07" y="-163.2" font-family="Times New Roman,serif" font-size="11.00">members</text>
</g>
<!-- tClass : TClass&#45;&gt;tMethodSignature : TMethodSignature -->
<g id="edge18" class="edge"><title>tClass : TClass&#45;&gt;tMethodSignature : TMethodSignature</title>
<path fill="none" stroke="green" d="M117.179,-192.35C119.998,-191.494 122.808,-190.703 125.57,-190 259.473,-155.947 417.064,-137.566 524.197,-128.2"/>
<polygon fill="green" stroke="green" points="524.742,-131.666 534.405,-127.321 524.141,-124.692 524.742,-131.666"/>
<text text-anchor="middle" x="287.57" y="-163.2" font-family="Times New Roman,serif" font-size="11.00">signature</text>
</g>
<!-- tClass : TClass&#45;&gt;tMethodDefinition : TMethodDefinition -->
<g id="edge20" class="edge"><title>tClass : TClass&#45;&gt;tMethodDefinition : TMethodDefinition</title>
<path fill="none" stroke="black" d="M105.57,-190.366C153.256,-164.156 237.08,-120.809 313.57,-95 380.847,-72.2993 458.269,-55.4596 521.825,-43.9417"/>
<polygon fill="black" stroke="black" points="522.676,-47.3452 531.903,-42.1388 521.443,-40.4546 522.676,-47.3452"/>
<text text-anchor="middle" x="329.57" y="-115.7" font-family="Times New Roman,serif" font-size="11.00">defines</text>
</g>
<!-- tMethodSignature : TMethodSignature&#45;&gt;tParameterList : TParameterList -->
<g id="edge16" class="edge"><title>tMethodSignature : TMethodSignature&#45;&gt;tParameterList : TParameterList</title>
<path fill="none" stroke="green" d="M764.861,-105.246C935.316,-87.1293 1252.2,-53.4494 1417.68,-35.8604"/>
<polygon fill="green" stroke="green" points="1418.3,-39.3144 1427.88,-34.7771 1417.56,-32.3536 1418.3,-39.3144"/>
<text text-anchor="middle" x="1161.07" y="-68.2" font-family="Times New Roman,serif" font-size="11.00">paramList</text>
</g>
<!-- tMethodSignature : TMethodSignature&#45;&gt;tMethod : TMethod -->
<g id="edge17" class="edge"><title>tMethodSignature : TMethodSignature&#45;&gt;tMethod : TMethod</title>
<path fill="none" stroke="green" d="M578.474,-95.4603C531.546,-80.9125 470.213,-61.8993 422.847,-47.2158"/>
<polygon fill="green" stroke="green" points="423.853,-43.8636 413.266,-44.2456 421.781,-50.5497 423.853,-43.8636"/>
<text text-anchor="middle" x="534.07" y="-68.2" font-family="Times New Roman,serif" font-size="11.00">method</text>
</g>
<!-- tMethodSignature : TMethodSignature&#45;&gt;tMethodDefinition : TMethodDefinition -->
<g id="edge19" class="edge"><title>tMethodSignature : TMethodSignature&#45;&gt;tMethodDefinition : TMethodDefinition</title>
<path fill="none" stroke="green" d="M649.57,-95.4603C649.57,-83.9622 649.57,-69.6748 649.57,-56.9402"/>
<polygon fill="green" stroke="green" points="653.07,-56.7038 649.57,-46.7038 646.07,-56.7038 653.07,-56.7038"/>
<text text-anchor="middle" x="672.07" y="-68.2" font-family="Times New Roman,serif" font-size="11.00">definitions</text>
</g>
<!-- pg : TypeGraph&#45;&gt;tClass : TClass -->
<g id="edge22" class="edge"><title>pg : TypeGraph&#45;&gt;tClass : TClass</title>
<path fill="none" stroke="black" d="M66.5701,-285.46C66.5701,-273.962 66.5701,-259.675 66.5701,-246.94"/>
<polygon fill="black" stroke="black" points="70.0702,-246.704 66.5701,-236.704 63.0702,-246.704 70.0702,-246.704"/>
<text text-anchor="middle" x="82.5701" y="-258.2" font-family="Times New Roman,serif" font-size="11.00">classes</text>
</g>
<!-- pg : TypeGraph&#45;&gt;tMethod : TMethod -->
<g id="edge21" class="edge"><title>pg : TypeGraph&#45;&gt;tMethod : TMethod</title>
<path fill="none" stroke="black" d="M41.2152,-285.246C16.9519,-261.159 -13.2452,-221.913 6.57011,-190 64.9948,-95.9066 193.822,-54.0905 275.901,-36.4247"/>
<polygon fill="black" stroke="black" points="276.842,-39.8038 285.919,-34.3382 275.415,-32.9509 276.842,-39.8038"/>
<text text-anchor="middle" x="46.0701" y="-163.2" font-family="Times New Roman,serif" font-size="11.00">methods</text>
</g>
</g>
</svg>
