<?xml version="1.0" encoding="UTF-8" standalone="no"?>
<!DOCTYPE svg PUBLIC "-//W3C//DTD SVG 1.1//EN"
 "http://www.w3.org/Graphics/SVG/1.1/DTD/svg11.dtd">
<!-- Generated by graphviz version 2.38.0 (20140413.2041)
 -->
<!-- Title: MethodSignatureLink Pages: 1 -->
<svg width="2246pt" height="424pt"
 viewBox="0.00 0.00 2246.22 424.00" xmlns="http://www.w3.org/2000/svg" xmlns:xlink="http://www.w3.org/1999/xlink">
<g id="graph0" class="graph" transform="scale(1 1) rotate(0) translate(4 420)">
<title>MethodSignatureLink</title>
<polygon fill="white" stroke="none" points="-4,4 -4,-420 2242.22,-420 2242.22,4 -4,4"/>
<!-- tMethodDefinitionToJMethod : ClassMethodToTMethodDefinition -->
<g id="node1" class="node"><title>tMethodDefinitionToJMethod : ClassMethodToTMethodDefinition</title>
<polygon fill="none" stroke="black" points="672.597,-213.5 525.906,-231.5 232.524,-231.5 85.8328,-213.5 232.524,-195.5 525.906,-195.5 672.597,-213.5"/>
<text text-anchor="middle" x="379.215" y="-209.8" font-family="Times New Roman,serif" font-size="14.00">tMethodDefinitionToJMethod : ClassMethodToTMethodDefinition</text>
</g>
<!-- jMethod : ExtendedClassMethod -->
<g id="node8" class="node"><title>jMethod : ExtendedClassMethod</title>
<polygon fill="none" stroke="black" points="890.215,-95.5 890.215,-141.5 1090.22,-141.5 1090.22,-95.5 890.215,-95.5"/>
<text text-anchor="middle" x="990.215" y="-126.3" font-family="Times New Roman,serif" font-size="14.00">jMethod : ExtendedClassMethod</text>
<polyline fill="none" stroke="black" points="890.215,-118.5 1090.22,-118.5 "/>
<text text-anchor="middle" x="990.215" y="-103.3" font-family="Times New Roman,serif" font-size="14.00"> </text>
</g>
<!-- tMethodDefinitionToJMethod : ClassMethodToTMethodDefinition&#45;&gt;jMethod : ExtendedClassMethod -->
<g id="edge2" class="edge"><title>tMethodDefinitionToJMethod : ClassMethodToTMethodDefinition&#45;&gt;jMethod : ExtendedClassMethod</title>
<path fill="none" stroke="black" d="M490.926,-195.496C601.459,-178.672 769.633,-153.075 879.735,-136.316"/>
<polygon fill="black" stroke="black" points="880.514,-139.738 889.874,-134.773 879.461,-132.818 880.514,-139.738"/>
<text text-anchor="middle" x="737.215" y="-163.2" font-family="Times New Roman,serif" font-size="11.00">source</text>
</g>
<!-- tMethodDefinition : TMethodDefinition -->
<g id="node13" class="node"><title>tMethodDefinition : TMethodDefinition</title>
<polygon fill="none" stroke="black" points="1381.72,-0.5 1381.72,-46.5 1616.72,-46.5 1616.72,-0.5 1381.72,-0.5"/>
<text text-anchor="middle" x="1499.22" y="-31.3" font-family="Times New Roman,serif" font-size="14.00">tMethodDefinition : TMethodDefinition</text>
<polyline fill="none" stroke="black" points="1381.72,-23.5 1616.72,-23.5 "/>
<text text-anchor="middle" x="1499.22" y="-8.3" font-family="Times New Roman,serif" font-size="14.00"> </text>
</g>
<!-- tMethodDefinitionToJMethod : ClassMethodToTMethodDefinition&#45;&gt;tMethodDefinition : TMethodDefinition -->
<g id="edge9" class="edge"><title>tMethodDefinitionToJMethod : ClassMethodToTMethodDefinition&#45;&gt;tMethodDefinition : TMethodDefinition</title>
<path fill="none" stroke="black" d="M437.672,-195.398C526.928,-169.896 702.888,-122.015 855.215,-95 1033.04,-63.4637 1241.14,-43.7529 1371.59,-33.4396"/>
<polygon fill="black" stroke="black" points="1371.93,-36.9239 1381.62,-32.6527 1371.38,-29.9453 1371.93,-36.9239"/>
<text text-anchor="middle" x="868.215" y="-115.7" font-family="Times New Roman,serif" font-size="11.00">target</text>
</g>
<!-- jMethodToTMethodSignature : ClassMethodToTMethodSignature -->
<g id="node2" class="node"><title>jMethodToTMethodSignature : ClassMethodToTMethodSignature</title>
<polygon fill="none" stroke="green" points="1638.1,-213.5 1492.16,-231.5 1200.27,-231.5 1054.33,-213.5 1200.27,-195.5 1492.16,-195.5 1638.1,-213.5"/>
<text text-anchor="middle" x="1346.22" y="-209.8" font-family="Times New Roman,serif" font-size="14.00">jMethodToTMethodSignature : ClassMethodToTMethodSignature</text>
</g>
<!-- tMethodSignature : TMethodSignature -->
<g id="node7" class="node"><title>tMethodSignature : TMethodSignature</title>
<polygon fill="none" stroke="black" points="1384.22,-95.5 1384.22,-141.5 1614.22,-141.5 1614.22,-95.5 1384.22,-95.5"/>
<text text-anchor="middle" x="1499.22" y="-126.3" font-family="Times New Roman,serif" font-size="14.00">tMethodSignature : TMethodSignature</text>
<polyline fill="none" stroke="black" points="1384.22,-118.5 1614.22,-118.5 "/>
<text text-anchor="middle" x="1499.22" y="-103.3" font-family="Times New Roman,serif" font-size="14.00"> </text>
</g>
<!-- jMethodToTMethodSignature : ClassMethodToTMethodSignature&#45;&gt;tMethodSignature : TMethodSignature -->
<g id="edge1" class="edge"><title>jMethodToTMethodSignature : ClassMethodToTMethodSignature&#45;&gt;tMethodSignature : TMethodSignature</title>
<path fill="none" stroke="green" d="M1374.28,-195.442C1396.58,-181.886 1428.21,-162.658 1454.07,-146.943"/>
<polygon fill="green" stroke="green" points="1456.22,-149.73 1462.95,-141.545 1452.58,-143.749 1456.22,-149.73"/>
<text text-anchor="middle" x="1444.22" y="-163.2" font-family="Times New Roman,serif" font-size="11.00">target</text>
</g>
<!-- jMethodToTMethodSignature : ClassMethodToTMethodSignature&#45;&gt;jMethod : ExtendedClassMethod -->
<g id="edge3" class="edge"><title>jMethodToTMethodSignature : ClassMethodToTMethodSignature&#45;&gt;jMethod : ExtendedClassMethod</title>
<path fill="none" stroke="green" d="M1280.92,-195.442C1225.85,-181.057 1146.34,-160.286 1084.39,-144.102"/>
<polygon fill="green" stroke="green" points="1085.16,-140.686 1074.6,-141.545 1083.39,-147.459 1085.16,-140.686"/>
<text text-anchor="middle" x="1204.22" y="-163.2" font-family="Times New Roman,serif" font-size="11.00">source</text>
</g>
<!-- jMethodToTMethod : ClassMethodToTMethod -->
<g id="node3" class="node"><title>jMethodToTMethod : ClassMethodToTMethod</title>
<polygon fill="none" stroke="black" points="2085.99,-213.5 1978.6,-231.5 1763.83,-231.5 1656.44,-213.5 1763.83,-195.5 1978.6,-195.5 2085.99,-213.5"/>
<text text-anchor="middle" x="1871.22" y="-209.8" font-family="Times New Roman,serif" font-size="14.00">jMethodToTMethod : ClassMethodToTMethod</text>
</g>
<!-- jMethodToTMethod : ClassMethodToTMethod&#45;&gt;jMethod : ExtendedClassMethod -->
<g id="edge8" class="edge"><title>jMethodToTMethod : ClassMethodToTMethod&#45;&gt;jMethod : ExtendedClassMethod</title>
<path fill="none" stroke="black" d="M1743.35,-198.92C1711.93,-195.787 1678.37,-192.611 1647.22,-190 1528.25,-180.033 1497.99,-183.99 1379.22,-172 1284.96,-162.486 1178.37,-147.824 1100.63,-136.411"/>
<polygon fill="black" stroke="black" points="1100.74,-132.889 1090.34,-134.894 1099.72,-139.814 1100.74,-132.889"/>
<text text-anchor="middle" x="1394.22" y="-163.2" font-family="Times New Roman,serif" font-size="11.00">source</text>
</g>
<!-- tMethod : TMethod -->
<g id="node12" class="node"><title>tMethod : TMethod</title>
<polygon fill="none" stroke="black" points="1807.72,-0.5 1807.72,-46.5 1934.72,-46.5 1934.72,-0.5 1807.72,-0.5"/>
<text text-anchor="middle" x="1871.22" y="-31.3" font-family="Times New Roman,serif" font-size="14.00">tMethod : TMethod</text>
<polyline fill="none" stroke="black" points="1807.72,-23.5 1934.72,-23.5 "/>
<text text-anchor="middle" x="1871.22" y="-8.3" font-family="Times New Roman,serif" font-size="14.00"> </text>
</g>
<!-- jMethodToTMethod : ClassMethodToTMethod&#45;&gt;tMethod : TMethod -->
<g id="edge7" class="edge"><title>jMethodToTMethod : ClassMethodToTMethod&#45;&gt;tMethod : TMethod</title>
<path fill="none" stroke="black" d="M1871.22,-195.485C1871.22,-164.204 1871.22,-97.0915 1871.22,-56.8777"/>
<polygon fill="black" stroke="black" points="1874.72,-56.7862 1871.22,-46.7862 1867.72,-56.7862 1874.72,-56.7862"/>
<text text-anchor="middle" x="1884.22" y="-115.7" font-family="Times New Roman,serif" font-size="11.00">target</text>
</g>
<!-- tClassToJClass : ClassToTClass -->
<g id="node4" class="node"><title>tClassToJClass : ClassToTClass</title>
<polygon fill="none" stroke="black" points="1862.91,-308.5 1787.56,-326.5 1636.87,-326.5 1561.52,-308.5 1636.87,-290.5 1787.56,-290.5 1862.91,-308.5"/>
<text text-anchor="middle" x="1712.22" y="-304.8" font-family="Times New Roman,serif" font-size="14.00">tClassToJClass : ClassToTClass</text>
</g>
<!-- jClass : Class -->
<g id="node9" class="node"><title>jClass : Class</title>
<polygon fill="none" stroke="black" points="944.215,-190.5 944.215,-236.5 1036.22,-236.5 1036.22,-190.5 944.215,-190.5"/>
<text text-anchor="middle" x="990.215" y="-221.3" font-family="Times New Roman,serif" font-size="14.00">jClass : Class</text>
<polyline fill="none" stroke="black" points="944.215,-213.5 1036.22,-213.5 "/>
<text text-anchor="middle" x="990.215" y="-198.3" font-family="Times New Roman,serif" font-size="14.00"> </text>
</g>
<!-- tClassToJClass : ClassToTClass&#45;&gt;jClass : Class -->
<g id="edge4" class="edge"><title>tClassToJClass : ClassToTClass&#45;&gt;jClass : Class</title>
<path fill="none" stroke="black" d="M1599.32,-299.446C1441.9,-287.572 1163.52,-264.073 1046.25,-236.863"/>
<polygon fill="black" stroke="black" points="1046.96,-233.433 1036.41,-234.475 1045.31,-240.236 1046.96,-233.433"/>
<text text-anchor="middle" x="1250.22" y="-258.2" font-family="Times New Roman,serif" font-size="11.00">source</text>
</g>
<!-- tClass : TClass -->
<g id="node10" class="node"><title>tClass : TClass</title>
<polygon fill="none" stroke="black" points="2103.72,-190.5 2103.72,-236.5 2204.72,-236.5 2204.72,-190.5 2103.72,-190.5"/>
<text text-anchor="middle" x="2154.22" y="-221.3" font-family="Times New Roman,serif" font-size="14.00">tClass : TClass</text>
<polyline fill="none" stroke="black" points="2103.72,-213.5 2204.72,-213.5 "/>
<text text-anchor="middle" x="2154.22" y="-198.3" font-family="Times New Roman,serif" font-size="14.00"> </text>
</g>
<!-- tClassToJClass : ClassToTClass&#45;&gt;tClass : TClass -->
<g id="edge5" class="edge"><title>tClassToJClass : ClassToTClass&#45;&gt;tClass : TClass</title>
<path fill="none" stroke="black" d="M1806.57,-295.034C1882.32,-283.897 1991.31,-265.339 2093.68,-237.238"/>
<polygon fill="black" stroke="black" points="2094.87,-240.54 2103.56,-234.489 2092.99,-233.796 2094.87,-240.54"/>
<text text-anchor="middle" x="2035.22" y="-258.2" font-family="Times New Roman,serif" font-size="11.00">target</text>
</g>
<!-- extendedJamoppJavaContainerToPg : ExtendedJamoppJavaContainerToTypeGraph -->
<g id="node5" class="node"><title>extendedJamoppJavaContainerToPg : ExtendedJamoppJavaContainerToTypeGraph</title>
<polygon fill="none" stroke="black" points="2130.69,-398 1947.95,-416 1582.48,-416 1399.74,-398 1582.48,-380 1947.95,-380 2130.69,-398"/>
<text text-anchor="middle" x="1765.22" y="-394.3" font-family="Times New Roman,serif" font-size="14.00">extendedJamoppJavaContainerToPg : ExtendedJamoppJavaContainerToTypeGraph</text>
</g>
<!-- pg : TypeGraph -->
<g id="node11" class="node"><title>pg : TypeGraph</title>
<polygon fill="none" stroke="black" points="2101.22,-285.5 2101.22,-331.5 2207.22,-331.5 2207.22,-285.5 2101.22,-285.5"/>
<text text-anchor="middle" x="2154.22" y="-316.3" font-family="Times New Roman,serif" font-size="14.00">pg : TypeGraph</text>
<polyline fill="none" stroke="black" points="2101.22,-308.5 2207.22,-308.5 "/>
<text text-anchor="middle" x="2154.22" y="-293.3" font-family="Times New Roman,serif" font-size="14.00"> </text>
</g>
<!-- extendedJamoppJavaContainerToPg : ExtendedJamoppJavaContainerToTypeGraph&#45;&gt;pg : TypeGraph -->
<g id="edge6" class="edge"><title>extendedJamoppJavaContainerToPg : ExtendedJamoppJavaContainerToTypeGraph&#45;&gt;pg : TypeGraph</title>
<path fill="none" stroke="black" d="M1841.14,-379.921C1914.06,-363.52 2022.93,-339.031 2091.18,-323.678"/>
<polygon fill="black" stroke="black" points="2091.96,-327.09 2100.95,-321.481 2090.43,-320.261 2091.96,-327.09"/>
<text text-anchor="middle" x="1984.22" y="-353.2" font-family="Times New Roman,serif" font-size="11.00">target</text>
</g>
<!-- extendedJamoppJavaContainer : ExtendedJamoppJavaContainer -->
<g id="node14" class="node"><title>extendedJamoppJavaContainer : ExtendedJamoppJavaContainer</title>
<polygon fill="none" stroke="black" points="949.215,-285.5 949.215,-331.5 1323.22,-331.5 1323.22,-285.5 949.215,-285.5"/>
<text text-anchor="middle" x="1136.22" y="-316.3" font-family="Times New Roman,serif" font-size="14.00">extendedJamoppJavaContainer : ExtendedJamoppJavaContainer</text>
<polyline fill="none" stroke="black" points="949.215,-308.5 1323.22,-308.5 "/>
<text text-anchor="middle" x="1136.22" y="-293.3" font-family="Times New Roman,serif" font-size="14.00"> </text>
</g>
<!-- extendedJamoppJavaContainerToPg : ExtendedJamoppJavaContainerToTypeGraph&#45;&gt;extendedJamoppJavaContainer : ExtendedJamoppJavaContainer -->
<g id="edge10" class="edge"><title>extendedJamoppJavaContainerToPg : ExtendedJamoppJavaContainerToTypeGraph&#45;&gt;extendedJamoppJavaContainer : ExtendedJamoppJavaContainer</title>
<path fill="none" stroke="black" d="M1642.82,-379.973C1546.48,-366.572 1411.17,-347.748 1304.61,-332.926"/>
<polygon fill="black" stroke="black" points="1304.78,-329.416 1294.39,-331.504 1303.82,-336.349 1304.78,-329.416"/>
<text text-anchor="middle" x="1521.22" y="-353.2" font-family="Times New Roman,serif" font-size="11.00">source</text>
</g>
<!-- jParameterListToTParameterList : ExtendedParameterListToTParameterList -->
<g id="node6" class="node"><title>jParameterListToTParameterList : ExtendedParameterListToTParameterList</title>
<polygon fill="none" stroke="black" points="660.645,-308.5 495.43,-326.5 165,-326.5 -0.215194,-308.5 165,-290.5 495.43,-290.5 660.645,-308.5"/>
<text text-anchor="middle" x="330.215" y="-304.8" font-family="Times New Roman,serif" font-size="14.00">jParameterListToTParameterList : ExtendedParameterListToTParameterList</text>
</g>
<!-- tParameterList : TParameterList -->
<g id="node15" class="node"><title>tParameterList : TParameterList</title>
<polygon fill="none" stroke="black" points="91.7151,-0.5 91.7151,-46.5 284.715,-46.5 284.715,-0.5 91.7151,-0.5"/>
<text text-anchor="middle" x="188.215" y="-31.3" font-family="Times New Roman,serif" font-size="14.00">tParameterList : TParameterList</text>
<polyline fill="none" stroke="black" points="91.7151,-23.5 284.715,-23.5 "/>
<text text-anchor="middle" x="188.215" y="-8.3" font-family="Times New Roman,serif" font-size="14.00"> </text>
</g>
<!-- jParameterListToTParameterList : ExtendedParameterListToTParameterList&#45;&gt;tParameterList : TParameterList -->
<g id="edge11" class="edge"><title>jParameterListToTParameterList : ExtendedParameterListToTParameterList&#45;&gt;tParameterList : TParameterList</title>
<path fill="none" stroke="black" d="M220.738,-290.433C160.853,-278.62 95.2436,-260.739 77.2151,-237 31.789,-177.185 105.558,-96.1095 153.053,-53.4676"/>
<polygon fill="black" stroke="black" points="155.528,-55.9515 160.716,-46.7136 150.9,-50.7002 155.528,-55.9515"/>
<text text-anchor="middle" x="83.2151" y="-163.2" font-family="Times New Roman,serif" font-size="11.00">target</text>
</g>
<!-- jParameterList : ExtendedParameterList -->
<g id="node16" class="node"><title>jParameterList : ExtendedParameterList</title>
<polygon fill="none" stroke="black" points="690.215,-190.5 690.215,-236.5 926.215,-236.5 926.215,-190.5 690.215,-190.5"/>
<text text-anchor="middle" x="808.215" y="-221.3" font-family="Times New Roman,serif" font-size="14.00">jParameterList : ExtendedParameterList</text>
<polyline fill="none" stroke="black" points="690.215,-213.5 926.215,-213.5 "/>
<text text-anchor="middle" x="808.215" y="-198.3" font-family="Times New Roman,serif" font-size="14.00"> </text>
</g>
<!-- jParameterListToTParameterList : ExtendedParameterListToTParameterList&#45;&gt;jParameterList : ExtendedParameterList -->
<g id="edge12" class="edge"><title>jParameterListToTParameterList : ExtendedParameterListToTParameterList&#45;&gt;jParameterList : ExtendedParameterList</title>
<path fill="none" stroke="black" d="M417.61,-290.496C492.501,-275.925 601.218,-254.773 684.951,-238.482"/>
<polygon fill="black" stroke="black" points="685.628,-241.916 694.775,-236.571 684.291,-235.045 685.628,-241.916"/>
<text text-anchor="middle" x="613.215" y="-258.2" font-family="Times New Roman,serif" font-size="11.00">source</text>
</g>
<!-- tMethodSignature : TMethodSignature&#45;&gt;tMethod : TMethod -->
<g id="edge20" class="edge"><title>tMethodSignature : TMethodSignature&#45;&gt;tMethod : TMethod</title>
<path fill="none" stroke="black" d="M1587.37,-95.4603C1651.48,-79.4328 1737.27,-57.9853 1797.7,-42.879"/>
<polygon fill="black" stroke="black" points="1798.69,-46.238 1807.55,-40.4171 1797,-39.447 1798.69,-46.238"/>
<text text-anchor="middle" x="1723.72" y="-68.2" font-family="Times New Roman,serif" font-size="11.00">method</text>
</g>
<!-- tMethodSignature : TMethodSignature&#45;&gt;tMethodDefinition : TMethodDefinition -->
<g id="edge16" class="edge"><title>tMethodSignature : TMethodSignature&#45;&gt;tMethodDefinition : TMethodDefinition</title>
<path fill="none" stroke="green" d="M1499.22,-95.4603C1499.22,-83.9622 1499.22,-69.6748 1499.22,-56.9402"/>
<polygon fill="green" stroke="green" points="1502.72,-56.7038 1499.22,-46.7038 1495.72,-56.7038 1502.72,-56.7038"/>
<text text-anchor="middle" x="1521.72" y="-68.2" font-family="Times New Roman,serif" font-size="11.00">definitions</text>
</g>
<!-- tMethodSignature : TMethodSignature&#45;&gt;tParameterList : TParameterList -->
<g id="edge17" class="edge"><title>tMethodSignature : TMethodSignature&#45;&gt;tParameterList : TParameterList</title>
<path fill="none" stroke="black" d="M1384.02,-109.328C1132.86,-91.5113 538.985,-49.383 295.347,-32.0998"/>
<polygon fill="black" stroke="black" points="295.29,-28.587 285.068,-31.3706 294.795,-35.5695 295.29,-28.587"/>
<text text-anchor="middle" x="943.715" y="-68.2" font-family="Times New Roman,serif" font-size="11.00">paramList</text>
</g>
<!-- jClass : Class&#45;&gt;jMethod : ExtendedClassMethod -->
<g id="edge13" class="edge"><title>jClass : Class&#45;&gt;jMethod : ExtendedClassMethod</title>
<path fill="none" stroke="black" d="M990.215,-190.46C990.215,-178.962 990.215,-164.675 990.215,-151.94"/>
<polygon fill="black" stroke="black" points="993.715,-151.704 990.215,-141.704 986.715,-151.704 993.715,-151.704"/>
<text text-anchor="middle" x="1010.72" y="-163.2" font-family="Times New Roman,serif" font-size="11.00">members</text>
</g>
<!-- tClass : TClass&#45;&gt;tMethodSignature : TMethodSignature -->
<g id="edge19" class="edge"><title>tClass : TClass&#45;&gt;tMethodSignature : TMethodSignature</title>
<path fill="none" stroke="green" d="M2103.62,-192.297C2100.8,-191.455 2097.98,-190.68 2095.22,-190 1935.54,-150.749 1746.24,-133.099 1624.52,-125.335"/>
<polygon fill="green" stroke="green" points="1624.61,-121.834 1614.41,-124.703 1624.17,-128.821 1624.61,-121.834"/>
<text text-anchor="middle" x="2019.22" y="-163.2" font-family="Times New Roman,serif" font-size="11.00">signature</text>
</g>
<!-- tClass : TClass&#45;&gt;tMethodDefinition : TMethodDefinition -->
<g id="edge22" class="edge"><title>tClass : TClass&#45;&gt;tMethodDefinition : TMethodDefinition</title>
<path fill="none" stroke="black" d="M2107.83,-190.403C2087.96,-180.978 2064.48,-169.893 2043.22,-160 1980.29,-130.717 1967.34,-116.11 1901.22,-95 1833.54,-73.3934 1814.15,-77.4607 1744.22,-65 1706.13,-58.2145 1664.64,-51.21 1626.82,-44.9737"/>
<polygon fill="black" stroke="black" points="1627.21,-41.4906 1616.77,-43.321 1626.07,-48.3977 1627.21,-41.4906"/>
<text text-anchor="middle" x="2021.22" y="-115.7" font-family="Times New Roman,serif" font-size="11.00">defines</text>
</g>
<!-- pg : TypeGraph&#45;&gt;tClass : TClass -->
<g id="edge18" class="edge"><title>pg : TypeGraph&#45;&gt;tClass : TClass</title>
<path fill="none" stroke="black" d="M2154.22,-285.46C2154.22,-273.962 2154.22,-259.675 2154.22,-246.94"/>
<polygon fill="black" stroke="black" points="2157.72,-246.704 2154.22,-236.704 2150.72,-246.704 2157.72,-246.704"/>
<text text-anchor="middle" x="2170.22" y="-258.2" font-family="Times New Roman,serif" font-size="11.00">classes</text>
</g>
<!-- pg : TypeGraph&#45;&gt;tMethod : TMethod -->
<g id="edge21" class="edge"><title>pg : TypeGraph&#45;&gt;tMethod : TMethod</title>
<path fill="none" stroke="black" d="M2179.3,-285.407C2203.34,-261.458 2233.34,-222.329 2214.22,-190 2157.59,-94.3103 2027.35,-52.9218 1944.65,-35.7852"/>
<polygon fill="black" stroke="black" points="1945.3,-32.346 1934.8,-33.8136 1943.92,-39.2097 1945.3,-32.346"/>
<text text-anchor="middle" x="2219.72" y="-163.2" font-family="Times New Roman,serif" font-size="11.00">methods</text>
</g>
<!-- extendedJamoppJavaContainer : ExtendedJamoppJavaContainer&#45;&gt;jParameterList : ExtendedParameterList -->
<g id="edge15" class="edge"><title>extendedJamoppJavaContainer : ExtendedJamoppJavaContainer&#45;&gt;jParameterList : ExtendedParameterList</title>
<path fill="none" stroke="black" d="M1058.48,-285.46C1009.54,-271.583 946.27,-253.644 895.591,-239.274"/>
<polygon fill="black" stroke="black" points="896.532,-235.903 885.956,-236.542 894.622,-242.638 896.532,-235.903"/>
<text text-anchor="middle" x="1042.72" y="-258.2" font-family="Times New Roman,serif" font-size="11.00">extendedParameterList</text>
</g>
<!-- jParameterList : ExtendedParameterList&#45;&gt;jMethod : ExtendedClassMethod -->
<g id="edge14" class="edge"><title>jParameterList : ExtendedParameterList&#45;&gt;jMethod : ExtendedClassMethod</title>
<path fill="none" stroke="green" d="M851.347,-190.46C877.318,-177.189 910.561,-160.202 938.01,-146.176"/>
<polygon fill="green" stroke="green" points="939.766,-149.209 947.078,-141.542 936.581,-142.976 939.766,-149.209"/>
<text text-anchor="middle" x="927.715" y="-163.2" font-family="Times New Roman,serif" font-size="11.00">methods</text>
</g>
</g>
</svg>
