<?xml version="1.0" encoding="UTF-8" standalone="no"?>
<!DOCTYPE svg PUBLIC "-//W3C//DTD SVG 1.1//EN"
 "http://www.w3.org/Graphics/SVG/1.1/DTD/svg11.dtd">
<!-- Generated by graphviz version 2.38.0 (20140413.2041)
 -->
<!-- Title: PackageChild Pages: 1 -->
<svg width="1483pt" height="283pt"
 viewBox="0.00 0.00 1482.50 283.00" xmlns="http://www.w3.org/2000/svg" xmlns:xlink="http://www.w3.org/1999/xlink">
<g id="graph0" class="graph" transform="scale(1 1) rotate(0) translate(4 279)">
<title>PackageChild</title>
<polygon fill="white" stroke="none" points="-4,4 -4,-279 1478.5,-279 1478.5,4 -4,4"/>
<text text-anchor="middle" x="737.25" y="-22.8" font-family="Times New Roman,serif" font-size="14.00">_____________________________</text>
<text text-anchor="middle" x="737.25" y="-7.8" font-family="Times New Roman,serif" font-size="14.00"> eq(jSubPackage.name,tSubPackage.tName)</text>
<!-- tSubPackageToJSubPackage : ExtendedJamoppPackageElementToTPackage -->
<g id="node1" class="node"><title>tSubPackageToJSubPackage : ExtendedJamoppPackageElementToTPackage</title>
<polygon fill="none" stroke="green" points="878.44,-251.5 709.47,-269.5 371.53,-269.5 202.56,-251.5 371.53,-233.5 709.47,-233.5 878.44,-251.5"/>
<text text-anchor="middle" x="540.5" y="-247.8" font-family="Times New Roman,serif" font-size="14.00">tSubPackageToJSubPackage : ExtendedJamoppPackageElementToTPackage</text>
</g>
<!-- tSubPackage : TPackage -->
<g id="node3" class="node"><title>tSubPackage : TPackage</title>
<polygon fill="none" stroke="green" points="0,-133.5 0,-179.5 155,-179.5 155,-133.5 0,-133.5"/>
<text text-anchor="middle" x="77.5" y="-164.3" font-family="Times New Roman,serif" font-size="14.00">tSubPackage : TPackage</text>
<polyline fill="none" stroke="green" points="0,-156.5 155,-156.5 "/>
<text text-anchor="middle" x="77.5" y="-141.3" font-family="Times New Roman,serif" font-size="14.00"> </text>
</g>
<!-- tSubPackageToJSubPackage : ExtendedJamoppPackageElementToTPackage&#45;&gt;tSubPackage : TPackage -->
<g id="edge1" class="edge"><title>tSubPackageToJSubPackage : ExtendedJamoppPackageElementToTPackage&#45;&gt;tSubPackage : TPackage</title>
<path fill="none" stroke="green" d="M439.581,-233.49C366.107,-220.658 264.031,-201.908 165.097,-180.071"/>
<polygon fill="green" stroke="green" points="165.746,-176.63 155.225,-177.88 164.229,-183.464 165.746,-176.63"/>
<text text-anchor="middle" x="322.5" y="-201.2" font-family="Times New Roman,serif" font-size="11.00">target</text>
</g>
<!-- jSubPackage : ExtendedJamoppPackageElement -->
<g id="node4" class="node"><title>jSubPackage : ExtendedJamoppPackageElement</title>
<polygon fill="none" stroke="green" points="1004,-133.5 1004,-179.5 1291,-179.5 1291,-133.5 1004,-133.5"/>
<text text-anchor="middle" x="1147.5" y="-164.3" font-family="Times New Roman,serif" font-size="14.00">jSubPackage : ExtendedJamoppPackageElement</text>
<polyline fill="none" stroke="green" points="1004,-156.5 1291,-156.5 "/>
<text text-anchor="middle" x="1147.5" y="-141.3" font-family="Times New Roman,serif" font-size="14.00"> </text>
</g>
<!-- tSubPackageToJSubPackage : ExtendedJamoppPackageElementToTPackage&#45;&gt;jSubPackage : ExtendedJamoppPackageElement -->
<g id="edge2" class="edge"><title>tSubPackageToJSubPackage : ExtendedJamoppPackageElementToTPackage&#45;&gt;jSubPackage : ExtendedJamoppPackageElement</title>
<path fill="none" stroke="green" d="M651.48,-233.496C747.438,-218.794 887.126,-197.392 993.831,-181.044"/>
<polygon fill="green" stroke="green" points="994.371,-184.502 1003.73,-179.528 993.311,-177.583 994.371,-184.502"/>
<text text-anchor="middle" x="895.5" y="-201.2" font-family="Times New Roman,serif" font-size="11.00">source</text>
</g>
<!-- tPackageToExtendedJamoppPackageElement : ExtendedJamoppPackageElementToTPackage -->
<g id="node2" class="node"><title>tPackageToExtendedJamoppPackageElement : ExtendedJamoppPackageElementToTPackage</title>
<polygon fill="none" stroke="black" points="985.529,-156.5 782.514,-174.5 376.486,-174.5 173.471,-156.5 376.486,-138.5 782.514,-138.5 985.529,-156.5"/>
<text text-anchor="middle" x="579.5" y="-152.8" font-family="Times New Roman,serif" font-size="14.00">tPackageToExtendedJamoppPackageElement : ExtendedJamoppPackageElementToTPackage</text>
</g>
<!-- tPackage : TPackage -->
<g id="node5" class="node"><title>tPackage : TPackage</title>
<polygon fill="none" stroke="black" points="313,-38.5 313,-84.5 446,-84.5 446,-38.5 313,-38.5"/>
<text text-anchor="middle" x="379.5" y="-69.3" font-family="Times New Roman,serif" font-size="14.00">tPackage : TPackage</text>
<polyline fill="none" stroke="black" points="313,-61.5 446,-61.5 "/>
<text text-anchor="middle" x="379.5" y="-46.3" font-family="Times New Roman,serif" font-size="14.00"> </text>
</g>
<!-- tPackageToExtendedJamoppPackageElement : ExtendedJamoppPackageElementToTPackage&#45;&gt;tPackage : TPackage -->
<g id="edge3" class="edge"><title>tPackageToExtendedJamoppPackageElement : ExtendedJamoppPackageElementToTPackage&#45;&gt;tPackage : TPackage</title>
<path fill="none" stroke="black" d="M542.817,-138.442C513.027,-124.59 470.502,-104.816 436.313,-88.9183"/>
<polygon fill="black" stroke="black" points="437.452,-85.5881 426.909,-84.5452 434.501,-91.9354 437.452,-85.5881"/>
<text text-anchor="middle" x="504.5" y="-106.2" font-family="Times New Roman,serif" font-size="11.00">target</text>
</g>
<!-- extendedJamoppPackageElement : ExtendedJamoppPackageElement -->
<g id="node6" class="node"><title>extendedJamoppPackageElement : ExtendedJamoppPackageElement</title>
<polygon fill="none" stroke="black" points="947.5,-38.5 947.5,-84.5 1347.5,-84.5 1347.5,-38.5 947.5,-38.5"/>
<text text-anchor="middle" x="1147.5" y="-69.3" font-family="Times New Roman,serif" font-size="14.00">extendedJamoppPackageElement : ExtendedJamoppPackageElement</text>
<polyline fill="none" stroke="black" points="947.5,-61.5 1347.5,-61.5 "/>
<text text-anchor="middle" x="1147.5" y="-46.3" font-family="Times New Roman,serif" font-size="14.00"> </text>
</g>
<!-- tPackageToExtendedJamoppPackageElement : ExtendedJamoppPackageElementToTPackage&#45;&gt;extendedJamoppPackageElement : ExtendedJamoppPackageElement -->
<g id="edge4" class="edge"><title>tPackageToExtendedJamoppPackageElement : ExtendedJamoppPackageElementToTPackage&#45;&gt;extendedJamoppPackageElement : ExtendedJamoppPackageElement</title>
<path fill="none" stroke="black" d="M683.35,-138.496C772.871,-123.839 903.066,-102.522 1002.8,-86.1924"/>
<polygon fill="black" stroke="black" points="1003.66,-89.5979 1012.96,-84.528 1002.53,-82.6899 1003.66,-89.5979"/>
<text text-anchor="middle" x="913.5" y="-106.2" font-family="Times New Roman,serif" font-size="11.00">source</text>
</g>
<!-- tSubPackage : TPackage&#45;&gt;tPackage : TPackage -->
<g id="edge8" class="edge"><title>tSubPackage : TPackage&#45;&gt;tPackage : TPackage</title>
<path fill="none" stroke="green" d="M149.07,-133.46C195.495,-119.164 255.924,-100.555 303.252,-85.9805"/>
<polygon fill="green" stroke="green" points="304.311,-89.3166 312.838,-83.0284 302.251,-82.6266 304.311,-89.3166"/>
<text text-anchor="middle" x="261.5" y="-106.2" font-family="Times New Roman,serif" font-size="11.00">parent</text>
</g>
<!-- jSubPackage : ExtendedJamoppPackageElement&#45;&gt;extendedJamoppPackageElement : ExtendedJamoppPackageElement -->
<g id="edge5" class="edge"><title>jSubPackage : ExtendedJamoppPackageElement&#45;&gt;extendedJamoppPackageElement : ExtendedJamoppPackageElement</title>
<path fill="none" stroke="green" d="M1147.5,-133.46C1147.5,-121.962 1147.5,-107.675 1147.5,-94.9402"/>
<polygon fill="green" stroke="green" points="1151,-94.7038 1147.5,-84.7038 1144,-94.7038 1151,-94.7038"/>
<text text-anchor="middle" x="1169" y="-106.2" font-family="Times New Roman,serif" font-size="11.00">predessor</text>
</g>
<!-- extendedJamoppJavaContainer : ExtendedJamoppJavaContainer -->
<g id="node7" class="node"><title>extendedJamoppJavaContainer : ExtendedJamoppJavaContainer</title>
<polygon fill="none" stroke="black" points="1050.5,-228.5 1050.5,-274.5 1424.5,-274.5 1424.5,-228.5 1050.5,-228.5"/>
<text text-anchor="middle" x="1237.5" y="-259.3" font-family="Times New Roman,serif" font-size="14.00">extendedJamoppJavaContainer : ExtendedJamoppJavaContainer</text>
<polyline fill="none" stroke="black" points="1050.5,-251.5 1424.5,-251.5 "/>
<text text-anchor="middle" x="1237.5" y="-236.3" font-family="Times New Roman,serif" font-size="14.00"> </text>
</g>
<!-- extendedJamoppJavaContainer : ExtendedJamoppJavaContainer&#45;&gt;jSubPackage : ExtendedJamoppPackageElement -->
<g id="edge7" class="edge"><title>extendedJamoppJavaContainer : ExtendedJamoppJavaContainer&#45;&gt;jSubPackage : ExtendedJamoppPackageElement</title>
<path fill="none" stroke="green" d="M1187.03,-228.47C1179.04,-223.301 1171.47,-217.164 1165.5,-210 1160.58,-204.095 1156.98,-196.774 1154.36,-189.492"/>
<polygon fill="green" stroke="green" points="1157.64,-188.25 1151.34,-179.724 1150.95,-190.311 1157.64,-188.25"/>
<text text-anchor="middle" x="1239.5" y="-201.2" font-family="Times New Roman,serif" font-size="11.00">extendedJamoppPackageElement</text>
</g>
<!-- extendedJamoppJavaContainer : ExtendedJamoppJavaContainer&#45;&gt;extendedJamoppPackageElement : ExtendedJamoppPackageElement -->
<g id="edge6" class="edge"><title>extendedJamoppJavaContainer : ExtendedJamoppJavaContainer&#45;&gt;extendedJamoppPackageElement : ExtendedJamoppPackageElement</title>
<path fill="none" stroke="black" d="M1295.92,-228.375C1302.91,-223.368 1309.11,-217.307 1313.5,-210 1324.77,-191.232 1344.35,-188.553 1300.5,-133 1285.05,-113.428 1262.92,-99.0736 1240.28,-88.6316"/>
<polygon fill="black" stroke="black" points="1241.47,-85.3328 1230.91,-84.535 1238.67,-91.7469 1241.47,-85.3328"/>
<text text-anchor="middle" x="1400.5" y="-153.7" font-family="Times New Roman,serif" font-size="11.00">extendedJamoppPackageElement</text>
</g>
</g>
</svg>
