<?xml version="1.0" encoding="UTF-8" standalone="no"?>
<!DOCTYPE svg PUBLIC "-//W3C//DTD SVG 1.1//EN"
 "http://www.w3.org/Graphics/SVG/1.1/DTD/svg11.dtd">
<!-- Generated by graphviz version 2.38.0 (20140413.2041)
 -->
<!-- Title: PackageRoot Pages: 1 -->
<svg width="1382pt" height="272pt"
 viewBox="0.00 0.00 1381.50 272.00" xmlns="http://www.w3.org/2000/svg" xmlns:xlink="http://www.w3.org/1999/xlink">
<g id="graph0" class="graph" transform="scale(1 1) rotate(0) translate(4 268)">
<title>PackageRoot</title>
<polygon fill="white" stroke="none" points="-4,4 -4,-268 1377.5,-268 1377.5,4 -4,4"/>
<text text-anchor="middle" x="686.75" y="-22.8" font-family="Times New Roman,serif" font-size="14.00">_____________________________</text>
<text text-anchor="middle" x="686.75" y="-7.8" font-family="Times New Roman,serif" font-size="14.00"> eq(extendedJamoppPackageElement.name,tPackage.tName)</text>
<!-- typeGraphToExtendedJamoppJavaContainer : ExtendedJamoppJavaContainerToTypeGraph -->
<g id="node1" class="node"><title>typeGraphToExtendedJamoppJavaContainer : ExtendedJamoppJavaContainerToTypeGraph</title>
<polygon fill="none" stroke="black" points="1274.02,-246 1074.01,-264 673.989,-264 473.979,-246 673.989,-228 1074.01,-228 1274.02,-246"/>
<text text-anchor="middle" x="874" y="-242.3" font-family="Times New Roman,serif" font-size="14.00">typeGraphToExtendedJamoppJavaContainer : ExtendedJamoppJavaContainerToTypeGraph</text>
</g>
<!-- extendedJamoppJavaContainer : ExtendedJamoppJavaContainer -->
<g id="node5" class="node"><title>extendedJamoppJavaContainer : ExtendedJamoppJavaContainer</title>
<polygon fill="none" stroke="black" points="0,-133.5 0,-179.5 374,-179.5 374,-133.5 0,-133.5"/>
<text text-anchor="middle" x="187" y="-164.3" font-family="Times New Roman,serif" font-size="14.00">extendedJamoppJavaContainer : ExtendedJamoppJavaContainer</text>
<polyline fill="none" stroke="black" points="0,-156.5 374,-156.5 "/>
<text text-anchor="middle" x="187" y="-141.3" font-family="Times New Roman,serif" font-size="14.00"> </text>
</g>
<!-- typeGraphToExtendedJamoppJavaContainer : ExtendedJamoppJavaContainerToTypeGraph&#45;&gt;extendedJamoppJavaContainer : ExtendedJamoppJavaContainer -->
<g id="edge3" class="edge"><title>typeGraphToExtendedJamoppJavaContainer : ExtendedJamoppJavaContainerToTypeGraph&#45;&gt;extendedJamoppJavaContainer : ExtendedJamoppJavaContainer</title>
<path fill="none" stroke="black" d="M740.317,-227.973C634.779,-214.532 486.409,-195.634 369.872,-180.792"/>
<polygon fill="black" stroke="black" points="370.128,-177.296 359.766,-179.504 369.243,-184.24 370.128,-177.296"/>
<text text-anchor="middle" x="607" y="-201.2" font-family="Times New Roman,serif" font-size="11.00">source</text>
</g>
<!-- typeGraph : TypeGraph -->
<g id="node6" class="node"><title>typeGraph : TypeGraph</title>
<polygon fill="none" stroke="black" points="1222.5,-133.5 1222.5,-179.5 1373.5,-179.5 1373.5,-133.5 1222.5,-133.5"/>
<text text-anchor="middle" x="1298" y="-164.3" font-family="Times New Roman,serif" font-size="14.00">typeGraph : TypeGraph</text>
<polyline fill="none" stroke="black" points="1222.5,-156.5 1373.5,-156.5 "/>
<text text-anchor="middle" x="1298" y="-141.3" font-family="Times New Roman,serif" font-size="14.00"> </text>
</g>
<!-- typeGraphToExtendedJamoppJavaContainer : ExtendedJamoppJavaContainerToTypeGraph&#45;&gt;typeGraph : TypeGraph -->
<g id="edge4" class="edge"><title>typeGraphToExtendedJamoppJavaContainer : ExtendedJamoppJavaContainerToTypeGraph&#45;&gt;typeGraph : TypeGraph</title>
<path fill="none" stroke="black" d="M972.653,-227.949C1037.98,-216.22 1125.72,-199.631 1212.09,-180.145"/>
<polygon fill="black" stroke="black" points="1213.09,-183.507 1222.06,-177.88 1211.54,-176.681 1213.09,-183.507"/>
<text text-anchor="middle" x="1133" y="-201.2" font-family="Times New Roman,serif" font-size="11.00">target</text>
</g>
<!-- tPackageToExtendedJamoppPackageElement : ExtendedJamoppPackageElementToTPackage -->
<g id="node2" class="node"><title>tPackageToExtendedJamoppPackageElement : ExtendedJamoppPackageElementToTPackage</title>
<polygon fill="none" stroke="green" points="1204.03,-156.5 1001.01,-174.5 594.986,-174.5 391.971,-156.5 594.986,-138.5 1001.01,-138.5 1204.03,-156.5"/>
<text text-anchor="middle" x="798" y="-152.8" font-family="Times New Roman,serif" font-size="14.00">tPackageToExtendedJamoppPackageElement : ExtendedJamoppPackageElementToTPackage</text>
</g>
<!-- tPackage : TPackage -->
<g id="node3" class="node"><title>tPackage : TPackage</title>
<polygon fill="none" stroke="green" points="867.5,-38.5 867.5,-84.5 1000.5,-84.5 1000.5,-38.5 867.5,-38.5"/>
<text text-anchor="middle" x="934" y="-69.3" font-family="Times New Roman,serif" font-size="14.00">tPackage : TPackage</text>
<polyline fill="none" stroke="green" points="867.5,-61.5 1000.5,-61.5 "/>
<text text-anchor="middle" x="934" y="-46.3" font-family="Times New Roman,serif" font-size="14.00"> </text>
</g>
<!-- tPackageToExtendedJamoppPackageElement : ExtendedJamoppPackageElementToTPackage&#45;&gt;tPackage : TPackage -->
<g id="edge1" class="edge"><title>tPackageToExtendedJamoppPackageElement : ExtendedJamoppPackageElementToTPackage&#45;&gt;tPackage : TPackage</title>
<path fill="none" stroke="green" d="M822.944,-138.442C842.528,-125.051 870.204,-106.125 893.028,-90.5176"/>
<polygon fill="green" stroke="green" points="895.232,-93.2505 901.511,-84.7167 891.281,-87.4723 895.232,-93.2505"/>
<text text-anchor="middle" x="887" y="-106.2" font-family="Times New Roman,serif" font-size="11.00">target</text>
</g>
<!-- extendedJamoppPackageElement : ExtendedJamoppPackageElement -->
<g id="node4" class="node"><title>extendedJamoppPackageElement : ExtendedJamoppPackageElement</title>
<polygon fill="none" stroke="green" points="32,-38.5 32,-84.5 432,-84.5 432,-38.5 32,-38.5"/>
<text text-anchor="middle" x="232" y="-69.3" font-family="Times New Roman,serif" font-size="14.00">extendedJamoppPackageElement : ExtendedJamoppPackageElement</text>
<polyline fill="none" stroke="green" points="32,-61.5 432,-61.5 "/>
<text text-anchor="middle" x="232" y="-46.3" font-family="Times New Roman,serif" font-size="14.00"> </text>
</g>
<!-- tPackageToExtendedJamoppPackageElement : ExtendedJamoppPackageElementToTPackage&#45;&gt;extendedJamoppPackageElement : ExtendedJamoppPackageElement -->
<g id="edge2" class="edge"><title>tPackageToExtendedJamoppPackageElement : ExtendedJamoppPackageElementToTPackage&#45;&gt;extendedJamoppPackageElement : ExtendedJamoppPackageElement</title>
<path fill="none" stroke="green" d="M694.516,-138.496C605.31,-123.839 475.573,-102.522 376.192,-86.1924"/>
<polygon fill="green" stroke="green" points="376.498,-82.6958 366.063,-84.528 375.363,-89.6032 376.498,-82.6958"/>
<text text-anchor="middle" x="563" y="-106.2" font-family="Times New Roman,serif" font-size="11.00">source</text>
</g>
<!-- extendedJamoppJavaContainer : ExtendedJamoppJavaContainer&#45;&gt;extendedJamoppPackageElement : ExtendedJamoppPackageElement -->
<g id="edge5" class="edge"><title>extendedJamoppJavaContainer : ExtendedJamoppJavaContainer&#45;&gt;extendedJamoppPackageElement : ExtendedJamoppPackageElement</title>
<path fill="none" stroke="green" d="M200.14,-133.476C203.499,-127.552 207.005,-121.096 210,-115 213.295,-108.292 216.564,-100.966 219.533,-93.972"/>
<polygon fill="green" stroke="green" points="222.768,-95.3078 223.372,-84.7302 216.304,-92.6225 222.768,-95.3078"/>
<text text-anchor="middle" x="290" y="-106.2" font-family="Times New Roman,serif" font-size="11.00">extendedJamoppPackageElement</text>
</g>
<!-- extendedJamoppJavaContainer : ExtendedJamoppJavaContainer&#45;&gt;extendedJamoppPackageElement : ExtendedJamoppPackageElement -->
<g id="edge6" class="edge"><title>extendedJamoppJavaContainer : ExtendedJamoppJavaContainer&#45;&gt;extendedJamoppPackageElement : ExtendedJamoppPackageElement</title>
<path fill="none" stroke="green" d="M181.168,-133.415C179.728,-123.681 179.653,-112.356 184,-103 185.809,-99.1066 188.197,-95.4527 190.943,-92.0569"/>
<polygon fill="green" stroke="green" points="193.63,-94.3077 197.897,-84.61 188.514,-89.5301 193.63,-94.3077"/>
<text text-anchor="middle" x="195" y="-106.2" font-family="Times New Roman,serif" font-size="11.00">roots</text>
</g>
<!-- typeGraph : TypeGraph&#45;&gt;tPackage : TPackage -->
<g id="edge7" class="edge"><title>typeGraph : TypeGraph&#45;&gt;tPackage : TPackage</title>
<path fill="none" stroke="green" d="M1222.47,-135.459C1219.27,-134.625 1216.1,-133.803 1213,-133 1144.56,-115.295 1066.53,-95.6226 1010.43,-81.5675"/>
<polygon fill="green" stroke="green" points="1011.12,-78.1322 1000.57,-79.0983 1009.42,-84.9226 1011.12,-78.1322"/>
<text text-anchor="middle" x="1157" y="-106.2" font-family="Times New Roman,serif" font-size="11.00">packages</text>
</g>
</g>
</svg>
