<?xml version="1.0" encoding="UTF-8" standalone="no"?>
<!DOCTYPE svg PUBLIC "-//W3C//DTD SVG 1.1//EN"
 "http://www.w3.org/Graphics/SVG/1.1/DTD/svg11.dtd">
<!-- Generated by graphviz version 2.38.0 (20140413.2041)
 -->
<!-- Title: ParamTypeExistingRule Pages: 1 -->
<svg width="691pt" height="234pt"
 viewBox="0.00 0.00 690.50 234.00" xmlns="http://www.w3.org/2000/svg" xmlns:xlink="http://www.w3.org/1999/xlink">
<g id="graph0" class="graph" transform="scale(1 1) rotate(0) translate(4 230)">
<title>ParamTypeExistingRule</title>
<polygon fill="white" stroke="none" points="-4,4 -4,-230 686.5,-230 686.5,4 -4,4"/>
<!-- jTypeToTType : ClassToTClass -->
<g id="node1" class="node"><title>jTypeToTType : ClassToTClass</title>
<polygon fill="none" stroke="black" points="513.697,-118.5 438.348,-136.5 287.652,-136.5 212.303,-118.5 287.652,-100.5 438.348,-100.5 513.697,-118.5"/>
<text text-anchor="middle" x="363" y="-114.8" font-family="Times New Roman,serif" font-size="14.00">jTypeToTType : ClassToTClass</text>
</g>
<!-- jType : Class -->
<g id="node3" class="node"><title>jType : Class</title>
<polygon fill="none" stroke="black" points="206,-0.5 206,-46.5 296,-46.5 296,-0.5 206,-0.5"/>
<text text-anchor="middle" x="251" y="-31.3" font-family="Times New Roman,serif" font-size="14.00">jType : Class</text>
<polyline fill="none" stroke="black" points="206,-23.5 296,-23.5 "/>
<text text-anchor="middle" x="251" y="-8.3" font-family="Times New Roman,serif" font-size="14.00"> </text>
</g>
<!-- jTypeToTType : ClassToTClass&#45;&gt;jType : Class -->
<g id="edge1" class="edge"><title>jTypeToTType : ClassToTClass&#45;&gt;jType : Class</title>
<path fill="none" stroke="black" d="M342.457,-100.442C326.543,-87.228 304.139,-68.6246 285.489,-53.1381"/>
<polygon fill="black" stroke="black" points="287.685,-50.4124 277.756,-46.7167 283.213,-55.7978 287.685,-50.4124"/>
<text text-anchor="middle" x="329" y="-68.2" font-family="Times New Roman,serif" font-size="11.00">source</text>
</g>
<!-- tType : TClass -->
<g id="node4" class="node"><title>tType : TClass</title>
<polygon fill="none" stroke="black" points="392,-0.5 392,-46.5 492,-46.5 492,-0.5 392,-0.5"/>
<text text-anchor="middle" x="442" y="-31.3" font-family="Times New Roman,serif" font-size="14.00">tType : TClass</text>
<polyline fill="none" stroke="black" points="392,-23.5 492,-23.5 "/>
<text text-anchor="middle" x="442" y="-8.3" font-family="Times New Roman,serif" font-size="14.00"> </text>
</g>
<!-- jTypeToTType : ClassToTClass&#45;&gt;tType : TClass -->
<g id="edge2" class="edge"><title>jTypeToTType : ClassToTClass&#45;&gt;tType : TClass</title>
<path fill="none" stroke="black" d="M377.49,-100.442C388.414,-87.5819 403.675,-69.6173 416.61,-54.3891"/>
<polygon fill="black" stroke="black" points="419.321,-56.6041 423.128,-46.7167 413.986,-52.0722 419.321,-56.6041"/>
<text text-anchor="middle" x="421" y="-68.2" font-family="Times New Roman,serif" font-size="11.00">target</text>
</g>
<!-- jParameterToTParameter : ExtendedParameterToTParameter -->
<g id="node2" class="node"><title>jParameterToTParameter : ExtendedParameterToTParameter</title>
<polygon fill="none" stroke="black" points="675.348,-208 541.674,-226 274.326,-226 140.652,-208 274.326,-190 541.674,-190 675.348,-208"/>
<text text-anchor="middle" x="408" y="-204.3" font-family="Times New Roman,serif" font-size="14.00">jParameterToTParameter : ExtendedParameterToTParameter</text>
</g>
<!-- tParameter : TParameter -->
<g id="node5" class="node"><title>tParameter : TParameter</title>
<polygon fill="none" stroke="black" points="531.5,-95.5 531.5,-141.5 682.5,-141.5 682.5,-95.5 531.5,-95.5"/>
<text text-anchor="middle" x="607" y="-126.3" font-family="Times New Roman,serif" font-size="14.00">tParameter : TParameter</text>
<polyline fill="none" stroke="black" points="531.5,-118.5 682.5,-118.5 "/>
<text text-anchor="middle" x="607" y="-103.3" font-family="Times New Roman,serif" font-size="14.00"> </text>
</g>
<!-- jParameterToTParameter : ExtendedParameterToTParameter&#45;&gt;tParameter : TParameter -->
<g id="edge3" class="edge"><title>jParameterToTParameter : ExtendedParameterToTParameter&#45;&gt;tParameter : TParameter</title>
<path fill="none" stroke="black" d="M446.842,-189.921C475.461,-177.337 514.908,-159.993 547.491,-145.666"/>
<polygon fill="black" stroke="black" points="549.177,-148.748 556.922,-141.519 546.359,-142.34 549.177,-148.748"/>
<text text-anchor="middle" x="526" y="-163.2" font-family="Times New Roman,serif" font-size="11.00">target</text>
</g>
<!-- jParameter : ExtendedParameter -->
<g id="node6" class="node"><title>jParameter : ExtendedParameter</title>
<polygon fill="none" stroke="black" points="0,-95.5 0,-141.5 194,-141.5 194,-95.5 0,-95.5"/>
<text text-anchor="middle" x="97" y="-126.3" font-family="Times New Roman,serif" font-size="14.00">jParameter : ExtendedParameter</text>
<polyline fill="none" stroke="black" points="0,-118.5 194,-118.5 "/>
<text text-anchor="middle" x="97" y="-103.3" font-family="Times New Roman,serif" font-size="14.00"> </text>
</g>
<!-- jParameterToTParameter : ExtendedParameterToTParameter&#45;&gt;jParameter : ExtendedParameter -->
<g id="edge4" class="edge"><title>jParameterToTParameter : ExtendedParameterToTParameter&#45;&gt;jParameter : ExtendedParameter</title>
<path fill="none" stroke="black" d="M347.298,-189.921C301.131,-176.932 236.937,-158.871 185.118,-144.292"/>
<polygon fill="black" stroke="black" points="185.836,-140.858 175.262,-141.519 183.94,-147.597 185.836,-140.858"/>
<text text-anchor="middle" x="296" y="-163.2" font-family="Times New Roman,serif" font-size="11.00">source</text>
</g>
<!-- tParameter : TParameter&#45;&gt;tType : TClass -->
<g id="edge6" class="edge"><title>tParameter : TParameter&#45;&gt;tType : TClass</title>
<path fill="none" stroke="green" d="M567.897,-95.4603C544.557,-82.3047 514.737,-65.4974 489.979,-51.5426"/>
<polygon fill="green" stroke="green" points="491.538,-48.4036 481.108,-46.5425 488.101,-54.5017 491.538,-48.4036"/>
<text text-anchor="middle" x="548" y="-68.2" font-family="Times New Roman,serif" font-size="11.00">tClass</text>
</g>
<!-- jParameter : ExtendedParameter&#45;&gt;jType : Class -->
<g id="edge5" class="edge"><title>jParameter : ExtendedParameter&#45;&gt;jType : Class</title>
<path fill="none" stroke="green" d="M133.496,-95.4603C155.185,-82.3624 182.868,-65.6448 205.915,-51.7264"/>
<polygon fill="green" stroke="green" points="207.749,-54.708 214.5,-46.5425 204.13,-48.7159 207.749,-54.708"/>
<text text-anchor="middle" x="193.5" y="-68.2" font-family="Times New Roman,serif" font-size="11.00">type</text>
</g>
</g>
</svg>
