<?xml version="1.0" encoding="UTF-8" standalone="no"?>
<!DOCTYPE svg PUBLIC "-//W3C//DTD SVG 1.1//EN"
 "http://www.w3.org/Graphics/SVG/1.1/DTD/svg11.dtd">
<!-- Generated by graphviz version 2.38.0 (20140413.2041)
 -->
<!-- Title: ParameterPrimitiveBoolean Pages: 1 -->
<svg width="1220pt" height="340pt"
 viewBox="0.00 0.00 1220.00 340.00" xmlns="http://www.w3.org/2000/svg" xmlns:xlink="http://www.w3.org/1999/xlink">
<g id="graph0" class="graph" transform="scale(1 1) rotate(0) translate(4 336)">
<title>ParameterPrimitiveBoolean</title>
<polygon fill="white" stroke="none" points="-4,4 -4,-336 1216,-336 1216,4 -4,4"/>
<!-- jTypeToTType : BooleanToTClass -->
<g id="node1" class="node"><title>jTypeToTType : BooleanToTClass</title>
<polygon fill="none" stroke="green" points="809.211,-118.5 728.106,-136.5 565.894,-136.5 484.789,-118.5 565.894,-100.5 728.106,-100.5 809.211,-118.5"/>
<text text-anchor="middle" x="647" y="-114.8" font-family="Times New Roman,serif" font-size="14.00">jTypeToTType : BooleanToTClass</text>
</g>
<!-- jType : Boolean -->
<g id="node5" class="node"><title>jType : Boolean</title>
<polygon fill="none" stroke="green" points="456.5,-0.5 456.5,-46.5 561.5,-46.5 561.5,-0.5 456.5,-0.5"/>
<text text-anchor="middle" x="509" y="-31.3" font-family="Times New Roman,serif" font-size="14.00">jType : Boolean</text>
<polyline fill="none" stroke="green" points="456.5,-23.5 561.5,-23.5 "/>
<text text-anchor="middle" x="509" y="-8.3" font-family="Times New Roman,serif" font-size="14.00"> </text>
</g>
<!-- jTypeToTType : BooleanToTClass&#45;&gt;jType : Boolean -->
<g id="edge2" class="edge"><title>jTypeToTType : BooleanToTClass&#45;&gt;jType : Boolean</title>
<path fill="none" stroke="green" d="M621.689,-100.442C601.661,-86.9453 573.29,-67.8262 550.027,-52.1487"/>
<polygon fill="green" stroke="green" points="551.961,-49.2314 541.712,-46.5452 548.049,-55.0362 551.961,-49.2314"/>
<text text-anchor="middle" x="601" y="-68.2" font-family="Times New Roman,serif" font-size="11.00">source</text>
</g>
<!-- tType : TClass -->
<g id="node6" class="node"><title>tType : TClass</title>
<polygon fill="none" stroke="black" points="836.5,-0.5 836.5,-46.5 969.5,-46.5 969.5,-0.5 836.5,-0.5"/>
<text text-anchor="middle" x="903" y="-31.3" font-family="Times New Roman,serif" font-size="14.00">tType : TClass</text>
<polyline fill="none" stroke="black" points="836.5,-23.5 969.5,-23.5 "/>
<text text-anchor="middle" x="903" y="-8.3" font-family="Times New Roman,serif" font-size="14.00">tName == &quot;boolean&quot;</text>
</g>
<!-- jTypeToTType : BooleanToTClass&#45;&gt;tType : TClass -->
<g id="edge3" class="edge"><title>jTypeToTType : BooleanToTClass&#45;&gt;tType : TClass</title>
<path fill="none" stroke="green" d="M693.954,-100.442C732.819,-86.3237 788.617,-66.0533 832.791,-50.0055"/>
<polygon fill="green" stroke="green" points="834.112,-53.2494 842.316,-46.5452 831.722,-46.6701 834.112,-53.2494"/>
<text text-anchor="middle" x="803" y="-68.2" font-family="Times New Roman,serif" font-size="11.00">target</text>
</g>
<!-- jParameterToTParameter : ExtendedParameterToTParameter -->
<g id="node2" class="node"><title>jParameterToTParameter : ExtendedParameterToTParameter</title>
<polygon fill="none" stroke="black" points="788.348,-213.5 654.674,-231.5 387.326,-231.5 253.652,-213.5 387.326,-195.5 654.674,-195.5 788.348,-213.5"/>
<text text-anchor="middle" x="521" y="-209.8" font-family="Times New Roman,serif" font-size="14.00">jParameterToTParameter : ExtendedParameterToTParameter</text>
</g>
<!-- tParameter : TParameter -->
<g id="node4" class="node"><title>tParameter : TParameter</title>
<polygon fill="none" stroke="black" points="827.5,-95.5 827.5,-141.5 978.5,-141.5 978.5,-95.5 827.5,-95.5"/>
<text text-anchor="middle" x="903" y="-126.3" font-family="Times New Roman,serif" font-size="14.00">tParameter : TParameter</text>
<polyline fill="none" stroke="black" points="827.5,-118.5 978.5,-118.5 "/>
<text text-anchor="middle" x="903" y="-103.3" font-family="Times New Roman,serif" font-size="14.00"> </text>
</g>
<!-- jParameterToTParameter : ExtendedParameterToTParameter&#45;&gt;tParameter : TParameter -->
<g id="edge1" class="edge"><title>jParameterToTParameter : ExtendedParameterToTParameter&#45;&gt;tParameter : TParameter</title>
<path fill="none" stroke="black" d="M594.971,-195.498C652.846,-182.067 735.592,-162.582 817.73,-142.042"/>
<polygon fill="black" stroke="black" points="818.633,-145.424 827.482,-139.598 816.931,-138.634 818.633,-145.424"/>
<text text-anchor="middle" x="757" y="-163.2" font-family="Times New Roman,serif" font-size="11.00">target</text>
</g>
<!-- jParameter : ExtendedParameter -->
<g id="node7" class="node"><title>jParameter : ExtendedParameter</title>
<polygon fill="none" stroke="black" points="273,-95.5 273,-141.5 467,-141.5 467,-95.5 273,-95.5"/>
<text text-anchor="middle" x="370" y="-126.3" font-family="Times New Roman,serif" font-size="14.00">jParameter : ExtendedParameter</text>
<polyline fill="none" stroke="black" points="273,-118.5 467,-118.5 "/>
<text text-anchor="middle" x="370" y="-103.3" font-family="Times New Roman,serif" font-size="14.00"> </text>
</g>
<!-- jParameterToTParameter : ExtendedParameterToTParameter&#45;&gt;jParameter : ExtendedParameter -->
<g id="edge4" class="edge"><title>jParameterToTParameter : ExtendedParameterToTParameter&#45;&gt;jParameter : ExtendedParameter</title>
<path fill="none" stroke="black" d="M493.304,-195.442C471.294,-181.886 440.074,-162.658 414.557,-146.943"/>
<polygon fill="black" stroke="black" points="416.144,-143.809 405.794,-141.545 412.473,-149.77 416.144,-143.809"/>
<text text-anchor="middle" x="470" y="-163.2" font-family="Times New Roman,serif" font-size="11.00">source</text>
</g>
<!-- jParameterListToTParameterList : ExtendedParameterListToTParameterList -->
<g id="node3" class="node"><title>jParameterListToTParameterList : ExtendedParameterListToTParameterList</title>
<polygon fill="none" stroke="black" points="732.43,-308.5 567.215,-326.5 236.785,-326.5 71.5698,-308.5 236.785,-290.5 567.215,-290.5 732.43,-308.5"/>
<text text-anchor="middle" x="402" y="-304.8" font-family="Times New Roman,serif" font-size="14.00">jParameterListToTParameterList : ExtendedParameterListToTParameterList</text>
</g>
<!-- tParameterList : TParameterList -->
<g id="node8" class="node"><title>tParameterList : TParameterList</title>
<polygon fill="none" stroke="black" points="806.5,-190.5 806.5,-236.5 999.5,-236.5 999.5,-190.5 806.5,-190.5"/>
<text text-anchor="middle" x="903" y="-221.3" font-family="Times New Roman,serif" font-size="14.00">tParameterList : TParameterList</text>
<polyline fill="none" stroke="black" points="806.5,-213.5 999.5,-213.5 "/>
<text text-anchor="middle" x="903" y="-198.3" font-family="Times New Roman,serif" font-size="14.00"> </text>
</g>
<!-- jParameterListToTParameterList : ExtendedParameterListToTParameterList&#45;&gt;tParameterList : TParameterList -->
<g id="edge5" class="edge"><title>jParameterListToTParameterList : ExtendedParameterListToTParameterList&#45;&gt;tParameterList : TParameterList</title>
<path fill="none" stroke="black" d="M502.826,-290.435C580.324,-277.101 690.285,-257.713 796.343,-237.103"/>
<polygon fill="black" stroke="black" points="797.118,-240.518 806.264,-235.169 795.779,-233.647 797.118,-240.518"/>
<text text-anchor="middle" x="712" y="-258.2" font-family="Times New Roman,serif" font-size="11.00">target</text>
</g>
<!-- jParameterList : ExtendedParameterList -->
<g id="node9" class="node"><title>jParameterList : ExtendedParameterList</title>
<polygon fill="none" stroke="black" points="0,-190.5 0,-236.5 236,-236.5 236,-190.5 0,-190.5"/>
<text text-anchor="middle" x="118" y="-221.3" font-family="Times New Roman,serif" font-size="14.00">jParameterList : ExtendedParameterList</text>
<polyline fill="none" stroke="black" points="0,-213.5 236,-213.5 "/>
<text text-anchor="middle" x="118" y="-198.3" font-family="Times New Roman,serif" font-size="14.00"> </text>
</g>
<!-- jParameterListToTParameterList : ExtendedParameterListToTParameterList&#45;&gt;jParameterList : ExtendedParameterList -->
<g id="edge6" class="edge"><title>jParameterListToTParameterList : ExtendedParameterListToTParameterList&#45;&gt;jParameterList : ExtendedParameterList</title>
<path fill="none" stroke="black" d="M349.91,-290.442C306.524,-276.235 244.115,-255.798 194.965,-239.703"/>
<polygon fill="black" stroke="black" points="195.914,-236.331 185.321,-236.545 193.735,-242.984 195.914,-236.331"/>
<text text-anchor="middle" x="293" y="-258.2" font-family="Times New Roman,serif" font-size="11.00">source</text>
</g>
<!-- tParameter : TParameter&#45;&gt;tType : TClass -->
<g id="edge11" class="edge"><title>tParameter : TParameter&#45;&gt;tType : TClass</title>
<path fill="none" stroke="green" d="M903,-95.4603C903,-83.9622 903,-69.6748 903,-56.9402"/>
<polygon fill="green" stroke="green" points="906.5,-56.7038 903,-46.7038 899.5,-56.7038 906.5,-56.7038"/>
<text text-anchor="middle" x="917" y="-68.2" font-family="Times New Roman,serif" font-size="11.00">tClass</text>
</g>
<!-- jParameter : ExtendedParameter&#45;&gt;jType : Boolean -->
<g id="edge7" class="edge"><title>jParameter : ExtendedParameter&#45;&gt;jType : Boolean</title>
<path fill="none" stroke="green" d="M402.941,-95.4603C422.189,-82.5825 446.666,-66.2056 467.255,-52.4304"/>
<polygon fill="green" stroke="green" points="469.449,-55.1736 475.814,-46.7038 465.556,-49.3557 469.449,-55.1736"/>
<text text-anchor="middle" x="457.5" y="-68.2" font-family="Times New Roman,serif" font-size="11.00">type</text>
</g>
<!-- tParameterList : TParameterList&#45;&gt;tParameter : TParameter -->
<g id="edge13" class="edge"><title>tParameterList : TParameterList&#45;&gt;tParameter : TParameter</title>
<path fill="none" stroke="black" d="M903,-190.46C903,-178.962 903,-164.675 903,-151.94"/>
<polygon fill="black" stroke="black" points="906.5,-151.704 903,-141.704 899.5,-151.704 906.5,-151.704"/>
<text text-anchor="middle" x="918" y="-163.2" font-family="Times New Roman,serif" font-size="11.00">entries</text>
</g>
<!-- jParameterList : ExtendedParameterList&#45;&gt;jParameter : ExtendedParameter -->
<g id="edge8" class="edge"><title>jParameterList : ExtendedParameterList&#45;&gt;jParameter : ExtendedParameter</title>
<path fill="none" stroke="black" d="M177.72,-190.46C214.619,-176.843 262.118,-159.313 300.674,-145.085"/>
<polygon fill="black" stroke="black" points="302.102,-148.288 310.272,-141.542 299.679,-141.721 302.102,-148.288"/>
<text text-anchor="middle" x="274" y="-163.2" font-family="Times New Roman,serif" font-size="11.00">values</text>
</g>
<!-- tMethod : TMethod -->
<g id="node10" class="node"><title>tMethod : TMethod</title>
<polygon fill="none" stroke="black" points="1017.5,-190.5 1017.5,-236.5 1144.5,-236.5 1144.5,-190.5 1017.5,-190.5"/>
<text text-anchor="middle" x="1081" y="-221.3" font-family="Times New Roman,serif" font-size="14.00">tMethod : TMethod</text>
<polyline fill="none" stroke="black" points="1017.5,-213.5 1144.5,-213.5 "/>
<text text-anchor="middle" x="1081" y="-198.3" font-family="Times New Roman,serif" font-size="14.00"> </text>
</g>
<!-- tMethodSignature : TMethodSignature -->
<g id="node11" class="node"><title>tMethodSignature : TMethodSignature</title>
<polygon fill="none" stroke="black" points="845,-285.5 845,-331.5 1075,-331.5 1075,-285.5 845,-285.5"/>
<text text-anchor="middle" x="960" y="-316.3" font-family="Times New Roman,serif" font-size="14.00">tMethodSignature : TMethodSignature</text>
<polyline fill="none" stroke="black" points="845,-308.5 1075,-308.5 "/>
<text text-anchor="middle" x="960" y="-293.3" font-family="Times New Roman,serif" font-size="14.00"> </text>
</g>
<!-- tMethodSignature : TMethodSignature&#45;&gt;tParameterList : TParameterList -->
<g id="edge14" class="edge"><title>tMethodSignature : TMethodSignature&#45;&gt;tParameterList : TParameterList</title>
<path fill="none" stroke="black" d="M946.223,-285.232C942.568,-279.311 938.629,-272.917 935,-267 930.723,-260.027 926.138,-252.523 921.814,-245.432"/>
<polygon fill="black" stroke="black" points="924.711,-243.46 916.519,-236.741 918.733,-247.102 924.711,-243.46"/>
<text text-anchor="middle" x="957.5" y="-258.2" font-family="Times New Roman,serif" font-size="11.00">paramList</text>
</g>
<!-- tMethodSignature : TMethodSignature&#45;&gt;tMethod : TMethod -->
<g id="edge10" class="edge"><title>tMethodSignature : TMethodSignature&#45;&gt;tMethod : TMethod</title>
<path fill="none" stroke="black" d="M988.675,-285.46C1005.28,-272.697 1026.36,-256.498 1044.18,-242.8"/>
<polygon fill="black" stroke="black" points="1046.32,-245.573 1052.11,-236.704 1042.05,-240.023 1046.32,-245.573"/>
<text text-anchor="middle" x="1043.5" y="-258.2" font-family="Times New Roman,serif" font-size="11.00">method</text>
</g>
<!-- pg : TypeGraph -->
<g id="node12" class="node"><title>pg : TypeGraph</title>
<polygon fill="none" stroke="black" points="1106,-285.5 1106,-331.5 1212,-331.5 1212,-285.5 1106,-285.5"/>
<text text-anchor="middle" x="1159" y="-316.3" font-family="Times New Roman,serif" font-size="14.00">pg : TypeGraph</text>
<polyline fill="none" stroke="black" points="1106,-308.5 1212,-308.5 "/>
<text text-anchor="middle" x="1159" y="-293.3" font-family="Times New Roman,serif" font-size="14.00"> </text>
</g>
<!-- pg : TypeGraph&#45;&gt;tType : TClass -->
<g id="edge12" class="edge"><title>pg : TypeGraph&#45;&gt;tType : TClass</title>
<path fill="none" stroke="black" d="M1163.88,-285.423C1168.16,-260.43 1171.31,-219.38 1154,-190 1113.77,-121.696 1032.93,-76.1867 973.826,-50.4662"/>
<polygon fill="black" stroke="black" points="975.108,-47.2081 964.536,-46.5077 972.364,-53.6478 975.108,-47.2081"/>
<text text-anchor="middle" x="1158" y="-163.2" font-family="Times New Roman,serif" font-size="11.00">classes</text>
</g>
<!-- pg : TypeGraph&#45;&gt;tMethod : TMethod -->
<g id="edge9" class="edge"><title>pg : TypeGraph&#45;&gt;tMethod : TMethod</title>
<path fill="none" stroke="black" d="M1138.33,-285.495C1132.92,-279.571 1127.16,-273.11 1122,-267 1116.04,-259.953 1109.82,-252.199 1104.07,-244.864"/>
<polygon fill="black" stroke="black" points="1106.48,-242.264 1097.59,-236.512 1100.95,-246.557 1106.48,-242.264"/>
<text text-anchor="middle" x="1140.5" y="-258.2" font-family="Times New Roman,serif" font-size="11.00">methods</text>
</g>
</g>
</svg>
