<?xml version="1.0" encoding="UTF-8" standalone="no"?>
<!DOCTYPE svg PUBLIC "-//W3C//DTD SVG 1.1//EN"
 "http://www.w3.org/Graphics/SVG/1.1/DTD/svg11.dtd">
<!-- Generated by graphviz version 2.38.0 (20140413.2041)
 -->
<!-- Title: ParameterPrimitiveInt Pages: 1 -->
<svg width="1311pt" height="340pt"
 viewBox="0.00 0.00 1311.17 340.00" xmlns="http://www.w3.org/2000/svg" xmlns:xlink="http://www.w3.org/1999/xlink">
<g id="graph0" class="graph" transform="scale(1 1) rotate(0) translate(4 336)">
<title>ParameterPrimitiveInt</title>
<polygon fill="white" stroke="none" points="-4,4 -4,-336 1307.17,-336 1307.17,4 -4,4"/>
<!-- jParameterListToTParameterList : ExtendedParameterListToTParameterList -->
<g id="node1" class="node"><title>jParameterListToTParameterList : ExtendedParameterListToTParameterList</title>
<polygon fill="none" stroke="black" points="931.604,-308.5 766.389,-326.5 435.959,-326.5 270.744,-308.5 435.959,-290.5 766.389,-290.5 931.604,-308.5"/>
<text text-anchor="middle" x="601.174" y="-304.8" font-family="Times New Roman,serif" font-size="14.00">jParameterListToTParameterList : ExtendedParameterListToTParameterList</text>
</g>
<!-- jParameterList : ExtendedParameterList -->
<g id="node4" class="node"><title>jParameterList : ExtendedParameterList</title>
<polygon fill="none" stroke="black" points="552.174,-190.5 552.174,-236.5 788.174,-236.5 788.174,-190.5 552.174,-190.5"/>
<text text-anchor="middle" x="670.174" y="-221.3" font-family="Times New Roman,serif" font-size="14.00">jParameterList : ExtendedParameterList</text>
<polyline fill="none" stroke="black" points="552.174,-213.5 788.174,-213.5 "/>
<text text-anchor="middle" x="670.174" y="-198.3" font-family="Times New Roman,serif" font-size="14.00"> </text>
</g>
<!-- jParameterListToTParameterList : ExtendedParameterListToTParameterList&#45;&gt;jParameterList : ExtendedParameterList -->
<g id="edge1" class="edge"><title>jParameterListToTParameterList : ExtendedParameterListToTParameterList&#45;&gt;jParameterList : ExtendedParameterList</title>
<path fill="none" stroke="black" d="M613.83,-290.442C623.284,-277.7 636.456,-259.947 647.687,-244.809"/>
<polygon fill="black" stroke="black" points="650.543,-246.833 653.691,-236.717 644.921,-242.662 650.543,-246.833"/>
<text text-anchor="middle" x="655.174" y="-258.2" font-family="Times New Roman,serif" font-size="11.00">source</text>
</g>
<!-- tParameterList : TParameterList -->
<g id="node5" class="node"><title>tParameterList : TParameterList</title>
<polygon fill="none" stroke="black" points="806.674,-190.5 806.674,-236.5 999.674,-236.5 999.674,-190.5 806.674,-190.5"/>
<text text-anchor="middle" x="903.174" y="-221.3" font-family="Times New Roman,serif" font-size="14.00">tParameterList : TParameterList</text>
<polyline fill="none" stroke="black" points="806.674,-213.5 999.674,-213.5 "/>
<text text-anchor="middle" x="903.174" y="-198.3" font-family="Times New Roman,serif" font-size="14.00"> </text>
</g>
<!-- jParameterListToTParameterList : ExtendedParameterListToTParameterList&#45;&gt;tParameterList : TParameterList -->
<g id="edge2" class="edge"><title>jParameterListToTParameterList : ExtendedParameterListToTParameterList&#45;&gt;tParameterList : TParameterList</title>
<path fill="none" stroke="black" d="M656.565,-290.442C702.894,-276.176 769.62,-255.628 821.984,-239.502"/>
<polygon fill="black" stroke="black" points="823.059,-242.833 831.586,-236.545 820.999,-236.143 823.059,-242.833"/>
<text text-anchor="middle" x="784.174" y="-258.2" font-family="Times New Roman,serif" font-size="11.00">target</text>
</g>
<!-- jParameterToTParameter : ExtendedParameterToTParameter -->
<g id="node2" class="node"><title>jParameterToTParameter : ExtendedParameterToTParameter</title>
<polygon fill="none" stroke="black" points="534.522,-213.5 400.848,-231.5 133.5,-231.5 -0.174111,-213.5 133.5,-195.5 400.848,-195.5 534.522,-213.5"/>
<text text-anchor="middle" x="267.174" y="-209.8" font-family="Times New Roman,serif" font-size="14.00">jParameterToTParameter : ExtendedParameterToTParameter</text>
</g>
<!-- jParameter : ExtendedParameter -->
<g id="node6" class="node"><title>jParameter : ExtendedParameter</title>
<polygon fill="none" stroke="black" points="573.174,-95.5 573.174,-141.5 767.174,-141.5 767.174,-95.5 573.174,-95.5"/>
<text text-anchor="middle" x="670.174" y="-126.3" font-family="Times New Roman,serif" font-size="14.00">jParameter : ExtendedParameter</text>
<polyline fill="none" stroke="black" points="573.174,-118.5 767.174,-118.5 "/>
<text text-anchor="middle" x="670.174" y="-103.3" font-family="Times New Roman,serif" font-size="14.00"> </text>
</g>
<!-- jParameterToTParameter : ExtendedParameterToTParameter&#45;&gt;jParameter : ExtendedParameter -->
<g id="edge3" class="edge"><title>jParameterToTParameter : ExtendedParameterToTParameter&#45;&gt;jParameter : ExtendedParameter</title>
<path fill="none" stroke="black" d="M340.188,-195.474C384.444,-185.17 442.049,-171.787 493.174,-160 516.02,-154.733 540.531,-149.108 563.812,-143.777"/>
<polygon fill="black" stroke="black" points="564.738,-147.156 573.705,-141.512 563.176,-140.332 564.738,-147.156"/>
<text text-anchor="middle" x="508.174" y="-163.2" font-family="Times New Roman,serif" font-size="11.00">source</text>
</g>
<!-- tParameter : TParameter -->
<g id="node8" class="node"><title>tParameter : TParameter</title>
<polygon fill="none" stroke="black" points="806.674,-95.5 806.674,-141.5 957.674,-141.5 957.674,-95.5 806.674,-95.5"/>
<text text-anchor="middle" x="882.174" y="-126.3" font-family="Times New Roman,serif" font-size="14.00">tParameter : TParameter</text>
<polyline fill="none" stroke="black" points="806.674,-118.5 957.674,-118.5 "/>
<text text-anchor="middle" x="882.174" y="-103.3" font-family="Times New Roman,serif" font-size="14.00"> </text>
</g>
<!-- jParameterToTParameter : ExtendedParameterToTParameter&#45;&gt;tParameter : TParameter -->
<g id="edge5" class="edge"><title>jParameterToTParameter : ExtendedParameterToTParameter&#45;&gt;tParameter : TParameter</title>
<path fill="none" stroke="black" d="M386.408,-195.463C459.611,-185.066 555.294,-171.59 640.174,-160 700.585,-151.751 716.085,-152.338 776.174,-142 782.776,-140.864 789.592,-139.609 796.436,-138.29"/>
<polygon fill="black" stroke="black" points="797.323,-141.682 806.459,-136.317 795.972,-134.814 797.323,-141.682"/>
<text text-anchor="middle" x="653.174" y="-163.2" font-family="Times New Roman,serif" font-size="11.00">target</text>
</g>
<!-- jTypeToTType : IntToTClass -->
<g id="node3" class="node"><title>jTypeToTType : IntToTClass</title>
<polygon fill="none" stroke="green" points="554.855,-118.5 485.515,-136.5 346.833,-136.5 277.493,-118.5 346.833,-100.5 485.515,-100.5 554.855,-118.5"/>
<text text-anchor="middle" x="416.174" y="-114.8" font-family="Times New Roman,serif" font-size="14.00">jTypeToTType : IntToTClass</text>
</g>
<!-- tType : TClass -->
<g id="node7" class="node"><title>tType : TClass</title>
<polygon fill="none" stroke="black" points="831.174,-0.5 831.174,-46.5 933.174,-46.5 933.174,-0.5 831.174,-0.5"/>
<text text-anchor="middle" x="882.174" y="-31.3" font-family="Times New Roman,serif" font-size="14.00">tType : TClass</text>
<polyline fill="none" stroke="black" points="831.174,-23.5 933.174,-23.5 "/>
<text text-anchor="middle" x="882.174" y="-8.3" font-family="Times New Roman,serif" font-size="14.00">tName == &quot;int&quot;</text>
</g>
<!-- jTypeToTType : IntToTClass&#45;&gt;tType : TClass -->
<g id="edge4" class="edge"><title>jTypeToTType : IntToTClass&#45;&gt;tType : TClass</title>
<path fill="none" stroke="green" d="M456.927,-100.377C486.262,-88.7143 527.044,-73.8419 564.174,-65 652.053,-44.0731 756.334,-33.4019 820.889,-28.3941"/>
<polygon fill="green" stroke="green" points="821.192,-31.8812 830.9,-27.6383 820.665,-24.9011 821.192,-31.8812"/>
<text text-anchor="middle" x="577.174" y="-68.2" font-family="Times New Roman,serif" font-size="11.00">target</text>
</g>
<!-- jType : Int -->
<g id="node9" class="node"><title>jType : Int</title>
<polygon fill="none" stroke="green" points="449.174,-0.5 449.174,-46.5 523.174,-46.5 523.174,-0.5 449.174,-0.5"/>
<text text-anchor="middle" x="486.174" y="-31.3" font-family="Times New Roman,serif" font-size="14.00">jType : Int</text>
<polyline fill="none" stroke="green" points="449.174,-23.5 523.174,-23.5 "/>
<text text-anchor="middle" x="486.174" y="-8.3" font-family="Times New Roman,serif" font-size="14.00"> </text>
</g>
<!-- jTypeToTType : IntToTClass&#45;&gt;jType : Int -->
<g id="edge6" class="edge"><title>jTypeToTType : IntToTClass&#45;&gt;jType : Int</title>
<path fill="none" stroke="green" d="M429.013,-100.442C438.604,-87.6999 451.967,-69.9465 463.361,-54.8089"/>
<polygon fill="green" stroke="green" points="466.234,-56.8112 469.452,-46.7167 460.642,-52.6016 466.234,-56.8112"/>
<text text-anchor="middle" x="471.174" y="-68.2" font-family="Times New Roman,serif" font-size="11.00">source</text>
</g>
<!-- jParameterList : ExtendedParameterList&#45;&gt;jParameter : ExtendedParameter -->
<g id="edge8" class="edge"><title>jParameterList : ExtendedParameterList&#45;&gt;jParameter : ExtendedParameter</title>
<path fill="none" stroke="black" d="M670.174,-190.46C670.174,-178.962 670.174,-164.675 670.174,-151.94"/>
<polygon fill="black" stroke="black" points="673.674,-151.704 670.174,-141.704 666.674,-151.704 673.674,-151.704"/>
<text text-anchor="middle" x="684.174" y="-163.2" font-family="Times New Roman,serif" font-size="11.00">values</text>
</g>
<!-- tParameterList : TParameterList&#45;&gt;tParameter : TParameter -->
<g id="edge9" class="edge"><title>tParameterList : TParameterList&#45;&gt;tParameter : TParameter</title>
<path fill="none" stroke="black" d="M898.197,-190.46C895.575,-178.847 892.31,-164.389 889.413,-151.559"/>
<polygon fill="black" stroke="black" points="892.804,-150.687 887.188,-141.704 885.976,-152.229 892.804,-150.687"/>
<text text-anchor="middle" x="909.174" y="-163.2" font-family="Times New Roman,serif" font-size="11.00">entries</text>
</g>
<!-- jParameter : ExtendedParameter&#45;&gt;jType : Int -->
<g id="edge7" class="edge"><title>jParameter : ExtendedParameter&#45;&gt;jType : Int</title>
<path fill="none" stroke="green" d="M641.637,-95.301C627.81,-85.2046 610.66,-73.6173 594.174,-65 574.817,-54.8821 552.349,-46.034 532.936,-39.2103"/>
<polygon fill="green" stroke="green" points="533.982,-35.8689 523.387,-35.9287 531.707,-42.4889 533.982,-35.8689"/>
<text text-anchor="middle" x="623.674" y="-68.2" font-family="Times New Roman,serif" font-size="11.00">type</text>
</g>
<!-- tParameter : TParameter&#45;&gt;tType : TClass -->
<g id="edge10" class="edge"><title>tParameter : TParameter&#45;&gt;tType : TClass</title>
<path fill="none" stroke="green" d="M882.174,-95.4603C882.174,-83.9622 882.174,-69.6748 882.174,-56.9402"/>
<polygon fill="green" stroke="green" points="885.674,-56.7038 882.174,-46.7038 878.674,-56.7038 885.674,-56.7038"/>
<text text-anchor="middle" x="896.174" y="-68.2" font-family="Times New Roman,serif" font-size="11.00">tClass</text>
</g>
<!-- tMethod : TMethod -->
<g id="node10" class="node"><title>tMethod : TMethod</title>
<polygon fill="none" stroke="black" points="1076.67,-190.5 1076.67,-236.5 1203.67,-236.5 1203.67,-190.5 1076.67,-190.5"/>
<text text-anchor="middle" x="1140.17" y="-221.3" font-family="Times New Roman,serif" font-size="14.00">tMethod : TMethod</text>
<polyline fill="none" stroke="black" points="1076.67,-213.5 1203.67,-213.5 "/>
<text text-anchor="middle" x="1140.17" y="-198.3" font-family="Times New Roman,serif" font-size="14.00"> </text>
</g>
<!-- pg : TypeGraph -->
<g id="node11" class="node"><title>pg : TypeGraph</title>
<polygon fill="none" stroke="black" points="1197.17,-285.5 1197.17,-331.5 1303.17,-331.5 1303.17,-285.5 1197.17,-285.5"/>
<text text-anchor="middle" x="1250.17" y="-316.3" font-family="Times New Roman,serif" font-size="14.00">pg : TypeGraph</text>
<polyline fill="none" stroke="black" points="1197.17,-308.5 1303.17,-308.5 "/>
<text text-anchor="middle" x="1250.17" y="-293.3" font-family="Times New Roman,serif" font-size="14.00"> </text>
</g>
<!-- pg : TypeGraph&#45;&gt;tType : TClass -->
<g id="edge12" class="edge"><title>pg : TypeGraph&#45;&gt;tType : TClass</title>
<path fill="none" stroke="black" d="M1248.33,-285.084C1245.14,-259.398 1236.49,-217.339 1213.17,-190 1141.66,-106.137 1017.35,-60.3516 943.125,-39.2699"/>
<polygon fill="black" stroke="black" points="944.01,-35.8835 933.438,-36.5785 942.136,-42.6279 944.01,-35.8835"/>
<text text-anchor="middle" x="1210.17" y="-163.2" font-family="Times New Roman,serif" font-size="11.00">classes</text>
</g>
<!-- pg : TypeGraph&#45;&gt;tMethod : TMethod -->
<g id="edge11" class="edge"><title>pg : TypeGraph&#45;&gt;tMethod : TMethod</title>
<path fill="none" stroke="black" d="M1213.68,-285.286C1205.36,-279.674 1196.74,-273.41 1189.17,-267 1181.04,-260.108 1172.88,-251.964 1165.61,-244.172"/>
<polygon fill="black" stroke="black" points="1167.99,-241.593 1158.67,-236.558 1162.82,-246.307 1167.99,-241.593"/>
<text text-anchor="middle" x="1207.67" y="-258.2" font-family="Times New Roman,serif" font-size="11.00">methods</text>
</g>
<!-- tMethodSignature : TMethodSignature -->
<g id="node12" class="node"><title>tMethodSignature : TMethodSignature</title>
<polygon fill="none" stroke="black" points="949.174,-285.5 949.174,-331.5 1179.17,-331.5 1179.17,-285.5 949.174,-285.5"/>
<text text-anchor="middle" x="1064.17" y="-316.3" font-family="Times New Roman,serif" font-size="14.00">tMethodSignature : TMethodSignature</text>
<polyline fill="none" stroke="black" points="949.174,-308.5 1179.17,-308.5 "/>
<text text-anchor="middle" x="1064.17" y="-293.3" font-family="Times New Roman,serif" font-size="14.00"> </text>
</g>
<!-- tMethodSignature : TMethodSignature&#45;&gt;tParameterList : TParameterList -->
<g id="edge14" class="edge"><title>tMethodSignature : TMethodSignature&#45;&gt;tParameterList : TParameterList</title>
<path fill="none" stroke="black" d="M1026.02,-285.46C1003.34,-272.362 974.403,-255.645 950.308,-241.726"/>
<polygon fill="black" stroke="black" points="951.743,-238.514 941.334,-236.542 948.242,-244.575 951.743,-238.514"/>
<text text-anchor="middle" x="1015.67" y="-258.2" font-family="Times New Roman,serif" font-size="11.00">paramList</text>
</g>
<!-- tMethodSignature : TMethodSignature&#45;&gt;tMethod : TMethod -->
<g id="edge13" class="edge"><title>tMethodSignature : TMethodSignature&#45;&gt;tMethod : TMethod</title>
<path fill="none" stroke="black" d="M1082.18,-285.46C1092.14,-273.272 1104.67,-257.95 1115.52,-244.666"/>
<polygon fill="black" stroke="black" points="1118.41,-246.662 1122.03,-236.704 1112.99,-242.232 1118.41,-246.662"/>
<text text-anchor="middle" x="1122.67" y="-258.2" font-family="Times New Roman,serif" font-size="11.00">method</text>
</g>
</g>
</svg>
