<?xml version="1.0" encoding="UTF-8" standalone="no"?>
<!DOCTYPE svg PUBLIC "-//W3C//DTD SVG 1.1//EN"
 "http://www.w3.org/Graphics/SVG/1.1/DTD/svg11.dtd">
<!-- Generated by graphviz version 2.38.0 (20140413.2041)
 -->
<!-- Title: ParameterListCreate Pages: 1 -->
<svg width="1008pt" height="234pt"
 viewBox="0.00 0.00 1007.50 234.00" xmlns="http://www.w3.org/2000/svg" xmlns:xlink="http://www.w3.org/1999/xlink">
<g id="graph0" class="graph" transform="scale(1 1) rotate(0) translate(4 230)">
<title>ParameterListCreate</title>
<polygon fill="white" stroke="none" points="-4,4 -4,-230 1003.5,-230 1003.5,4 -4,4"/>
<!-- jParameterListToTParameterList : ExtendedParameterListToTParameterList -->
<g id="node1" class="node"><title>jParameterListToTParameterList : ExtendedParameterListToTParameterList</title>
<polygon fill="none" stroke="black" points="840.43,-208 675.215,-226 344.785,-226 179.57,-208 344.785,-190 675.215,-190 840.43,-208"/>
<text text-anchor="middle" x="510" y="-204.3" font-family="Times New Roman,serif" font-size="14.00">jParameterListToTParameterList : ExtendedParameterListToTParameterList</text>
</g>
<!-- jParameterList : ExtendedParameterList -->
<g id="node3" class="node"><title>jParameterList : ExtendedParameterList</title>
<polygon fill="none" stroke="black" points="0,-95.5 0,-141.5 236,-141.5 236,-95.5 0,-95.5"/>
<text text-anchor="middle" x="118" y="-126.3" font-family="Times New Roman,serif" font-size="14.00">jParameterList : ExtendedParameterList</text>
<polyline fill="none" stroke="black" points="0,-118.5 236,-118.5 "/>
<text text-anchor="middle" x="118" y="-103.3" font-family="Times New Roman,serif" font-size="14.00"> </text>
</g>
<!-- jParameterListToTParameterList : ExtendedParameterListToTParameterList&#45;&gt;jParameterList : ExtendedParameterList -->
<g id="edge1" class="edge"><title>jParameterListToTParameterList : ExtendedParameterListToTParameterList&#45;&gt;jParameterList : ExtendedParameterList</title>
<path fill="none" stroke="black" d="M433.488,-189.921C374.571,-176.77 292.361,-158.42 226.632,-143.748"/>
<polygon fill="black" stroke="black" points="227.168,-140.282 216.645,-141.519 225.643,-147.114 227.168,-140.282"/>
<text text-anchor="middle" x="365" y="-163.2" font-family="Times New Roman,serif" font-size="11.00">source</text>
</g>
<!-- tParameterList : TParameterList -->
<g id="node6" class="node"><title>tParameterList : TParameterList</title>
<polygon fill="none" stroke="black" points="806.5,-95.5 806.5,-141.5 999.5,-141.5 999.5,-95.5 806.5,-95.5"/>
<text text-anchor="middle" x="903" y="-126.3" font-family="Times New Roman,serif" font-size="14.00">tParameterList : TParameterList</text>
<polyline fill="none" stroke="black" points="806.5,-118.5 999.5,-118.5 "/>
<text text-anchor="middle" x="903" y="-103.3" font-family="Times New Roman,serif" font-size="14.00"> </text>
</g>
<!-- jParameterListToTParameterList : ExtendedParameterListToTParameterList&#45;&gt;tParameterList : TParameterList -->
<g id="edge4" class="edge"><title>jParameterListToTParameterList : ExtendedParameterListToTParameterList&#45;&gt;tParameterList : TParameterList</title>
<path fill="none" stroke="black" d="M586.707,-189.921C646.412,-176.628 729.976,-158.023 796.218,-143.275"/>
<polygon fill="black" stroke="black" points="797.277,-146.625 806.277,-141.035 795.756,-139.792 797.277,-146.625"/>
<text text-anchor="middle" x="732" y="-163.2" font-family="Times New Roman,serif" font-size="11.00">target</text>
</g>
<!-- jParameterToTParameter : ExtendedParameterToTParameter -->
<g id="node2" class="node"><title>jParameterToTParameter : ExtendedParameterToTParameter</title>
<polygon fill="none" stroke="green" points="788.348,-118.5 654.674,-136.5 387.326,-136.5 253.652,-118.5 387.326,-100.5 654.674,-100.5 788.348,-118.5"/>
<text text-anchor="middle" x="521" y="-114.8" font-family="Times New Roman,serif" font-size="14.00">jParameterToTParameter : ExtendedParameterToTParameter</text>
</g>
<!-- jParameter : ExtendedParameter -->
<g id="node4" class="node"><title>jParameter : ExtendedParameter</title>
<polygon fill="none" stroke="green" points="229,-0.5 229,-46.5 423,-46.5 423,-0.5 229,-0.5"/>
<text text-anchor="middle" x="326" y="-31.3" font-family="Times New Roman,serif" font-size="14.00">jParameter : ExtendedParameter</text>
<polyline fill="none" stroke="green" points="229,-23.5 423,-23.5 "/>
<text text-anchor="middle" x="326" y="-8.3" font-family="Times New Roman,serif" font-size="14.00"> </text>
</g>
<!-- jParameterToTParameter : ExtendedParameterToTParameter&#45;&gt;jParameter : ExtendedParameter -->
<g id="edge2" class="edge"><title>jParameterToTParameter : ExtendedParameterToTParameter&#45;&gt;jParameter : ExtendedParameter</title>
<path fill="none" stroke="green" d="M485.234,-100.442C456.189,-86.5901 414.727,-66.816 381.393,-50.9183"/>
<polygon fill="green" stroke="green" points="382.757,-47.6909 372.224,-46.5452 379.743,-54.0091 382.757,-47.6909"/>
<text text-anchor="middle" x="451" y="-68.2" font-family="Times New Roman,serif" font-size="11.00">source</text>
</g>
<!-- tParameter : TParameter -->
<g id="node5" class="node"><title>tParameter : TParameter</title>
<polygon fill="none" stroke="green" points="510.5,-0.5 510.5,-46.5 661.5,-46.5 661.5,-0.5 510.5,-0.5"/>
<text text-anchor="middle" x="586" y="-31.3" font-family="Times New Roman,serif" font-size="14.00">tParameter : TParameter</text>
<polyline fill="none" stroke="green" points="510.5,-23.5 661.5,-23.5 "/>
<text text-anchor="middle" x="586" y="-8.3" font-family="Times New Roman,serif" font-size="14.00"> </text>
</g>
<!-- jParameterToTParameter : ExtendedParameterToTParameter&#45;&gt;tParameter : TParameter -->
<g id="edge3" class="edge"><title>jParameterToTParameter : ExtendedParameterToTParameter&#45;&gt;tParameter : TParameter</title>
<path fill="none" stroke="green" d="M532.922,-100.442C541.746,-87.8179 554.007,-70.2748 564.522,-55.2301"/>
<polygon fill="green" stroke="green" points="567.612,-56.9183 570.472,-46.7167 561.875,-52.9081 567.612,-56.9183"/>
<text text-anchor="middle" x="571" y="-68.2" font-family="Times New Roman,serif" font-size="11.00">target</text>
</g>
<!-- jParameterList : ExtendedParameterList&#45;&gt;jParameter : ExtendedParameter -->
<g id="edge5" class="edge"><title>jParameterList : ExtendedParameterList&#45;&gt;jParameter : ExtendedParameter</title>
<path fill="none" stroke="green" d="M167.293,-95.4603C197.362,-82.0162 235.959,-64.7585 267.562,-50.6287"/>
<polygon fill="green" stroke="green" points="269,-53.8194 276.701,-46.5425 266.143,-47.4291 269,-53.8194"/>
<text text-anchor="middle" x="249" y="-68.2" font-family="Times New Roman,serif" font-size="11.00">values</text>
</g>
<!-- tParameterList : TParameterList&#45;&gt;tParameter : TParameter -->
<g id="edge6" class="edge"><title>tParameterList : TParameterList&#45;&gt;tParameter : TParameter</title>
<path fill="none" stroke="green" d="M827.875,-95.4603C780.673,-81.6123 719.679,-63.7181 670.751,-49.3639"/>
<polygon fill="green" stroke="green" points="671.715,-45.9992 661.134,-46.5425 669.744,-52.7161 671.715,-45.9992"/>
<text text-anchor="middle" x="779" y="-68.2" font-family="Times New Roman,serif" font-size="11.00">entries</text>
</g>
</g>
</svg>
