<?xml version="1.0" encoding="UTF-8" standalone="no"?>
<!DOCTYPE svg PUBLIC "-//W3C//DTD SVG 1.1//EN"
 "http://www.w3.org/Graphics/SVG/1.1/DTD/svg11.dtd">
<!-- Generated by graphviz version 2.38.0 (20140413.2041)
 -->
<!-- Title: ParameterIgnoreVoid Pages: 1 -->
<svg width="542pt" height="234pt"
 viewBox="0.00 0.00 542.35 234.00" xmlns="http://www.w3.org/2000/svg" xmlns:xlink="http://www.w3.org/1999/xlink">
<g id="graph0" class="graph" transform="scale(1 1) rotate(0) translate(4 230)">
<title>ParameterIgnoreVoid</title>
<polygon fill="white" stroke="none" points="-4,4 -4,-230 538.348,-230 538.348,4 -4,4"/>
<!-- jParameterToTParameter : ExtendedParameterToTParameter -->
<g id="node1" class="node"><title>jParameterToTParameter : ExtendedParameterToTParameter</title>
<polygon fill="none" stroke="black" points="534.522,-208 400.848,-226 133.5,-226 -0.174111,-208 133.5,-190 400.848,-190 534.522,-208"/>
<text text-anchor="middle" x="267.174" y="-204.3" font-family="Times New Roman,serif" font-size="14.00">jParameterToTParameter : ExtendedParameterToTParameter</text>
</g>
<!-- jParameter : ExtendedParameter -->
<g id="node2" class="node"><title>jParameter : ExtendedParameter</title>
<polygon fill="none" stroke="black" points="27.174,-95.5 27.174,-141.5 221.174,-141.5 221.174,-95.5 27.174,-95.5"/>
<text text-anchor="middle" x="124.174" y="-126.3" font-family="Times New Roman,serif" font-size="14.00">jParameter : ExtendedParameter</text>
<polyline fill="none" stroke="black" points="27.174,-118.5 221.174,-118.5 "/>
<text text-anchor="middle" x="124.174" y="-103.3" font-family="Times New Roman,serif" font-size="14.00"> </text>
</g>
<!-- jParameterToTParameter : ExtendedParameterToTParameter&#45;&gt;jParameter : ExtendedParameter -->
<g id="edge1" class="edge"><title>jParameterToTParameter : ExtendedParameterToTParameter&#45;&gt;jParameter : ExtendedParameter</title>
<path fill="none" stroke="black" d="M239.263,-189.921C219.226,-177.661 191.805,-160.883 168.755,-146.779"/>
<polygon fill="black" stroke="black" points="170.516,-143.753 160.159,-141.519 166.863,-149.724 170.516,-143.753"/>
<text text-anchor="middle" x="224.174" y="-163.2" font-family="Times New Roman,serif" font-size="11.00">source</text>
</g>
<!-- tParameter : TParameter -->
<g id="node3" class="node"><title>tParameter : TParameter</title>
<polygon fill="none" stroke="black" points="239.674,-95.5 239.674,-141.5 390.674,-141.5 390.674,-95.5 239.674,-95.5"/>
<text text-anchor="middle" x="315.174" y="-126.3" font-family="Times New Roman,serif" font-size="14.00">tParameter : TParameter</text>
<polyline fill="none" stroke="black" points="239.674,-118.5 390.674,-118.5 "/>
<text text-anchor="middle" x="315.174" y="-103.3" font-family="Times New Roman,serif" font-size="14.00"> </text>
</g>
<!-- jParameterToTParameter : ExtendedParameterToTParameter&#45;&gt;tParameter : TParameter -->
<g id="edge2" class="edge"><title>jParameterToTParameter : ExtendedParameterToTParameter&#45;&gt;tParameter : TParameter</title>
<path fill="none" stroke="black" d="M276.657,-189.713C282.784,-178.544 290.933,-163.69 298.157,-150.521"/>
<polygon fill="black" stroke="black" points="301.233,-152.19 302.974,-141.739 295.096,-148.823 301.233,-152.19"/>
<text text-anchor="middle" x="306.174" y="-163.2" font-family="Times New Roman,serif" font-size="11.00">target</text>
</g>
<!-- jType : Void -->
<g id="node4" class="node"><title>jType : Void</title>
<polygon fill="none" stroke="green" points="80.674,-0.5 80.674,-46.5 167.674,-46.5 167.674,-0.5 80.674,-0.5"/>
<text text-anchor="middle" x="124.174" y="-31.3" font-family="Times New Roman,serif" font-size="14.00">jType : Void</text>
<polyline fill="none" stroke="green" points="80.674,-23.5 167.674,-23.5 "/>
<text text-anchor="middle" x="124.174" y="-8.3" font-family="Times New Roman,serif" font-size="14.00"> </text>
</g>
<!-- jParameter : ExtendedParameter&#45;&gt;jType : Void -->
<g id="edge3" class="edge"><title>jParameter : ExtendedParameter&#45;&gt;jType : Void</title>
<path fill="none" stroke="green" d="M124.174,-95.4603C124.174,-83.9622 124.174,-69.6748 124.174,-56.9402"/>
<polygon fill="green" stroke="green" points="127.674,-56.7038 124.174,-46.7038 120.674,-56.7038 127.674,-56.7038"/>
<text text-anchor="middle" x="133.674" y="-68.2" font-family="Times New Roman,serif" font-size="11.00">type</text>
</g>
</g>
</svg>
