<?xml version="1.0" encoding="UTF-8" standalone="no"?>
<!DOCTYPE svg PUBLIC "-//W3C//DTD SVG 1.1//EN"
 "http://www.w3.org/Graphics/SVG/1.1/DTD/svg11.dtd">
<!-- Generated by graphviz version 2.38.0 (20140413.2041)
 -->
<!-- Title: ParameterPrimitiveShort Pages: 1 -->
<svg width="1311pt" height="340pt"
 viewBox="0.00 0.00 1311.17 340.00" xmlns="http://www.w3.org/2000/svg" xmlns:xlink="http://www.w3.org/1999/xlink">
<g id="graph0" class="graph" transform="scale(1 1) rotate(0) translate(4 336)">
<title>ParameterPrimitiveShort</title>
<polygon fill="white" stroke="none" points="-4,4 -4,-336 1307.17,-336 1307.17,4 -4,4"/>
<!-- jParameterToTParameter : ExtendedParameterToTParameter -->
<g id="node1" class="node"><title>jParameterToTParameter : ExtendedParameterToTParameter</title>
<polygon fill="none" stroke="black" points="534.522,-213.5 400.848,-231.5 133.5,-231.5 -0.174111,-213.5 133.5,-195.5 400.848,-195.5 534.522,-213.5"/>
<text text-anchor="middle" x="267.174" y="-209.8" font-family="Times New Roman,serif" font-size="14.00">jParameterToTParameter : ExtendedParameterToTParameter</text>
</g>
<!-- jParameter : ExtendedParameter -->
<g id="node6" class="node"><title>jParameter : ExtendedParameter</title>
<polygon fill="none" stroke="black" points="573.174,-95.5 573.174,-141.5 767.174,-141.5 767.174,-95.5 573.174,-95.5"/>
<text text-anchor="middle" x="670.174" y="-126.3" font-family="Times New Roman,serif" font-size="14.00">jParameter : ExtendedParameter</text>
<polyline fill="none" stroke="black" points="573.174,-118.5 767.174,-118.5 "/>
<text text-anchor="middle" x="670.174" y="-103.3" font-family="Times New Roman,serif" font-size="14.00"> </text>
</g>
<!-- jParameterToTParameter : ExtendedParameterToTParameter&#45;&gt;jParameter : ExtendedParameter -->
<g id="edge3" class="edge"><title>jParameterToTParameter : ExtendedParameterToTParameter&#45;&gt;jParameter : ExtendedParameter</title>
<path fill="none" stroke="black" d="M340.188,-195.474C384.444,-185.17 442.049,-171.787 493.174,-160 516.02,-154.733 540.531,-149.108 563.812,-143.777"/>
<polygon fill="black" stroke="black" points="564.738,-147.156 573.705,-141.512 563.176,-140.332 564.738,-147.156"/>
<text text-anchor="middle" x="508.174" y="-163.2" font-family="Times New Roman,serif" font-size="11.00">source</text>
</g>
<!-- tParameter : TParameter -->
<g id="node9" class="node"><title>tParameter : TParameter</title>
<polygon fill="none" stroke="black" points="806.674,-95.5 806.674,-141.5 957.674,-141.5 957.674,-95.5 806.674,-95.5"/>
<text text-anchor="middle" x="882.174" y="-126.3" font-family="Times New Roman,serif" font-size="14.00">tParameter : TParameter</text>
<polyline fill="none" stroke="black" points="806.674,-118.5 957.674,-118.5 "/>
<text text-anchor="middle" x="882.174" y="-103.3" font-family="Times New Roman,serif" font-size="14.00"> </text>
</g>
<!-- jParameterToTParameter : ExtendedParameterToTParameter&#45;&gt;tParameter : TParameter -->
<g id="edge6" class="edge"><title>jParameterToTParameter : ExtendedParameterToTParameter&#45;&gt;tParameter : TParameter</title>
<path fill="none" stroke="black" d="M386.408,-195.463C459.611,-185.066 555.294,-171.59 640.174,-160 700.585,-151.751 716.085,-152.338 776.174,-142 782.776,-140.864 789.592,-139.609 796.436,-138.29"/>
<polygon fill="black" stroke="black" points="797.323,-141.682 806.459,-136.317 795.972,-134.814 797.323,-141.682"/>
<text text-anchor="middle" x="653.174" y="-163.2" font-family="Times New Roman,serif" font-size="11.00">target</text>
</g>
<!-- jParameterListToTParameterList : ExtendedParameterListToTParameterList -->
<g id="node2" class="node"><title>jParameterListToTParameterList : ExtendedParameterListToTParameterList</title>
<polygon fill="none" stroke="black" points="931.604,-308.5 766.389,-326.5 435.959,-326.5 270.744,-308.5 435.959,-290.5 766.389,-290.5 931.604,-308.5"/>
<text text-anchor="middle" x="601.174" y="-304.8" font-family="Times New Roman,serif" font-size="14.00">jParameterListToTParameterList : ExtendedParameterListToTParameterList</text>
</g>
<!-- tParameterList : TParameterList -->
<g id="node4" class="node"><title>tParameterList : TParameterList</title>
<polygon fill="none" stroke="black" points="806.674,-190.5 806.674,-236.5 999.674,-236.5 999.674,-190.5 806.674,-190.5"/>
<text text-anchor="middle" x="903.174" y="-221.3" font-family="Times New Roman,serif" font-size="14.00">tParameterList : TParameterList</text>
<polyline fill="none" stroke="black" points="806.674,-213.5 999.674,-213.5 "/>
<text text-anchor="middle" x="903.174" y="-198.3" font-family="Times New Roman,serif" font-size="14.00"> </text>
</g>
<!-- jParameterListToTParameterList : ExtendedParameterListToTParameterList&#45;&gt;tParameterList : TParameterList -->
<g id="edge1" class="edge"><title>jParameterListToTParameterList : ExtendedParameterListToTParameterList&#45;&gt;tParameterList : TParameterList</title>
<path fill="none" stroke="black" d="M656.565,-290.442C702.894,-276.176 769.62,-255.628 821.984,-239.502"/>
<polygon fill="black" stroke="black" points="823.059,-242.833 831.586,-236.545 820.999,-236.143 823.059,-242.833"/>
<text text-anchor="middle" x="784.174" y="-258.2" font-family="Times New Roman,serif" font-size="11.00">target</text>
</g>
<!-- jParameterList : ExtendedParameterList -->
<g id="node5" class="node"><title>jParameterList : ExtendedParameterList</title>
<polygon fill="none" stroke="black" points="552.174,-190.5 552.174,-236.5 788.174,-236.5 788.174,-190.5 552.174,-190.5"/>
<text text-anchor="middle" x="670.174" y="-221.3" font-family="Times New Roman,serif" font-size="14.00">jParameterList : ExtendedParameterList</text>
<polyline fill="none" stroke="black" points="552.174,-213.5 788.174,-213.5 "/>
<text text-anchor="middle" x="670.174" y="-198.3" font-family="Times New Roman,serif" font-size="14.00"> </text>
</g>
<!-- jParameterListToTParameterList : ExtendedParameterListToTParameterList&#45;&gt;jParameterList : ExtendedParameterList -->
<g id="edge2" class="edge"><title>jParameterListToTParameterList : ExtendedParameterListToTParameterList&#45;&gt;jParameterList : ExtendedParameterList</title>
<path fill="none" stroke="black" d="M613.83,-290.442C623.284,-277.7 636.456,-259.947 647.687,-244.809"/>
<polygon fill="black" stroke="black" points="650.543,-246.833 653.691,-236.717 644.921,-242.662 650.543,-246.833"/>
<text text-anchor="middle" x="655.174" y="-258.2" font-family="Times New Roman,serif" font-size="11.00">source</text>
</g>
<!-- jTypeToTType : ShortToTClass -->
<g id="node3" class="node"><title>jTypeToTType : ShortToTClass</title>
<polygon fill="none" stroke="green" points="554.871,-118.5 479.522,-136.5 328.826,-136.5 253.477,-118.5 328.826,-100.5 479.522,-100.5 554.871,-118.5"/>
<text text-anchor="middle" x="404.174" y="-114.8" font-family="Times New Roman,serif" font-size="14.00">jTypeToTType : ShortToTClass</text>
</g>
<!-- jType : Short -->
<g id="node7" class="node"><title>jType : Short</title>
<polygon fill="none" stroke="green" points="431.174,-0.5 431.174,-46.5 521.174,-46.5 521.174,-0.5 431.174,-0.5"/>
<text text-anchor="middle" x="476.174" y="-31.3" font-family="Times New Roman,serif" font-size="14.00">jType : Short</text>
<polyline fill="none" stroke="green" points="431.174,-23.5 521.174,-23.5 "/>
<text text-anchor="middle" x="476.174" y="-8.3" font-family="Times New Roman,serif" font-size="14.00"> </text>
</g>
<!-- jTypeToTType : ShortToTClass&#45;&gt;jType : Short -->
<g id="edge4" class="edge"><title>jTypeToTType : ShortToTClass&#45;&gt;jType : Short</title>
<path fill="none" stroke="green" d="M417.38,-100.442C427.245,-87.6999 440.99,-69.9465 452.709,-54.8089"/>
<polygon fill="green" stroke="green" points="455.62,-56.7666 458.974,-46.7167 450.085,-52.4814 455.62,-56.7666"/>
<text text-anchor="middle" x="460.174" y="-68.2" font-family="Times New Roman,serif" font-size="11.00">source</text>
</g>
<!-- tType : TClass -->
<g id="node8" class="node"><title>tType : TClass</title>
<polygon fill="none" stroke="black" points="823.674,-0.5 823.674,-46.5 940.674,-46.5 940.674,-0.5 823.674,-0.5"/>
<text text-anchor="middle" x="882.174" y="-31.3" font-family="Times New Roman,serif" font-size="14.00">tType : TClass</text>
<polyline fill="none" stroke="black" points="823.674,-23.5 940.674,-23.5 "/>
<text text-anchor="middle" x="882.174" y="-8.3" font-family="Times New Roman,serif" font-size="14.00">tName == &quot;short&quot;</text>
</g>
<!-- jTypeToTType : ShortToTClass&#45;&gt;tType : TClass -->
<g id="edge5" class="edge"><title>jTypeToTType : ShortToTClass&#45;&gt;tType : TClass</title>
<path fill="none" stroke="green" d="M447.215,-100.426C478.176,-88.7858 521.175,-73.9208 560.174,-65 646.198,-45.3226 747.487,-34.5633 813.165,-29.1752"/>
<polygon fill="green" stroke="green" points="813.703,-32.6434 823.392,-28.356 813.145,-25.6657 813.703,-32.6434"/>
<text text-anchor="middle" x="573.174" y="-68.2" font-family="Times New Roman,serif" font-size="11.00">target</text>
</g>
<!-- tParameterList : TParameterList&#45;&gt;tParameter : TParameter -->
<g id="edge11" class="edge"><title>tParameterList : TParameterList&#45;&gt;tParameter : TParameter</title>
<path fill="none" stroke="black" d="M898.197,-190.46C895.575,-178.847 892.31,-164.389 889.413,-151.559"/>
<polygon fill="black" stroke="black" points="892.804,-150.687 887.188,-141.704 885.976,-152.229 892.804,-150.687"/>
<text text-anchor="middle" x="909.174" y="-163.2" font-family="Times New Roman,serif" font-size="11.00">entries</text>
</g>
<!-- jParameterList : ExtendedParameterList&#45;&gt;jParameter : ExtendedParameter -->
<g id="edge8" class="edge"><title>jParameterList : ExtendedParameterList&#45;&gt;jParameter : ExtendedParameter</title>
<path fill="none" stroke="black" d="M670.174,-190.46C670.174,-178.962 670.174,-164.675 670.174,-151.94"/>
<polygon fill="black" stroke="black" points="673.674,-151.704 670.174,-141.704 666.674,-151.704 673.674,-151.704"/>
<text text-anchor="middle" x="684.174" y="-163.2" font-family="Times New Roman,serif" font-size="11.00">values</text>
</g>
<!-- jParameter : ExtendedParameter&#45;&gt;jType : Short -->
<g id="edge7" class="edge"><title>jParameter : ExtendedParameter&#45;&gt;jType : Short</title>
<path fill="none" stroke="green" d="M640.05,-95.2616C625.476,-85.1565 607.432,-73.5734 590.174,-65 571.427,-55.6872 549.999,-47.4874 530.819,-40.9453"/>
<polygon fill="green" stroke="green" points="531.907,-37.6188 521.313,-37.774 529.692,-44.259 531.907,-37.6188"/>
<text text-anchor="middle" x="620.674" y="-68.2" font-family="Times New Roman,serif" font-size="11.00">type</text>
</g>
<!-- tParameter : TParameter&#45;&gt;tType : TClass -->
<g id="edge12" class="edge"><title>tParameter : TParameter&#45;&gt;tType : TClass</title>
<path fill="none" stroke="green" d="M882.174,-95.4603C882.174,-83.9622 882.174,-69.6748 882.174,-56.9402"/>
<polygon fill="green" stroke="green" points="885.674,-56.7038 882.174,-46.7038 878.674,-56.7038 885.674,-56.7038"/>
<text text-anchor="middle" x="896.174" y="-68.2" font-family="Times New Roman,serif" font-size="11.00">tClass</text>
</g>
<!-- tMethodSignature : TMethodSignature -->
<g id="node10" class="node"><title>tMethodSignature : TMethodSignature</title>
<polygon fill="none" stroke="black" points="949.174,-285.5 949.174,-331.5 1179.17,-331.5 1179.17,-285.5 949.174,-285.5"/>
<text text-anchor="middle" x="1064.17" y="-316.3" font-family="Times New Roman,serif" font-size="14.00">tMethodSignature : TMethodSignature</text>
<polyline fill="none" stroke="black" points="949.174,-308.5 1179.17,-308.5 "/>
<text text-anchor="middle" x="1064.17" y="-293.3" font-family="Times New Roman,serif" font-size="14.00"> </text>
</g>
<!-- tMethodSignature : TMethodSignature&#45;&gt;tParameterList : TParameterList -->
<g id="edge10" class="edge"><title>tMethodSignature : TMethodSignature&#45;&gt;tParameterList : TParameterList</title>
<path fill="none" stroke="black" d="M1026.02,-285.46C1003.34,-272.362 974.403,-255.645 950.308,-241.726"/>
<polygon fill="black" stroke="black" points="951.743,-238.514 941.334,-236.542 948.242,-244.575 951.743,-238.514"/>
<text text-anchor="middle" x="1015.67" y="-258.2" font-family="Times New Roman,serif" font-size="11.00">paramList</text>
</g>
<!-- tMethod : TMethod -->
<g id="node11" class="node"><title>tMethod : TMethod</title>
<polygon fill="none" stroke="black" points="1076.67,-190.5 1076.67,-236.5 1203.67,-236.5 1203.67,-190.5 1076.67,-190.5"/>
<text text-anchor="middle" x="1140.17" y="-221.3" font-family="Times New Roman,serif" font-size="14.00">tMethod : TMethod</text>
<polyline fill="none" stroke="black" points="1076.67,-213.5 1203.67,-213.5 "/>
<text text-anchor="middle" x="1140.17" y="-198.3" font-family="Times New Roman,serif" font-size="14.00"> </text>
</g>
<!-- tMethodSignature : TMethodSignature&#45;&gt;tMethod : TMethod -->
<g id="edge14" class="edge"><title>tMethodSignature : TMethodSignature&#45;&gt;tMethod : TMethod</title>
<path fill="none" stroke="black" d="M1082.18,-285.46C1092.14,-273.272 1104.67,-257.95 1115.52,-244.666"/>
<polygon fill="black" stroke="black" points="1118.41,-246.662 1122.03,-236.704 1112.99,-242.232 1118.41,-246.662"/>
<text text-anchor="middle" x="1122.67" y="-258.2" font-family="Times New Roman,serif" font-size="11.00">method</text>
</g>
<!-- pg : TypeGraph -->
<g id="node12" class="node"><title>pg : TypeGraph</title>
<polygon fill="none" stroke="black" points="1197.17,-285.5 1197.17,-331.5 1303.17,-331.5 1303.17,-285.5 1197.17,-285.5"/>
<text text-anchor="middle" x="1250.17" y="-316.3" font-family="Times New Roman,serif" font-size="14.00">pg : TypeGraph</text>
<polyline fill="none" stroke="black" points="1197.17,-308.5 1303.17,-308.5 "/>
<text text-anchor="middle" x="1250.17" y="-293.3" font-family="Times New Roman,serif" font-size="14.00"> </text>
</g>
<!-- pg : TypeGraph&#45;&gt;tType : TClass -->
<g id="edge13" class="edge"><title>pg : TypeGraph&#45;&gt;tType : TClass</title>
<path fill="none" stroke="black" d="M1248.33,-285.084C1245.14,-259.398 1236.49,-217.339 1213.17,-190 1144.05,-108.944 1025.62,-63.4594 950.743,-41.4704"/>
<polygon fill="black" stroke="black" points="951.508,-38.0485 940.93,-38.6496 949.574,-44.7761 951.508,-38.0485"/>
<text text-anchor="middle" x="1210.17" y="-163.2" font-family="Times New Roman,serif" font-size="11.00">classes</text>
</g>
<!-- pg : TypeGraph&#45;&gt;tMethod : TMethod -->
<g id="edge9" class="edge"><title>pg : TypeGraph&#45;&gt;tMethod : TMethod</title>
<path fill="none" stroke="black" d="M1213.68,-285.286C1205.36,-279.674 1196.74,-273.41 1189.17,-267 1181.04,-260.108 1172.88,-251.964 1165.61,-244.172"/>
<polygon fill="black" stroke="black" points="1167.99,-241.593 1158.67,-236.558 1162.82,-246.307 1167.99,-241.593"/>
<text text-anchor="middle" x="1207.67" y="-258.2" font-family="Times New Roman,serif" font-size="11.00">methods</text>
</g>
</g>
</svg>
