<?xml version="1.0" encoding="UTF-8" standalone="no"?>
<!DOCTYPE svg PUBLIC "-//W3C//DTD SVG 1.1//EN"
 "http://www.w3.org/Graphics/SVG/1.1/DTD/svg11.dtd">
<!-- Generated by graphviz version 2.38.0 (20140413.2041)
 -->
<!-- Title: ParamTypeCreateRule Pages: 1 -->
<svg width="1214pt" height="378pt"
 viewBox="0.00 0.00 1214.45 378.00" xmlns="http://www.w3.org/2000/svg" xmlns:xlink="http://www.w3.org/1999/xlink">
<g id="graph0" class="graph" transform="scale(1 1) rotate(0) translate(4 374)">
<title>ParamTypeCreateRule</title>
<polygon fill="white" stroke="none" points="-4,4 -4,-374 1210.45,-374 1210.45,4 -4,4"/>
<text text-anchor="middle" x="603.223" y="-22.8" font-family="Times New Roman,serif" font-size="14.00">_____________________________</text>
<text text-anchor="middle" x="603.223" y="-7.8" font-family="Times New Roman,serif" font-size="14.00"> eq(jType.name,tType.tName)</text>
<!-- jTypeToTType : ClassToTClass -->
<g id="node1" class="node"><title>jTypeToTType : ClassToTClass</title>
<polygon fill="none" stroke="green" points="706.144,-156.5 630.795,-174.5 480.099,-174.5 404.75,-156.5 480.099,-138.5 630.795,-138.5 706.144,-156.5"/>
<text text-anchor="middle" x="555.447" y="-152.8" font-family="Times New Roman,serif" font-size="14.00">jTypeToTType : ClassToTClass</text>
</g>
<!-- tType : TClass -->
<g id="node3" class="node"><title>tType : TClass</title>
<polygon fill="none" stroke="green" points="749.447,-38.5 749.447,-84.5 849.447,-84.5 849.447,-38.5 749.447,-38.5"/>
<text text-anchor="middle" x="799.447" y="-69.3" font-family="Times New Roman,serif" font-size="14.00">tType : TClass</text>
<polyline fill="none" stroke="green" points="749.447,-61.5 849.447,-61.5 "/>
<text text-anchor="middle" x="799.447" y="-46.3" font-family="Times New Roman,serif" font-size="14.00"> </text>
</g>
<!-- jTypeToTType : ClassToTClass&#45;&gt;tType : TClass -->
<g id="edge1" class="edge"><title>jTypeToTType : ClassToTClass&#45;&gt;tType : TClass</title>
<path fill="none" stroke="green" d="M600.2,-138.442C639.34,-123.525 696.498,-101.739 739.568,-85.3228"/>
<polygon fill="green" stroke="green" points="740.987,-88.5277 749.084,-81.6956 738.493,-81.9867 740.987,-88.5277"/>
<text text-anchor="middle" x="705.447" y="-106.2" font-family="Times New Roman,serif" font-size="11.00">target</text>
</g>
<!-- jType : Class -->
<g id="node6" class="node"><title>jType : Class</title>
<polygon fill="none" stroke="black" points="366.447,-38.5 366.447,-84.5 456.447,-84.5 456.447,-38.5 366.447,-38.5"/>
<text text-anchor="middle" x="411.447" y="-69.3" font-family="Times New Roman,serif" font-size="14.00">jType : Class</text>
<polyline fill="none" stroke="black" points="366.447,-61.5 456.447,-61.5 "/>
<text text-anchor="middle" x="411.447" y="-46.3" font-family="Times New Roman,serif" font-size="14.00"> </text>
</g>
<!-- jTypeToTType : ClassToTClass&#45;&gt;jType : Class -->
<g id="edge4" class="edge"><title>jTypeToTType : ClassToTClass&#45;&gt;jType : Class</title>
<path fill="none" stroke="green" d="M529.035,-138.442C508.136,-124.945 478.533,-105.826 454.258,-90.1487"/>
<polygon fill="green" stroke="green" points="455.881,-87.0304 445.582,-84.5452 452.083,-92.9107 455.881,-87.0304"/>
<text text-anchor="middle" x="507.447" y="-106.2" font-family="Times New Roman,serif" font-size="11.00">source</text>
</g>
<!-- extendedParameterToTParameter : ExtendedParameterToTParameter -->
<g id="node2" class="node"><title>extendedParameterToTParameter : ExtendedParameterToTParameter</title>
<polygon fill="none" stroke="black" points="604.841,-251.5 453.644,-269.5 151.25,-269.5 0.053021,-251.5 151.25,-233.5 453.644,-233.5 604.841,-251.5"/>
<text text-anchor="middle" x="302.447" y="-247.8" font-family="Times New Roman,serif" font-size="14.00">extendedParameterToTParameter : ExtendedParameterToTParameter</text>
</g>
<!-- extendedParameter : ExtendedParameter -->
<g id="node4" class="node"><title>extendedParameter : ExtendedParameter</title>
<polygon fill="none" stroke="black" points="145.947,-133.5 145.947,-179.5 386.947,-179.5 386.947,-133.5 145.947,-133.5"/>
<text text-anchor="middle" x="266.447" y="-164.3" font-family="Times New Roman,serif" font-size="14.00">extendedParameter : ExtendedParameter</text>
<polyline fill="none" stroke="black" points="145.947,-156.5 386.947,-156.5 "/>
<text text-anchor="middle" x="266.447" y="-141.3" font-family="Times New Roman,serif" font-size="14.00"> </text>
</g>
<!-- extendedParameterToTParameter : ExtendedParameterToTParameter&#45;&gt;extendedParameter : ExtendedParameter -->
<g id="edge2" class="edge"><title>extendedParameterToTParameter : ExtendedParameterToTParameter&#45;&gt;extendedParameter : ExtendedParameter</title>
<path fill="none" stroke="black" d="M295.844,-233.442C291.048,-221.054 284.419,-203.929 278.67,-189.076"/>
<polygon fill="black" stroke="black" points="281.921,-187.779 275.047,-179.717 275.393,-190.306 281.921,-187.779"/>
<text text-anchor="middle" x="302.447" y="-201.2" font-family="Times New Roman,serif" font-size="11.00">source</text>
</g>
<!-- tParameter : TParameter -->
<g id="node5" class="node"><title>tParameter : TParameter</title>
<polygon fill="none" stroke="black" points="723.947,-133.5 723.947,-179.5 874.947,-179.5 874.947,-133.5 723.947,-133.5"/>
<text text-anchor="middle" x="799.447" y="-164.3" font-family="Times New Roman,serif" font-size="14.00">tParameter : TParameter</text>
<polyline fill="none" stroke="black" points="723.947,-156.5 874.947,-156.5 "/>
<text text-anchor="middle" x="799.447" y="-141.3" font-family="Times New Roman,serif" font-size="14.00"> </text>
</g>
<!-- extendedParameterToTParameter : ExtendedParameterToTParameter&#45;&gt;tParameter : TParameter -->
<g id="edge3" class="edge"><title>extendedParameterToTParameter : ExtendedParameterToTParameter&#45;&gt;tParameter : TParameter</title>
<path fill="none" stroke="black" d="M419.607,-233.462C499.998,-221.073 609.243,-202.868 713.45,-180.367"/>
<polygon fill="black" stroke="black" points="714.491,-183.722 723.518,-178.176 713.002,-176.882 714.491,-183.722"/>
<text text-anchor="middle" x="639.447" y="-201.2" font-family="Times New Roman,serif" font-size="11.00">target</text>
</g>
<!-- extendedParameter : ExtendedParameter&#45;&gt;jType : Class -->
<g id="edge5" class="edge"><title>extendedParameter : ExtendedParameter&#45;&gt;jType : Class</title>
<path fill="none" stroke="green" d="M300.81,-133.46C321.052,-120.478 346.838,-103.939 368.423,-90.0949"/>
<polygon fill="green" stroke="green" points="370.552,-92.8874 377.08,-84.5425 366.773,-86.9952 370.552,-92.8874"/>
<text text-anchor="middle" x="357.947" y="-106.2" font-family="Times New Roman,serif" font-size="11.00">type</text>
</g>
<!-- tParameter : TParameter&#45;&gt;tType : TClass -->
<g id="edge9" class="edge"><title>tParameter : TParameter&#45;&gt;tType : TClass</title>
<path fill="none" stroke="green" d="M799.447,-133.46C799.447,-121.962 799.447,-107.675 799.447,-94.9402"/>
<polygon fill="green" stroke="green" points="802.947,-94.7038 799.447,-84.7038 795.947,-94.7038 802.947,-94.7038"/>
<text text-anchor="middle" x="813.447" y="-106.2" font-family="Times New Roman,serif" font-size="11.00">tClass</text>
</g>
<!-- tMethod : TMethod -->
<g id="node7" class="node"><title>tMethod : TMethod</title>
<polygon fill="none" stroke="black" points="891.947,-228.5 891.947,-274.5 1018.95,-274.5 1018.95,-228.5 891.947,-228.5"/>
<text text-anchor="middle" x="955.447" y="-259.3" font-family="Times New Roman,serif" font-size="14.00">tMethod : TMethod</text>
<polyline fill="none" stroke="black" points="891.947,-251.5 1018.95,-251.5 "/>
<text text-anchor="middle" x="955.447" y="-236.3" font-family="Times New Roman,serif" font-size="14.00"> </text>
</g>
<!-- tExistingType : TClass -->
<g id="node8" class="node"><title>tExistingType : TClass</title>
<polygon fill="none" stroke="blue" points="1037.45,-228.5 1037.45,-274.5 1181.45,-274.5 1181.45,-228.5 1037.45,-228.5"/>
<text text-anchor="middle" x="1109.45" y="-259.3" font-family="Times New Roman,serif" font-size="14.00">tExistingType : TClass</text>
<polyline fill="none" stroke="blue" points="1037.45,-251.5 1181.45,-251.5 "/>
<text text-anchor="middle" x="1109.45" y="-236.3" font-family="Times New Roman,serif" font-size="14.00"> </text>
</g>
<!-- tParameterList : TParameterList -->
<g id="node9" class="node"><title>tParameterList : TParameterList</title>
<polygon fill="none" stroke="black" points="680.947,-228.5 680.947,-274.5 873.947,-274.5 873.947,-228.5 680.947,-228.5"/>
<text text-anchor="middle" x="777.447" y="-259.3" font-family="Times New Roman,serif" font-size="14.00">tParameterList : TParameterList</text>
<polyline fill="none" stroke="black" points="680.947,-251.5 873.947,-251.5 "/>
<text text-anchor="middle" x="777.447" y="-236.3" font-family="Times New Roman,serif" font-size="14.00"> </text>
</g>
<!-- tParameterList : TParameterList&#45;&gt;tParameter : TParameter -->
<g id="edge8" class="edge"><title>tParameterList : TParameterList&#45;&gt;tParameter : TParameter</title>
<path fill="none" stroke="black" d="M782.661,-228.46C785.408,-216.847 788.828,-202.389 791.863,-189.559"/>
<polygon fill="black" stroke="black" points="795.298,-190.241 794.194,-179.704 788.486,-188.629 795.298,-190.241"/>
<text text-anchor="middle" x="804.447" y="-201.2" font-family="Times New Roman,serif" font-size="11.00">entries</text>
</g>
<!-- tMethodSignature : TMethodSignature -->
<g id="node10" class="node"><title>tMethodSignature : TMethodSignature</title>
<polygon fill="none" stroke="black" points="758.447,-323.5 758.447,-369.5 988.447,-369.5 988.447,-323.5 758.447,-323.5"/>
<text text-anchor="middle" x="873.447" y="-354.3" font-family="Times New Roman,serif" font-size="14.00">tMethodSignature : TMethodSignature</text>
<polyline fill="none" stroke="black" points="758.447,-346.5 988.447,-346.5 "/>
<text text-anchor="middle" x="873.447" y="-331.3" font-family="Times New Roman,serif" font-size="14.00"> </text>
</g>
<!-- tMethodSignature : TMethodSignature&#45;&gt;tMethod : TMethod -->
<g id="edge7" class="edge"><title>tMethodSignature : TMethodSignature&#45;&gt;tMethod : TMethod</title>
<path fill="none" stroke="black" d="M892.88,-323.46C903.728,-311.157 917.391,-295.661 929.18,-282.29"/>
<polygon fill="black" stroke="black" points="931.881,-284.519 935.869,-274.704 926.631,-279.89 931.881,-284.519"/>
<text text-anchor="middle" x="934.947" y="-296.2" font-family="Times New Roman,serif" font-size="11.00">method</text>
</g>
<!-- tMethodSignature : TMethodSignature&#45;&gt;tParameterList : TParameterList -->
<g id="edge6" class="edge"><title>tMethodSignature : TMethodSignature&#45;&gt;tParameterList : TParameterList</title>
<path fill="none" stroke="black" d="M850.696,-323.46C837.878,-311.042 821.701,-295.371 807.812,-281.916"/>
<polygon fill="black" stroke="black" points="809.985,-279.148 800.367,-274.704 805.114,-284.176 809.985,-279.148"/>
<text text-anchor="middle" x="852.947" y="-296.2" font-family="Times New Roman,serif" font-size="11.00">paramList</text>
</g>
<!-- pg : TypeGraph -->
<g id="node11" class="node"><title>pg : TypeGraph</title>
<polygon fill="none" stroke="black" points="1056.45,-323.5 1056.45,-369.5 1162.45,-369.5 1162.45,-323.5 1056.45,-323.5"/>
<text text-anchor="middle" x="1109.45" y="-354.3" font-family="Times New Roman,serif" font-size="14.00">pg : TypeGraph</text>
<polyline fill="none" stroke="black" points="1056.45,-346.5 1162.45,-346.5 "/>
<text text-anchor="middle" x="1109.45" y="-331.3" font-family="Times New Roman,serif" font-size="14.00"> </text>
</g>
<!-- pg : TypeGraph&#45;&gt;tType : TClass -->
<g id="edge10" class="edge"><title>pg : TypeGraph&#45;&gt;tType : TClass</title>
<path fill="none" stroke="green" d="M1147.16,-323.274C1163.71,-311.283 1181.41,-294.851 1190.45,-275 1199.1,-255.989 1201.99,-245.413 1190.45,-228 1116.25,-116.027 949.567,-79.6063 859.66,-67.9141"/>
<polygon fill="green" stroke="green" points="859.971,-64.426 849.617,-66.6695 859.11,-71.3729 859.971,-64.426"/>
<text text-anchor="middle" x="1190.45" y="-201.2" font-family="Times New Roman,serif" font-size="11.00">classes</text>
</g>
<!-- pg : TypeGraph&#45;&gt;tMethod : TMethod -->
<g id="edge11" class="edge"><title>pg : TypeGraph&#45;&gt;tMethod : TMethod</title>
<path fill="none" stroke="black" d="M1072.95,-323.46C1051.26,-310.362 1023.58,-293.645 1000.53,-279.726"/>
<polygon fill="black" stroke="black" points="1002.32,-276.716 991.947,-274.542 998.698,-282.708 1002.32,-276.716"/>
<text text-anchor="middle" x="1059.95" y="-296.2" font-family="Times New Roman,serif" font-size="11.00">methods</text>
</g>
<!-- pg : TypeGraph&#45;&gt;tExistingType : TClass -->
<g id="edge12" class="edge"><title>pg : TypeGraph&#45;&gt;tExistingType : TClass</title>
<path fill="none" stroke="black" d="M1109.45,-323.46C1109.45,-311.962 1109.45,-297.675 1109.45,-284.94"/>
<polygon fill="black" stroke="black" points="1112.95,-284.704 1109.45,-274.704 1105.95,-284.704 1112.95,-284.704"/>
<text text-anchor="middle" x="1125.45" y="-296.2" font-family="Times New Roman,serif" font-size="11.00">classes</text>
</g>
</g>
</svg>
