<?xml version="1.0" encoding="UTF-8" standalone="no"?>
<!DOCTYPE svg PUBLIC "-//W3C//DTD SVG 1.1//EN"
 "http://www.w3.org/Graphics/SVG/1.1/DTD/svg11.dtd">
<!-- Generated by graphviz version 2.38.0 (20140413.2041)
 -->
<!-- Title: ParameterPrimitiveLong Pages: 1 -->
<svg width="1302pt" height="340pt"
 viewBox="0.00 0.00 1302.17 340.00" xmlns="http://www.w3.org/2000/svg" xmlns:xlink="http://www.w3.org/1999/xlink">
<g id="graph0" class="graph" transform="scale(1 1) rotate(0) translate(4 336)">
<title>ParameterPrimitiveLong</title>
<polygon fill="white" stroke="none" points="-4,4 -4,-336 1298.17,-336 1298.17,4 -4,4"/>
<!-- jParameterListToTParameterList : ExtendedParameterListToTParameterList -->
<g id="node1" class="node"><title>jParameterListToTParameterList : ExtendedParameterListToTParameterList</title>
<polygon fill="none" stroke="black" points="922.604,-308.5 757.389,-326.5 426.959,-326.5 261.744,-308.5 426.959,-290.5 757.389,-290.5 922.604,-308.5"/>
<text text-anchor="middle" x="592.174" y="-304.8" font-family="Times New Roman,serif" font-size="14.00">jParameterListToTParameterList : ExtendedParameterListToTParameterList</text>
</g>
<!-- tParameterList : TParameterList -->
<g id="node5" class="node"><title>tParameterList : TParameterList</title>
<polygon fill="none" stroke="black" points="806.674,-190.5 806.674,-236.5 999.674,-236.5 999.674,-190.5 806.674,-190.5"/>
<text text-anchor="middle" x="903.174" y="-221.3" font-family="Times New Roman,serif" font-size="14.00">tParameterList : TParameterList</text>
<polyline fill="none" stroke="black" points="806.674,-213.5 999.674,-213.5 "/>
<text text-anchor="middle" x="903.174" y="-198.3" font-family="Times New Roman,serif" font-size="14.00"> </text>
</g>
<!-- jParameterListToTParameterList : ExtendedParameterListToTParameterList&#45;&gt;tParameterList : TParameterList -->
<g id="edge2" class="edge"><title>jParameterListToTParameterList : ExtendedParameterListToTParameterList&#45;&gt;tParameterList : TParameterList</title>
<path fill="none" stroke="black" d="M649.216,-290.442C696.925,-276.176 765.64,-255.628 819.564,-239.502"/>
<polygon fill="black" stroke="black" points="820.875,-242.764 829.453,-236.545 818.869,-236.057 820.875,-242.764"/>
<text text-anchor="middle" x="779.174" y="-258.2" font-family="Times New Roman,serif" font-size="11.00">target</text>
</g>
<!-- jParameterList : ExtendedParameterList -->
<g id="node9" class="node"><title>jParameterList : ExtendedParameterList</title>
<polygon fill="none" stroke="black" points="552.174,-190.5 552.174,-236.5 788.174,-236.5 788.174,-190.5 552.174,-190.5"/>
<text text-anchor="middle" x="670.174" y="-221.3" font-family="Times New Roman,serif" font-size="14.00">jParameterList : ExtendedParameterList</text>
<polyline fill="none" stroke="black" points="552.174,-213.5 788.174,-213.5 "/>
<text text-anchor="middle" x="670.174" y="-198.3" font-family="Times New Roman,serif" font-size="14.00"> </text>
</g>
<!-- jParameterListToTParameterList : ExtendedParameterListToTParameterList&#45;&gt;jParameterList : ExtendedParameterList -->
<g id="edge6" class="edge"><title>jParameterListToTParameterList : ExtendedParameterListToTParameterList&#45;&gt;jParameterList : ExtendedParameterList</title>
<path fill="none" stroke="black" d="M606.48,-290.442C617.267,-277.582 632.334,-259.617 645.106,-244.389"/>
<polygon fill="black" stroke="black" points="647.796,-246.628 651.541,-236.717 642.433,-242.129 647.796,-246.628"/>
<text text-anchor="middle" x="650.174" y="-258.2" font-family="Times New Roman,serif" font-size="11.00">source</text>
</g>
<!-- jTypeToTType : LongToTClass -->
<g id="node2" class="node"><title>jTypeToTType : LongToTClass</title>
<polygon fill="none" stroke="green" points="555.37,-118.5 480.272,-136.5 330.076,-136.5 254.978,-118.5 330.076,-100.5 480.272,-100.5 555.37,-118.5"/>
<text text-anchor="middle" x="405.174" y="-114.8" font-family="Times New Roman,serif" font-size="14.00">jTypeToTType : LongToTClass</text>
</g>
<!-- jType : Long -->
<g id="node4" class="node"><title>jType : Long</title>
<polygon fill="none" stroke="green" points="463.674,-0.5 463.674,-46.5 552.674,-46.5 552.674,-0.5 463.674,-0.5"/>
<text text-anchor="middle" x="508.174" y="-31.3" font-family="Times New Roman,serif" font-size="14.00">jType : Long</text>
<polyline fill="none" stroke="green" points="463.674,-23.5 552.674,-23.5 "/>
<text text-anchor="middle" x="508.174" y="-8.3" font-family="Times New Roman,serif" font-size="14.00"> </text>
</g>
<!-- jTypeToTType : LongToTClass&#45;&gt;jType : Long -->
<g id="edge1" class="edge"><title>jTypeToTType : LongToTClass&#45;&gt;jType : Long</title>
<path fill="none" stroke="green" d="M424.066,-100.442C438.57,-87.3459 458.937,-68.9563 475.996,-53.5537"/>
<polygon fill="green" stroke="green" points="478.492,-56.0161 483.568,-46.7167 473.801,-50.8206 478.492,-56.0161"/>
<text text-anchor="middle" x="477.174" y="-68.2" font-family="Times New Roman,serif" font-size="11.00">source</text>
</g>
<!-- tType : TClass -->
<g id="node8" class="node"><title>tType : TClass</title>
<polygon fill="none" stroke="black" points="814.674,-0.5 814.674,-46.5 927.674,-46.5 927.674,-0.5 814.674,-0.5"/>
<text text-anchor="middle" x="871.174" y="-31.3" font-family="Times New Roman,serif" font-size="14.00">tType : TClass</text>
<polyline fill="none" stroke="black" points="814.674,-23.5 927.674,-23.5 "/>
<text text-anchor="middle" x="871.174" y="-8.3" font-family="Times New Roman,serif" font-size="14.00">tName == &quot;long&quot;</text>
</g>
<!-- jTypeToTType : LongToTClass&#45;&gt;tType : TClass -->
<g id="edge5" class="edge"><title>jTypeToTType : LongToTClass&#45;&gt;tType : TClass</title>
<path fill="none" stroke="green" d="M444.47,-100.451C473.01,-88.7463 512.836,-73.7911 549.174,-65 635.985,-43.9984 738.75,-33.477 804.426,-28.5094"/>
<polygon fill="green" stroke="green" points="804.923,-31.9824 814.64,-27.7591 804.411,-25.0012 804.923,-31.9824"/>
<text text-anchor="middle" x="562.174" y="-68.2" font-family="Times New Roman,serif" font-size="11.00">target</text>
</g>
<!-- jParameterToTParameter : ExtendedParameterToTParameter -->
<g id="node3" class="node"><title>jParameterToTParameter : ExtendedParameterToTParameter</title>
<polygon fill="none" stroke="black" points="534.522,-213.5 400.848,-231.5 133.5,-231.5 -0.174111,-213.5 133.5,-195.5 400.848,-195.5 534.522,-213.5"/>
<text text-anchor="middle" x="267.174" y="-209.8" font-family="Times New Roman,serif" font-size="14.00">jParameterToTParameter : ExtendedParameterToTParameter</text>
</g>
<!-- tParameter : TParameter -->
<g id="node6" class="node"><title>tParameter : TParameter</title>
<polygon fill="none" stroke="black" points="795.674,-95.5 795.674,-141.5 946.674,-141.5 946.674,-95.5 795.674,-95.5"/>
<text text-anchor="middle" x="871.174" y="-126.3" font-family="Times New Roman,serif" font-size="14.00">tParameter : TParameter</text>
<polyline fill="none" stroke="black" points="795.674,-118.5 946.674,-118.5 "/>
<text text-anchor="middle" x="871.174" y="-103.3" font-family="Times New Roman,serif" font-size="14.00"> </text>
</g>
<!-- jParameterToTParameter : ExtendedParameterToTParameter&#45;&gt;tParameter : TParameter -->
<g id="edge3" class="edge"><title>jParameterToTParameter : ExtendedParameterToTParameter&#45;&gt;tParameter : TParameter</title>
<path fill="none" stroke="black" d="M386.408,-195.463C459.611,-185.066 555.294,-171.59 640.174,-160 700.585,-151.751 716.21,-153.04 776.174,-142 779.341,-141.417 782.561,-140.796 785.81,-140.147"/>
<polygon fill="black" stroke="black" points="786.527,-143.573 795.612,-138.123 785.111,-136.718 786.527,-143.573"/>
<text text-anchor="middle" x="653.174" y="-163.2" font-family="Times New Roman,serif" font-size="11.00">target</text>
</g>
<!-- jParameter : ExtendedParameter -->
<g id="node7" class="node"><title>jParameter : ExtendedParameter</title>
<polygon fill="none" stroke="black" points="573.174,-95.5 573.174,-141.5 767.174,-141.5 767.174,-95.5 573.174,-95.5"/>
<text text-anchor="middle" x="670.174" y="-126.3" font-family="Times New Roman,serif" font-size="14.00">jParameter : ExtendedParameter</text>
<polyline fill="none" stroke="black" points="573.174,-118.5 767.174,-118.5 "/>
<text text-anchor="middle" x="670.174" y="-103.3" font-family="Times New Roman,serif" font-size="14.00"> </text>
</g>
<!-- jParameterToTParameter : ExtendedParameterToTParameter&#45;&gt;jParameter : ExtendedParameter -->
<g id="edge4" class="edge"><title>jParameterToTParameter : ExtendedParameterToTParameter&#45;&gt;jParameter : ExtendedParameter</title>
<path fill="none" stroke="black" d="M340.776,-195.456C385.198,-185.174 442.935,-171.821 494.174,-160 516.897,-154.758 541.272,-149.143 564.421,-143.815"/>
<polygon fill="black" stroke="black" points="565.299,-147.205 574.259,-141.551 563.729,-140.383 565.299,-147.205"/>
<text text-anchor="middle" x="509.174" y="-163.2" font-family="Times New Roman,serif" font-size="11.00">source</text>
</g>
<!-- tParameterList : TParameterList&#45;&gt;tParameter : TParameter -->
<g id="edge9" class="edge"><title>tParameterList : TParameterList&#45;&gt;tParameter : TParameter</title>
<path fill="none" stroke="black" d="M895.59,-190.46C891.555,-178.732 886.521,-164.102 882.074,-151.178"/>
<polygon fill="black" stroke="black" points="885.377,-150.021 878.814,-141.704 878.758,-152.298 885.377,-150.021"/>
<text text-anchor="middle" x="903.174" y="-163.2" font-family="Times New Roman,serif" font-size="11.00">entries</text>
</g>
<!-- tParameter : TParameter&#45;&gt;tType : TClass -->
<g id="edge13" class="edge"><title>tParameter : TParameter&#45;&gt;tType : TClass</title>
<path fill="none" stroke="green" d="M871.174,-95.4603C871.174,-83.9622 871.174,-69.6748 871.174,-56.9402"/>
<polygon fill="green" stroke="green" points="874.674,-56.7038 871.174,-46.7038 867.674,-56.7038 874.674,-56.7038"/>
<text text-anchor="middle" x="885.174" y="-68.2" font-family="Times New Roman,serif" font-size="11.00">tClass</text>
</g>
<!-- jParameter : ExtendedParameter&#45;&gt;jType : Long -->
<g id="edge7" class="edge"><title>jParameter : ExtendedParameter&#45;&gt;jType : Long</title>
<path fill="none" stroke="green" d="M631.782,-95.4603C608.866,-82.3047 579.589,-65.4974 555.28,-51.5426"/>
<polygon fill="green" stroke="green" points="556.986,-48.4858 546.571,-46.5425 553.501,-54.5566 556.986,-48.4858"/>
<text text-anchor="middle" x="607.674" y="-68.2" font-family="Times New Roman,serif" font-size="11.00">type</text>
</g>
<!-- jParameterList : ExtendedParameterList&#45;&gt;jParameter : ExtendedParameter -->
<g id="edge8" class="edge"><title>jParameterList : ExtendedParameterList&#45;&gt;jParameter : ExtendedParameter</title>
<path fill="none" stroke="black" d="M670.174,-190.46C670.174,-178.962 670.174,-164.675 670.174,-151.94"/>
<polygon fill="black" stroke="black" points="673.674,-151.704 670.174,-141.704 666.674,-151.704 673.674,-151.704"/>
<text text-anchor="middle" x="684.174" y="-163.2" font-family="Times New Roman,serif" font-size="11.00">values</text>
</g>
<!-- tMethod : TMethod -->
<g id="node10" class="node"><title>tMethod : TMethod</title>
<polygon fill="none" stroke="black" points="1048.67,-190.5 1048.67,-236.5 1175.67,-236.5 1175.67,-190.5 1048.67,-190.5"/>
<text text-anchor="middle" x="1112.17" y="-221.3" font-family="Times New Roman,serif" font-size="14.00">tMethod : TMethod</text>
<polyline fill="none" stroke="black" points="1048.67,-213.5 1175.67,-213.5 "/>
<text text-anchor="middle" x="1112.17" y="-198.3" font-family="Times New Roman,serif" font-size="14.00"> </text>
</g>
<!-- pg : TypeGraph -->
<g id="node11" class="node"><title>pg : TypeGraph</title>
<polygon fill="none" stroke="black" points="1188.17,-285.5 1188.17,-331.5 1294.17,-331.5 1294.17,-285.5 1188.17,-285.5"/>
<text text-anchor="middle" x="1241.17" y="-316.3" font-family="Times New Roman,serif" font-size="14.00">pg : TypeGraph</text>
<polyline fill="none" stroke="black" points="1188.17,-308.5 1294.17,-308.5 "/>
<text text-anchor="middle" x="1241.17" y="-293.3" font-family="Times New Roman,serif" font-size="14.00"> </text>
</g>
<!-- pg : TypeGraph&#45;&gt;tType : TClass -->
<g id="edge10" class="edge"><title>pg : TypeGraph&#45;&gt;tType : TClass</title>
<path fill="none" stroke="black" d="M1235.19,-285.099C1227.37,-259.427 1211.47,-217.38 1185.17,-190 1115.46,-117.416 1006.9,-70.086 937.43,-45.3291"/>
<polygon fill="black" stroke="black" points="938.49,-41.9919 927.895,-41.9853 936.173,-48.5975 938.49,-41.9919"/>
<text text-anchor="middle" x="1179.17" y="-163.2" font-family="Times New Roman,serif" font-size="11.00">classes</text>
</g>
<!-- pg : TypeGraph&#45;&gt;tMethod : TMethod -->
<g id="edge12" class="edge"><title>pg : TypeGraph&#45;&gt;tMethod : TMethod</title>
<path fill="none" stroke="black" d="M1197.24,-285.429C1187.39,-279.856 1177.19,-273.573 1168.17,-267 1158.6,-260.018 1148.91,-251.55 1140.35,-243.472"/>
<polygon fill="black" stroke="black" points="1142.78,-240.948 1133.15,-236.52 1137.92,-245.984 1142.78,-240.948"/>
<text text-anchor="middle" x="1186.67" y="-258.2" font-family="Times New Roman,serif" font-size="11.00">methods</text>
</g>
<!-- tMethodSignature : TMethodSignature -->
<g id="node12" class="node"><title>tMethodSignature : TMethodSignature</title>
<polygon fill="none" stroke="black" points="940.174,-285.5 940.174,-331.5 1170.17,-331.5 1170.17,-285.5 940.174,-285.5"/>
<text text-anchor="middle" x="1055.17" y="-316.3" font-family="Times New Roman,serif" font-size="14.00">tMethodSignature : TMethodSignature</text>
<polyline fill="none" stroke="black" points="940.174,-308.5 1170.17,-308.5 "/>
<text text-anchor="middle" x="1055.17" y="-293.3" font-family="Times New Roman,serif" font-size="14.00"> </text>
</g>
<!-- tMethodSignature : TMethodSignature&#45;&gt;tParameterList : TParameterList -->
<g id="edge14" class="edge"><title>tMethodSignature : TMethodSignature&#45;&gt;tParameterList : TParameterList</title>
<path fill="none" stroke="black" d="M1019.15,-285.46C997.839,-272.42 970.662,-255.792 947.974,-241.91"/>
<polygon fill="black" stroke="black" points="949.557,-238.776 939.2,-236.542 945.904,-244.747 949.557,-238.776"/>
<text text-anchor="middle" x="1010.67" y="-258.2" font-family="Times New Roman,serif" font-size="11.00">paramList</text>
</g>
<!-- tMethodSignature : TMethodSignature&#45;&gt;tMethod : TMethod -->
<g id="edge11" class="edge"><title>tMethodSignature : TMethodSignature&#45;&gt;tMethod : TMethod</title>
<path fill="none" stroke="black" d="M1068.68,-285.46C1076.01,-273.502 1085.19,-258.527 1093.22,-245.42"/>
<polygon fill="black" stroke="black" points="1096.32,-247.059 1098.57,-236.704 1090.36,-243.401 1096.32,-247.059"/>
<text text-anchor="middle" x="1102.67" y="-258.2" font-family="Times New Roman,serif" font-size="11.00">method</text>
</g>
</g>
</svg>
