<?xml version="1.0" encoding="UTF-8" standalone="no"?>
<!DOCTYPE svg PUBLIC "-//W3C//DTD SVG 1.1//EN"
 "http://www.w3.org/Graphics/SVG/1.1/DTD/svg11.dtd">
<!-- Generated by graphviz version 2.38.0 (20140413.2041)
 -->
<!-- Title: ParameterLinkListNext Pages: 1 -->
<svg width="1000pt" height="234pt"
 viewBox="0.00 0.00 999.50 234.00" xmlns="http://www.w3.org/2000/svg" xmlns:xlink="http://www.w3.org/1999/xlink">
<g id="graph0" class="graph" transform="scale(1 1) rotate(0) translate(4 230)">
<title>ParameterLinkListNext</title>
<polygon fill="white" stroke="none" points="-4,4 -4,-230 995.5,-230 995.5,4 -4,4"/>
<!-- jParameterToTParameter : ExtendedParameterToTParameter -->
<g id="node1" class="node"><title>jParameterToTParameter : ExtendedParameterToTParameter</title>
<polygon fill="none" stroke="black" points="773.348,-208 639.674,-226 372.326,-226 238.652,-208 372.326,-190 639.674,-190 773.348,-208"/>
<text text-anchor="middle" x="506" y="-204.3" font-family="Times New Roman,serif" font-size="14.00">jParameterToTParameter : ExtendedParameterToTParameter</text>
</g>
<!-- jParameter : ExtendedParameter -->
<g id="node5" class="node"><title>jParameter : ExtendedParameter</title>
<polygon fill="none" stroke="black" points="0,-95.5 0,-141.5 194,-141.5 194,-95.5 0,-95.5"/>
<text text-anchor="middle" x="97" y="-126.3" font-family="Times New Roman,serif" font-size="14.00">jParameter : ExtendedParameter</text>
<polyline fill="none" stroke="black" points="0,-118.5 194,-118.5 "/>
<text text-anchor="middle" x="97" y="-103.3" font-family="Times New Roman,serif" font-size="14.00"> </text>
</g>
<!-- jParameterToTParameter : ExtendedParameterToTParameter&#45;&gt;jParameter : ExtendedParameter -->
<g id="edge3" class="edge"><title>jParameterToTParameter : ExtendedParameterToTParameter&#45;&gt;jParameter : ExtendedParameter</title>
<path fill="none" stroke="black" d="M426.17,-189.921C362.91,-176.388 273.912,-157.348 204.404,-142.478"/>
<polygon fill="black" stroke="black" points="204.806,-138.984 194.295,-140.315 203.341,-145.83 204.806,-138.984"/>
<text text-anchor="middle" x="354" y="-163.2" font-family="Times New Roman,serif" font-size="11.00">source</text>
</g>
<!-- tParameter : TParameter -->
<g id="node6" class="node"><title>tParameter : TParameter</title>
<polygon fill="none" stroke="black" points="840.5,-95.5 840.5,-141.5 991.5,-141.5 991.5,-95.5 840.5,-95.5"/>
<text text-anchor="middle" x="916" y="-126.3" font-family="Times New Roman,serif" font-size="14.00">tParameter : TParameter</text>
<polyline fill="none" stroke="black" points="840.5,-118.5 991.5,-118.5 "/>
<text text-anchor="middle" x="916" y="-103.3" font-family="Times New Roman,serif" font-size="14.00"> </text>
</g>
<!-- jParameterToTParameter : ExtendedParameterToTParameter&#45;&gt;tParameter : TParameter -->
<g id="edge4" class="edge"><title>jParameterToTParameter : ExtendedParameterToTParameter&#45;&gt;tParameter : TParameter</title>
<path fill="none" stroke="black" d="M599.135,-189.945C661.809,-178.099 746.489,-161.384 830.129,-142.146"/>
<polygon fill="black" stroke="black" points="831.104,-145.513 840.058,-139.849 829.526,-138.693 831.104,-145.513"/>
<text text-anchor="middle" x="756" y="-163.2" font-family="Times New Roman,serif" font-size="11.00">target</text>
</g>
<!-- nextPArameterToTnextPArameter : ExtendedParameterToTParameter -->
<g id="node2" class="node"><title>nextPArameterToTnextPArameter : ExtendedParameterToTParameter</title>
<polygon fill="none" stroke="black" points="822.398,-118.5 669.699,-136.5 364.301,-136.5 211.602,-118.5 364.301,-100.5 669.699,-100.5 822.398,-118.5"/>
<text text-anchor="middle" x="517" y="-114.8" font-family="Times New Roman,serif" font-size="14.00">nextPArameterToTnextPArameter : ExtendedParameterToTParameter</text>
</g>
<!-- tNextParameter : TParameter -->
<g id="node3" class="node"><title>tNextParameter : TParameter</title>
<polygon fill="none" stroke="black" points="506.5,-0.5 506.5,-46.5 683.5,-46.5 683.5,-0.5 506.5,-0.5"/>
<text text-anchor="middle" x="595" y="-31.3" font-family="Times New Roman,serif" font-size="14.00">tNextParameter : TParameter</text>
<polyline fill="none" stroke="black" points="506.5,-23.5 683.5,-23.5 "/>
<text text-anchor="middle" x="595" y="-8.3" font-family="Times New Roman,serif" font-size="14.00"> </text>
</g>
<!-- nextPArameterToTnextPArameter : ExtendedParameterToTParameter&#45;&gt;tNextParameter : TParameter -->
<g id="edge1" class="edge"><title>nextPArameterToTnextPArameter : ExtendedParameterToTParameter&#45;&gt;tNextParameter : TParameter</title>
<path fill="none" stroke="black" d="M531.306,-100.442C542.093,-87.5819 557.16,-69.6173 569.932,-54.3891"/>
<polygon fill="black" stroke="black" points="572.622,-56.6278 576.367,-46.7167 567.259,-52.1295 572.622,-56.6278"/>
<text text-anchor="middle" x="574" y="-68.2" font-family="Times New Roman,serif" font-size="11.00">target</text>
</g>
<!-- jNextParameter : ExtendedParameter -->
<g id="node4" class="node"><title>jNextParameter : ExtendedParameter</title>
<polygon fill="none" stroke="black" points="198,-0.5 198,-46.5 418,-46.5 418,-0.5 198,-0.5"/>
<text text-anchor="middle" x="308" y="-31.3" font-family="Times New Roman,serif" font-size="14.00">jNextParameter : ExtendedParameter</text>
<polyline fill="none" stroke="black" points="198,-23.5 418,-23.5 "/>
<text text-anchor="middle" x="308" y="-8.3" font-family="Times New Roman,serif" font-size="14.00"> </text>
</g>
<!-- nextPArameterToTnextPArameter : ExtendedParameterToTParameter&#45;&gt;jNextParameter : ExtendedParameter -->
<g id="edge2" class="edge"><title>nextPArameterToTnextPArameter : ExtendedParameterToTParameter&#45;&gt;jNextParameter : ExtendedParameter</title>
<path fill="none" stroke="black" d="M478.666,-100.442C447.403,-86.5309 402.717,-66.6469 366.913,-50.7147"/>
<polygon fill="black" stroke="black" points="368.102,-47.413 357.542,-46.5452 365.256,-53.8084 368.102,-47.413"/>
<text text-anchor="middle" x="441" y="-68.2" font-family="Times New Roman,serif" font-size="11.00">source</text>
</g>
<!-- jParameter : ExtendedParameter&#45;&gt;jNextParameter : ExtendedParameter -->
<g id="edge5" class="edge"><title>jParameter : ExtendedParameter&#45;&gt;jNextParameter : ExtendedParameter</title>
<path fill="none" stroke="green" d="M147.004,-95.4603C177.506,-82.0162 216.661,-64.7585 248.719,-50.6287"/>
<polygon fill="green" stroke="green" points="250.251,-53.7784 257.99,-46.5425 247.427,-47.373 250.251,-53.7784"/>
<text text-anchor="middle" x="225.5" y="-68.2" font-family="Times New Roman,serif" font-size="11.00">next</text>
</g>
<!-- tParameter : TParameter&#45;&gt;tNextParameter : TParameter -->
<g id="edge6" class="edge"><title>tParameter : TParameter&#45;&gt;tNextParameter : TParameter</title>
<path fill="none" stroke="green" d="M840.334,-95.5781C792.46,-81.7081 730.455,-63.7441 680.759,-49.3461"/>
<polygon fill="green" stroke="green" points="681.571,-45.9374 670.992,-46.5163 679.623,-52.6609 681.571,-45.9374"/>
<text text-anchor="middle" x="784.5" y="-68.2" font-family="Times New Roman,serif" font-size="11.00">next</text>
</g>
</g>
</svg>
