<?xml version="1.0" encoding="UTF-8" standalone="no"?>
<!DOCTYPE svg PUBLIC "-//W3C//DTD SVG 1.1//EN"
 "http://www.w3.org/Graphics/SVG/1.1/DTD/svg11.dtd">
<!-- Generated by graphviz version 2.38.0 (20140413.2041)
 -->
<!-- Title: ParameterListLinkFirst Pages: 1 -->
<svg width="1008pt" height="234pt"
 viewBox="0.00 0.00 1007.50 234.00" xmlns="http://www.w3.org/2000/svg" xmlns:xlink="http://www.w3.org/1999/xlink">
<g id="graph0" class="graph" transform="scale(1 1) rotate(0) translate(4 230)">
<title>ParameterListLinkFirst</title>
<polygon fill="white" stroke="none" points="-4,4 -4,-230 1003.5,-230 1003.5,4 -4,4"/>
<!-- jParameterListToTParameterList : ExtendedParameterListToTParameterList -->
<g id="node1" class="node"><title>jParameterListToTParameterList : ExtendedParameterListToTParameterList</title>
<polygon fill="none" stroke="black" points="840.43,-208 675.215,-226 344.785,-226 179.57,-208 344.785,-190 675.215,-190 840.43,-208"/>
<text text-anchor="middle" x="510" y="-204.3" font-family="Times New Roman,serif" font-size="14.00">jParameterListToTParameterList : ExtendedParameterListToTParameterList</text>
</g>
<!-- jParameterList : ExtendedParameterList -->
<g id="node3" class="node"><title>jParameterList : ExtendedParameterList</title>
<polygon fill="none" stroke="black" points="0,-95.5 0,-141.5 236,-141.5 236,-95.5 0,-95.5"/>
<text text-anchor="middle" x="118" y="-126.3" font-family="Times New Roman,serif" font-size="14.00">jParameterList : ExtendedParameterList</text>
<polyline fill="none" stroke="black" points="0,-118.5 236,-118.5 "/>
<text text-anchor="middle" x="118" y="-103.3" font-family="Times New Roman,serif" font-size="14.00"> </text>
</g>
<!-- jParameterListToTParameterList : ExtendedParameterListToTParameterList&#45;&gt;jParameterList : ExtendedParameterList -->
<g id="edge1" class="edge"><title>jParameterListToTParameterList : ExtendedParameterListToTParameterList&#45;&gt;jParameterList : ExtendedParameterList</title>
<path fill="none" stroke="black" d="M433.488,-189.921C374.571,-176.77 292.361,-158.42 226.632,-143.748"/>
<polygon fill="black" stroke="black" points="227.168,-140.282 216.645,-141.519 225.643,-147.114 227.168,-140.282"/>
<text text-anchor="middle" x="365" y="-163.2" font-family="Times New Roman,serif" font-size="11.00">source</text>
</g>
<!-- tParameterList : TParameterList -->
<g id="node6" class="node"><title>tParameterList : TParameterList</title>
<polygon fill="none" stroke="black" points="806.5,-95.5 806.5,-141.5 999.5,-141.5 999.5,-95.5 806.5,-95.5"/>
<text text-anchor="middle" x="903" y="-126.3" font-family="Times New Roman,serif" font-size="14.00">tParameterList : TParameterList</text>
<polyline fill="none" stroke="black" points="806.5,-118.5 999.5,-118.5 "/>
<text text-anchor="middle" x="903" y="-103.3" font-family="Times New Roman,serif" font-size="14.00"> </text>
</g>
<!-- jParameterListToTParameterList : ExtendedParameterListToTParameterList&#45;&gt;tParameterList : TParameterList -->
<g id="edge4" class="edge"><title>jParameterListToTParameterList : ExtendedParameterListToTParameterList&#45;&gt;tParameterList : TParameterList</title>
<path fill="none" stroke="black" d="M586.707,-189.921C646.412,-176.628 729.976,-158.023 796.218,-143.275"/>
<polygon fill="black" stroke="black" points="797.277,-146.625 806.277,-141.035 795.756,-139.792 797.277,-146.625"/>
<text text-anchor="middle" x="732" y="-163.2" font-family="Times New Roman,serif" font-size="11.00">target</text>
</g>
<!-- jParameterToTParameter : ExtendedParameterToTParameter -->
<g id="node2" class="node"><title>jParameterToTParameter : ExtendedParameterToTParameter</title>
<polygon fill="none" stroke="black" points="788.348,-118.5 654.674,-136.5 387.326,-136.5 253.652,-118.5 387.326,-100.5 654.674,-100.5 788.348,-118.5"/>
<text text-anchor="middle" x="521" y="-114.8" font-family="Times New Roman,serif" font-size="14.00">jParameterToTParameter : ExtendedParameterToTParameter</text>
</g>
<!-- jParameter : ExtendedParameter -->
<g id="node4" class="node"><title>jParameter : ExtendedParameter</title>
<polygon fill="none" stroke="black" points="232,-0.5 232,-46.5 426,-46.5 426,-0.5 232,-0.5"/>
<text text-anchor="middle" x="329" y="-31.3" font-family="Times New Roman,serif" font-size="14.00">jParameter : ExtendedParameter</text>
<polyline fill="none" stroke="black" points="232,-23.5 426,-23.5 "/>
<text text-anchor="middle" x="329" y="-8.3" font-family="Times New Roman,serif" font-size="14.00"> </text>
</g>
<!-- jParameterToTParameter : ExtendedParameterToTParameter&#45;&gt;jParameter : ExtendedParameter -->
<g id="edge2" class="edge"><title>jParameterToTParameter : ExtendedParameterToTParameter&#45;&gt;jParameter : ExtendedParameter</title>
<path fill="none" stroke="black" d="M485.784,-100.442C457.186,-86.5901 416.362,-66.816 383.541,-50.9183"/>
<polygon fill="black" stroke="black" points="385.038,-47.7546 374.513,-46.5452 381.987,-54.0545 385.038,-47.7546"/>
<text text-anchor="middle" x="452" y="-68.2" font-family="Times New Roman,serif" font-size="11.00">source</text>
</g>
<!-- tParameter : TParameter -->
<g id="node5" class="node"><title>tParameter : TParameter</title>
<polygon fill="none" stroke="black" points="514.5,-0.5 514.5,-46.5 665.5,-46.5 665.5,-0.5 514.5,-0.5"/>
<text text-anchor="middle" x="590" y="-31.3" font-family="Times New Roman,serif" font-size="14.00">tParameter : TParameter</text>
<polyline fill="none" stroke="black" points="514.5,-23.5 665.5,-23.5 "/>
<text text-anchor="middle" x="590" y="-8.3" font-family="Times New Roman,serif" font-size="14.00"> </text>
</g>
<!-- jParameterToTParameter : ExtendedParameterToTParameter&#45;&gt;tParameter : TParameter -->
<g id="edge3" class="edge"><title>jParameterToTParameter : ExtendedParameterToTParameter&#45;&gt;tParameter : TParameter</title>
<path fill="none" stroke="black" d="M533.656,-100.442C543.11,-87.6999 556.282,-69.9465 567.513,-54.8089"/>
<polygon fill="black" stroke="black" points="570.369,-56.8332 573.517,-46.7167 564.747,-52.6622 570.369,-56.8332"/>
<text text-anchor="middle" x="573" y="-68.2" font-family="Times New Roman,serif" font-size="11.00">target</text>
</g>
<!-- jParameterList : ExtendedParameterList&#45;&gt;jParameter : ExtendedParameter -->
<g id="edge5" class="edge"><title>jParameterList : ExtendedParameterList&#45;&gt;jParameter : ExtendedParameter</title>
<path fill="none" stroke="green" d="M168.004,-95.4603C198.506,-82.0162 237.661,-64.7585 269.719,-50.6287"/>
<polygon fill="green" stroke="green" points="271.251,-53.7784 278.99,-46.5425 268.427,-47.373 271.251,-53.7784"/>
<text text-anchor="middle" x="246" y="-68.2" font-family="Times New Roman,serif" font-size="11.00">first</text>
</g>
<!-- tParameterList : TParameterList&#45;&gt;tParameter : TParameter -->
<g id="edge6" class="edge"><title>tParameterList : TParameterList&#45;&gt;tParameter : TParameter</title>
<path fill="none" stroke="green" d="M828.823,-95.4603C782.314,-81.6411 722.243,-63.7927 673.984,-49.4536"/>
<polygon fill="green" stroke="green" points="674.769,-46.0357 664.186,-46.5425 672.775,-52.7458 674.769,-46.0357"/>
<text text-anchor="middle" x="775" y="-68.2" font-family="Times New Roman,serif" font-size="11.00">first</text>
</g>
</g>
</svg>
