<?xml version="1.0" encoding="UTF-8" standalone="no"?>
<!DOCTYPE svg PUBLIC "-//W3C//DTD SVG 1.1//EN"
 "http://www.w3.org/Graphics/SVG/1.1/DTD/svg11.dtd">
<!-- Generated by graphviz version 2.38.0 (20140413.2041)
 -->
<!-- Title: ProgramGraphCreate Pages: 1 -->
<svg width="1127pt" height="234pt"
 viewBox="0.00 0.00 1126.51 234.00" xmlns="http://www.w3.org/2000/svg" xmlns:xlink="http://www.w3.org/1999/xlink">
<g id="graph0" class="graph" transform="scale(1 1) rotate(0) translate(4 230)">
<title>ProgramGraphCreate</title>
<polygon fill="white" stroke="none" points="-4,4 -4,-230 1122.51,-230 1122.51,4 -4,4"/>
<!-- typeGraphToExtendedJamoppJavaContainer : ExtendedJamoppJavaContainerToTypeGraph -->
<g id="node1" class="node"><title>typeGraphToExtendedJamoppJavaContainer : ExtendedJamoppJavaContainerToTypeGraph</title>
<polygon fill="none" stroke="green" points="1118.52,-208 918.511,-226 518.489,-226 318.479,-208 518.489,-190 918.511,-190 1118.52,-208"/>
<text text-anchor="middle" x="718.5" y="-204.3" font-family="Times New Roman,serif" font-size="14.00">typeGraphToExtendedJamoppJavaContainer : ExtendedJamoppJavaContainerToTypeGraph</text>
</g>
<!-- typeGraph : TypeGraph -->
<g id="node2" class="node"><title>typeGraph : TypeGraph</title>
<polygon fill="none" stroke="green" points="433,-95.5 433,-141.5 584,-141.5 584,-95.5 433,-95.5"/>
<text text-anchor="middle" x="508.5" y="-126.3" font-family="Times New Roman,serif" font-size="14.00">typeGraph : TypeGraph</text>
<polyline fill="none" stroke="green" points="433,-118.5 584,-118.5 "/>
<text text-anchor="middle" x="508.5" y="-103.3" font-family="Times New Roman,serif" font-size="14.00"> </text>
</g>
<!-- typeGraphToExtendedJamoppJavaContainer : ExtendedJamoppJavaContainerToTypeGraph&#45;&gt;typeGraph : TypeGraph -->
<g id="edge1" class="edge"><title>typeGraphToExtendedJamoppJavaContainer : ExtendedJamoppJavaContainerToTypeGraph&#45;&gt;typeGraph : TypeGraph</title>
<path fill="none" stroke="green" d="M677.511,-189.921C647.18,-177.283 605.325,-159.844 570.856,-145.482"/>
<polygon fill="green" stroke="green" points="571.923,-142.134 561.346,-141.519 569.23,-148.596 571.923,-142.134"/>
<text text-anchor="middle" x="645.5" y="-163.2" font-family="Times New Roman,serif" font-size="11.00">target</text>
</g>
<!-- extendedJamoppJavaContainer : ExtendedJamoppJavaContainer -->
<g id="node3" class="node"><title>extendedJamoppJavaContainer : ExtendedJamoppJavaContainer</title>
<polygon fill="none" stroke="green" points="602.5,-95.5 602.5,-141.5 976.5,-141.5 976.5,-95.5 602.5,-95.5"/>
<text text-anchor="middle" x="789.5" y="-126.3" font-family="Times New Roman,serif" font-size="14.00">extendedJamoppJavaContainer : ExtendedJamoppJavaContainer</text>
<polyline fill="none" stroke="green" points="602.5,-118.5 976.5,-118.5 "/>
<text text-anchor="middle" x="789.5" y="-103.3" font-family="Times New Roman,serif" font-size="14.00"> </text>
</g>
<!-- typeGraphToExtendedJamoppJavaContainer : ExtendedJamoppJavaContainerToTypeGraph&#45;&gt;extendedJamoppJavaContainer : ExtendedJamoppJavaContainer -->
<g id="edge2" class="edge"><title>typeGraphToExtendedJamoppJavaContainer : ExtendedJamoppJavaContainerToTypeGraph&#45;&gt;extendedJamoppJavaContainer : ExtendedJamoppJavaContainer</title>
<path fill="none" stroke="green" d="M732.527,-189.713C741.764,-178.329 754.108,-163.117 764.944,-149.763"/>
<polygon fill="green" stroke="green" points="767.871,-151.71 771.455,-141.739 762.436,-147.299 767.871,-151.71"/>
<text text-anchor="middle" x="771.5" y="-163.2" font-family="Times New Roman,serif" font-size="11.00">source</text>
</g>
<!-- tChar : TClass -->
<g id="node4" class="node"><title>tChar : TClass</title>
<polygon fill="none" stroke="green" points="0,-0.5 0,-46.5 107,-46.5 107,-0.5 0,-0.5"/>
<text text-anchor="middle" x="53.5" y="-31.3" font-family="Times New Roman,serif" font-size="14.00">tChar : TClass</text>
<polyline fill="none" stroke="green" points="0,-23.5 107,-23.5 "/>
<text text-anchor="middle" x="53.5" y="-8.3" font-family="Times New Roman,serif" font-size="14.00">tName := &quot;char&quot;</text>
</g>
<!-- typeGraph : TypeGraph&#45;&gt;tChar : TClass -->
<g id="edge7" class="edge"><title>typeGraph : TypeGraph&#45;&gt;tChar : TClass</title>
<path fill="none" stroke="green" d="M432.977,-108.139C355.432,-97.5862 231.361,-78.0869 117.068,-47.2634"/>
<polygon fill="green" stroke="green" points="117.67,-43.7996 107.101,-44.5394 115.824,-50.552 117.67,-43.7996"/>
<text text-anchor="middle" x="260.5" y="-68.2" font-family="Times New Roman,serif" font-size="11.00">classes</text>
</g>
<!-- tByte : TClass -->
<g id="node5" class="node"><title>tByte : TClass</title>
<polygon fill="none" stroke="green" points="125,-0.5 125,-46.5 232,-46.5 232,-0.5 125,-0.5"/>
<text text-anchor="middle" x="178.5" y="-31.3" font-family="Times New Roman,serif" font-size="14.00">tByte : TClass</text>
<polyline fill="none" stroke="green" points="125,-23.5 232,-23.5 "/>
<text text-anchor="middle" x="178.5" y="-8.3" font-family="Times New Roman,serif" font-size="14.00">tName := &quot;byte&quot;</text>
</g>
<!-- typeGraph : TypeGraph&#45;&gt;tByte : TClass -->
<g id="edge5" class="edge"><title>typeGraph : TypeGraph&#45;&gt;tByte : TClass</title>
<path fill="none" stroke="green" d="M432.92,-99.3621C381.602,-86.625 312.077,-68.5497 241.915,-47.0207"/>
<polygon fill="green" stroke="green" points="242.6,-43.5692 232.012,-43.9602 240.533,-50.257 242.6,-43.5692"/>
<text text-anchor="middle" x="360.5" y="-68.2" font-family="Times New Roman,serif" font-size="11.00">classes</text>
</g>
<!-- tFloat : TClass -->
<g id="node6" class="node"><title>tFloat : TClass</title>
<polygon fill="none" stroke="green" points="250.5,-0.5 250.5,-46.5 358.5,-46.5 358.5,-0.5 250.5,-0.5"/>
<text text-anchor="middle" x="304.5" y="-31.3" font-family="Times New Roman,serif" font-size="14.00">tFloat : TClass</text>
<polyline fill="none" stroke="green" points="250.5,-23.5 358.5,-23.5 "/>
<text text-anchor="middle" x="304.5" y="-8.3" font-family="Times New Roman,serif" font-size="14.00">tName := &quot;float&quot;</text>
</g>
<!-- typeGraph : TypeGraph&#45;&gt;tFloat : TClass -->
<g id="edge8" class="edge"><title>typeGraph : TypeGraph&#45;&gt;tFloat : TClass</title>
<path fill="none" stroke="green" d="M460.155,-95.4603C430.791,-82.0739 393.134,-64.9066 362.214,-50.8108"/>
<polygon fill="green" stroke="green" points="363.402,-47.5059 352.851,-46.5425 360.498,-53.8753 363.402,-47.5059"/>
<text text-anchor="middle" x="435.5" y="-68.2" font-family="Times New Roman,serif" font-size="11.00">classes</text>
</g>
<!-- tDouble : TClass -->
<g id="node7" class="node"><title>tDouble : TClass</title>
<polygon fill="none" stroke="green" points="376.5,-0.5 376.5,-46.5 498.5,-46.5 498.5,-0.5 376.5,-0.5"/>
<text text-anchor="middle" x="437.5" y="-31.3" font-family="Times New Roman,serif" font-size="14.00">tDouble : TClass</text>
<polyline fill="none" stroke="green" points="376.5,-23.5 498.5,-23.5 "/>
<text text-anchor="middle" x="437.5" y="-8.3" font-family="Times New Roman,serif" font-size="14.00">tName := &quot;double&quot;</text>
</g>
<!-- typeGraph : TypeGraph&#45;&gt;tDouble : TClass -->
<g id="edge4" class="edge"><title>typeGraph : TypeGraph&#45;&gt;tDouble : TClass</title>
<path fill="none" stroke="green" d="M491.674,-95.4603C482.369,-83.2723 470.672,-67.9502 460.53,-54.6657"/>
<polygon fill="green" stroke="green" points="463.301,-52.5284 454.451,-46.7038 457.738,-56.7761 463.301,-52.5284"/>
<text text-anchor="middle" x="493.5" y="-68.2" font-family="Times New Roman,serif" font-size="11.00">classes</text>
</g>
<!-- tBoolean : TClass -->
<g id="node8" class="node"><title>tBoolean : TClass</title>
<polygon fill="none" stroke="green" points="516.5,-0.5 516.5,-46.5 644.5,-46.5 644.5,-0.5 516.5,-0.5"/>
<text text-anchor="middle" x="580.5" y="-31.3" font-family="Times New Roman,serif" font-size="14.00">tBoolean : TClass</text>
<polyline fill="none" stroke="green" points="516.5,-23.5 644.5,-23.5 "/>
<text text-anchor="middle" x="580.5" y="-8.3" font-family="Times New Roman,serif" font-size="14.00">tName := &quot;boolean&quot;</text>
</g>
<!-- typeGraph : TypeGraph&#45;&gt;tBoolean : TClass -->
<g id="edge3" class="edge"><title>typeGraph : TypeGraph&#45;&gt;tBoolean : TClass</title>
<path fill="none" stroke="green" d="M525.563,-95.4603C534.999,-83.2723 546.861,-67.9502 557.146,-54.6657"/>
<polygon fill="green" stroke="green" points="559.956,-56.7537 563.31,-46.7038 554.421,-52.4684 559.956,-56.7537"/>
<text text-anchor="middle" x="565.5" y="-68.2" font-family="Times New Roman,serif" font-size="11.00">classes</text>
</g>
<!-- tLong : TClass -->
<g id="node9" class="node"><title>tLong : TClass</title>
<polygon fill="none" stroke="green" points="663,-0.5 663,-46.5 770,-46.5 770,-0.5 663,-0.5"/>
<text text-anchor="middle" x="716.5" y="-31.3" font-family="Times New Roman,serif" font-size="14.00">tLong : TClass</text>
<polyline fill="none" stroke="green" points="663,-23.5 770,-23.5 "/>
<text text-anchor="middle" x="716.5" y="-8.3" font-family="Times New Roman,serif" font-size="14.00">tName := &quot;long&quot;</text>
</g>
<!-- typeGraph : TypeGraph&#45;&gt;tLong : TClass -->
<g id="edge6" class="edge"><title>typeGraph : TypeGraph&#45;&gt;tLong : TClass</title>
<path fill="none" stroke="green" d="M557.793,-95.4603C587.862,-82.0162 626.459,-64.7585 658.062,-50.6287"/>
<polygon fill="green" stroke="green" points="659.5,-53.8194 667.201,-46.5425 656.643,-47.4291 659.5,-53.8194"/>
<text text-anchor="middle" x="641.5" y="-68.2" font-family="Times New Roman,serif" font-size="11.00">classes</text>
</g>
<!-- tInt : TClass -->
<g id="node10" class="node"><title>tInt : TClass</title>
<polygon fill="none" stroke="green" points="788,-0.5 788,-46.5 885,-46.5 885,-0.5 788,-0.5"/>
<text text-anchor="middle" x="836.5" y="-31.3" font-family="Times New Roman,serif" font-size="14.00">tInt : TClass</text>
<polyline fill="none" stroke="green" points="788,-23.5 885,-23.5 "/>
<text text-anchor="middle" x="836.5" y="-8.3" font-family="Times New Roman,serif" font-size="14.00">tName := &quot;int&quot;</text>
</g>
<!-- typeGraph : TypeGraph&#45;&gt;tInt : TClass -->
<g id="edge9" class="edge"><title>typeGraph : TypeGraph&#45;&gt;tInt : TClass</title>
<path fill="none" stroke="green" d="M584.039,-97.4839C587.235,-96.6435 590.399,-95.8127 593.5,-95 672.701,-74.243 695.988,-73.1277 778.391,-46.8804"/>
<polygon fill="green" stroke="green" points="779.463,-50.212 787.913,-43.8203 777.322,-43.5477 779.463,-50.212"/>
<text text-anchor="middle" x="731.5" y="-68.2" font-family="Times New Roman,serif" font-size="11.00">classes</text>
</g>
<!-- tShort : TClass -->
<g id="node11" class="node"><title>tShort : TClass</title>
<polygon fill="none" stroke="green" points="903.5,-0.5 903.5,-46.5 1015.5,-46.5 1015.5,-0.5 903.5,-0.5"/>
<text text-anchor="middle" x="959.5" y="-31.3" font-family="Times New Roman,serif" font-size="14.00">tShort : TClass</text>
<polyline fill="none" stroke="green" points="903.5,-23.5 1015.5,-23.5 "/>
<text text-anchor="middle" x="959.5" y="-8.3" font-family="Times New Roman,serif" font-size="14.00">tName := &quot;short&quot;</text>
</g>
<!-- typeGraph : TypeGraph&#45;&gt;tShort : TClass -->
<g id="edge10" class="edge"><title>typeGraph : TypeGraph&#45;&gt;tShort : TClass</title>
<path fill="none" stroke="green" d="M584.375,-96.8308C587.449,-96.1789 590.5,-95.5649 593.5,-95 662.956,-81.9227 681.736,-88.3173 751.5,-77 815.172,-66.6711 831.305,-64.1045 893.5,-47 893.602,-46.9719 893.704,-46.9438 893.807,-46.9155"/>
<polygon fill="green" stroke="green" points="894.844,-50.2591 903.473,-44.1125 892.894,-43.536 894.844,-50.2591"/>
<text text-anchor="middle" x="837.5" y="-68.2" font-family="Times New Roman,serif" font-size="11.00">classes</text>
</g>
</g>
</svg>
