<?xml version="1.0" encoding="UTF-8" standalone="no"?>
<!DOCTYPE svg PUBLIC "-//W3C//DTD SVG 1.1//EN"
 "http://www.w3.org/Graphics/SVG/1.1/DTD/svg11.dtd">
<!-- Generated by graphviz version 2.38.0 (20140413.2041)
 -->
<!-- Title: ReturnPrimitiveByte Pages: 1 -->
<svg width="923pt" height="340pt"
 viewBox="0.00 0.00 923.00 340.00" xmlns="http://www.w3.org/2000/svg" xmlns:xlink="http://www.w3.org/1999/xlink">
<g id="graph0" class="graph" transform="scale(1 1) rotate(0) translate(4 336)">
<title>ReturnPrimitiveByte</title>
<polygon fill="white" stroke="none" points="-4,4 -4,-336 919,-336 919,4 -4,4"/>
<!-- jMethodToTMethoddefinition : ClassMethodToTMethodDefinition -->
<g id="node1" class="node"><title>jMethodToTMethoddefinition : ClassMethodToTMethodDefinition</title>
<polygon fill="none" stroke="black" points="629.383,-213.5 482.192,-231.5 187.808,-231.5 40.6167,-213.5 187.808,-195.5 482.192,-195.5 629.383,-213.5"/>
<text text-anchor="middle" x="335" y="-209.8" font-family="Times New Roman,serif" font-size="14.00">jMethodToTMethoddefinition : ClassMethodToTMethodDefinition</text>
</g>
<!-- jMethod : ClassMethod -->
<g id="node4" class="node"><title>jMethod : ClassMethod</title>
<polygon fill="none" stroke="black" points="0,-95.5 0,-141.5 148,-141.5 148,-95.5 0,-95.5"/>
<text text-anchor="middle" x="74" y="-126.3" font-family="Times New Roman,serif" font-size="14.00">jMethod : ClassMethod</text>
<polyline fill="none" stroke="black" points="0,-118.5 148,-118.5 "/>
<text text-anchor="middle" x="74" y="-103.3" font-family="Times New Roman,serif" font-size="14.00"> </text>
</g>
<!-- jMethodToTMethoddefinition : ClassMethodToTMethodDefinition&#45;&gt;jMethod : ClassMethod -->
<g id="edge2" class="edge"><title>jMethodToTMethoddefinition : ClassMethodToTMethodDefinition&#45;&gt;jMethod : ClassMethod</title>
<path fill="none" stroke="black" d="M287.129,-195.442C247.422,-181.294 190.379,-160.968 145.297,-144.905"/>
<polygon fill="black" stroke="black" points="146.464,-141.605 135.869,-141.545 144.114,-148.199 146.464,-141.605"/>
<text text-anchor="middle" x="236" y="-163.2" font-family="Times New Roman,serif" font-size="11.00">source</text>
</g>
<!-- tMethoddefinition : TMethodDefinition -->
<g id="node5" class="node"><title>tMethoddefinition : TMethodDefinition</title>
<polygon fill="none" stroke="black" points="623.5,-95.5 623.5,-141.5 856.5,-141.5 856.5,-95.5 623.5,-95.5"/>
<text text-anchor="middle" x="740" y="-126.3" font-family="Times New Roman,serif" font-size="14.00">tMethoddefinition : TMethodDefinition</text>
<polyline fill="none" stroke="black" points="623.5,-118.5 856.5,-118.5 "/>
<text text-anchor="middle" x="740" y="-103.3" font-family="Times New Roman,serif" font-size="14.00"> </text>
</g>
<!-- jMethodToTMethoddefinition : ClassMethodToTMethodDefinition&#45;&gt;tMethoddefinition : TMethodDefinition -->
<g id="edge3" class="edge"><title>jMethodToTMethoddefinition : ClassMethodToTMethodDefinition&#45;&gt;tMethoddefinition : TMethodDefinition</title>
<path fill="none" stroke="black" d="M409.283,-195.442C472.314,-180.969 563.501,-160.03 634.167,-143.802"/>
<polygon fill="black" stroke="black" points="635.034,-147.195 643.997,-141.545 633.467,-140.372 635.034,-147.195"/>
<text text-anchor="middle" x="575" y="-163.2" font-family="Times New Roman,serif" font-size="11.00">target</text>
</g>
<!-- jPrimitiveTypeToTPrimitiveType : ByteToTClass -->
<g id="node2" class="node"><title>jPrimitiveTypeToTPrimitiveType : ByteToTClass</title>
<polygon fill="none" stroke="green" points="605.786,-118.5 495.893,-136.5 276.107,-136.5 166.214,-118.5 276.107,-100.5 495.893,-100.5 605.786,-118.5"/>
<text text-anchor="middle" x="386" y="-114.8" font-family="Times New Roman,serif" font-size="14.00">jPrimitiveTypeToTPrimitiveType : ByteToTClass</text>
</g>
<!-- tPrimitiveType : TClass -->
<g id="node3" class="node"><title>tPrimitiveType : TClass</title>
<polygon fill="none" stroke="black" points="665.5,-0.5 665.5,-46.5 814.5,-46.5 814.5,-0.5 665.5,-0.5"/>
<text text-anchor="middle" x="740" y="-31.3" font-family="Times New Roman,serif" font-size="14.00">tPrimitiveType : TClass</text>
<polyline fill="none" stroke="black" points="665.5,-23.5 814.5,-23.5 "/>
<text text-anchor="middle" x="740" y="-8.3" font-family="Times New Roman,serif" font-size="14.00">tName == &quot;byte&quot;</text>
</g>
<!-- jPrimitiveTypeToTPrimitiveType : ByteToTClass&#45;&gt;tPrimitiveType : TClass -->
<g id="edge1" class="edge"><title>jPrimitiveTypeToTPrimitiveType : ByteToTClass&#45;&gt;tPrimitiveType : TClass</title>
<path fill="none" stroke="green" d="M450.929,-100.442C508.432,-85.3356 592.744,-63.1858 655.491,-46.7016"/>
<polygon fill="green" stroke="green" points="656.586,-50.0327 665.368,-44.1066 654.807,-43.2624 656.586,-50.0327"/>
<text text-anchor="middle" x="598" y="-68.2" font-family="Times New Roman,serif" font-size="11.00">target</text>
</g>
<!-- jPrimitiveType : Byte -->
<g id="node6" class="node"><title>jPrimitiveType : Byte</title>
<polygon fill="none" stroke="green" points="107,-0.5 107,-46.5 241,-46.5 241,-0.5 107,-0.5"/>
<text text-anchor="middle" x="174" y="-31.3" font-family="Times New Roman,serif" font-size="14.00">jPrimitiveType : Byte</text>
<polyline fill="none" stroke="green" points="107,-23.5 241,-23.5 "/>
<text text-anchor="middle" x="174" y="-8.3" font-family="Times New Roman,serif" font-size="14.00"> </text>
</g>
<!-- jPrimitiveTypeToTPrimitiveType : ByteToTClass&#45;&gt;jPrimitiveType : Byte -->
<g id="edge4" class="edge"><title>jPrimitiveTypeToTPrimitiveType : ByteToTClass&#45;&gt;jPrimitiveType : Byte</title>
<path fill="none" stroke="green" d="M347.116,-100.442C315.404,-86.5309 270.077,-66.6469 233.758,-50.7147"/>
<polygon fill="green" stroke="green" points="234.817,-47.3574 224.254,-46.5452 232.005,-53.7677 234.817,-47.3574"/>
<text text-anchor="middle" x="308" y="-68.2" font-family="Times New Roman,serif" font-size="11.00">source</text>
</g>
<!-- jMethod : ClassMethod&#45;&gt;jPrimitiveType : Byte -->
<g id="edge5" class="edge"><title>jMethod : ClassMethod&#45;&gt;jPrimitiveType : Byte</title>
<path fill="none" stroke="green" d="M97.6986,-95.4603C111.175,-82.9274 128.215,-67.0804 142.771,-53.5428"/>
<polygon fill="green" stroke="green" points="145.186,-56.0769 150.125,-46.7038 140.419,-50.951 145.186,-56.0769"/>
<text text-anchor="middle" x="163" y="-68.2" font-family="Times New Roman,serif" font-size="11.00">typeReference</text>
</g>
<!-- tMethoddefinition : TMethodDefinition&#45;&gt;tPrimitiveType : TClass -->
<g id="edge6" class="edge"><title>tMethoddefinition : TMethodDefinition&#45;&gt;tPrimitiveType : TClass</title>
<path fill="none" stroke="green" d="M740,-95.4603C740,-83.9622 740,-69.6748 740,-56.9402"/>
<polygon fill="green" stroke="green" points="743.5,-56.7038 740,-46.7038 736.5,-56.7038 743.5,-56.7038"/>
<text text-anchor="middle" x="764.5" y="-68.2" font-family="Times New Roman,serif" font-size="11.00">returnType</text>
</g>
<!-- pg : TypeGraph -->
<g id="node7" class="node"><title>pg : TypeGraph</title>
<polygon fill="none" stroke="black" points="796,-285.5 796,-331.5 902,-331.5 902,-285.5 796,-285.5"/>
<text text-anchor="middle" x="849" y="-316.3" font-family="Times New Roman,serif" font-size="14.00">pg : TypeGraph</text>
<polyline fill="none" stroke="black" points="796,-308.5 902,-308.5 "/>
<text text-anchor="middle" x="849" y="-293.3" font-family="Times New Roman,serif" font-size="14.00"> </text>
</g>
<!-- pg : TypeGraph&#45;&gt;tPrimitiveType : TClass -->
<g id="edge7" class="edge"><title>pg : TypeGraph&#45;&gt;tPrimitiveType : TClass</title>
<path fill="none" stroke="black" d="M858.521,-285.472C874.552,-244.718 901.85,-156.139 866,-95 854.84,-75.9674 836.459,-61.6883 817.142,-51.144"/>
<polygon fill="black" stroke="black" points="818.716,-48.0183 808.223,-46.5584 815.516,-54.2437 818.716,-48.0183"/>
<text text-anchor="middle" x="899" y="-163.2" font-family="Times New Roman,serif" font-size="11.00">classes</text>
</g>
<!-- tClass : TClass -->
<g id="node8" class="node"><title>tClass : TClass</title>
<polygon fill="none" stroke="black" points="739.5,-190.5 739.5,-236.5 840.5,-236.5 840.5,-190.5 739.5,-190.5"/>
<text text-anchor="middle" x="790" y="-221.3" font-family="Times New Roman,serif" font-size="14.00">tClass : TClass</text>
<polyline fill="none" stroke="black" points="739.5,-213.5 840.5,-213.5 "/>
<text text-anchor="middle" x="790" y="-198.3" font-family="Times New Roman,serif" font-size="14.00"> </text>
</g>
<!-- pg : TypeGraph&#45;&gt;tClass : TClass -->
<g id="edge8" class="edge"><title>pg : TypeGraph&#45;&gt;tClass : TClass</title>
<path fill="none" stroke="black" d="M835.018,-285.46C827.432,-273.502 817.931,-258.527 809.616,-245.42"/>
<polygon fill="black" stroke="black" points="812.399,-243.273 804.086,-236.704 806.488,-247.023 812.399,-243.273"/>
<text text-anchor="middle" x="840" y="-258.2" font-family="Times New Roman,serif" font-size="11.00">classes</text>
</g>
<!-- tClass : TClass&#45;&gt;tMethoddefinition : TMethodDefinition -->
<g id="edge9" class="edge"><title>tClass : TClass&#45;&gt;tMethoddefinition : TMethodDefinition</title>
<path fill="none" stroke="black" d="M778.151,-190.46C771.783,-178.617 763.825,-163.815 756.827,-150.798"/>
<polygon fill="black" stroke="black" points="759.756,-148.854 751.938,-141.704 753.59,-152.169 759.756,-148.854"/>
<text text-anchor="middle" x="784" y="-163.2" font-family="Times New Roman,serif" font-size="11.00">defines</text>
</g>
</g>
</svg>
