<?xml version="1.0" encoding="UTF-8" standalone="no"?>
<!DOCTYPE svg PUBLIC "-//W3C//DTD SVG 1.1//EN"
 "http://www.w3.org/Graphics/SVG/1.1/DTD/svg11.dtd">
<!-- Generated by graphviz version 2.38.0 (20140413.2041)
 -->
<!-- Title: ReturnPrimitiveBoolean Pages: 1 -->
<svg width="955pt" height="340pt"
 viewBox="0.00 0.00 955.00 340.00" xmlns="http://www.w3.org/2000/svg" xmlns:xlink="http://www.w3.org/1999/xlink">
<g id="graph0" class="graph" transform="scale(1 1) rotate(0) translate(4 336)">
<title>ReturnPrimitiveBoolean</title>
<polygon fill="white" stroke="none" points="-4,4 -4,-336 951,-336 951,4 -4,4"/>
<!-- jPrimitiveTypeToTPrimitiveType : BooleanToTClass -->
<g id="node1" class="node"><title>jPrimitiveTypeToTPrimitiveType : BooleanToTClass</title>
<polygon fill="none" stroke="green" points="637.807,-118.5 519.904,-136.5 284.096,-136.5 166.193,-118.5 284.096,-100.5 519.904,-100.5 637.807,-118.5"/>
<text text-anchor="middle" x="402" y="-114.8" font-family="Times New Roman,serif" font-size="14.00">jPrimitiveTypeToTPrimitiveType : BooleanToTClass</text>
</g>
<!-- tPrimitiveType : TClass -->
<g id="node3" class="node"><title>tPrimitiveType : TClass</title>
<polygon fill="none" stroke="black" points="697.5,-0.5 697.5,-46.5 846.5,-46.5 846.5,-0.5 697.5,-0.5"/>
<text text-anchor="middle" x="772" y="-31.3" font-family="Times New Roman,serif" font-size="14.00">tPrimitiveType : TClass</text>
<polyline fill="none" stroke="black" points="697.5,-23.5 846.5,-23.5 "/>
<text text-anchor="middle" x="772" y="-8.3" font-family="Times New Roman,serif" font-size="14.00">tName == &quot;boolean&quot;</text>
</g>
<!-- jPrimitiveTypeToTPrimitiveType : BooleanToTClass&#45;&gt;tPrimitiveType : TClass -->
<g id="edge1" class="edge"><title>jPrimitiveTypeToTPrimitiveType : BooleanToTClass&#45;&gt;tPrimitiveType : TClass</title>
<path fill="none" stroke="green" d="M469.864,-100.442C531.082,-85.0551 621.371,-62.3609 687.3,-45.7894"/>
<polygon fill="green" stroke="green" points="688.409,-49.1198 697.254,-43.2876 686.702,-42.3309 688.409,-49.1198"/>
<text text-anchor="middle" x="623" y="-68.2" font-family="Times New Roman,serif" font-size="11.00">target</text>
</g>
<!-- jPrimitiveType : Boolean -->
<g id="node6" class="node"><title>jPrimitiveType : Boolean</title>
<polygon fill="none" stroke="green" points="101,-0.5 101,-46.5 255,-46.5 255,-0.5 101,-0.5"/>
<text text-anchor="middle" x="178" y="-31.3" font-family="Times New Roman,serif" font-size="14.00">jPrimitiveType : Boolean</text>
<polyline fill="none" stroke="green" points="101,-23.5 255,-23.5 "/>
<text text-anchor="middle" x="178" y="-8.3" font-family="Times New Roman,serif" font-size="14.00"> </text>
</g>
<!-- jPrimitiveTypeToTPrimitiveType : BooleanToTClass&#45;&gt;jPrimitiveType : Boolean -->
<g id="edge4" class="edge"><title>jPrimitiveTypeToTPrimitiveType : BooleanToTClass&#45;&gt;jPrimitiveType : Boolean</title>
<path fill="none" stroke="green" d="M360.915,-100.442C327.265,-86.4717 279.107,-66.4776 240.651,-50.5115"/>
<polygon fill="green" stroke="green" points="241.676,-47.1472 231.098,-46.5452 238.992,-53.6122 241.676,-47.1472"/>
<text text-anchor="middle" x="319" y="-68.2" font-family="Times New Roman,serif" font-size="11.00">source</text>
</g>
<!-- jMethodToTMethoddefinition : ClassMethodToTMethodDefinition -->
<g id="node2" class="node"><title>jMethodToTMethoddefinition : ClassMethodToTMethodDefinition</title>
<polygon fill="none" stroke="black" points="653.383,-213.5 506.192,-231.5 211.808,-231.5 64.6167,-213.5 211.808,-195.5 506.192,-195.5 653.383,-213.5"/>
<text text-anchor="middle" x="359" y="-209.8" font-family="Times New Roman,serif" font-size="14.00">jMethodToTMethoddefinition : ClassMethodToTMethodDefinition</text>
</g>
<!-- tMethoddefinition : TMethodDefinition -->
<g id="node4" class="node"><title>tMethoddefinition : TMethodDefinition</title>
<polygon fill="none" stroke="black" points="655.5,-95.5 655.5,-141.5 888.5,-141.5 888.5,-95.5 655.5,-95.5"/>
<text text-anchor="middle" x="772" y="-126.3" font-family="Times New Roman,serif" font-size="14.00">tMethoddefinition : TMethodDefinition</text>
<polyline fill="none" stroke="black" points="655.5,-118.5 888.5,-118.5 "/>
<text text-anchor="middle" x="772" y="-103.3" font-family="Times New Roman,serif" font-size="14.00"> </text>
</g>
<!-- jMethodToTMethoddefinition : ClassMethodToTMethodDefinition&#45;&gt;tMethoddefinition : TMethodDefinition -->
<g id="edge2" class="edge"><title>jMethodToTMethoddefinition : ClassMethodToTMethodDefinition&#45;&gt;tMethoddefinition : TMethodDefinition</title>
<path fill="none" stroke="black" d="M434.751,-195.442C499.027,-180.969 592.014,-160.03 664.076,-143.802"/>
<polygon fill="black" stroke="black" points="665.113,-147.157 674.1,-141.545 663.576,-140.328 665.113,-147.157"/>
<text text-anchor="middle" x="604" y="-163.2" font-family="Times New Roman,serif" font-size="11.00">target</text>
</g>
<!-- jMethod : ClassMethod -->
<g id="node5" class="node"><title>jMethod : ClassMethod</title>
<polygon fill="none" stroke="black" points="0,-95.5 0,-141.5 148,-141.5 148,-95.5 0,-95.5"/>
<text text-anchor="middle" x="74" y="-126.3" font-family="Times New Roman,serif" font-size="14.00">jMethod : ClassMethod</text>
<polyline fill="none" stroke="black" points="0,-118.5 148,-118.5 "/>
<text text-anchor="middle" x="74" y="-103.3" font-family="Times New Roman,serif" font-size="14.00"> </text>
</g>
<!-- jMethodToTMethoddefinition : ClassMethodToTMethodDefinition&#45;&gt;jMethod : ClassMethod -->
<g id="edge3" class="edge"><title>jMethodToTMethoddefinition : ClassMethodToTMethodDefinition&#45;&gt;jMethod : ClassMethod</title>
<path fill="none" stroke="black" d="M306.727,-195.442C263.188,-181.235 200.559,-160.798 151.236,-144.703"/>
<polygon fill="black" stroke="black" points="152.15,-141.32 141.558,-141.545 149.979,-147.975 152.15,-141.32"/>
<text text-anchor="middle" x="249" y="-163.2" font-family="Times New Roman,serif" font-size="11.00">source</text>
</g>
<!-- tMethoddefinition : TMethodDefinition&#45;&gt;tPrimitiveType : TClass -->
<g id="edge6" class="edge"><title>tMethoddefinition : TMethodDefinition&#45;&gt;tPrimitiveType : TClass</title>
<path fill="none" stroke="green" d="M772,-95.4603C772,-83.9622 772,-69.6748 772,-56.9402"/>
<polygon fill="green" stroke="green" points="775.5,-56.7038 772,-46.7038 768.5,-56.7038 775.5,-56.7038"/>
<text text-anchor="middle" x="796.5" y="-68.2" font-family="Times New Roman,serif" font-size="11.00">returnType</text>
</g>
<!-- jMethod : ClassMethod&#45;&gt;jPrimitiveType : Boolean -->
<g id="edge5" class="edge"><title>jMethod : ClassMethod&#45;&gt;jPrimitiveType : Boolean</title>
<path fill="none" stroke="green" d="M98.6465,-95.4603C112.662,-82.9274 130.383,-67.0804 145.522,-53.5428"/>
<polygon fill="green" stroke="green" points="148.049,-55.9787 153.17,-46.7038 143.383,-50.7607 148.049,-55.9787"/>
<text text-anchor="middle" x="166" y="-68.2" font-family="Times New Roman,serif" font-size="11.00">typeReference</text>
</g>
<!-- pg : TypeGraph -->
<g id="node7" class="node"><title>pg : TypeGraph</title>
<polygon fill="none" stroke="black" points="828,-285.5 828,-331.5 934,-331.5 934,-285.5 828,-285.5"/>
<text text-anchor="middle" x="881" y="-316.3" font-family="Times New Roman,serif" font-size="14.00">pg : TypeGraph</text>
<polyline fill="none" stroke="black" points="828,-308.5 934,-308.5 "/>
<text text-anchor="middle" x="881" y="-293.3" font-family="Times New Roman,serif" font-size="14.00"> </text>
</g>
<!-- pg : TypeGraph&#45;&gt;tPrimitiveType : TClass -->
<g id="edge7" class="edge"><title>pg : TypeGraph&#45;&gt;tPrimitiveType : TClass</title>
<path fill="none" stroke="black" d="M890.521,-285.472C906.552,-244.718 933.85,-156.139 898,-95 886.84,-75.9674 868.459,-61.6883 849.142,-51.144"/>
<polygon fill="black" stroke="black" points="850.716,-48.0183 840.223,-46.5584 847.516,-54.2437 850.716,-48.0183"/>
<text text-anchor="middle" x="931" y="-163.2" font-family="Times New Roman,serif" font-size="11.00">classes</text>
</g>
<!-- tClass : TClass -->
<g id="node8" class="node"><title>tClass : TClass</title>
<polygon fill="none" stroke="black" points="771.5,-190.5 771.5,-236.5 872.5,-236.5 872.5,-190.5 771.5,-190.5"/>
<text text-anchor="middle" x="822" y="-221.3" font-family="Times New Roman,serif" font-size="14.00">tClass : TClass</text>
<polyline fill="none" stroke="black" points="771.5,-213.5 872.5,-213.5 "/>
<text text-anchor="middle" x="822" y="-198.3" font-family="Times New Roman,serif" font-size="14.00"> </text>
</g>
<!-- pg : TypeGraph&#45;&gt;tClass : TClass -->
<g id="edge9" class="edge"><title>pg : TypeGraph&#45;&gt;tClass : TClass</title>
<path fill="none" stroke="black" d="M867.018,-285.46C859.432,-273.502 849.931,-258.527 841.616,-245.42"/>
<polygon fill="black" stroke="black" points="844.399,-243.273 836.086,-236.704 838.488,-247.023 844.399,-243.273"/>
<text text-anchor="middle" x="872" y="-258.2" font-family="Times New Roman,serif" font-size="11.00">classes</text>
</g>
<!-- tClass : TClass&#45;&gt;tMethoddefinition : TMethodDefinition -->
<g id="edge8" class="edge"><title>tClass : TClass&#45;&gt;tMethoddefinition : TMethodDefinition</title>
<path fill="none" stroke="black" d="M810.151,-190.46C803.783,-178.617 795.825,-163.815 788.827,-150.798"/>
<polygon fill="black" stroke="black" points="791.756,-148.854 783.938,-141.704 785.59,-152.169 791.756,-148.854"/>
<text text-anchor="middle" x="816" y="-163.2" font-family="Times New Roman,serif" font-size="11.00">defines</text>
</g>
</g>
</svg>
