<?xml version="1.0" encoding="UTF-8" standalone="no"?>
<!DOCTYPE svg PUBLIC "-//W3C//DTD SVG 1.1//EN"
 "http://www.w3.org/Graphics/SVG/1.1/DTD/svg11.dtd">
<!-- Generated by graphviz version 2.38.0 (20140413.2041)
 -->
<!-- Title: ReturnPrimitiveFloat Pages: 1 -->
<svg width="977pt" height="340pt"
 viewBox="0.00 0.00 977.19 340.00" xmlns="http://www.w3.org/2000/svg" xmlns:xlink="http://www.w3.org/1999/xlink">
<g id="graph0" class="graph" transform="scale(1 1) rotate(0) translate(4 336)">
<title>ReturnPrimitiveFloat</title>
<polygon fill="white" stroke="none" points="-4,4 -4,-336 973.192,-336 973.192,4 -4,4"/>
<!-- jMethodToTMethoddefinition : ClassMethodToTMethodDefinition -->
<g id="node1" class="node"><title>jMethodToTMethoddefinition : ClassMethodToTMethodDefinition</title>
<polygon fill="none" stroke="black" points="588.575,-213.5 441.383,-231.5 147,-231.5 -0.191718,-213.5 147,-195.5 441.383,-195.5 588.575,-213.5"/>
<text text-anchor="middle" x="294.192" y="-209.8" font-family="Times New Roman,serif" font-size="14.00">jMethodToTMethoddefinition : ClassMethodToTMethodDefinition</text>
</g>
<!-- tMethoddefinition : TMethodDefinition -->
<g id="node3" class="node"><title>tMethoddefinition : TMethodDefinition</title>
<polygon fill="none" stroke="black" points="677.692,-95.5 677.692,-141.5 910.692,-141.5 910.692,-95.5 677.692,-95.5"/>
<text text-anchor="middle" x="794.192" y="-126.3" font-family="Times New Roman,serif" font-size="14.00">tMethoddefinition : TMethodDefinition</text>
<polyline fill="none" stroke="black" points="677.692,-118.5 910.692,-118.5 "/>
<text text-anchor="middle" x="794.192" y="-103.3" font-family="Times New Roman,serif" font-size="14.00"> </text>
</g>
<!-- jMethodToTMethoddefinition : ClassMethodToTMethodDefinition&#45;&gt;tMethoddefinition : TMethodDefinition -->
<g id="edge1" class="edge"><title>jMethodToTMethoddefinition : ClassMethodToTMethodDefinition&#45;&gt;tMethoddefinition : TMethodDefinition</title>
<path fill="none" stroke="black" d="M385.608,-195.496C464.569,-180.81 579.476,-159.437 667.336,-143.095"/>
<polygon fill="black" stroke="black" points="668.179,-146.499 677.37,-141.229 666.899,-139.617 668.179,-146.499"/>
<text text-anchor="middle" x="587.192" y="-163.2" font-family="Times New Roman,serif" font-size="11.00">target</text>
</g>
<!-- jMethod : ClassMethod -->
<g id="node4" class="node"><title>jMethod : ClassMethod</title>
<polygon fill="none" stroke="black" points="49.1916,-95.5 49.1916,-141.5 197.192,-141.5 197.192,-95.5 49.1916,-95.5"/>
<text text-anchor="middle" x="123.192" y="-126.3" font-family="Times New Roman,serif" font-size="14.00">jMethod : ClassMethod</text>
<polyline fill="none" stroke="black" points="49.1916,-118.5 197.192,-118.5 "/>
<text text-anchor="middle" x="123.192" y="-103.3" font-family="Times New Roman,serif" font-size="14.00"> </text>
</g>
<!-- jMethodToTMethoddefinition : ClassMethodToTMethodDefinition&#45;&gt;jMethod : ClassMethod -->
<g id="edge2" class="edge"><title>jMethodToTMethoddefinition : ClassMethodToTMethodDefinition&#45;&gt;jMethod : ClassMethod</title>
<path fill="none" stroke="black" d="M262.828,-195.442C237.575,-181.708 201.619,-162.154 172.518,-146.327"/>
<polygon fill="black" stroke="black" points="174.183,-143.248 163.726,-141.545 170.839,-149.398 174.183,-143.248"/>
<text text-anchor="middle" x="234.192" y="-163.2" font-family="Times New Roman,serif" font-size="11.00">source</text>
</g>
<!-- jPrimitiveTypeToTprimitiveType : FloatToTClass -->
<g id="node2" class="node"><title>jPrimitiveTypeToTprimitiveType : FloatToTClass</title>
<polygon fill="none" stroke="green" points="659.481,-118.5 548.336,-136.5 326.047,-136.5 214.902,-118.5 326.047,-100.5 548.336,-100.5 659.481,-118.5"/>
<text text-anchor="middle" x="437.192" y="-114.8" font-family="Times New Roman,serif" font-size="14.00">jPrimitiveTypeToTprimitiveType : FloatToTClass</text>
</g>
<!-- tPrimitiveType : TClass -->
<g id="node5" class="node"><title>tPrimitiveType : TClass</title>
<polygon fill="none" stroke="black" points="719.692,-0.5 719.692,-46.5 868.692,-46.5 868.692,-0.5 719.692,-0.5"/>
<text text-anchor="middle" x="794.192" y="-31.3" font-family="Times New Roman,serif" font-size="14.00">tPrimitiveType : TClass</text>
<polyline fill="none" stroke="black" points="719.692,-23.5 868.692,-23.5 "/>
<text text-anchor="middle" x="794.192" y="-8.3" font-family="Times New Roman,serif" font-size="14.00">tName == &quot;float&quot;</text>
</g>
<!-- jPrimitiveTypeToTprimitiveType : FloatToTClass&#45;&gt;tPrimitiveType : TClass -->
<g id="edge3" class="edge"><title>jPrimitiveTypeToTprimitiveType : FloatToTClass&#45;&gt;tPrimitiveType : TClass</title>
<path fill="none" stroke="green" d="M502.671,-100.442C560.853,-85.2858 646.249,-63.0398 709.591,-46.5389"/>
<polygon fill="green" stroke="green" points="710.765,-49.8498 719.56,-43.9419 709.001,-43.0759 710.765,-49.8498"/>
<text text-anchor="middle" x="650.192" y="-68.2" font-family="Times New Roman,serif" font-size="11.00">target</text>
</g>
<!-- jPrimitiveType : Float -->
<g id="node6" class="node"><title>jPrimitiveType : Float</title>
<polygon fill="none" stroke="green" points="212.692,-0.5 212.692,-46.5 349.692,-46.5 349.692,-0.5 212.692,-0.5"/>
<text text-anchor="middle" x="281.192" y="-31.3" font-family="Times New Roman,serif" font-size="14.00">jPrimitiveType : Float</text>
<polyline fill="none" stroke="green" points="212.692,-23.5 349.692,-23.5 "/>
<text text-anchor="middle" x="281.192" y="-8.3" font-family="Times New Roman,serif" font-size="14.00"> </text>
</g>
<!-- jPrimitiveTypeToTprimitiveType : FloatToTClass&#45;&gt;jPrimitiveType : Float -->
<g id="edge4" class="edge"><title>jPrimitiveTypeToTprimitiveType : FloatToTClass&#45;&gt;jPrimitiveType : Float</title>
<path fill="none" stroke="green" d="M408.579,-100.442C385.74,-86.8269 353.304,-67.4903 326.879,-51.7369"/>
<polygon fill="green" stroke="green" points="328.552,-48.6596 318.171,-46.5452 324.968,-54.6722 328.552,-48.6596"/>
<text text-anchor="middle" x="384.192" y="-68.2" font-family="Times New Roman,serif" font-size="11.00">source</text>
</g>
<!-- tMethoddefinition : TMethodDefinition&#45;&gt;tPrimitiveType : TClass -->
<g id="edge7" class="edge"><title>tMethoddefinition : TMethodDefinition&#45;&gt;tPrimitiveType : TClass</title>
<path fill="none" stroke="green" d="M794.192,-95.4603C794.192,-83.9622 794.192,-69.6748 794.192,-56.9402"/>
<polygon fill="green" stroke="green" points="797.692,-56.7038 794.192,-46.7038 790.692,-56.7038 797.692,-56.7038"/>
<text text-anchor="middle" x="818.692" y="-68.2" font-family="Times New Roman,serif" font-size="11.00">returnType</text>
</g>
<!-- jMethod : ClassMethod&#45;&gt;jPrimitiveType : Float -->
<g id="edge5" class="edge"><title>jMethod : ClassMethod&#45;&gt;jPrimitiveType : Float</title>
<path fill="none" stroke="green" d="M160.635,-95.4603C182.888,-82.3624 211.29,-65.6448 234.936,-51.7264"/>
<polygon fill="green" stroke="green" points="236.901,-54.6314 243.743,-46.5425 233.35,-48.5988 236.901,-54.6314"/>
<text text-anchor="middle" x="245.192" y="-68.2" font-family="Times New Roman,serif" font-size="11.00">typeReference</text>
</g>
<!-- tClass : TClass -->
<g id="node7" class="node"><title>tClass : TClass</title>
<polygon fill="none" stroke="black" points="793.692,-190.5 793.692,-236.5 894.692,-236.5 894.692,-190.5 793.692,-190.5"/>
<text text-anchor="middle" x="844.192" y="-221.3" font-family="Times New Roman,serif" font-size="14.00">tClass : TClass</text>
<polyline fill="none" stroke="black" points="793.692,-213.5 894.692,-213.5 "/>
<text text-anchor="middle" x="844.192" y="-198.3" font-family="Times New Roman,serif" font-size="14.00"> </text>
</g>
<!-- tClass : TClass&#45;&gt;tMethoddefinition : TMethodDefinition -->
<g id="edge6" class="edge"><title>tClass : TClass&#45;&gt;tMethoddefinition : TMethodDefinition</title>
<path fill="none" stroke="black" d="M832.342,-190.46C825.975,-178.617 818.017,-163.815 811.019,-150.798"/>
<polygon fill="black" stroke="black" points="813.947,-148.854 806.129,-141.704 807.782,-152.169 813.947,-148.854"/>
<text text-anchor="middle" x="838.192" y="-163.2" font-family="Times New Roman,serif" font-size="11.00">defines</text>
</g>
<!-- pg : TypeGraph -->
<g id="node8" class="node"><title>pg : TypeGraph</title>
<polygon fill="none" stroke="black" points="850.192,-285.5 850.192,-331.5 956.192,-331.5 956.192,-285.5 850.192,-285.5"/>
<text text-anchor="middle" x="903.192" y="-316.3" font-family="Times New Roman,serif" font-size="14.00">pg : TypeGraph</text>
<polyline fill="none" stroke="black" points="850.192,-308.5 956.192,-308.5 "/>
<text text-anchor="middle" x="903.192" y="-293.3" font-family="Times New Roman,serif" font-size="14.00"> </text>
</g>
<!-- pg : TypeGraph&#45;&gt;tPrimitiveType : TClass -->
<g id="edge9" class="edge"><title>pg : TypeGraph&#45;&gt;tPrimitiveType : TClass</title>
<path fill="none" stroke="black" d="M912.532,-285.48C928.244,-244.737 954.925,-156.178 919.192,-95 908.077,-75.9702 889.719,-61.6741 870.452,-51.1125"/>
<polygon fill="black" stroke="black" points="872.049,-47.9981 861.558,-46.5191 868.837,-54.2176 872.049,-47.9981"/>
<text text-anchor="middle" x="953.192" y="-163.2" font-family="Times New Roman,serif" font-size="11.00">classes</text>
</g>
<!-- pg : TypeGraph&#45;&gt;tClass : TClass -->
<g id="edge8" class="edge"><title>pg : TypeGraph&#45;&gt;tClass : TClass</title>
<path fill="none" stroke="black" d="M889.209,-285.46C881.623,-273.502 872.123,-258.527 863.807,-245.42"/>
<polygon fill="black" stroke="black" points="866.59,-243.273 858.278,-236.704 860.679,-247.023 866.59,-243.273"/>
<text text-anchor="middle" x="894.192" y="-258.2" font-family="Times New Roman,serif" font-size="11.00">classes</text>
</g>
</g>
</svg>
