<?xml version="1.0" encoding="UTF-8" standalone="no"?>
<!DOCTYPE svg PUBLIC "-//W3C//DTD SVG 1.1//EN"
 "http://www.w3.org/Graphics/SVG/1.1/DTD/svg11.dtd">
<!-- Generated by graphviz version 2.38.0 (20140413.2041)
 -->
<!-- Title: ReturnTypeCreateRule Pages: 1 -->
<svg width="1239pt" height="568pt"
 viewBox="0.00 0.00 1238.85 568.00" xmlns="http://www.w3.org/2000/svg" xmlns:xlink="http://www.w3.org/1999/xlink">
<g id="graph0" class="graph" transform="scale(1 1) rotate(0) translate(4 564)">
<title>ReturnTypeCreateRule</title>
<polygon fill="white" stroke="none" points="-4,4 -4,-564 1234.85,-564 1234.85,4 -4,4"/>
<text text-anchor="middle" x="615.424" y="-22.8" font-family="Times New Roman,serif" font-size="14.00">_____________________________</text>
<text text-anchor="middle" x="615.424" y="-7.8" font-family="Times New Roman,serif" font-size="14.00"> eq(jType.name,tType.tName)</text>
<!-- jTypeToTType : ClassToTClass -->
<g id="node1" class="node"><title>jTypeToTType : ClassToTClass</title>
<polygon fill="none" stroke="green" points="301.545,-346.5 226.197,-364.5 75.4999,-364.5 0.151607,-346.5 75.4999,-328.5 226.197,-328.5 301.545,-346.5"/>
<text text-anchor="middle" x="150.848" y="-342.8" font-family="Times New Roman,serif" font-size="14.00">jTypeToTType : ClassToTClass</text>
</g>
<!-- jType : Class -->
<g id="node3" class="node"><title>jType : Class</title>
<polygon fill="none" stroke="black" points="218.848,-38.5 218.848,-84.5 308.848,-84.5 308.848,-38.5 218.848,-38.5"/>
<text text-anchor="middle" x="263.848" y="-69.3" font-family="Times New Roman,serif" font-size="14.00">jType : Class</text>
<polyline fill="none" stroke="black" points="218.848,-61.5 308.848,-61.5 "/>
<text text-anchor="middle" x="263.848" y="-46.3" font-family="Times New Roman,serif" font-size="14.00"> </text>
</g>
<!-- jTypeToTType : ClassToTClass&#45;&gt;jType : Class -->
<g id="edge1" class="edge"><title>jTypeToTType : ClassToTClass&#45;&gt;jType : Class</title>
<path fill="none" stroke="green" d="M157.747,-328.223C176.266,-281.842 227.284,-154.073 251.184,-94.2161"/>
<polygon fill="green" stroke="green" points="254.456,-95.4614 254.913,-84.8764 247.955,-92.8656 254.456,-95.4614"/>
<text text-anchor="middle" x="223.848" y="-201.2" font-family="Times New Roman,serif" font-size="11.00">source</text>
</g>
<!-- tType : TClass -->
<g id="node6" class="node"><title>tType : TClass</title>
<polygon fill="none" stroke="green" points="279.848,-228.5 279.848,-274.5 379.848,-274.5 379.848,-228.5 279.848,-228.5"/>
<text text-anchor="middle" x="329.848" y="-259.3" font-family="Times New Roman,serif" font-size="14.00">tType : TClass</text>
<polyline fill="none" stroke="green" points="279.848,-251.5 379.848,-251.5 "/>
<text text-anchor="middle" x="329.848" y="-236.3" font-family="Times New Roman,serif" font-size="14.00"> </text>
</g>
<!-- jTypeToTType : ClassToTClass&#45;&gt;tType : TClass -->
<g id="edge4" class="edge"><title>jTypeToTType : ClassToTClass&#45;&gt;tType : TClass</title>
<path fill="none" stroke="green" d="M183.68,-328.442C210.114,-314.708 247.751,-295.154 278.214,-279.327"/>
<polygon fill="green" stroke="green" points="280.157,-282.262 287.417,-274.545 276.93,-276.05 280.157,-282.262"/>
<text text-anchor="middle" x="264.848" y="-296.2" font-family="Times New Roman,serif" font-size="11.00">target</text>
</g>
<!-- jMethodToTMethodDefinition : ClassMethodToTMethodDefinition -->
<g id="node2" class="node"><title>jMethodToTMethodDefinition : ClassMethodToTMethodDefinition</title>
<polygon fill="none" stroke="black" points="1068.73,-441.5 920.791,-459.5 624.906,-459.5 476.963,-441.5 624.906,-423.5 920.791,-423.5 1068.73,-441.5"/>
<text text-anchor="middle" x="772.848" y="-437.8" font-family="Times New Roman,serif" font-size="14.00">jMethodToTMethodDefinition : ClassMethodToTMethodDefinition</text>
</g>
<!-- tMethodDefinition : TMethodDefinition -->
<g id="node4" class="node"><title>tMethodDefinition : TMethodDefinition</title>
<polygon fill="none" stroke="black" points="358.348,-323.5 358.348,-369.5 593.348,-369.5 593.348,-323.5 358.348,-323.5"/>
<text text-anchor="middle" x="475.848" y="-354.3" font-family="Times New Roman,serif" font-size="14.00">tMethodDefinition : TMethodDefinition</text>
<polyline fill="none" stroke="black" points="358.348,-346.5 593.348,-346.5 "/>
<text text-anchor="middle" x="475.848" y="-331.3" font-family="Times New Roman,serif" font-size="14.00"> </text>
</g>
<!-- jMethodToTMethodDefinition : ClassMethodToTMethodDefinition&#45;&gt;tMethodDefinition : TMethodDefinition -->
<g id="edge2" class="edge"><title>jMethodToTMethodDefinition : ClassMethodToTMethodDefinition&#45;&gt;tMethodDefinition : TMethodDefinition</title>
<path fill="none" stroke="black" d="M718.374,-423.442C672.907,-409.205 607.464,-388.713 556.015,-372.603"/>
<polygon fill="black" stroke="black" points="556.84,-369.193 546.251,-369.545 554.748,-375.874 556.84,-369.193"/>
<text text-anchor="middle" x="655.848" y="-391.2" font-family="Times New Roman,serif" font-size="11.00">target</text>
</g>
<!-- jMethod : ExtendedClassMethod -->
<g id="node5" class="node"><title>jMethod : ExtendedClassMethod</title>
<polygon fill="none" stroke="black" points="626.848,-323.5 626.848,-369.5 826.848,-369.5 826.848,-323.5 626.848,-323.5"/>
<text text-anchor="middle" x="726.848" y="-354.3" font-family="Times New Roman,serif" font-size="14.00">jMethod : ExtendedClassMethod</text>
<polyline fill="none" stroke="black" points="626.848,-346.5 826.848,-346.5 "/>
<text text-anchor="middle" x="726.848" y="-331.3" font-family="Times New Roman,serif" font-size="14.00"> </text>
</g>
<!-- jMethodToTMethodDefinition : ClassMethodToTMethodDefinition&#45;&gt;jMethod : ExtendedClassMethod -->
<g id="edge3" class="edge"><title>jMethodToTMethodDefinition : ClassMethodToTMethodDefinition&#45;&gt;jMethod : ExtendedClassMethod</title>
<path fill="none" stroke="black" d="M764.411,-423.442C758.283,-411.054 749.813,-393.929 742.467,-379.076"/>
<polygon fill="black" stroke="black" points="745.408,-377.128 737.837,-369.717 739.134,-380.232 745.408,-377.128"/>
<text text-anchor="middle" x="767.848" y="-391.2" font-family="Times New Roman,serif" font-size="11.00">source</text>
</g>
<!-- tMethodDefinition : TMethodDefinition&#45;&gt;tType : TClass -->
<g id="edge11" class="edge"><title>tMethodDefinition : TMethodDefinition&#45;&gt;tType : TClass</title>
<path fill="none" stroke="green" d="M441.248,-323.46C420.867,-310.478 394.903,-293.939 373.169,-280.095"/>
<polygon fill="green" stroke="green" points="374.767,-276.963 364.453,-274.542 371.006,-282.867 374.767,-276.963"/>
<text text-anchor="middle" x="436.348" y="-296.2" font-family="Times New Roman,serif" font-size="11.00">returnType</text>
</g>
<!-- namespaceClassifierReference : NamespaceClassifierReference -->
<g id="node8" class="node"><title>namespaceClassifierReference : NamespaceClassifierReference</title>
<polygon fill="none" stroke="green" points="434.348,-228.5 434.348,-274.5 803.348,-274.5 803.348,-228.5 434.348,-228.5"/>
<text text-anchor="middle" x="618.848" y="-259.3" font-family="Times New Roman,serif" font-size="14.00">namespaceClassifierReference : NamespaceClassifierReference</text>
<polyline fill="none" stroke="green" points="434.348,-251.5 803.348,-251.5 "/>
<text text-anchor="middle" x="618.848" y="-236.3" font-family="Times New Roman,serif" font-size="14.00"> </text>
</g>
<!-- jMethod : ExtendedClassMethod&#45;&gt;namespaceClassifierReference : NamespaceClassifierReference -->
<g id="edge6" class="edge"><title>jMethod : ExtendedClassMethod&#45;&gt;namespaceClassifierReference : NamespaceClassifierReference</title>
<path fill="none" stroke="green" d="M701.254,-323.46C686.699,-310.927 668.297,-295.08 652.575,-281.543"/>
<polygon fill="green" stroke="green" points="654.495,-278.577 644.633,-274.704 649.927,-283.881 654.495,-278.577"/>
<text text-anchor="middle" x="712.848" y="-296.2" font-family="Times New Roman,serif" font-size="11.00">typeReference</text>
</g>
<!-- classifierReference : ClassifierReference -->
<g id="node7" class="node"><title>classifierReference : ClassifierReference</title>
<polygon fill="none" stroke="green" points="296.848,-133.5 296.848,-179.5 536.848,-179.5 536.848,-133.5 296.848,-133.5"/>
<text text-anchor="middle" x="416.848" y="-164.3" font-family="Times New Roman,serif" font-size="14.00">classifierReference : ClassifierReference</text>
<polyline fill="none" stroke="green" points="296.848,-156.5 536.848,-156.5 "/>
<text text-anchor="middle" x="416.848" y="-141.3" font-family="Times New Roman,serif" font-size="14.00"> </text>
</g>
<!-- classifierReference : ClassifierReference&#45;&gt;jType : Class -->
<g id="edge7" class="edge"><title>classifierReference : ClassifierReference&#45;&gt;jType : Class</title>
<path fill="none" stroke="green" d="M380.589,-133.46C359.136,-120.42 331.78,-103.792 308.943,-89.9105"/>
<polygon fill="green" stroke="green" points="310.475,-86.7458 300.112,-84.5425 306.839,-92.7275 310.475,-86.7458"/>
<text text-anchor="middle" x="362.848" y="-106.2" font-family="Times New Roman,serif" font-size="11.00">target</text>
</g>
<!-- namespaceClassifierReference : NamespaceClassifierReference&#45;&gt;classifierReference : ClassifierReference -->
<g id="edge5" class="edge"><title>namespaceClassifierReference : NamespaceClassifierReference&#45;&gt;classifierReference : ClassifierReference</title>
<path fill="none" stroke="green" d="M570.977,-228.46C541.901,-215.074 504.613,-197.907 473.996,-183.811"/>
<polygon fill="green" stroke="green" points="475.273,-180.545 464.725,-179.542 472.345,-186.904 475.273,-180.545"/>
<text text-anchor="middle" x="576.348" y="-201.2" font-family="Times New Roman,serif" font-size="11.00">classifierReferences</text>
</g>
<!-- tClass : TClass -->
<g id="node9" class="node"><title>tClass : TClass</title>
<polygon fill="none" stroke="black" points="358.348,-418.5 358.348,-464.5 459.348,-464.5 459.348,-418.5 358.348,-418.5"/>
<text text-anchor="middle" x="408.848" y="-449.3" font-family="Times New Roman,serif" font-size="14.00">tClass : TClass</text>
<polyline fill="none" stroke="black" points="358.348,-441.5 459.348,-441.5 "/>
<text text-anchor="middle" x="408.848" y="-426.3" font-family="Times New Roman,serif" font-size="14.00"> </text>
</g>
<!-- tClass : TClass&#45;&gt;tMethodDefinition : TMethodDefinition -->
<g id="edge8" class="edge"><title>tClass : TClass&#45;&gt;tMethodDefinition : TMethodDefinition</title>
<path fill="none" stroke="black" d="M424.726,-418.46C433.424,-406.387 444.337,-391.239 453.845,-378.042"/>
<polygon fill="black" stroke="black" points="456.846,-379.863 459.852,-369.704 451.167,-375.772 456.846,-379.863"/>
<text text-anchor="middle" x="462.848" y="-391.2" font-family="Times New Roman,serif" font-size="11.00">defines</text>
</g>
<!-- pg : TypeGraph -->
<g id="node10" class="node"><title>pg : TypeGraph</title>
<polygon fill="none" stroke="black" points="355.848,-513.5 355.848,-559.5 461.848,-559.5 461.848,-513.5 355.848,-513.5"/>
<text text-anchor="middle" x="408.848" y="-544.3" font-family="Times New Roman,serif" font-size="14.00">pg : TypeGraph</text>
<polyline fill="none" stroke="black" points="355.848,-536.5 461.848,-536.5 "/>
<text text-anchor="middle" x="408.848" y="-521.3" font-family="Times New Roman,serif" font-size="14.00"> </text>
</g>
<!-- pg : TypeGraph&#45;&gt;tType : TClass -->
<g id="edge12" class="edge"><title>pg : TypeGraph&#45;&gt;tType : TClass</title>
<path fill="none" stroke="green" d="M383.591,-513.257C370.875,-500.493 356.557,-483.378 348.848,-465 323.755,-405.172 324.105,-327.735 326.828,-284.792"/>
<polygon fill="green" stroke="green" points="330.331,-284.875 327.558,-274.649 323.349,-284.372 330.331,-284.875"/>
<text text-anchor="middle" x="347.848" y="-391.2" font-family="Times New Roman,serif" font-size="11.00">classes</text>
</g>
<!-- pg : TypeGraph&#45;&gt;tClass : TClass -->
<g id="edge9" class="edge"><title>pg : TypeGraph&#45;&gt;tClass : TClass</title>
<path fill="none" stroke="black" d="M408.848,-513.46C408.848,-501.962 408.848,-487.675 408.848,-474.94"/>
<polygon fill="black" stroke="black" points="412.348,-474.704 408.848,-464.704 405.348,-474.704 412.348,-474.704"/>
<text text-anchor="middle" x="424.848" y="-486.2" font-family="Times New Roman,serif" font-size="11.00">classes</text>
</g>
<!-- tExistingType : TClass -->
<g id="node11" class="node"><title>tExistingType : TClass</title>
<polygon fill="none" stroke="blue" points="1086.85,-418.5 1086.85,-464.5 1230.85,-464.5 1230.85,-418.5 1086.85,-418.5"/>
<text text-anchor="middle" x="1158.85" y="-449.3" font-family="Times New Roman,serif" font-size="14.00">tExistingType : TClass</text>
<polyline fill="none" stroke="blue" points="1086.85,-441.5 1230.85,-441.5 "/>
<text text-anchor="middle" x="1158.85" y="-426.3" font-family="Times New Roman,serif" font-size="14.00"> </text>
</g>
<!-- pg : TypeGraph&#45;&gt;tExistingType : TClass -->
<g id="edge10" class="edge"><title>pg : TypeGraph&#45;&gt;tExistingType : TClass</title>
<path fill="none" stroke="black" d="M462.188,-532.89C574.493,-526.748 843.493,-508.625 1076.55,-465.11"/>
<polygon fill="black" stroke="black" points="1077.39,-468.513 1086.57,-463.219 1076.09,-461.634 1077.39,-468.513"/>
<text text-anchor="middle" x="985.848" y="-486.2" font-family="Times New Roman,serif" font-size="11.00">classes</text>
</g>
</g>
</svg>
