<?xml version="1.0" encoding="UTF-8" standalone="no"?>
<!DOCTYPE svg PUBLIC "-//W3C//DTD SVG 1.1//EN"
 "http://www.w3.org/Graphics/SVG/1.1/DTD/svg11.dtd">
<!-- Generated by graphviz version 2.38.0 (20140413.2041)
 -->
<!-- Title: ReturnTypeExistingRule Pages: 1 -->
<svg width="841pt" height="424pt"
 viewBox="0.00 0.00 841.01 424.00" xmlns="http://www.w3.org/2000/svg" xmlns:xlink="http://www.w3.org/1999/xlink">
<g id="graph0" class="graph" transform="scale(1 1) rotate(0) translate(4 420)">
<title>ReturnTypeExistingRule</title>
<polygon fill="white" stroke="none" points="-4,4 -4,-420 837.014,-420 837.014,4 -4,4"/>
<!-- jTypeToTType : ClassToTClass -->
<g id="node1" class="node"><title>jTypeToTType : ClassToTClass</title>
<polygon fill="none" stroke="black" points="301.545,-308.5 226.197,-326.5 75.4999,-326.5 0.151607,-308.5 75.4999,-290.5 226.197,-290.5 301.545,-308.5"/>
<text text-anchor="middle" x="150.848" y="-304.8" font-family="Times New Roman,serif" font-size="14.00">jTypeToTType : ClassToTClass</text>
</g>
<!-- tType : TClass -->
<g id="node3" class="node"><title>tType : TClass</title>
<polygon fill="none" stroke="black" points="217.848,-190.5 217.848,-236.5 317.848,-236.5 317.848,-190.5 217.848,-190.5"/>
<text text-anchor="middle" x="267.848" y="-221.3" font-family="Times New Roman,serif" font-size="14.00">tType : TClass</text>
<polyline fill="none" stroke="black" points="217.848,-213.5 317.848,-213.5 "/>
<text text-anchor="middle" x="267.848" y="-198.3" font-family="Times New Roman,serif" font-size="14.00"> </text>
</g>
<!-- jTypeToTType : ClassToTClass&#45;&gt;tType : TClass -->
<g id="edge1" class="edge"><title>jTypeToTType : ClassToTClass&#45;&gt;tType : TClass</title>
<path fill="none" stroke="black" d="M172.308,-290.442C188.932,-277.228 212.337,-258.625 231.82,-243.138"/>
<polygon fill="black" stroke="black" points="234.248,-245.679 239.898,-236.717 229.892,-240.199 234.248,-245.679"/>
<text text-anchor="middle" x="229.848" y="-258.2" font-family="Times New Roman,serif" font-size="11.00">target</text>
</g>
<!-- jType : Class -->
<g id="node4" class="node"><title>jType : Class</title>
<polygon fill="none" stroke="black" points="188.848,-0.5 188.848,-46.5 278.848,-46.5 278.848,-0.5 188.848,-0.5"/>
<text text-anchor="middle" x="233.848" y="-31.3" font-family="Times New Roman,serif" font-size="14.00">jType : Class</text>
<polyline fill="none" stroke="black" points="188.848,-23.5 278.848,-23.5 "/>
<text text-anchor="middle" x="233.848" y="-8.3" font-family="Times New Roman,serif" font-size="14.00"> </text>
</g>
<!-- jTypeToTType : ClassToTClass&#45;&gt;jType : Class -->
<g id="edge2" class="edge"><title>jTypeToTType : ClassToTClass&#45;&gt;jType : Class</title>
<path fill="none" stroke="black" d="M155.915,-290.223C169.49,-243.938 206.837,-116.6 224.438,-56.5872"/>
<polygon fill="black" stroke="black" points="227.83,-57.4573 227.286,-46.8764 221.113,-55.4872 227.83,-57.4573"/>
<text text-anchor="middle" x="208.848" y="-163.2" font-family="Times New Roman,serif" font-size="11.00">source</text>
</g>
<!-- jMethodToTMethod : ClassMethodToTMethodDefinition -->
<g id="node2" class="node"><title>jMethodToTMethod : ClassMethodToTMethodDefinition</title>
<polygon fill="none" stroke="black" points="833.181,-398 705.514,-416 450.182,-416 322.516,-398 450.182,-380 705.514,-380 833.181,-398"/>
<text text-anchor="middle" x="577.848" y="-394.3" font-family="Times New Roman,serif" font-size="14.00">jMethodToTMethod : ClassMethodToTMethodDefinition</text>
</g>
<!-- jMethod : ExtendedClassMethod -->
<g id="node5" class="node"><title>jMethod : ExtendedClassMethod</title>
<polygon fill="none" stroke="black" points="572.848,-285.5 572.848,-331.5 772.848,-331.5 772.848,-285.5 572.848,-285.5"/>
<text text-anchor="middle" x="672.848" y="-316.3" font-family="Times New Roman,serif" font-size="14.00">jMethod : ExtendedClassMethod</text>
<polyline fill="none" stroke="black" points="572.848,-308.5 772.848,-308.5 "/>
<text text-anchor="middle" x="672.848" y="-293.3" font-family="Times New Roman,serif" font-size="14.00"> </text>
</g>
<!-- jMethodToTMethod : ClassMethodToTMethodDefinition&#45;&gt;jMethod : ExtendedClassMethod -->
<g id="edge3" class="edge"><title>jMethodToTMethod : ClassMethodToTMethodDefinition&#45;&gt;jMethod : ExtendedClassMethod</title>
<path fill="none" stroke="black" d="M596.617,-379.713C609.326,-368.007 626.431,-352.253 641.217,-338.634"/>
<polygon fill="black" stroke="black" points="643.719,-341.088 648.703,-331.739 638.976,-335.939 643.719,-341.088"/>
<text text-anchor="middle" x="642.848" y="-353.2" font-family="Times New Roman,serif" font-size="11.00">source</text>
</g>
<!-- tMethodDefinition : TMethodDefinition -->
<g id="node6" class="node"><title>tMethodDefinition : TMethodDefinition</title>
<polygon fill="none" stroke="black" points="319.348,-285.5 319.348,-331.5 554.348,-331.5 554.348,-285.5 319.348,-285.5"/>
<text text-anchor="middle" x="436.848" y="-316.3" font-family="Times New Roman,serif" font-size="14.00">tMethodDefinition : TMethodDefinition</text>
<polyline fill="none" stroke="black" points="319.348,-308.5 554.348,-308.5 "/>
<text text-anchor="middle" x="436.848" y="-293.3" font-family="Times New Roman,serif" font-size="14.00"> </text>
</g>
<!-- jMethodToTMethod : ClassMethodToTMethodDefinition&#45;&gt;tMethodDefinition : TMethodDefinition -->
<g id="edge4" class="edge"><title>jMethodToTMethod : ClassMethodToTMethodDefinition&#45;&gt;tMethodDefinition : TMethodDefinition</title>
<path fill="none" stroke="black" d="M550.327,-379.921C530.658,-367.715 503.772,-351.031 481.106,-336.965"/>
<polygon fill="black" stroke="black" points="482.673,-333.818 472.33,-331.519 478.982,-339.766 482.673,-333.818"/>
<text text-anchor="middle" x="532.848" y="-353.2" font-family="Times New Roman,serif" font-size="11.00">target</text>
</g>
<!-- namespaceClassifierReference : NamespaceClassifierReference -->
<g id="node8" class="node"><title>namespaceClassifierReference : NamespaceClassifierReference</title>
<polygon fill="none" stroke="green" points="342.348,-190.5 342.348,-236.5 711.348,-236.5 711.348,-190.5 342.348,-190.5"/>
<text text-anchor="middle" x="526.848" y="-221.3" font-family="Times New Roman,serif" font-size="14.00">namespaceClassifierReference : NamespaceClassifierReference</text>
<polyline fill="none" stroke="green" points="342.348,-213.5 711.348,-213.5 "/>
<text text-anchor="middle" x="526.848" y="-198.3" font-family="Times New Roman,serif" font-size="14.00"> </text>
</g>
<!-- jMethod : ExtendedClassMethod&#45;&gt;namespaceClassifierReference : NamespaceClassifierReference -->
<g id="edge6" class="edge"><title>jMethod : ExtendedClassMethod&#45;&gt;namespaceClassifierReference : NamespaceClassifierReference</title>
<path fill="none" stroke="green" d="M638.248,-285.46C617.867,-272.478 591.903,-255.939 570.169,-242.095"/>
<polygon fill="green" stroke="green" points="571.767,-238.963 561.453,-236.542 568.006,-244.867 571.767,-238.963"/>
<text text-anchor="middle" x="640.848" y="-258.2" font-family="Times New Roman,serif" font-size="11.00">typeReference</text>
</g>
<!-- tMethodDefinition : TMethodDefinition&#45;&gt;tType : TClass -->
<g id="edge8" class="edge"><title>tMethodDefinition : TMethodDefinition&#45;&gt;tType : TClass</title>
<path fill="none" stroke="green" d="M396.798,-285.46C372.891,-272.305 342.349,-255.497 316.99,-241.543"/>
<polygon fill="green" stroke="green" points="318.352,-238.297 307.904,-236.542 314.978,-244.43 318.352,-238.297"/>
<text text-anchor="middle" x="387.348" y="-258.2" font-family="Times New Roman,serif" font-size="11.00">returnType</text>
</g>
<!-- classifierReference : ClassifierReference -->
<g id="node7" class="node"><title>classifierReference : ClassifierReference</title>
<polygon fill="none" stroke="green" points="254.848,-95.5 254.848,-141.5 494.848,-141.5 494.848,-95.5 254.848,-95.5"/>
<text text-anchor="middle" x="374.848" y="-126.3" font-family="Times New Roman,serif" font-size="14.00">classifierReference : ClassifierReference</text>
<polyline fill="none" stroke="green" points="254.848,-118.5 494.848,-118.5 "/>
<text text-anchor="middle" x="374.848" y="-103.3" font-family="Times New Roman,serif" font-size="14.00"> </text>
</g>
<!-- classifierReference : ClassifierReference&#45;&gt;jType : Class -->
<g id="edge5" class="edge"><title>classifierReference : ClassifierReference&#45;&gt;jType : Class</title>
<path fill="none" stroke="green" d="M341.433,-95.4603C321.822,-82.525 296.858,-66.0593 275.915,-52.2461"/>
<polygon fill="green" stroke="green" points="277.787,-49.2881 267.512,-46.7038 273.933,-55.1315 277.787,-49.2881"/>
<text text-anchor="middle" x="325.848" y="-68.2" font-family="Times New Roman,serif" font-size="11.00">target</text>
</g>
<!-- namespaceClassifierReference : NamespaceClassifierReference&#45;&gt;classifierReference : ClassifierReference -->
<g id="edge7" class="edge"><title>namespaceClassifierReference : NamespaceClassifierReference&#45;&gt;classifierReference : ClassifierReference</title>
<path fill="none" stroke="green" d="M490.826,-190.46C469.513,-177.42 442.336,-160.792 419.648,-146.91"/>
<polygon fill="green" stroke="green" points="421.231,-143.776 410.875,-141.542 417.578,-149.747 421.231,-143.776"/>
<text text-anchor="middle" x="506.348" y="-163.2" font-family="Times New Roman,serif" font-size="11.00">classifierReferences</text>
</g>
</g>
</svg>
