<?xml version="1.0" encoding="UTF-8" standalone="no"?>
<!DOCTYPE svg PUBLIC "-//W3C//DTD SVG 1.1//EN"
 "http://www.w3.org/Graphics/SVG/1.1/DTD/svg11.dtd">
<!-- Generated by graphviz version 2.38.0 (20140413.2041)
 -->
<!-- Title: ReturnPrimitiveLong Pages: 1 -->
<svg width="929pt" height="340pt"
 viewBox="0.00 0.00 929.00 340.00" xmlns="http://www.w3.org/2000/svg" xmlns:xlink="http://www.w3.org/1999/xlink">
<g id="graph0" class="graph" transform="scale(1 1) rotate(0) translate(4 336)">
<title>ReturnPrimitiveLong</title>
<polygon fill="white" stroke="none" points="-4,4 -4,-336 925,-336 925,4 -4,4"/>
<!-- jMethodToTMethoddefinition : ClassMethodToTMethodDefinition -->
<g id="node1" class="node"><title>jMethodToTMethoddefinition : ClassMethodToTMethodDefinition</title>
<polygon fill="none" stroke="black" points="633.383,-213.5 486.192,-231.5 191.808,-231.5 44.6167,-213.5 191.808,-195.5 486.192,-195.5 633.383,-213.5"/>
<text text-anchor="middle" x="339" y="-209.8" font-family="Times New Roman,serif" font-size="14.00">jMethodToTMethoddefinition : ClassMethodToTMethodDefinition</text>
</g>
<!-- jMethod : ClassMethod -->
<g id="node3" class="node"><title>jMethod : ClassMethod</title>
<polygon fill="none" stroke="black" points="0,-95.5 0,-141.5 148,-141.5 148,-95.5 0,-95.5"/>
<text text-anchor="middle" x="74" y="-126.3" font-family="Times New Roman,serif" font-size="14.00">jMethod : ClassMethod</text>
<polyline fill="none" stroke="black" points="0,-118.5 148,-118.5 "/>
<text text-anchor="middle" x="74" y="-103.3" font-family="Times New Roman,serif" font-size="14.00"> </text>
</g>
<!-- jMethodToTMethoddefinition : ClassMethodToTMethodDefinition&#45;&gt;jMethod : ClassMethod -->
<g id="edge1" class="edge"><title>jMethodToTMethoddefinition : ClassMethodToTMethodDefinition&#45;&gt;jMethod : ClassMethod</title>
<path fill="none" stroke="black" d="M290.395,-195.442C250.08,-181.294 192.162,-160.968 146.389,-144.905"/>
<polygon fill="black" stroke="black" points="147.412,-141.554 136.817,-141.545 145.094,-148.159 147.412,-141.554"/>
<text text-anchor="middle" x="238" y="-163.2" font-family="Times New Roman,serif" font-size="11.00">source</text>
</g>
<!-- tMethoddefinition : TMethodDefinition -->
<g id="node4" class="node"><title>tMethoddefinition : TMethodDefinition</title>
<polygon fill="none" stroke="black" points="629.5,-95.5 629.5,-141.5 862.5,-141.5 862.5,-95.5 629.5,-95.5"/>
<text text-anchor="middle" x="746" y="-126.3" font-family="Times New Roman,serif" font-size="14.00">tMethoddefinition : TMethodDefinition</text>
<polyline fill="none" stroke="black" points="629.5,-118.5 862.5,-118.5 "/>
<text text-anchor="middle" x="746" y="-103.3" font-family="Times New Roman,serif" font-size="14.00"> </text>
</g>
<!-- jMethodToTMethoddefinition : ClassMethodToTMethodDefinition&#45;&gt;tMethoddefinition : TMethodDefinition -->
<g id="edge2" class="edge"><title>jMethodToTMethoddefinition : ClassMethodToTMethodDefinition&#45;&gt;tMethoddefinition : TMethodDefinition</title>
<path fill="none" stroke="black" d="M413.65,-195.442C476.993,-180.969 568.629,-160.03 639.644,-143.802"/>
<polygon fill="black" stroke="black" points="640.553,-147.185 649.523,-141.545 638.994,-140.361 640.553,-147.185"/>
<text text-anchor="middle" x="580" y="-163.2" font-family="Times New Roman,serif" font-size="11.00">target</text>
</g>
<!-- jPrimitiveTypeToTPrimitiveType : LongToTClass -->
<g id="node2" class="node"><title>jPrimitiveTypeToTPrimitiveType : LongToTClass</title>
<polygon fill="none" stroke="green" points="611.79,-118.5 500.395,-136.5 277.605,-136.5 166.21,-118.5 277.605,-100.5 500.395,-100.5 611.79,-118.5"/>
<text text-anchor="middle" x="389" y="-114.8" font-family="Times New Roman,serif" font-size="14.00">jPrimitiveTypeToTPrimitiveType : LongToTClass</text>
</g>
<!-- jPrimitiveType : Long -->
<g id="node5" class="node"><title>jPrimitiveType : Long</title>
<polygon fill="none" stroke="green" points="106.5,-0.5 106.5,-46.5 243.5,-46.5 243.5,-0.5 106.5,-0.5"/>
<text text-anchor="middle" x="175" y="-31.3" font-family="Times New Roman,serif" font-size="14.00">jPrimitiveType : Long</text>
<polyline fill="none" stroke="green" points="106.5,-23.5 243.5,-23.5 "/>
<text text-anchor="middle" x="175" y="-8.3" font-family="Times New Roman,serif" font-size="14.00"> </text>
</g>
<!-- jPrimitiveTypeToTPrimitiveType : LongToTClass&#45;&gt;jPrimitiveType : Long -->
<g id="edge3" class="edge"><title>jPrimitiveTypeToTPrimitiveType : LongToTClass&#45;&gt;jPrimitiveType : Long</title>
<path fill="none" stroke="green" d="M349.749,-100.442C317.738,-86.5309 271.983,-66.6469 235.322,-50.7147"/>
<polygon fill="green" stroke="green" points="236.294,-47.321 225.728,-46.5452 233.504,-53.741 236.294,-47.321"/>
<text text-anchor="middle" x="310" y="-68.2" font-family="Times New Roman,serif" font-size="11.00">source</text>
</g>
<!-- tPrimitiveType : TClass -->
<g id="node6" class="node"><title>tPrimitiveType : TClass</title>
<polygon fill="none" stroke="black" points="671.5,-0.5 671.5,-46.5 820.5,-46.5 820.5,-0.5 671.5,-0.5"/>
<text text-anchor="middle" x="746" y="-31.3" font-family="Times New Roman,serif" font-size="14.00">tPrimitiveType : TClass</text>
<polyline fill="none" stroke="black" points="671.5,-23.5 820.5,-23.5 "/>
<text text-anchor="middle" x="746" y="-8.3" font-family="Times New Roman,serif" font-size="14.00">tName == &quot;long&quot;</text>
</g>
<!-- jPrimitiveTypeToTPrimitiveType : LongToTClass&#45;&gt;tPrimitiveType : TClass -->
<g id="edge4" class="edge"><title>jPrimitiveTypeToTPrimitiveType : LongToTClass&#45;&gt;tPrimitiveType : TClass</title>
<path fill="none" stroke="green" d="M454.479,-100.442C512.661,-85.2858 598.057,-63.0398 661.399,-46.5389"/>
<polygon fill="green" stroke="green" points="662.574,-49.8498 671.368,-43.9419 660.809,-43.0759 662.574,-49.8498"/>
<text text-anchor="middle" x="602" y="-68.2" font-family="Times New Roman,serif" font-size="11.00">target</text>
</g>
<!-- jMethod : ClassMethod&#45;&gt;jPrimitiveType : Long -->
<g id="edge5" class="edge"><title>jMethod : ClassMethod&#45;&gt;jPrimitiveType : Long</title>
<path fill="none" stroke="green" d="M97.9356,-95.4603C111.547,-82.9274 128.757,-67.0804 143.459,-53.5428"/>
<polygon fill="green" stroke="green" points="145.901,-56.0523 150.886,-46.7038 141.159,-50.9028 145.901,-56.0523"/>
<text text-anchor="middle" x="164" y="-68.2" font-family="Times New Roman,serif" font-size="11.00">typeReference</text>
</g>
<!-- tMethoddefinition : TMethodDefinition&#45;&gt;tPrimitiveType : TClass -->
<g id="edge7" class="edge"><title>tMethoddefinition : TMethodDefinition&#45;&gt;tPrimitiveType : TClass</title>
<path fill="none" stroke="green" d="M746,-95.4603C746,-83.9622 746,-69.6748 746,-56.9402"/>
<polygon fill="green" stroke="green" points="749.5,-56.7038 746,-46.7038 742.5,-56.7038 749.5,-56.7038"/>
<text text-anchor="middle" x="770.5" y="-68.2" font-family="Times New Roman,serif" font-size="11.00">returnType</text>
</g>
<!-- pg : TypeGraph -->
<g id="node7" class="node"><title>pg : TypeGraph</title>
<polygon fill="none" stroke="black" points="802,-285.5 802,-331.5 908,-331.5 908,-285.5 802,-285.5"/>
<text text-anchor="middle" x="855" y="-316.3" font-family="Times New Roman,serif" font-size="14.00">pg : TypeGraph</text>
<polyline fill="none" stroke="black" points="802,-308.5 908,-308.5 "/>
<text text-anchor="middle" x="855" y="-293.3" font-family="Times New Roman,serif" font-size="14.00"> </text>
</g>
<!-- pg : TypeGraph&#45;&gt;tPrimitiveType : TClass -->
<g id="edge6" class="edge"><title>pg : TypeGraph&#45;&gt;tPrimitiveType : TClass</title>
<path fill="none" stroke="black" d="M864.521,-285.472C880.552,-244.718 907.85,-156.139 872,-95 860.84,-75.9674 842.459,-61.6883 823.142,-51.144"/>
<polygon fill="black" stroke="black" points="824.716,-48.0183 814.223,-46.5584 821.516,-54.2437 824.716,-48.0183"/>
<text text-anchor="middle" x="905" y="-163.2" font-family="Times New Roman,serif" font-size="11.00">classes</text>
</g>
<!-- tClass : TClass -->
<g id="node8" class="node"><title>tClass : TClass</title>
<polygon fill="none" stroke="black" points="745.5,-190.5 745.5,-236.5 846.5,-236.5 846.5,-190.5 745.5,-190.5"/>
<text text-anchor="middle" x="796" y="-221.3" font-family="Times New Roman,serif" font-size="14.00">tClass : TClass</text>
<polyline fill="none" stroke="black" points="745.5,-213.5 846.5,-213.5 "/>
<text text-anchor="middle" x="796" y="-198.3" font-family="Times New Roman,serif" font-size="14.00"> </text>
</g>
<!-- pg : TypeGraph&#45;&gt;tClass : TClass -->
<g id="edge9" class="edge"><title>pg : TypeGraph&#45;&gt;tClass : TClass</title>
<path fill="none" stroke="black" d="M841.018,-285.46C833.432,-273.502 823.931,-258.527 815.616,-245.42"/>
<polygon fill="black" stroke="black" points="818.399,-243.273 810.086,-236.704 812.488,-247.023 818.399,-243.273"/>
<text text-anchor="middle" x="846" y="-258.2" font-family="Times New Roman,serif" font-size="11.00">classes</text>
</g>
<!-- tClass : TClass&#45;&gt;tMethoddefinition : TMethodDefinition -->
<g id="edge8" class="edge"><title>tClass : TClass&#45;&gt;tMethoddefinition : TMethodDefinition</title>
<path fill="none" stroke="black" d="M784.151,-190.46C777.783,-178.617 769.825,-163.815 762.827,-150.798"/>
<polygon fill="black" stroke="black" points="765.756,-148.854 757.938,-141.704 759.59,-152.169 765.756,-148.854"/>
<text text-anchor="middle" x="790" y="-163.2" font-family="Times New Roman,serif" font-size="11.00">defines</text>
</g>
</g>
</svg>
