<?xml version="1.0" encoding="UTF-8" standalone="no"?>
<!DOCTYPE svg PUBLIC "-//W3C//DTD SVG 1.1//EN"
 "http://www.w3.org/Graphics/SVG/1.1/DTD/svg11.dtd">
<!-- Generated by graphviz version 2.38.0 (20140413.2041)
 -->
<!-- Title: ReturnPrimitiveInt Pages: 1 -->
<svg width="925pt" height="340pt"
 viewBox="0.00 0.00 925.19 340.00" xmlns="http://www.w3.org/2000/svg" xmlns:xlink="http://www.w3.org/1999/xlink">
<g id="graph0" class="graph" transform="scale(1 1) rotate(0) translate(4 336)">
<title>ReturnPrimitiveInt</title>
<polygon fill="white" stroke="none" points="-4,4 -4,-336 921.192,-336 921.192,4 -4,4"/>
<!-- jPrimitiveTypeToTPrimitiveType : IntToTClass -->
<g id="node1" class="node"><title>jPrimitiveTypeToTPrimitiveType : IntToTClass</title>
<polygon fill="none" stroke="green" points="607.468,-118.5 501.33,-136.5 289.053,-136.5 182.915,-118.5 289.053,-100.5 501.33,-100.5 607.468,-118.5"/>
<text text-anchor="middle" x="395.192" y="-114.8" font-family="Times New Roman,serif" font-size="14.00">jPrimitiveTypeToTPrimitiveType : IntToTClass</text>
</g>
<!-- jPrimitiveType : Int -->
<g id="node3" class="node"><title>jPrimitiveType : Int</title>
<polygon fill="none" stroke="green" points="181.692,-0.5 181.692,-46.5 304.692,-46.5 304.692,-0.5 181.692,-0.5"/>
<text text-anchor="middle" x="243.192" y="-31.3" font-family="Times New Roman,serif" font-size="14.00">jPrimitiveType : Int</text>
<polyline fill="none" stroke="green" points="181.692,-23.5 304.692,-23.5 "/>
<text text-anchor="middle" x="243.192" y="-8.3" font-family="Times New Roman,serif" font-size="14.00"> </text>
</g>
<!-- jPrimitiveTypeToTPrimitiveType : IntToTClass&#45;&gt;jPrimitiveType : Int -->
<g id="edge1" class="edge"><title>jPrimitiveTypeToTPrimitiveType : IntToTClass&#45;&gt;jPrimitiveType : Int</title>
<path fill="none" stroke="green" d="M367.312,-100.442C345.156,-86.8861 313.73,-67.6584 288.044,-51.9426"/>
<polygon fill="green" stroke="green" points="289.579,-48.7788 279.223,-46.5452 285.926,-54.7498 289.579,-48.7788"/>
<text text-anchor="middle" x="344.192" y="-68.2" font-family="Times New Roman,serif" font-size="11.00">source</text>
</g>
<!-- tPrimitiveType : TClass -->
<g id="node4" class="node"><title>tPrimitiveType : TClass</title>
<polygon fill="none" stroke="black" points="667.692,-0.5 667.692,-46.5 816.692,-46.5 816.692,-0.5 667.692,-0.5"/>
<text text-anchor="middle" x="742.192" y="-31.3" font-family="Times New Roman,serif" font-size="14.00">tPrimitiveType : TClass</text>
<polyline fill="none" stroke="black" points="667.692,-23.5 816.692,-23.5 "/>
<text text-anchor="middle" x="742.192" y="-8.3" font-family="Times New Roman,serif" font-size="14.00">tName == &quot;int&quot;</text>
</g>
<!-- jPrimitiveTypeToTPrimitiveType : IntToTClass&#45;&gt;tPrimitiveType : TClass -->
<g id="edge2" class="edge"><title>jPrimitiveTypeToTPrimitiveType : IntToTClass&#45;&gt;tPrimitiveType : TClass</title>
<path fill="none" stroke="green" d="M458.837,-100.442C514.739,-85.46 596.488,-63.5502 657.829,-47.1101"/>
<polygon fill="green" stroke="green" points="658.739,-50.49 667.492,-44.5204 656.926,-43.7286 658.739,-50.49"/>
<text text-anchor="middle" x="603.192" y="-68.2" font-family="Times New Roman,serif" font-size="11.00">target</text>
</g>
<!-- jMethodToTMethoddefinition : ClassMethodToTMethodDefinition -->
<g id="node2" class="node"><title>jMethodToTMethoddefinition : ClassMethodToTMethodDefinition</title>
<polygon fill="none" stroke="black" points="588.575,-213.5 441.383,-231.5 147,-231.5 -0.191718,-213.5 147,-195.5 441.383,-195.5 588.575,-213.5"/>
<text text-anchor="middle" x="294.192" y="-209.8" font-family="Times New Roman,serif" font-size="14.00">jMethodToTMethoddefinition : ClassMethodToTMethodDefinition</text>
</g>
<!-- jMethod : ClassMethod -->
<g id="node5" class="node"><title>jMethod : ClassMethod</title>
<polygon fill="none" stroke="black" points="17.1916,-95.5 17.1916,-141.5 165.192,-141.5 165.192,-95.5 17.1916,-95.5"/>
<text text-anchor="middle" x="91.1916" y="-126.3" font-family="Times New Roman,serif" font-size="14.00">jMethod : ClassMethod</text>
<polyline fill="none" stroke="black" points="17.1916,-118.5 165.192,-118.5 "/>
<text text-anchor="middle" x="91.1916" y="-103.3" font-family="Times New Roman,serif" font-size="14.00"> </text>
</g>
<!-- jMethodToTMethoddefinition : ClassMethodToTMethodDefinition&#45;&gt;jMethod : ClassMethod -->
<g id="edge3" class="edge"><title>jMethodToTMethoddefinition : ClassMethodToTMethodDefinition&#45;&gt;jMethod : ClassMethod</title>
<path fill="none" stroke="black" d="M256.958,-195.442C226.592,-181.531 183.19,-161.647 148.413,-145.715"/>
<polygon fill="black" stroke="black" points="149.861,-142.528 139.312,-141.545 146.945,-148.892 149.861,-142.528"/>
<text text-anchor="middle" x="220.192" y="-163.2" font-family="Times New Roman,serif" font-size="11.00">source</text>
</g>
<!-- tMethoddefinition : TMethodDefinition -->
<g id="node6" class="node"><title>tMethoddefinition : TMethodDefinition</title>
<polygon fill="none" stroke="black" points="625.692,-95.5 625.692,-141.5 858.692,-141.5 858.692,-95.5 625.692,-95.5"/>
<text text-anchor="middle" x="742.192" y="-126.3" font-family="Times New Roman,serif" font-size="14.00">tMethoddefinition : TMethodDefinition</text>
<polyline fill="none" stroke="black" points="625.692,-118.5 858.692,-118.5 "/>
<text text-anchor="middle" x="742.192" y="-103.3" font-family="Times New Roman,serif" font-size="14.00"> </text>
</g>
<!-- jMethodToTMethoddefinition : ClassMethodToTMethodDefinition&#45;&gt;tMethoddefinition : TMethodDefinition -->
<g id="edge4" class="edge"><title>jMethodToTMethoddefinition : ClassMethodToTMethodDefinition&#45;&gt;tMethoddefinition : TMethodDefinition</title>
<path fill="none" stroke="black" d="M376.101,-195.496C446.079,-180.97 547.566,-159.902 625.946,-143.631"/>
<polygon fill="black" stroke="black" points="626.792,-147.03 635.872,-141.571 625.369,-140.177 626.792,-147.03"/>
<text text-anchor="middle" x="558.192" y="-163.2" font-family="Times New Roman,serif" font-size="11.00">target</text>
</g>
<!-- jMethod : ClassMethod&#45;&gt;jPrimitiveType : Int -->
<g id="edge5" class="edge"><title>jMethod : ClassMethod&#45;&gt;jPrimitiveType : Int</title>
<path fill="none" stroke="green" d="M127.213,-95.4603C148.527,-82.4201 175.704,-65.792 198.392,-51.9105"/>
<polygon fill="green" stroke="green" points="200.462,-54.7471 207.165,-46.5425 196.808,-48.776 200.462,-54.7471"/>
<text text-anchor="middle" x="210.192" y="-68.2" font-family="Times New Roman,serif" font-size="11.00">typeReference</text>
</g>
<!-- tMethoddefinition : TMethodDefinition&#45;&gt;tPrimitiveType : TClass -->
<g id="edge7" class="edge"><title>tMethoddefinition : TMethodDefinition&#45;&gt;tPrimitiveType : TClass</title>
<path fill="none" stroke="green" d="M742.192,-95.4603C742.192,-83.9622 742.192,-69.6748 742.192,-56.9402"/>
<polygon fill="green" stroke="green" points="745.692,-56.7038 742.192,-46.7038 738.692,-56.7038 745.692,-56.7038"/>
<text text-anchor="middle" x="766.692" y="-68.2" font-family="Times New Roman,serif" font-size="11.00">returnType</text>
</g>
<!-- pg : TypeGraph -->
<g id="node7" class="node"><title>pg : TypeGraph</title>
<polygon fill="none" stroke="black" points="798.192,-285.5 798.192,-331.5 904.192,-331.5 904.192,-285.5 798.192,-285.5"/>
<text text-anchor="middle" x="851.192" y="-316.3" font-family="Times New Roman,serif" font-size="14.00">pg : TypeGraph</text>
<polyline fill="none" stroke="black" points="798.192,-308.5 904.192,-308.5 "/>
<text text-anchor="middle" x="851.192" y="-293.3" font-family="Times New Roman,serif" font-size="14.00"> </text>
</g>
<!-- pg : TypeGraph&#45;&gt;tPrimitiveType : TClass -->
<g id="edge6" class="edge"><title>pg : TypeGraph&#45;&gt;tPrimitiveType : TClass</title>
<path fill="none" stroke="black" d="M860.532,-285.48C876.244,-244.737 902.925,-156.178 867.192,-95 856.077,-75.9702 837.719,-61.6741 818.452,-51.1125"/>
<polygon fill="black" stroke="black" points="820.049,-47.9981 809.558,-46.5191 816.837,-54.2176 820.049,-47.9981"/>
<text text-anchor="middle" x="901.192" y="-163.2" font-family="Times New Roman,serif" font-size="11.00">classes</text>
</g>
<!-- tClass : TClass -->
<g id="node8" class="node"><title>tClass : TClass</title>
<polygon fill="none" stroke="black" points="741.692,-190.5 741.692,-236.5 842.692,-236.5 842.692,-190.5 741.692,-190.5"/>
<text text-anchor="middle" x="792.192" y="-221.3" font-family="Times New Roman,serif" font-size="14.00">tClass : TClass</text>
<polyline fill="none" stroke="black" points="741.692,-213.5 842.692,-213.5 "/>
<text text-anchor="middle" x="792.192" y="-198.3" font-family="Times New Roman,serif" font-size="14.00"> </text>
</g>
<!-- pg : TypeGraph&#45;&gt;tClass : TClass -->
<g id="edge9" class="edge"><title>pg : TypeGraph&#45;&gt;tClass : TClass</title>
<path fill="none" stroke="black" d="M837.209,-285.46C829.623,-273.502 820.123,-258.527 811.807,-245.42"/>
<polygon fill="black" stroke="black" points="814.59,-243.273 806.278,-236.704 808.679,-247.023 814.59,-243.273"/>
<text text-anchor="middle" x="842.192" y="-258.2" font-family="Times New Roman,serif" font-size="11.00">classes</text>
</g>
<!-- tClass : TClass&#45;&gt;tMethoddefinition : TMethodDefinition -->
<g id="edge8" class="edge"><title>tClass : TClass&#45;&gt;tMethoddefinition : TMethodDefinition</title>
<path fill="none" stroke="black" d="M780.342,-190.46C773.975,-178.617 766.017,-163.815 759.019,-150.798"/>
<polygon fill="black" stroke="black" points="761.947,-148.854 754.129,-141.704 755.782,-152.169 761.947,-148.854"/>
<text text-anchor="middle" x="786.192" y="-163.2" font-family="Times New Roman,serif" font-size="11.00">defines</text>
</g>
</g>
</svg>
