<?xml version="1.0" encoding="UTF-8" standalone="no"?>
<!DOCTYPE svg PUBLIC "-//W3C//DTD SVG 1.1//EN"
 "http://www.w3.org/Graphics/SVG/1.1/DTD/svg11.dtd">
<!-- Generated by graphviz version 2.38.0 (20140413.2041)
 -->
<!-- Title: ReturnPrimitiveShort Pages: 1 -->
<svg width="937pt" height="340pt"
 viewBox="0.00 0.00 937.19 340.00" xmlns="http://www.w3.org/2000/svg" xmlns:xlink="http://www.w3.org/1999/xlink">
<g id="graph0" class="graph" transform="scale(1 1) rotate(0) translate(4 336)">
<title>ReturnPrimitiveShort</title>
<polygon fill="white" stroke="none" points="-4,4 -4,-336 933.192,-336 933.192,4 -4,4"/>
<!-- jPrimitiveTypeToTprimitiveType : ShortToTClass -->
<g id="node1" class="node"><title>jPrimitiveTypeToTprimitiveType : ShortToTClass</title>
<polygon fill="none" stroke="green" points="619.983,-118.5 508.087,-136.5 284.296,-136.5 172.4,-118.5 284.296,-100.5 508.087,-100.5 619.983,-118.5"/>
<text text-anchor="middle" x="396.192" y="-114.8" font-family="Times New Roman,serif" font-size="14.00">jPrimitiveTypeToTprimitiveType : ShortToTClass</text>
</g>
<!-- jPrimitiveType : Short -->
<g id="node4" class="node"><title>jPrimitiveType : Short</title>
<polygon fill="none" stroke="green" points="168.692,-0.5 168.692,-46.5 307.692,-46.5 307.692,-0.5 168.692,-0.5"/>
<text text-anchor="middle" x="238.192" y="-31.3" font-family="Times New Roman,serif" font-size="14.00">jPrimitiveType : Short</text>
<polyline fill="none" stroke="green" points="168.692,-23.5 307.692,-23.5 "/>
<text text-anchor="middle" x="238.192" y="-8.3" font-family="Times New Roman,serif" font-size="14.00"> </text>
</g>
<!-- jPrimitiveTypeToTprimitiveType : ShortToTClass&#45;&gt;jPrimitiveType : Short -->
<g id="edge2" class="edge"><title>jPrimitiveTypeToTprimitiveType : ShortToTClass&#45;&gt;jPrimitiveType : Short</title>
<path fill="none" stroke="green" d="M367.212,-100.442C344.08,-86.8269 311.229,-67.4903 284.465,-51.7369"/>
<polygon fill="green" stroke="green" points="286.038,-48.6016 275.645,-46.5452 282.487,-54.6341 286.038,-48.6016"/>
<text text-anchor="middle" x="342.192" y="-68.2" font-family="Times New Roman,serif" font-size="11.00">source</text>
</g>
<!-- tPrimitiveType : TClass -->
<g id="node6" class="node"><title>tPrimitiveType : TClass</title>
<polygon fill="none" stroke="black" points="679.692,-0.5 679.692,-46.5 828.692,-46.5 828.692,-0.5 679.692,-0.5"/>
<text text-anchor="middle" x="754.192" y="-31.3" font-family="Times New Roman,serif" font-size="14.00">tPrimitiveType : TClass</text>
<polyline fill="none" stroke="black" points="679.692,-23.5 828.692,-23.5 "/>
<text text-anchor="middle" x="754.192" y="-8.3" font-family="Times New Roman,serif" font-size="14.00">tName == &quot;short&quot;</text>
</g>
<!-- jPrimitiveTypeToTprimitiveType : ShortToTClass&#45;&gt;tPrimitiveType : TClass -->
<g id="edge4" class="edge"><title>jPrimitiveTypeToTprimitiveType : ShortToTClass&#45;&gt;tPrimitiveType : TClass</title>
<path fill="none" stroke="green" d="M461.854,-100.442C520.295,-85.2609 606.116,-62.9667 669.667,-46.4576"/>
<polygon fill="green" stroke="green" points="670.869,-49.7616 679.667,-43.8597 669.108,-42.9865 670.869,-49.7616"/>
<text text-anchor="middle" x="610.192" y="-68.2" font-family="Times New Roman,serif" font-size="11.00">target</text>
</g>
<!-- jMethodToTMethoddefinition : ClassMethodToTMethodDefinition -->
<g id="node2" class="node"><title>jMethodToTMethoddefinition : ClassMethodToTMethodDefinition</title>
<polygon fill="none" stroke="black" points="588.575,-213.5 441.383,-231.5 147,-231.5 -0.191718,-213.5 147,-195.5 441.383,-195.5 588.575,-213.5"/>
<text text-anchor="middle" x="294.192" y="-209.8" font-family="Times New Roman,serif" font-size="14.00">jMethodToTMethoddefinition : ClassMethodToTMethodDefinition</text>
</g>
<!-- tMethoddefinition : TMethodDefinition -->
<g id="node3" class="node"><title>tMethoddefinition : TMethodDefinition</title>
<polygon fill="none" stroke="black" points="637.692,-95.5 637.692,-141.5 870.692,-141.5 870.692,-95.5 637.692,-95.5"/>
<text text-anchor="middle" x="754.192" y="-126.3" font-family="Times New Roman,serif" font-size="14.00">tMethoddefinition : TMethodDefinition</text>
<polyline fill="none" stroke="black" points="637.692,-118.5 870.692,-118.5 "/>
<text text-anchor="middle" x="754.192" y="-103.3" font-family="Times New Roman,serif" font-size="14.00"> </text>
</g>
<!-- jMethodToTMethoddefinition : ClassMethodToTMethodDefinition&#45;&gt;tMethoddefinition : TMethodDefinition -->
<g id="edge1" class="edge"><title>jMethodToTMethoddefinition : ClassMethodToTMethodDefinition&#45;&gt;tMethoddefinition : TMethodDefinition</title>
<path fill="none" stroke="black" d="M378.295,-195.496C450.147,-180.97 554.352,-159.902 634.832,-143.631"/>
<polygon fill="black" stroke="black" points="635.916,-146.983 645.024,-141.571 634.528,-140.122 635.916,-146.983"/>
<text text-anchor="middle" x="565.192" y="-163.2" font-family="Times New Roman,serif" font-size="11.00">target</text>
</g>
<!-- jMethod : ClassMethod -->
<g id="node5" class="node"><title>jMethod : ClassMethod</title>
<polygon fill="none" stroke="black" points="6.19159,-95.5 6.19159,-141.5 154.192,-141.5 154.192,-95.5 6.19159,-95.5"/>
<text text-anchor="middle" x="80.1916" y="-126.3" font-family="Times New Roman,serif" font-size="14.00">jMethod : ClassMethod</text>
<polyline fill="none" stroke="black" points="6.19159,-118.5 154.192,-118.5 "/>
<text text-anchor="middle" x="80.1916" y="-103.3" font-family="Times New Roman,serif" font-size="14.00"> </text>
</g>
<!-- jMethodToTMethoddefinition : ClassMethodToTMethodDefinition&#45;&gt;jMethod : ClassMethod -->
<g id="edge3" class="edge"><title>jMethodToTMethoddefinition : ClassMethodToTMethodDefinition&#45;&gt;jMethod : ClassMethod</title>
<path fill="none" stroke="black" d="M254.941,-195.442C222.929,-181.531 177.175,-161.647 140.514,-145.715"/>
<polygon fill="black" stroke="black" points="141.486,-142.321 130.919,-141.545 138.696,-148.741 141.486,-142.321"/>
<text text-anchor="middle" x="215.192" y="-163.2" font-family="Times New Roman,serif" font-size="11.00">source</text>
</g>
<!-- tMethoddefinition : TMethodDefinition&#45;&gt;tPrimitiveType : TClass -->
<g id="edge8" class="edge"><title>tMethoddefinition : TMethodDefinition&#45;&gt;tPrimitiveType : TClass</title>
<path fill="none" stroke="green" d="M754.192,-95.4603C754.192,-83.9622 754.192,-69.6748 754.192,-56.9402"/>
<polygon fill="green" stroke="green" points="757.692,-56.7038 754.192,-46.7038 750.692,-56.7038 757.692,-56.7038"/>
<text text-anchor="middle" x="778.692" y="-68.2" font-family="Times New Roman,serif" font-size="11.00">returnType</text>
</g>
<!-- jMethod : ClassMethod&#45;&gt;jPrimitiveType : Short -->
<g id="edge5" class="edge"><title>jMethod : ClassMethod&#45;&gt;jPrimitiveType : Short</title>
<path fill="none" stroke="green" d="M117.635,-95.4603C139.888,-82.3624 168.29,-65.6448 191.936,-51.7264"/>
<polygon fill="green" stroke="green" points="193.901,-54.6314 200.743,-46.5425 190.35,-48.5988 193.901,-54.6314"/>
<text text-anchor="middle" x="202.192" y="-68.2" font-family="Times New Roman,serif" font-size="11.00">typeReference</text>
</g>
<!-- pg : TypeGraph -->
<g id="node7" class="node"><title>pg : TypeGraph</title>
<polygon fill="none" stroke="black" points="810.192,-285.5 810.192,-331.5 916.192,-331.5 916.192,-285.5 810.192,-285.5"/>
<text text-anchor="middle" x="863.192" y="-316.3" font-family="Times New Roman,serif" font-size="14.00">pg : TypeGraph</text>
<polyline fill="none" stroke="black" points="810.192,-308.5 916.192,-308.5 "/>
<text text-anchor="middle" x="863.192" y="-293.3" font-family="Times New Roman,serif" font-size="14.00"> </text>
</g>
<!-- pg : TypeGraph&#45;&gt;tPrimitiveType : TClass -->
<g id="edge6" class="edge"><title>pg : TypeGraph&#45;&gt;tPrimitiveType : TClass</title>
<path fill="none" stroke="black" d="M872.532,-285.48C888.244,-244.737 914.925,-156.178 879.192,-95 868.077,-75.9702 849.719,-61.6741 830.452,-51.1125"/>
<polygon fill="black" stroke="black" points="832.049,-47.9981 821.558,-46.5191 828.837,-54.2176 832.049,-47.9981"/>
<text text-anchor="middle" x="913.192" y="-163.2" font-family="Times New Roman,serif" font-size="11.00">classes</text>
</g>
<!-- tClass : TClass -->
<g id="node8" class="node"><title>tClass : TClass</title>
<polygon fill="none" stroke="black" points="753.692,-190.5 753.692,-236.5 854.692,-236.5 854.692,-190.5 753.692,-190.5"/>
<text text-anchor="middle" x="804.192" y="-221.3" font-family="Times New Roman,serif" font-size="14.00">tClass : TClass</text>
<polyline fill="none" stroke="black" points="753.692,-213.5 854.692,-213.5 "/>
<text text-anchor="middle" x="804.192" y="-198.3" font-family="Times New Roman,serif" font-size="14.00"> </text>
</g>
<!-- pg : TypeGraph&#45;&gt;tClass : TClass -->
<g id="edge7" class="edge"><title>pg : TypeGraph&#45;&gt;tClass : TClass</title>
<path fill="none" stroke="black" d="M849.209,-285.46C841.623,-273.502 832.123,-258.527 823.807,-245.42"/>
<polygon fill="black" stroke="black" points="826.59,-243.273 818.278,-236.704 820.679,-247.023 826.59,-243.273"/>
<text text-anchor="middle" x="854.192" y="-258.2" font-family="Times New Roman,serif" font-size="11.00">classes</text>
</g>
<!-- tClass : TClass&#45;&gt;tMethoddefinition : TMethodDefinition -->
<g id="edge9" class="edge"><title>tClass : TClass&#45;&gt;tMethoddefinition : TMethodDefinition</title>
<path fill="none" stroke="black" d="M792.342,-190.46C785.975,-178.617 778.017,-163.815 771.019,-150.798"/>
<polygon fill="black" stroke="black" points="773.947,-148.854 766.129,-141.704 767.782,-152.169 773.947,-148.854"/>
<text text-anchor="middle" x="798.192" y="-163.2" font-family="Times New Roman,serif" font-size="11.00">defines</text>
</g>
</g>
</svg>
