<?xml version="1.0" encoding="UTF-8" standalone="no"?>
<!DOCTYPE svg PUBLIC "-//W3C//DTD SVG 1.1//EN"
 "http://www.w3.org/Graphics/SVG/1.1/DTD/svg11.dtd">
<!-- Generated by graphviz version 2.38.0 (20140413.2041)
 -->
<!-- Title: ReturnPrimitiveChar Pages: 1 -->
<svg width="926pt" height="340pt"
 viewBox="0.00 0.00 926.00 340.00" xmlns="http://www.w3.org/2000/svg" xmlns:xlink="http://www.w3.org/1999/xlink">
<g id="graph0" class="graph" transform="scale(1 1) rotate(0) translate(4 336)">
<title>ReturnPrimitiveChar</title>
<polygon fill="white" stroke="none" points="-4,4 -4,-336 922,-336 922,4 -4,4"/>
<!-- jMethodToTMethoddefinition : ClassMethodToTMethodDefinition -->
<g id="node1" class="node"><title>jMethodToTMethoddefinition : ClassMethodToTMethodDefinition</title>
<polygon fill="none" stroke="black" points="631.383,-213.5 484.192,-231.5 189.808,-231.5 42.6167,-213.5 189.808,-195.5 484.192,-195.5 631.383,-213.5"/>
<text text-anchor="middle" x="337" y="-209.8" font-family="Times New Roman,serif" font-size="14.00">jMethodToTMethoddefinition : ClassMethodToTMethodDefinition</text>
</g>
<!-- jMethod : ClassMethod -->
<g id="node3" class="node"><title>jMethod : ClassMethod</title>
<polygon fill="none" stroke="black" points="0,-95.5 0,-141.5 148,-141.5 148,-95.5 0,-95.5"/>
<text text-anchor="middle" x="74" y="-126.3" font-family="Times New Roman,serif" font-size="14.00">jMethod : ClassMethod</text>
<polyline fill="none" stroke="black" points="0,-118.5 148,-118.5 "/>
<text text-anchor="middle" x="74" y="-103.3" font-family="Times New Roman,serif" font-size="14.00"> </text>
</g>
<!-- jMethodToTMethoddefinition : ClassMethodToTMethodDefinition&#45;&gt;jMethod : ClassMethod -->
<g id="edge1" class="edge"><title>jMethodToTMethoddefinition : ClassMethodToTMethodDefinition&#45;&gt;jMethod : ClassMethod</title>
<path fill="none" stroke="black" d="M288.762,-195.442C248.751,-181.294 191.271,-160.968 145.843,-144.905"/>
<polygon fill="black" stroke="black" points="146.938,-141.579 136.343,-141.545 144.604,-148.179 146.938,-141.579"/>
<text text-anchor="middle" x="237" y="-163.2" font-family="Times New Roman,serif" font-size="11.00">source</text>
</g>
<!-- tMethoddefinition : TMethodDefinition -->
<g id="node4" class="node"><title>tMethoddefinition : TMethodDefinition</title>
<polygon fill="none" stroke="black" points="626.5,-95.5 626.5,-141.5 859.5,-141.5 859.5,-95.5 626.5,-95.5"/>
<text text-anchor="middle" x="743" y="-126.3" font-family="Times New Roman,serif" font-size="14.00">tMethoddefinition : TMethodDefinition</text>
<polyline fill="none" stroke="black" points="626.5,-118.5 859.5,-118.5 "/>
<text text-anchor="middle" x="743" y="-103.3" font-family="Times New Roman,serif" font-size="14.00"> </text>
</g>
<!-- jMethodToTMethoddefinition : ClassMethodToTMethodDefinition&#45;&gt;tMethoddefinition : TMethodDefinition -->
<g id="edge2" class="edge"><title>jMethodToTMethoddefinition : ClassMethodToTMethodDefinition&#45;&gt;tMethoddefinition : TMethodDefinition</title>
<path fill="none" stroke="black" d="M411.467,-195.442C474.654,-180.969 566.065,-160.03 636.905,-143.802"/>
<polygon fill="black" stroke="black" points="637.794,-147.19 646.76,-141.545 636.23,-140.366 637.794,-147.19"/>
<text text-anchor="middle" x="578" y="-163.2" font-family="Times New Roman,serif" font-size="11.00">target</text>
</g>
<!-- jPrimitiveTypeToTPrimitiveType : CharToTClass -->
<g id="node2" class="node"><title>jPrimitiveTypeToTPrimitiveType : CharToTClass</title>
<polygon fill="none" stroke="green" points="608.288,-118.5 497.644,-136.5 276.356,-136.5 165.712,-118.5 276.356,-100.5 497.644,-100.5 608.288,-118.5"/>
<text text-anchor="middle" x="387" y="-114.8" font-family="Times New Roman,serif" font-size="14.00">jPrimitiveTypeToTPrimitiveType : CharToTClass</text>
</g>
<!-- jPrimitiveType : Char -->
<g id="node5" class="node"><title>jPrimitiveType : Char</title>
<polygon fill="none" stroke="green" points="106.5,-0.5 106.5,-46.5 241.5,-46.5 241.5,-0.5 106.5,-0.5"/>
<text text-anchor="middle" x="174" y="-31.3" font-family="Times New Roman,serif" font-size="14.00">jPrimitiveType : Char</text>
<polyline fill="none" stroke="green" points="106.5,-23.5 241.5,-23.5 "/>
<text text-anchor="middle" x="174" y="-8.3" font-family="Times New Roman,serif" font-size="14.00"> </text>
</g>
<!-- jPrimitiveTypeToTPrimitiveType : CharToTClass&#45;&gt;jPrimitiveType : Char -->
<g id="edge3" class="edge"><title>jPrimitiveTypeToTPrimitiveType : CharToTClass&#45;&gt;jPrimitiveType : Char</title>
<path fill="none" stroke="green" d="M347.933,-100.442C316.071,-86.5309 270.53,-66.6469 234.04,-50.7147"/>
<polygon fill="green" stroke="green" points="235.056,-47.3391 224.491,-46.5452 232.255,-53.7543 235.056,-47.3391"/>
<text text-anchor="middle" x="309" y="-68.2" font-family="Times New Roman,serif" font-size="11.00">source</text>
</g>
<!-- tPrimitiveType : TClass -->
<g id="node6" class="node"><title>tPrimitiveType : TClass</title>
<polygon fill="none" stroke="black" points="668.5,-0.5 668.5,-46.5 817.5,-46.5 817.5,-0.5 668.5,-0.5"/>
<text text-anchor="middle" x="743" y="-31.3" font-family="Times New Roman,serif" font-size="14.00">tPrimitiveType : TClass</text>
<polyline fill="none" stroke="black" points="668.5,-23.5 817.5,-23.5 "/>
<text text-anchor="middle" x="743" y="-8.3" font-family="Times New Roman,serif" font-size="14.00">tName == &quot;char&quot;</text>
</g>
<!-- jPrimitiveTypeToTPrimitiveType : CharToTClass&#45;&gt;tPrimitiveType : TClass -->
<g id="edge4" class="edge"><title>jPrimitiveTypeToTPrimitiveType : CharToTClass&#45;&gt;tPrimitiveType : TClass</title>
<path fill="none" stroke="green" d="M452.296,-100.442C510.219,-85.3107 595.192,-63.1128 658.325,-46.6202"/>
<polygon fill="green" stroke="green" points="659.472,-49.9382 668.262,-44.0242 657.702,-43.1654 659.472,-49.9382"/>
<text text-anchor="middle" x="600" y="-68.2" font-family="Times New Roman,serif" font-size="11.00">target</text>
</g>
<!-- jMethod : ClassMethod&#45;&gt;jPrimitiveType : Char -->
<g id="edge5" class="edge"><title>jMethod : ClassMethod&#45;&gt;jPrimitiveType : Char</title>
<path fill="none" stroke="green" d="M97.6986,-95.4603C111.175,-82.9274 128.215,-67.0804 142.771,-53.5428"/>
<polygon fill="green" stroke="green" points="145.186,-56.0769 150.125,-46.7038 140.419,-50.951 145.186,-56.0769"/>
<text text-anchor="middle" x="163" y="-68.2" font-family="Times New Roman,serif" font-size="11.00">typeReference</text>
</g>
<!-- tMethoddefinition : TMethodDefinition&#45;&gt;tPrimitiveType : TClass -->
<g id="edge6" class="edge"><title>tMethoddefinition : TMethodDefinition&#45;&gt;tPrimitiveType : TClass</title>
<path fill="none" stroke="green" d="M743,-95.4603C743,-83.9622 743,-69.6748 743,-56.9402"/>
<polygon fill="green" stroke="green" points="746.5,-56.7038 743,-46.7038 739.5,-56.7038 746.5,-56.7038"/>
<text text-anchor="middle" x="767.5" y="-68.2" font-family="Times New Roman,serif" font-size="11.00">returnType</text>
</g>
<!-- tClass : TClass -->
<g id="node7" class="node"><title>tClass : TClass</title>
<polygon fill="none" stroke="black" points="742.5,-190.5 742.5,-236.5 843.5,-236.5 843.5,-190.5 742.5,-190.5"/>
<text text-anchor="middle" x="793" y="-221.3" font-family="Times New Roman,serif" font-size="14.00">tClass : TClass</text>
<polyline fill="none" stroke="black" points="742.5,-213.5 843.5,-213.5 "/>
<text text-anchor="middle" x="793" y="-198.3" font-family="Times New Roman,serif" font-size="14.00"> </text>
</g>
<!-- tClass : TClass&#45;&gt;tMethoddefinition : TMethodDefinition -->
<g id="edge7" class="edge"><title>tClass : TClass&#45;&gt;tMethoddefinition : TMethodDefinition</title>
<path fill="none" stroke="black" d="M781.151,-190.46C774.783,-178.617 766.825,-163.815 759.827,-150.798"/>
<polygon fill="black" stroke="black" points="762.756,-148.854 754.938,-141.704 756.59,-152.169 762.756,-148.854"/>
<text text-anchor="middle" x="787" y="-163.2" font-family="Times New Roman,serif" font-size="11.00">defines</text>
</g>
<!-- pg : TypeGraph -->
<g id="node8" class="node"><title>pg : TypeGraph</title>
<polygon fill="none" stroke="black" points="799,-285.5 799,-331.5 905,-331.5 905,-285.5 799,-285.5"/>
<text text-anchor="middle" x="852" y="-316.3" font-family="Times New Roman,serif" font-size="14.00">pg : TypeGraph</text>
<polyline fill="none" stroke="black" points="799,-308.5 905,-308.5 "/>
<text text-anchor="middle" x="852" y="-293.3" font-family="Times New Roman,serif" font-size="14.00"> </text>
</g>
<!-- pg : TypeGraph&#45;&gt;tPrimitiveType : TClass -->
<g id="edge8" class="edge"><title>pg : TypeGraph&#45;&gt;tPrimitiveType : TClass</title>
<path fill="none" stroke="black" d="M861.521,-285.472C877.552,-244.718 904.85,-156.139 869,-95 857.84,-75.9674 839.459,-61.6883 820.142,-51.144"/>
<polygon fill="black" stroke="black" points="821.716,-48.0183 811.223,-46.5584 818.516,-54.2437 821.716,-48.0183"/>
<text text-anchor="middle" x="902" y="-163.2" font-family="Times New Roman,serif" font-size="11.00">classes</text>
</g>
<!-- pg : TypeGraph&#45;&gt;tClass : TClass -->
<g id="edge9" class="edge"><title>pg : TypeGraph&#45;&gt;tClass : TClass</title>
<path fill="none" stroke="black" d="M838.018,-285.46C830.432,-273.502 820.931,-258.527 812.616,-245.42"/>
<polygon fill="black" stroke="black" points="815.399,-243.273 807.086,-236.704 809.488,-247.023 815.399,-243.273"/>
<text text-anchor="middle" x="843" y="-258.2" font-family="Times New Roman,serif" font-size="11.00">classes</text>
</g>
</g>
</svg>
