<?xml version="1.0" encoding="UTF-8" standalone="no"?>
<!DOCTYPE svg PUBLIC "-//W3C//DTD SVG 1.1//EN"
 "http://www.w3.org/Graphics/SVG/1.1/DTD/svg11.dtd">
<!-- Generated by graphviz version 2.38.0 (20140413.2041)
 -->
<!-- Title: ReturnVoid Pages: 1 -->
<svg width="596pt" height="234pt"
 viewBox="0.00 0.00 596.38 234.00" xmlns="http://www.w3.org/2000/svg" xmlns:xlink="http://www.w3.org/1999/xlink">
<g id="graph0" class="graph" transform="scale(1 1) rotate(0) translate(4 230)">
<title>ReturnVoid</title>
<polygon fill="white" stroke="none" points="-4,4 -4,-230 592.383,-230 592.383,4 -4,4"/>
<!-- jMethodToTMethoddefinition : ClassMethodToTMethodDefinition -->
<g id="node1" class="node"><title>jMethodToTMethoddefinition : ClassMethodToTMethodDefinition</title>
<polygon fill="none" stroke="black" points="588.575,-208 441.383,-226 147,-226 -0.191718,-208 147,-190 441.383,-190 588.575,-208"/>
<text text-anchor="middle" x="294.192" y="-204.3" font-family="Times New Roman,serif" font-size="14.00">jMethodToTMethoddefinition : ClassMethodToTMethodDefinition</text>
</g>
<!-- jMethod : ClassMethod -->
<g id="node2" class="node"><title>jMethod : ClassMethod</title>
<polygon fill="none" stroke="black" points="64.1916,-95.5 64.1916,-141.5 212.192,-141.5 212.192,-95.5 64.1916,-95.5"/>
<text text-anchor="middle" x="138.192" y="-126.3" font-family="Times New Roman,serif" font-size="14.00">jMethod : ClassMethod</text>
<polyline fill="none" stroke="black" points="64.1916,-118.5 212.192,-118.5 "/>
<text text-anchor="middle" x="138.192" y="-103.3" font-family="Times New Roman,serif" font-size="14.00"> </text>
</g>
<!-- jMethodToTMethoddefinition : ClassMethodToTMethodDefinition&#45;&gt;jMethod : ClassMethod -->
<g id="edge1" class="edge"><title>jMethodToTMethoddefinition : ClassMethodToTMethodDefinition&#45;&gt;jMethod : ClassMethod</title>
<path fill="none" stroke="black" d="M263.743,-189.921C241.789,-177.607 211.708,-160.735 186.494,-146.592"/>
<polygon fill="black" stroke="black" points="187.882,-143.358 177.448,-141.519 184.458,-149.464 187.882,-143.358"/>
<text text-anchor="middle" x="245.192" y="-163.2" font-family="Times New Roman,serif" font-size="11.00">source</text>
</g>
<!-- tMethoddefinition : TMethodDefinition -->
<g id="node3" class="node"><title>tMethoddefinition : TMethodDefinition</title>
<polygon fill="none" stroke="black" points="230.692,-95.5 230.692,-141.5 463.692,-141.5 463.692,-95.5 230.692,-95.5"/>
<text text-anchor="middle" x="347.192" y="-126.3" font-family="Times New Roman,serif" font-size="14.00">tMethoddefinition : TMethodDefinition</text>
<polyline fill="none" stroke="black" points="230.692,-118.5 463.692,-118.5 "/>
<text text-anchor="middle" x="347.192" y="-103.3" font-family="Times New Roman,serif" font-size="14.00"> </text>
</g>
<!-- jMethodToTMethoddefinition : ClassMethodToTMethodDefinition&#45;&gt;tMethoddefinition : TMethodDefinition -->
<g id="edge2" class="edge"><title>jMethodToTMethoddefinition : ClassMethodToTMethodDefinition&#45;&gt;tMethoddefinition : TMethodDefinition</title>
<path fill="none" stroke="black" d="M304.663,-189.713C311.428,-178.544 320.425,-163.69 328.402,-150.521"/>
<polygon fill="black" stroke="black" points="331.534,-152.106 333.721,-141.739 325.547,-148.479 331.534,-152.106"/>
<text text-anchor="middle" x="336.192" y="-163.2" font-family="Times New Roman,serif" font-size="11.00">target</text>
</g>
<!-- jPrimitiveType : Void -->
<g id="node4" class="node"><title>jPrimitiveType : Void</title>
<polygon fill="none" stroke="green" points="70.1916,-0.5 70.1916,-46.5 206.192,-46.5 206.192,-0.5 70.1916,-0.5"/>
<text text-anchor="middle" x="138.192" y="-31.3" font-family="Times New Roman,serif" font-size="14.00">jPrimitiveType : Void</text>
<polyline fill="none" stroke="green" points="70.1916,-23.5 206.192,-23.5 "/>
<text text-anchor="middle" x="138.192" y="-8.3" font-family="Times New Roman,serif" font-size="14.00"> </text>
</g>
<!-- jMethod : ClassMethod&#45;&gt;jPrimitiveType : Void -->
<g id="edge3" class="edge"><title>jMethod : ClassMethod&#45;&gt;jPrimitiveType : Void</title>
<path fill="none" stroke="green" d="M138.192,-95.4603C138.192,-83.9622 138.192,-69.6748 138.192,-56.9402"/>
<polygon fill="green" stroke="green" points="141.692,-56.7038 138.192,-46.7038 134.692,-56.7038 141.692,-56.7038"/>
<text text-anchor="middle" x="171.192" y="-68.2" font-family="Times New Roman,serif" font-size="11.00">typeReference</text>
</g>
</g>
</svg>
