<?xml version="1.0" encoding="UTF-8" standalone="no"?>
<!DOCTYPE svg PUBLIC "-//W3C//DTD SVG 1.1//EN"
 "http://www.w3.org/Graphics/SVG/1.1/DTD/svg11.dtd">
<!-- Generated by graphviz version 2.38.0 (20140413.2041)
 -->
<!-- Title: ReturnPrimitiveDouble Pages: 1 -->
<svg width="946pt" height="340pt"
 viewBox="0.00 0.00 946.00 340.00" xmlns="http://www.w3.org/2000/svg" xmlns:xlink="http://www.w3.org/1999/xlink">
<g id="graph0" class="graph" transform="scale(1 1) rotate(0) translate(4 336)">
<title>ReturnPrimitiveDouble</title>
<polygon fill="white" stroke="none" points="-4,4 -4,-336 942,-336 942,4 -4,4"/>
<!-- jMethodToTMethoddefinition : ClassMethodToTMethodDefinition -->
<g id="node1" class="node"><title>jMethodToTMethoddefinition : ClassMethodToTMethodDefinition</title>
<polygon fill="none" stroke="black" points="646.383,-213.5 499.192,-231.5 204.808,-231.5 57.6167,-213.5 204.808,-195.5 499.192,-195.5 646.383,-213.5"/>
<text text-anchor="middle" x="352" y="-209.8" font-family="Times New Roman,serif" font-size="14.00">jMethodToTMethoddefinition : ClassMethodToTMethodDefinition</text>
</g>
<!-- jMethod : ClassMethod -->
<g id="node3" class="node"><title>jMethod : ClassMethod</title>
<polygon fill="none" stroke="black" points="0,-95.5 0,-141.5 148,-141.5 148,-95.5 0,-95.5"/>
<text text-anchor="middle" x="74" y="-126.3" font-family="Times New Roman,serif" font-size="14.00">jMethod : ClassMethod</text>
<polyline fill="none" stroke="black" points="0,-118.5 148,-118.5 "/>
<text text-anchor="middle" x="74" y="-103.3" font-family="Times New Roman,serif" font-size="14.00"> </text>
</g>
<!-- jMethodToTMethoddefinition : ClassMethodToTMethodDefinition&#45;&gt;jMethod : ClassMethod -->
<g id="edge1" class="edge"><title>jMethodToTMethoddefinition : ClassMethodToTMethodDefinition&#45;&gt;jMethod : ClassMethod</title>
<path fill="none" stroke="black" d="M301.011,-195.442C258.629,-181.265 197.705,-160.883 149.639,-144.804"/>
<polygon fill="black" stroke="black" points="150.492,-141.399 139.899,-141.545 148.272,-148.037 150.492,-141.399"/>
<text text-anchor="middle" x="245" y="-163.2" font-family="Times New Roman,serif" font-size="11.00">source</text>
</g>
<!-- tMethoddefinition : TMethodDefinition -->
<g id="node6" class="node"><title>tMethoddefinition : TMethodDefinition</title>
<polygon fill="none" stroke="black" points="646.5,-95.5 646.5,-141.5 879.5,-141.5 879.5,-95.5 646.5,-95.5"/>
<text text-anchor="middle" x="763" y="-126.3" font-family="Times New Roman,serif" font-size="14.00">tMethoddefinition : TMethodDefinition</text>
<polyline fill="none" stroke="black" points="646.5,-118.5 879.5,-118.5 "/>
<text text-anchor="middle" x="763" y="-103.3" font-family="Times New Roman,serif" font-size="14.00"> </text>
</g>
<!-- jMethodToTMethoddefinition : ClassMethodToTMethodDefinition&#45;&gt;tMethoddefinition : TMethodDefinition -->
<g id="edge4" class="edge"><title>jMethodToTMethoddefinition : ClassMethodToTMethodDefinition&#45;&gt;tMethoddefinition : TMethodDefinition</title>
<path fill="none" stroke="black" d="M427.384,-195.442C491.349,-180.969 583.886,-160.03 655.599,-143.802"/>
<polygon fill="black" stroke="black" points="656.593,-147.166 665.574,-141.545 655.048,-140.339 656.593,-147.166"/>
<text text-anchor="middle" x="596" y="-163.2" font-family="Times New Roman,serif" font-size="11.00">target</text>
</g>
<!-- jPrimitiveTypeToTPrimitiveType : DoubleToTClass -->
<g id="node2" class="node"><title>jPrimitiveTypeToTPrimitiveType : DoubleToTClass</title>
<polygon fill="none" stroke="green" points="628.301,-118.5 512.651,-136.5 281.349,-136.5 165.699,-118.5 281.349,-100.5 512.651,-100.5 628.301,-118.5"/>
<text text-anchor="middle" x="397" y="-114.8" font-family="Times New Roman,serif" font-size="14.00">jPrimitiveTypeToTPrimitiveType : DoubleToTClass</text>
</g>
<!-- jPrimitiveType : Double -->
<g id="node4" class="node"><title>jPrimitiveType : Double</title>
<polygon fill="none" stroke="green" points="102.5,-0.5 102.5,-46.5 251.5,-46.5 251.5,-0.5 102.5,-0.5"/>
<text text-anchor="middle" x="177" y="-31.3" font-family="Times New Roman,serif" font-size="14.00">jPrimitiveType : Double</text>
<polyline fill="none" stroke="green" points="102.5,-23.5 251.5,-23.5 "/>
<text text-anchor="middle" x="177" y="-8.3" font-family="Times New Roman,serif" font-size="14.00"> </text>
</g>
<!-- jPrimitiveTypeToTPrimitiveType : DoubleToTClass&#45;&gt;jPrimitiveType : Double -->
<g id="edge2" class="edge"><title>jPrimitiveTypeToTPrimitiveType : DoubleToTClass&#45;&gt;jPrimitiveType : Double</title>
<path fill="none" stroke="green" d="M356.649,-100.442C323.6,-86.4717 276.302,-66.4776 238.533,-50.5115"/>
<polygon fill="green" stroke="green" points="239.724,-47.2152 229.15,-46.5452 236.998,-53.6627 239.724,-47.2152"/>
<text text-anchor="middle" x="316" y="-68.2" font-family="Times New Roman,serif" font-size="11.00">source</text>
</g>
<!-- tPrimitiveType : TClass -->
<g id="node5" class="node"><title>tPrimitiveType : TClass</title>
<polygon fill="none" stroke="black" points="688.5,-0.5 688.5,-46.5 837.5,-46.5 837.5,-0.5 688.5,-0.5"/>
<text text-anchor="middle" x="763" y="-31.3" font-family="Times New Roman,serif" font-size="14.00">tPrimitiveType : TClass</text>
<polyline fill="none" stroke="black" points="688.5,-23.5 837.5,-23.5 "/>
<text text-anchor="middle" x="763" y="-8.3" font-family="Times New Roman,serif" font-size="14.00">tName == &quot;double&quot;</text>
</g>
<!-- jPrimitiveTypeToTPrimitiveType : DoubleToTClass&#45;&gt;tPrimitiveType : TClass -->
<g id="edge3" class="edge"><title>jPrimitiveTypeToTPrimitiveType : DoubleToTClass&#45;&gt;tPrimitiveType : TClass</title>
<path fill="none" stroke="green" d="M464.13,-100.442C524.49,-85.105 613.42,-62.508 678.581,-45.9508"/>
<polygon fill="green" stroke="green" points="679.591,-49.3054 688.421,-43.4504 677.867,-42.521 679.591,-49.3054"/>
<text text-anchor="middle" x="615" y="-68.2" font-family="Times New Roman,serif" font-size="11.00">target</text>
</g>
<!-- jMethod : ClassMethod&#45;&gt;jPrimitiveType : Double -->
<g id="edge5" class="edge"><title>jMethod : ClassMethod&#45;&gt;jPrimitiveType : Double</title>
<path fill="none" stroke="green" d="M98.4096,-95.4603C112.29,-82.9274 129.841,-67.0804 144.834,-53.5428"/>
<polygon fill="green" stroke="green" points="147.332,-56.0032 152.409,-46.7038 142.641,-50.8076 147.332,-56.0032"/>
<text text-anchor="middle" x="165" y="-68.2" font-family="Times New Roman,serif" font-size="11.00">typeReference</text>
</g>
<!-- tMethoddefinition : TMethodDefinition&#45;&gt;tPrimitiveType : TClass -->
<g id="edge8" class="edge"><title>tMethoddefinition : TMethodDefinition&#45;&gt;tPrimitiveType : TClass</title>
<path fill="none" stroke="green" d="M763,-95.4603C763,-83.9622 763,-69.6748 763,-56.9402"/>
<polygon fill="green" stroke="green" points="766.5,-56.7038 763,-46.7038 759.5,-56.7038 766.5,-56.7038"/>
<text text-anchor="middle" x="787.5" y="-68.2" font-family="Times New Roman,serif" font-size="11.00">returnType</text>
</g>
<!-- tClass : TClass -->
<g id="node7" class="node"><title>tClass : TClass</title>
<polygon fill="none" stroke="black" points="762.5,-190.5 762.5,-236.5 863.5,-236.5 863.5,-190.5 762.5,-190.5"/>
<text text-anchor="middle" x="813" y="-221.3" font-family="Times New Roman,serif" font-size="14.00">tClass : TClass</text>
<polyline fill="none" stroke="black" points="762.5,-213.5 863.5,-213.5 "/>
<text text-anchor="middle" x="813" y="-198.3" font-family="Times New Roman,serif" font-size="14.00"> </text>
</g>
<!-- tClass : TClass&#45;&gt;tMethoddefinition : TMethodDefinition -->
<g id="edge7" class="edge"><title>tClass : TClass&#45;&gt;tMethoddefinition : TMethodDefinition</title>
<path fill="none" stroke="black" d="M801.151,-190.46C794.783,-178.617 786.825,-163.815 779.827,-150.798"/>
<polygon fill="black" stroke="black" points="782.756,-148.854 774.938,-141.704 776.59,-152.169 782.756,-148.854"/>
<text text-anchor="middle" x="807" y="-163.2" font-family="Times New Roman,serif" font-size="11.00">defines</text>
</g>
<!-- pg : TypeGraph -->
<g id="node8" class="node"><title>pg : TypeGraph</title>
<polygon fill="none" stroke="black" points="819,-285.5 819,-331.5 925,-331.5 925,-285.5 819,-285.5"/>
<text text-anchor="middle" x="872" y="-316.3" font-family="Times New Roman,serif" font-size="14.00">pg : TypeGraph</text>
<polyline fill="none" stroke="black" points="819,-308.5 925,-308.5 "/>
<text text-anchor="middle" x="872" y="-293.3" font-family="Times New Roman,serif" font-size="14.00"> </text>
</g>
<!-- pg : TypeGraph&#45;&gt;tPrimitiveType : TClass -->
<g id="edge9" class="edge"><title>pg : TypeGraph&#45;&gt;tPrimitiveType : TClass</title>
<path fill="none" stroke="black" d="M881.521,-285.472C897.552,-244.718 924.85,-156.139 889,-95 877.84,-75.9674 859.459,-61.6883 840.142,-51.144"/>
<polygon fill="black" stroke="black" points="841.716,-48.0183 831.223,-46.5584 838.516,-54.2437 841.716,-48.0183"/>
<text text-anchor="middle" x="922" y="-163.2" font-family="Times New Roman,serif" font-size="11.00">classes</text>
</g>
<!-- pg : TypeGraph&#45;&gt;tClass : TClass -->
<g id="edge6" class="edge"><title>pg : TypeGraph&#45;&gt;tClass : TClass</title>
<path fill="none" stroke="black" d="M858.018,-285.46C850.432,-273.502 840.931,-258.527 832.616,-245.42"/>
<polygon fill="black" stroke="black" points="835.399,-243.273 827.086,-236.704 829.488,-247.023 835.399,-243.273"/>
<text text-anchor="middle" x="863" y="-258.2" font-family="Times New Roman,serif" font-size="11.00">classes</text>
</g>
</g>
</svg>
